<?xml version="1.0" encoding="UTF-8"?>
<svg id="Capa_2" data-name="Capa 2" xmlns="http://www.w3.org/2000/svg" viewBox="0 0 137.94 134.73">
  <defs>
    <style>
      .cls-1 {
        fill: #000;
        font-family: MyriadPro-Regular, 'Myriad Pro';
        font-size: 30.03px;
      }

      .cls-2 {
        letter-spacing: -.14em;
      }

      .cls-3 {
        fill: #fff;
      }

      .cls-3, .cls-4, .cls-5, .cls-6 {
        stroke-width: 0px;
      }

      .cls-4 {
        fill: #b3732c;
      }

      .cls-5 {
        fill: #796131;
      }

      .cls-6 {
        fill: #70131b;
      }
    </style>
  </defs>
  <g id="Capa_1-2" data-name="Capa 1">
    <g>
      <g>
        <ellipse class="cls-3" cx="68.97" cy="67.37" rx="68.97" ry="67.37"/>
        <g>
          <path class="cls-5" d="M44.94,118.69s-1.86-3.06-5.45-6.53c-3.59-3.46-12.5-15.89-12.19-37.79.32-21.91,10.37-38.97,29.39-52.12,0,0,6.88-3.28,14.9-3.45,8.02-.17,15.78-.58,18.26.26,2.48.84,17.74,13.67,20.81,30.53,3.07,16.87-5.25,43.81-29.62,57-11.24,6.09-19.62,7.12-25.57,8.63-6.95,1.77-10.52,3.47-10.52,3.47Z"/>
          <path class="cls-6" d="M65.41,71.18c3.14,1.9,6.86,2.53,10.43,3.14,3.92.67,7.89,1.05,11.86,1.14,3.68.08,7.38-.17,11.01-.76,1.6-.26,3.16-.65,4.67-1.23,1.7-.65,2.89-1.86,4.45-2.73.13-.07.04-.24-.1-.2-1.49.51-2.72,1.52-4.17,2.13-1.58.67-3.31,1.01-5,1.28-3.57.58-7.2.74-10.81.68-3.58-.06-7.15-.41-10.69-.95-3.77-.57-7.88-1.2-11.22-3.13-.03-.01-.05-.02-.08-.03.28-.48.56-.95.84-1.43,2.28-3.91,4.41-7.89,6.45-11.92,2.4,1.46,5.35,1.51,8.06,1.95,3.53.57,7.18.58,10.73.3,3.66-.29,7.31-.84,10.9-1.6,2.73-.58,5.26-1.57,7.15-3.69.06-.07-.04-.17-.12-.13-1.18.55-2.17,1.42-3.37,1.97-1.37.62-2.85.95-4.32,1.24-3.05.6-6.12,1.07-9.21,1.36-3.32.31-6.67.32-9.99,0-3.04-.3-6.83-.48-9.5-2.06,1.78-3.53,3.49-7.09,5.17-10.67.33-.71.65-1.43.98-2.14,1.7.94,3.8.41,5.66.43,2.34.03,4.66-.03,6.99-.35,4.46-.62,9.28-2.47,11.72-6.49.08-.12-.09-.29-.2-.18-3.13,3.24-6.81,5.02-11.24,5.78-2.08.35-4.21.43-6.32.42-1.94-.01-4.51.59-6.29-.32,1.52-3.3,3.01-6.62,4.45-9.96.58-1.36,1.18-2.7,1.77-4.06.39.08.94-.08,1.29-.1.75-.05,1.45-.2,2.16-.46,1.77-.64,4.05-1.81,4.93-3.57.09-.19-.11-.43-.29-.26-1.69,1.5-3.45,2.72-5.65,3.33-.44.12-1.38.05-2.06.19.18-.41.36-.83.54-1.24.87-2.06,1.71-4.19,3.09-5.95.08-.1-.07-.24-.17-.15-1.27,1.16-2.01,2.7-2.74,4.23-.97,2.03-1.87,4.09-2.81,6.13-.29.62-.57,1.24-.86,1.87-.24-.48-.57-1.92-.69-2.22-.47-1.22-.95-2.43-1.33-3.68-.69-2.29-.49-4.65-.94-6.97-.03-.15-.23-.12-.25.02-.53,2.65-.12,5.54.7,8.08.37,1.15.83,2.27,1.26,3.39.24.64.48,1.29.72,1.93.07.19.09.19.09.15.02.04.04.08.07.11-1.54,3.35-3.08,6.7-4.64,10.04-.57,1.22-1.14,2.43-1.72,3.64-.36-1.43-1.7-2.75-2.53-3.86-1.79-2.39-2.9-5.64-3.97-8.4-.98-2.5-1.62-5.07-2.16-7.7-.21-1.03-.38-2.06-.51-3.1-.1-.76-.36-2.32.22-2.97.08-.09-.07-.2-.15-.14-1.12.77-.71,2.84-.6,3.96.23,2.33.76,4.72,1.38,6.96.93,3.34,2.34,6.53,3.86,9.63.52,1.05,1.05,1.97,1.75,2.9.7.93,1.92,2.11,2.03,3.31.01.16.13.26.27.29-2.41,5.02-4.91,9.99-7.58,14.87-.68-.61-1.3-1.64-1.85-2.31-1.11-1.37-2.02-2.93-2.95-4.43-1.77-2.85-3.29-5.84-4.69-8.89-1.46-3.19-2.84-6.48-3.84-9.85-.49-1.65-.84-3.34-1.08-5.05-.28-1.93-.07-3.89-.36-5.81-.02-.15-.24-.12-.26.02-.93,7.43,1.77,14.41,4.74,21.08,1.52,3.41,3.28,6.7,5.28,9.85.88,1.4,1.77,2.78,2.82,4.05.53.64,1.11,1.52,1.78,2.06-.95,1.72-1.92,3.44-2.91,5.14-1.09,1.87-2.2,3.73-3.3,5.6-.51-.62-1.26-1.15-1.81-1.65-1.48-1.32-2.85-2.73-4.18-4.2-2.41-2.66-4.58-5.53-6.52-8.55-1.89-2.94-3.44-6.07-4.85-9.26-.86-1.95-1.6-3.95-2.24-5.98-.56-1.78-1.22-3.68-.89-5.56.02-.1-.13-.15-.18-.06-.65,1.09-.42,2.29-.16,3.47.39,1.76.89,3.48,1.48,5.18,1.3,3.72,2.98,7.33,4.93,10.74,1.82,3.18,3.97,6.16,6.31,8.98,1.16,1.4,2.39,2.73,3.66,4.03.55.56,1.11,1.09,1.7,1.61.57.51,1.59,1.16,2.11,1.85-.02.12.02.25.09.35-2.45,4.14-4.89,8.3-7.15,12.54-.05-.06-.11-.11-.18-.14-.43-.18-.92-.76-1.3-1.05-.59-.45-1.21-.87-1.82-1.29-1.47-1.02-2.84-2.09-4.13-3.33-2.4-2.31-4.37-5.02-6.12-7.84-1.6-2.57-2.99-5.27-4.26-8.02-.71-1.53-1.39-3.07-1.99-4.65-.61-1.6-1.59-4.02-1.11-5.75.04-.13-.13-.18-.19-.07-1.26,2.52.75,6.37,1.73,8.72,1.46,3.48,3.14,6.88,5.07,10.12,1.74,2.92,3.8,5.64,6.19,8.05,1.18,1.19,2.47,2.22,3.84,3.17.76.53,1.53,1.05,2.28,1.6.38.28.78.76,1.23,1.01.05.17.19.25.34.25-.63,1.18-1.24,2.37-1.84,3.57-1.71,3.45-3.24,7.01-4.59,10.62,0,0,0,0-.01,0-.84-.14-1.67-1.05-2.28-1.58-.91-.79-1.82-1.59-2.69-2.42-2-1.89-3.68-4.1-5.16-6.42-1.35-2.12-2.45-4.39-3.59-6.63-1.3-2.55-2.48-5.18-2.56-8.09,0-.1-.16-.15-.19-.04-.63,2.44.47,4.94,1.46,7.13,1.31,2.88,2.76,5.73,4.43,8.42,1.59,2.56,3.49,4.9,5.72,6.93,1.21,1.11,2.86,3.13,4.57,3.53-.1.28-.21.56-.31.85-.67,1.89-1.14,3.82-1.42,5.8-.3,2.18-.79,4.4-.88,6.59,0,.15.06.34.2.41.03.02.06.03.1.05.48.25.95-.35.64-.68.09.03.11-.09.07-.39.08-.55.13-1.11.21-1.67.15-1.02.34-2.04.49-3.06.12-.82.26-1.63.41-2.43,1.96.45,4.08.46,6.07.61,2.83.22,5.41.06,8.14-.91.09-.03.05-.18-.04-.18-1.69-.07-3.34.47-5.03.56-.89.04-1.82-.11-2.71-.18-2.06-.17-4.27-.14-6.29-.62.26-1.21.56-2.4.97-3.59.86-2.51,1.86-4.99,2.95-7.43,5.54,2.47,11.59,3.37,17.6,3.83,2.75.21,5.51.22,8.27.24,2.4.02,4.62-.16,6.84-1.09.08-.03.04-.17-.05-.15-2.32.64-4.85.57-7.24.52-2.6-.05-5.18-.11-7.77-.31-5.95-.46-11.81-1.44-17.32-3.77.63-1.39,1.28-2.78,1.95-4.15,1.65-3.37,3.45-6.66,5.31-9.92,7.13,2.89,14.49,5.01,22.15,5.88,6.3.71,14.01,1.61,19.59-2.1.07-.05,0-.15-.08-.12-6.26,2.85-13.41,2.15-20.06,1.35-7.36-.88-14.31-3.06-21.19-5.73,2.13-3.7,4.34-7.36,6.5-11.04,0,0,.01.01.02.02Z"/>
          <path class="cls-4" d="M83.79,28.8c-.02-.12-.2-.19-.28-.1-.37.4-.31.95-.44,1.44-.09.34.38.63.58.29.28-.48.23-1.11.14-1.63Z"/>
          <path class="cls-4" d="M82.99,28.38c-.11-.5-.2-1.15-.51-1.58-.09-.12-.26-.06-.31.06-.19.5-.07,1.28.2,1.73.18.31.71.17.62-.21Z"/>
          <path class="cls-4" d="M85.22,26.53c-.05-.11-.23-.13-.29-.02-.21.35-.27.78-.43,1.15-.14.32.33.63.57.38.4-.42.37-1,.16-1.51Z"/>
          <path class="cls-4" d="M83.86,26.68c.02-.25-.01-.5-.05-.75-.04-.25-.05-.52-.16-.75-.06-.13-.26-.15-.34-.02-.27.39-.28,1.14-.13,1.57.05.14.15.27.32.27.03,0,.06,0,.09,0,.15-.05.26-.15.27-.31Z"/>
          <path class="cls-4" d="M86.3,24.35c.03-.22-.32-.35-.43-.15-.15.27-.28.54-.39.83-.05.13-.1.25-.15.38-.06.11-.07.25-.1.34-.07.19.14.37.32.28.16-.07.23-.09.35-.23.1-.12.16-.29.22-.44.13-.32.14-.67.18-1.01Z"/>
          <path class="cls-4" d="M82.52,24.55c-.02-.32,0-.69-.09-1-.05-.14-.2-.21-.32-.11-.36.27-.42.84-.29,1.25.15.45.74.32.71-.14Z"/>
          <path class="cls-4" d="M84.82,24.18c.02-.4-.03-.88-.21-1.24-.05-.1-.18-.1-.24-.02-.28.39-.37.95-.19,1.39.13.32.63.2.64-.13Z"/>
          <path class="cls-4" d="M87.09,21.77c-.03-.12-.16-.16-.26-.09-.25.19-.36.53-.49.81-.12.26-.32.55-.27.84.02.11.11.18.22.19.71.06.93-1.26.79-1.76Z"/>
          <path class="cls-4" d="M83.44,21.43c-.03-.1-.14-.15-.23-.08-.37.31-.69,1.19-.42,1.62.1.15.3.23.45.09.37-.34.31-1.18.2-1.64Z"/>
          <path class="cls-4" d="M82.33,21.07c-.05-.41-.19-.81-.09-1.23.09-.36-.42-.55-.56-.19-.21.54-.27,1.11-.01,1.64.07.14.23.22.38.19.03,0,.06-.02.08-.03.15-.07.21-.23.19-.38Z"/>
          <path class="cls-4" d="M85.68,20.01c-.03-.13-.2-.2-.31-.1-.3.29-.61.95-.49,1.36.07.24.35.36.55.19.37-.3.33-1.01.24-1.45Z"/>
          <path class="cls-4" d="M88.22,20.93c.08-.32.18-.71.08-1.03-.03-.12-.16-.16-.25-.09-.25.18-.38.49-.51.75-.17.34-.26.67-.19,1.04.04.19.27.27.42.14.26-.23.37-.49.46-.82Z"/>
          <path class="cls-4" d="M76.62,43.26c-.06-.13-.22-.1-.27.02-.25.55-.14,1.29-.11,1.88,0,.16.08.34.26.39.03,0,.07.02.1.02.15.01.35-.09.39-.26.14-.66-.07-1.44-.36-2.04Z"/>
          <path class="cls-4" d="M75.55,43.02c-.11-.4-.2-.87-.43-1.23-.09-.14-.32-.16-.38.02-.12.38-.06,2.23.65,2.04.4-.1.23-.57.15-.84Z"/>
          <path class="cls-4" d="M78.23,41.77c-.07-.08-.17-.04-.21.04-.17.37-.16.87-.21,1.27-.01.12.05.24.15.31.06.04.11.06.17.06.16,0,.29-.08.35-.23.18-.47.08-1.06-.25-1.44Z"/>
          <path class="cls-4" d="M76.93,41.41c-.06-.44-.12-.96-.29-1.37-.06-.14-.28-.16-.36-.03-.3.49-.23,1.22.08,1.68.2.3.61.01.57-.28Z"/>
          <path class="cls-4" d="M79.17,38.93c-.01-.17-.26-.16-.31-.02-.06.18-.15.33-.18.51-.03.17-.06.34-.09.51-.04.23-.16.77.23.79.77.05.39-1.42.35-1.79Z"/>
          <path class="cls-4" d="M74,40.74c-.07-.25-.18-.49-.24-.74-.07-.27-.1-.56-.22-.81-.07-.17-.3-.16-.4-.03-.38.51-.2,1.46.22,1.89.24.24.74.07.64-.31Z"/>
          <path class="cls-4" d="M74.82,38.24c-.11-.34-.23-.67-.46-.95-.12-.15-.37-.06-.38.13-.03.37.03.73.12,1.08.08.31.18.86.55.93.12.02.2,0,.28-.09.24-.28,0-.79-.1-1.1Z"/>
          <path class="cls-4" d="M77.62,38.39c0-.55-.24-1.07-.65-1.44-.11-.1-.36-.08-.35.12.02.5.09,1,.26,1.47.13.37.74.23.74-.15Z"/>
          <path class="cls-4" d="M80.63,37.4c.06-.42-.04-.92-.36-1.21-.08-.07-.22-.07-.26.05-.09.33-.13.66-.18.99-.05.31-.25.74-.08,1.03.06.1.15.14.26.13.43-.04.57-.64.61-.99Z"/>
          <path class="cls-4" d="M78.98,36.51c-.05-.47-.04-1.04-.28-1.45-.09-.16-.35-.17-.41.03-.16.52-.19,1.15.01,1.66.16.42.72.15.69-.23Z"/>
          <path class="cls-4" d="M81.53,33.59c-.07-.1-.27-.1-.26.05,0,.58-.15,1.17-.17,1.76-.01.45.55.51.73.14.29-.6.03-1.43-.3-1.96Z"/>
          <path class="cls-4" d="M80.06,34.14c.01-.27-.05-.55-.16-.8-.06-.14-.11-.28-.15-.42-.06-.16-.15-.27-.26-.4-.09-.11-.26-.04-.27.09-.02.3.04.56.05.86.01.28.05.54.14.81.12.34.65.2.66-.13Z"/>
          <path class="cls-4" d="M81.62,31.33c-.1-.2-.21-.38-.33-.57-.08-.13-.27-.25-.33-.32-.06-.07-.18-.03-.19.06,0,.12-.06.22-.05.36.02.21.09.41.15.61.1.34.13.87.37,1.14.14.15.35.12.47-.03.27-.33.06-.92-.1-1.26Z"/>
          <path class="cls-4" d="M72.77,37.33c.02-.2-.09-.34-.19-.51-.11-.19-.21-.38-.3-.58-.18-.38-.36-.76-.63-1.09-.09-.11-.28-.04-.29.1-.04.49.07.96.24,1.42.15.39.51,1.09,1.03.86.08-.03.13-.12.14-.2Z"/>
          <path class="cls-4" d="M75.85,35.64c-.08-.28-.16-.56-.25-.84-.1-.31-.58-.32-.6.04-.02.49-.07,1.48.53,1.66.16.05.31-.03.38-.18.1-.23,0-.45-.06-.67Z"/>
          <path class="cls-4" d="M77.79,33.81c.08-.68-.17-1.31-.53-1.87-.12-.2-.5-.12-.42.14.18.57.12,1.19.27,1.77.1.38.63.34.68-.05Z"/>
          <path class="cls-4" d="M73.69,34.85c-.28-.4-.51-.86-.82-1.23-.11-.14-.31-.04-.34.11-.09.59.22,1.28.69,1.63.34.25.67-.21.46-.51Z"/>
          <path class="cls-4" d="M75.08,31.45c-.08-.11-.28-.04-.28.09-.02.55-.07,1.14.18,1.66.05.11.17.19.29.19.82.02.03-1.64-.19-1.94Z"/>
          <path class="cls-4" d="M79.43,31.42c.02-.61-.16-1.69-.74-2.02-.08-.05-.22,0-.22.11,0,.34.09.67.09,1.01,0,.36.02.71.15,1.05.14.36.7.22.71-.14Z"/>
          <path class="cls-4" d="M71.22,33.11c-.05-.3-.31-.57-.46-.84-.18-.31-.34-.63-.51-.95-.06-.12-.22-.07-.24.05-.08.42,0,.8.14,1.2.13.36.45.91.9.8.12-.03.19-.14.17-.26Z"/>
          <path class="cls-4" d="M72.82,30.3c-.1-.09-.27,0-.27.13,0,.51-.04,1.32.38,1.69.08.08.21.15.33.11.71-.24-.09-1.65-.43-1.94Z"/>
          <path class="cls-4" d="M77.11,30.65c-.09-.46-.35-.85-.46-1.29-.08-.28-.55-.29-.54.04.02.57.03,1.06.39,1.55.22.3.68.03.62-.3Z"/>
          <path class="cls-4" d="M80.46,29.07c.04-.36-.06-.73-.2-1.05-.15-.36-.31-.59-.66-.75-.17-.08-.28.13-.23.26.03.08.03.21.06.3.05.14.08.28.11.43.05.32.11.65.24.94.15.35.64.2.69-.14Z"/>
          <path class="cls-4" d="M71.36,30.12c-.32-.38-.64-.89-.85-1.38-.08-.2-.38-.12-.4.08-.03.38.03.74.21,1.08.1.19.23.35.4.48.17.13.32.12.52.11.17-.02.22-.25.12-.36Z"/>
          <path class="cls-4" d="M74.92,29.46c-.09-.49-.45-1.14-.96-1.28-.13-.04-.26.07-.24.21.05.24.15.46.22.69.07.25.18.49.35.69.24.29.7.04.63-.31Z"/>
          <path class="cls-4" d="M78.13,27.96c-.12-.11-.23-.42-.31-.59-.12-.26-.23-.49-.39-.73-.11-.16-.35-.04-.36.12-.04.37-.06.71.04,1.08.1.37.34.84.78.8.39-.03.53-.43.24-.69Z"/>
          <path class="cls-4" d="M79.7,26.52c-.02-.3-.09-.56-.17-.84-.08-.28-.24-.58-.25-.87,0-.2-.3-.29-.37-.07-.1.3-.18.58-.15.91.03.35.15.69.29,1.01.13.29.66.22.64-.13Z"/>
          <path class="cls-4" d="M75.96,27.84c-.03-.65-.37-1.3-.69-1.86-.06-.11-.22-.11-.27.02-.24.61.02,1.41.29,1.97.05.1.17.2.29.2.06,0,.11-.01.17-.04.1-.04.2-.18.2-.29Z"/>
          <path class="cls-4" d="M72.34,28.77c.02-.63-.33-1.32-.71-1.82-.11-.14-.3-.03-.32.11-.11.57.21,1.22.38,1.75.04.14.14.26.3.26.03,0,.06,0,.08,0,.14-.02.26-.16.26-.3Z"/>
          <path class="cls-4" d="M69.34,27.52c-.2-.5-.3-1-.42-1.52-.02-.1-.19-.16-.25-.05-.29.58-.23,1.39.16,1.91.22.29.63-.03.51-.33Z"/>
          <path class="cls-4" d="M70.36,25.52c-.15-.41-.15-.89-.35-1.29-.08-.16-.36-.17-.4.03-.12.52-.26,1.44.38,1.68.27.1.45-.18.37-.41Z"/>
          <path class="cls-4" d="M73.61,25.65c-.18-.38-.27-.79-.41-1.19-.04-.12-.23-.12-.29-.02-.23.36-.2.77-.11,1.17.07.33.36,1.01.79.94.48-.07.14-.66.03-.9Z"/>
          <path class="cls-4" d="M77.38,25.37c-.08-.22-.22-.42-.31-.64-.08-.2-.12-.42-.23-.61-.06-.11-.21-.13-.29-.02-.36.47-.16,1.4.31,1.72.32.22.64-.13.52-.45Z"/>
          <path class="cls-4" d="M78.54,21.84c-.08-.19-.33-.1-.35.07-.07.41-.11.81-.17,1.22-.04.31,0,.62.38.58.12-.01.22-.12.26-.23.21-.56.12-1.12-.11-1.65Z"/>
          <path class="cls-4" d="M74.91,24.73c-.02-.31-.17-.62-.24-.92-.08-.34-.12-.68-.21-1.02-.03-.11-.2-.17-.26-.05-.32.6-.36,1.86.22,2.32.24.2.51-.08.49-.32Z"/>
          <path class="cls-4" d="M71.05,22.38c-.05-.09-.18-.1-.24-.02-.19.27-.22.7-.21,1.02.01.25.01.74.36.76.57.04.21-1.49.08-1.76Z"/>
          <path class="cls-4" d="M68.77,22.41c-.06-.29-.12-.71-.07-1,.02-.13-.19-.21-.26-.09-.2.39-.36.68-.37,1.14,0,.38.15,1.03.62,1.04.09,0,.21-.05.23-.15.07-.3-.1-.64-.16-.93Z"/>
          <path class="cls-4" d="M73.04,21.98c.05-.42.08-.87-.01-1.29-.03-.12-.2-.17-.27-.06-.23.37-.31.78-.41,1.2-.08.33-.16.84.1,1.1.09.09.23.11.32.02.27-.24.23-.65.27-.99Z"/>
          <path class="cls-4" d="M70.58,21.55c.02-.26.02-.52.05-.78.03-.25.01-.48.02-.73,0-.14-.17-.2-.26-.09-.18.24-.32.4-.41.69-.1.3-.12.66-.02.96.11.32.6.34.63-.04Z"/>
          <path class="cls-4" d="M76.41,21.83c-.04-.33,0-.71-.2-1-.04-.06-.14-.06-.19-.01-.31.27-.34.79-.36,1.17-.02.43.05.96.5,1.1.11.04.22-.02.26-.13.16-.35.03-.75-.01-1.13Z"/>
          <path class="cls-4" d="M79.24,20.35c-.1-.1-.34-.07-.33.11.02.31-.06.61-.11.91-.01.1.05.23.14.28.05.03.1.05.16.06.14.02.27-.09.32-.22.15-.39.12-.84-.19-1.15Z"/>
          <path class="cls-4" d="M68.66,60.49c-.1-.4-.17-.78-.39-1.13-.09-.14-.28-.1-.31.06-.06.41-.07.8-.04,1.22.03.37.06.88.47,1.02.12.04.27,0,.34-.11.21-.31.02-.72-.07-1.05Z"/>
          <path class="cls-4" d="M67.12,59.06c-.06-.2-.14-.38-.23-.56-.1-.2-.15-.42-.27-.61-.07-.11-.2-.13-.28-.02-.32.42-.08,1.1.19,1.48.07.09.22.14.32.11.06-.02.11-.04.15-.08.09-.07.14-.21.11-.32Z"/>
          <path class="cls-4" d="M69.63,57.71c-.12-.14-.31-.08-.38.07-.09.19-.08.42-.07.63.02.27-.02.54-.01.81.01.45.56.54.74.15.23-.48.06-1.27-.28-1.66Z"/>
          <path class="cls-4" d="M68.57,57.33c-.2-.58-.38-1.22-.71-1.74-.09-.13-.27-.1-.29.06-.11.69-.01,1.49.44,2.05.07.09.22.15.33.11.06-.02.11-.03.16-.08.12-.11.14-.26.08-.41Z"/>
          <path class="cls-4" d="M70.92,57.24c-.03-.52-.11-1.07-.35-1.54-.07-.14-.32-.15-.36.02-.12.51-.14,1.05-.05,1.57.07.42.78.39.76-.05Z"/>
          <path class="cls-4" d="M65.95,56.32c-.2-.42-.47-.82-.69-1.24-.13-.24-.44-.15-.48.1-.09.55.24,1.13.6,1.52.27.29.75-.02.58-.38Z"/>
          <path class="cls-4" d="M69.02,53.69c-.06-.27-.47-.32-.55-.04-.11.38-.27,1.59.35,1.62.64.04.27-1.28.2-1.59Z"/>
          <path class="cls-4" d="M66.82,54.41c-.07-.26-.17-.5-.28-.75-.09-.21-.16-.51-.36-.65-.05-.04-.13-.05-.19-.01-.56.33-.08,1.35.2,1.72.22.29.72.04.63-.31Z"/>
          <path class="cls-4" d="M71.76,52.78c-.08-.11-.29-.07-.32.06-.12.45-.07.91-.13,1.37-.04.28-.31.92.11,1.03.11.03.25.02.34-.07.59-.61.52-1.75,0-2.4Z"/>
          <path class="cls-4" d="M70.54,52.73c-.16-.51-.45-.95-.89-1.25-.13-.09-.32.03-.28.19.11.49.29.95.58,1.36.07.1.21.13.32.11.06-.01.11-.03.15-.08.08-.07.15-.21.11-.33Z"/>
          <path class="cls-4" d="M73.36,50.87c-.08-.13-.29-.15-.34.02-.1.32-.09.65-.11.97-.01.26-.05.79.33.81.75.05.33-1.49.13-1.81Z"/>
          <path class="cls-4" d="M63.95,53.74c.01-.21-.09-.3-.2-.46-.11-.15-.21-.3-.3-.46-.18-.3-.35-.71-.37-1.06,0-.15-.19-.23-.28-.1-.31.43-.2.93-.03,1.4.14.39.57,1.09,1.06.88.08-.03.13-.12.13-.2Z"/>
          <path class="cls-4" d="M67.26,50.81c-.1-.07-.27.02-.23.15.12.45-.02.99.38,1.32.18.15.46.02.54-.18.19-.52-.3-1.03-.68-1.3Z"/>
          <path class="cls-4" d="M71.32,50.03c-.2-.31-.48-.65-.85-.76-.12-.04-.25.06-.22.2.08.35.69,1.96,1.24,1.49.3-.26-.02-.68-.17-.92Z"/>
          <path class="cls-4" d="M74.49,48.85c-.14-.4-.35-.67-.61-.98-.1-.12-.29-.02-.26.13.06.3.07.62.12.93.05.31,0,.69.13.97.09.19.36.25.52.11.32-.28.22-.79.1-1.14Z"/>
          <path class="cls-4" d="M72.59,49.04c-.12-.44-.42-.94-.85-1.14-.12-.05-.21.07-.2.18.04.46.2.98.56,1.29.21.18.56-.07.49-.33Z"/>
          <path class="cls-4" d="M75.76,47.69c-.03-.21-.17-.41-.31-.57-.13-.15-.3-.28-.45-.41-.07-.06-.14-.11-.21-.16-.04-.03-.14-.12-.1-.06-.07-.1-.23-.06-.21.07.01.08,0,.23,0,.33.02.15.14.32.22.45.09.15.17.3.26.45.04.07.06.14.09.21.05.11.11.15.17.24.1.13.33.11.41-.02.12-.2.16-.3.12-.54Z"/>
          <path class="cls-4" d="M65.22,50.89c-.17-.26-.33-.5-.51-.75-.09-.13-.33-.05-.32.11,0,.33.09.63.25.93.14.26.32.63.63.69.15.03.26-.04.29-.19.05-.29-.19-.55-.34-.79Z"/>
          <path class="cls-4" d="M68.68,49c-.16-.34-.41-.62-.67-.89-.1-.11-.29-.05-.3.1-.04.38.06.69.19,1.04.06.16.21.33.3.48.1.17.2.32.4.36.14.03.25-.02.32-.16.15-.31-.11-.66-.24-.94Z"/>
          <path class="cls-4" d="M73.23,46.83c.07-.69-.36-1.62-1.06-1.86-.12-.04-.26.07-.23.2.09.33.24.62.36.94.11.28.11.68.29.92,0,.02.01.04.02.06.07.18.33.17.43.03-.01,0-.02.02-.03.02.12-.04.19-.19.2-.31Z"/>
          <path class="cls-4" d="M70.16,47.84c-.14-.49-.34-1-.73-1.34-.11-.1-.31,0-.31.15,0,.51.07,1.09.45,1.47.22.22.68.06.58-.29Z"/>
          <path class="cls-4" d="M66.29,49.32c-.08-.52-.54-1.37-1.17-1.31-.1,0-.17.13-.15.23.04.19.17.37.26.53.14.25.22.53.37.79.08.14.23.24.4.2.03,0,.06-.02.09-.03.15-.07.23-.24.2-.4Z"/>
          <path class="cls-4" d="M63.24,49.86c-.19-.23-.37-.46-.58-.67-.15-.15-.4-.04-.37.18.06.44.48,1.34,1.02,1.24.07-.01.15-.07.17-.15.06-.27-.08-.4-.24-.6Z"/>
          <path class="cls-4" d="M68.09,46.83c-.17-.41-.34-.86-.66-1.17-.14-.14-.48-.1-.46.16.03.54.13,1.12.6,1.48.31.23.66-.14.53-.46Z"/>
          <path class="cls-4" d="M71.16,45.74c-.16-.54-.49-1.03-.82-1.48-.07-.09-.22-.05-.25.05-.2.58.04,1.28.38,1.77.23.32.81.04.69-.34Z"/>
          <path class="cls-4" d="M71.99,43.24c-.22-.31-.59-.45-.84-.72-.08-.09-.24-.02-.22.1.08.35.2.63.4.94.14.22.39.76.73.59.39-.19.09-.68-.07-.91Z"/>
          <path class="cls-4" d="M61.53,49.29c-.25-.48-.52-.98-.83-1.42-.08-.11-.26-.06-.29.06-.18.6.19,1.38.67,1.75.25.19.59-.12.45-.39Z"/>
          <path class="cls-4" d="M63.32,46.51c-.12-.11-.28-.03-.27.13.03.37.05.67.23,1.01.13.25.43.58.73.43.56-.27-.46-1.37-.69-1.58Z"/>
          <path class="cls-4" d="M65.36,46.06c-.21-.34-.43-.7-.73-.97-.16-.15-.39-.04-.37.18.04.44.52,1.94,1.19,1.61.36-.17.03-.62-.09-.83Z"/>
          <path class="cls-4" d="M68.75,44.09c-.21-.4-.5-.72-.82-1.02-.14-.12-.33-.03-.31.15.04.45.18.83.4,1.23.14.25.41.82.79.63.39-.19.08-.74-.05-.99Z"/>
          <path class="cls-4" d="M65.83,43.47c-.09-.19-.39-.18-.46.03-.16.5.4,1.37.95,1.33.08,0,.15-.08.17-.15.15-.47-.48-.84-.66-1.21Z"/>
          <path class="cls-4" d="M70.06,41.91c-.18-.28-.36-.52-.61-.73-.11-.09-.3,0-.3.14.02.57.3,1.57.94,1.7.11.02.27-.08.29-.19.07-.35-.13-.63-.32-.92Z"/>
          <path class="cls-4" d="M70.41,39.69c-.17-.31-.4-.56-.73-.71-.16-.08-.28.12-.22.26.1.26.22.5.33.76.11.26.21.62.47.76.15.08.28.03.35-.12.14-.31-.06-.67-.21-.94Z"/>
          <path class="cls-4" d="M61.56,46.64c.04-.56-.26-1.2-.5-1.69-.06-.13-.28-.13-.32.02-.13.43-.04.87.05,1.3.06.3.14.85.58.66.11-.05.18-.17.19-.28Z"/>
          <path class="cls-4" d="M59.67,45.13c-.14-.52-.47-1.05-.87-1.4-.13-.11-.37,0-.36.18.03.53.25,1.12.57,1.55.23.3.77.04.67-.33Z"/>
          <path class="cls-4" d="M63.22,43.95c-.12-.41-.31-.78-.71-.97-.18-.09-.3.14-.25.28.09.27.15.57.19.85.04.29-.04.73.11.98.12.2.33.23.52.11.36-.24.25-.9.14-1.25Z"/>
          <path class="cls-4" d="M66.85,42.36c-.07-.32-.22-.61-.38-.89-.15-.29-.31-.59-.53-.83-.14-.15-.39-.07-.4.14-.03.33.08.64.18.95.11.34.26.68.49.95.24.28.71.05.64-.31Z"/>
          <path class="cls-4" d="M68.43,40.01c-.1-.27-.24-.54-.35-.81-.1-.26-.13-.61-.29-.84-.1-.15-.27-.16-.38-.03-.22.26-.15.74-.1,1.04.06.4.21.89.55,1.13.35.24.7-.15.57-.5Z"/>
          <path class="cls-4" d="M69.06,36.82c-.13-.36-.31-.7-.46-1.06-.12-.28-.57-.12-.5.17.08.34.15.69.22,1.03.07.35.11.75.4.99.11.1.26.03.35-.07.25-.29.11-.75,0-1.07Z"/>
          <path class="cls-4" d="M66.01,39.22c-.1-.57-.46-1.18-.95-1.49-.15-.09-.33.03-.31.2.08.51.31,1.07.56,1.52.2.36.77.19.69-.24Z"/>
          <path class="cls-4" d="M64.16,42.04c-.03-.19-.09-.38-.18-.56-.15-.32-.37-.56-.63-.8-.13-.12-.28.05-.27.18.05.55.28,1.17.56,1.64.11.18.36.17.44-.03.07-.16.11-.25.08-.44Z"/>
          <path class="cls-4" d="M60.88,42.67c-.16-.36-.36-.73-.6-1.05-.14-.18-.46-.07-.46.16,0,.37.1.72.24,1.06.14.33.3.71.7.68.42-.03.2-.64.12-.84Z"/>
          <path class="cls-4" d="M58.53,41.57c-.15-.27-.31-.54-.45-.82-.06-.14-.13-.29-.17-.44-.01-.05-.03-.09-.05-.14,0-.01-.01-.02-.02-.03,0,0,0,0,0-.01.04-.1-.06-.23-.17-.2-.87.26-.04,1.71.38,2.04.25.2.62-.13.46-.4Z"/>
          <path class="cls-4" d="M61.01,38.67c-.12-.11-.28-.03-.27.13.04.55.14,1.21.56,1.61.09.08.21.16.34.11.78-.26-.32-1.57-.63-1.86Z"/>
          <path class="cls-4" d="M63.86,38.75c-.09-.28-.26-.53-.43-.77-.08-.12-.15-.23-.24-.34-.04-.05-.15-.19-.16-.17.04-.09-.08-.16-.15-.1-.49.42.05,1.43.44,1.75.23.19.64-.07.55-.36Z"/>
          <path class="cls-4" d="M66.84,36.8c-.09-.59-.48-1.08-.58-1.67-.06-.3-.53-.27-.54.04-.01.63.13,1.32.45,1.86.21.35.73.19.67-.23Z"/>
          <path class="cls-4" d="M66.93,32.99c-.08-.1-.25-.04-.25.08,0,.33.03.61.1.93.08.35.19.72.46.96.13.12.32,0,.38-.13.27-.63-.32-1.38-.69-1.85Z"/>
          <path class="cls-4" d="M59.27,38.51c-.21-.38-.38-.79-.64-1.14-.11-.15-.31-.03-.34.11-.08.43.09.87.25,1.26.15.39.39,1,.84,1.11.16.04.27-.05.3-.2.08-.38-.23-.83-.41-1.15Z"/>
          <path class="cls-4" d="M61.87,36.31c-.1-.41-.24-.88-.55-1.18-.09-.09-.3-.06-.29.1.03.55-.1,1.65.47,1.98.09.05.22.08.32.02.33-.2.12-.63.05-.92Z"/>
          <path class="cls-4" d="M64.78,34.94c-.11-.29-.25-.65-.45-.88-.12-.14-.32-.08-.39.07-.13.3-.03.67.04.97.08.34.15.81.45,1.02.14.1.38.07.46-.09.2-.36.02-.73-.11-1.09Z"/>
          <path class="cls-4" d="M56.85,37.8c-.22-.44-.33-.91-.51-1.36-.05-.11-.2-.08-.24.01-.16.41-.12.84-.02,1.26.08.34.35,1.11.8,1.06.53-.07.08-.74-.03-.97Z"/>
          <path class="cls-4" d="M59.98,35.76c.09-.82-.44-1.46-.92-2.05-.08-.1-.25-.02-.22.11.15.66.26,1.33.43,1.99.11.4.67.36.71-.05Z"/>
          <path class="cls-4" d="M57.21,34.29c-.08-.31-.14-.62-.21-.92-.05-.19-.27-.18-.35-.02-.14.29-.15.65-.09.97.05.28.13.69.4.83.13.07.25.03.32-.11.12-.24,0-.51-.07-.75Z"/>
          <path class="cls-4" d="M62.5,33.93c0-.38-.04-.76-.09-1.14-.02-.19-.03-.38-.03-.56,0-.06,0-.14-.03-.2l-.03-.04c-.05-.04-.05-.04,0-.03,0-.1-.14-.16-.19-.07-.05.08-.16.12-.21.24-.08.19-.13.38-.17.59-.09.44-.08.93.12,1.34.14.29.64.22.63-.13Z"/>
          <path class="cls-4" d="M65.24,31.82c-.11-.44-.18-.9-.14-1.35.03-.43-.58-.45-.65-.04-.08.46-.1.92-.05,1.38.04.35.28,1.09.77.99.52-.1.15-.68.07-.98Z"/>
          <path class="cls-4" d="M67.12,30.88c-.1-.17-.16-.34-.22-.53-.07-.2-.14-.32-.24-.5-.07-.12-.26-.09-.27.05-.01.15-.04.23-.01.38.03.2.07.4.08.61,0,.19,0,.37.04.55.03.21.09.32.17.51.09.2.37.16.45-.03.13-.31.18-.74,0-1.06Z"/>
          <path class="cls-4" d="M55.79,32.55c-.07-.37-.11-.84-.35-1.14-.07-.09-.21-.07-.27.02-.25.39-.32,1.94.42,1.88.35-.03.23-.54.19-.75Z"/>
          <path class="cls-4" d="M58.68,32.25c-.04-.43-.08-1.01-.3-1.39-.05-.08-.17-.13-.25-.05-.26.28-.29.74-.26,1.11.03.35.03,1,.45,1.11.45.12.39-.53.37-.77Z"/>
          <path class="cls-4" d="M60.64,31.05c0-.21-.02-.42-.02-.63,0-.09-.01-.18-.01-.27,0-.04,0-.07,0-.11,0-.03,0-.24-.02-.09.02-.2-.25-.34-.4-.2-.28.27-.31.63-.33,1.01-.02.34-.07,1.05.39,1.11.44.06.39-.57.39-.83Z"/>
          <path class="cls-4" d="M63.3,29.6c-.1-.22-.15-.46-.28-.66-.06-.1-.18-.11-.26-.02-.33.4-.26,1.31.19,1.59.23.14.5,0,.53-.26.03-.24-.09-.44-.18-.65Z"/>
          <path class="cls-4" d="M66.17,27.35c-.06-.46-.25-.83-.67-1.02-.13-.05-.23.1-.18.21.11.25.03.7.03.97-.01.4-.11.83-.04,1.23.08.43.64.41.8.05.19-.43.13-.99.07-1.44Z"/>
          <path class="cls-4" d="M56.84,29.31c-.09-.39-.19-.8-.39-1.14-.07-.12-.24-.09-.26.05-.06.4-.04.82,0,1.22.04.33.07.99.48,1.07.11.02.18,0,.25-.08.24-.28-.02-.81-.09-1.12Z"/>
          <path class="cls-4" d="M59.36,28.63c-.02-.32-.08-.62-.15-.94-.06-.27-.09-.6-.23-.84-.05-.09-.19-.14-.27-.06-.45.46-.34,1.46-.07,1.98.16.3.74.26.72-.14Z"/>
          <path class="cls-4" d="M62.28,28.03c.04-.34-.03-.72-.08-1.06-.04-.32-.06-.71-.23-.99-.04-.07-.14-.11-.21-.04-.25.24-.29.63-.33.97-.05.41-.03.89.15,1.27.17.34.66.22.7-.14Z"/>
          <path class="cls-4" d="M64.1,26.38c-.1-.42-.2-.87-.34-1.28-.03-.1-.17-.1-.23-.05-.32.25-.31.72-.28,1.09.02.34.11,1.12.54,1.21.6.12.4-.66.32-.97Z"/>
          <path class="cls-4" d="M65.52,22.65c-.13-.12-.39-.09-.39.13,0,.39,0,.77-.03,1.16-.04.38-.11.8.07,1.15.07.14.28.2.4.08.54-.54.52-1.99-.05-2.52Z"/>
          <path class="cls-4" d="M55.68,26.36c0-.31.04-.66-.03-.96-.03-.14-.21-.21-.32-.11-.27.25-.33.68-.38,1.03-.06.39-.08.83.07,1.2.14.36.6.17.66-.13.06-.33,0-.69,0-1.03Z"/>
          <path class="cls-4" d="M57.97,26.66c.1-.64.07-1.44-.2-2.02-.06-.11-.21-.09-.26.02-.26.64-.53,1.46-.23,2.14.16.36.64.2.69-.14Z"/>
          <path class="cls-4" d="M60.7,24.39c.06-.44.22-1.03.03-1.44-.03-.06-.1-.08-.16-.05-.41.22-.54.77-.66,1.18-.12.41-.28,1.1.14,1.39.07.05.19.07.27.02.37-.23.34-.69.39-1.09Z"/>
          <path class="cls-4" d="M63.46,23.18c.03-.36.02-.71.06-1.06.02-.18-.21-.28-.34-.17-.29.24-.43.6-.52.96-.06.22-.06.45-.06.68,0,.22.1.33.18.47.13.22.41.19.51-.03.04-.07.13-.15.14-.28.02-.19.02-.38.03-.57Z"/>
          <path class="cls-4" d="M65.91,20.58c-.05-.14-.26-.14-.34-.02-.18.27-.73,1.5-.03,1.55.6.04.5-1.2.37-1.52Z"/>
          <path class="cls-4" d="M61.98,72.52c-.14-.29-.39-.52-.61-.75-.2-.21-.4-.43-.58-.66-.08-.1-.26-.04-.26.09.01.63.39,1.41.91,1.78.3.21.68-.14.53-.46Z"/>
          <path class="cls-4" d="M59.61,70.15c-.22-.29-.47-.56-.71-.83-.09-.1-.26-.05-.27.09-.02.39.13.7.33,1.04.18.3.46.69.84.66.07,0,.15-.08.17-.15.09-.33-.17-.57-.36-.81Z"/>
          <path class="cls-4" d="M62.26,69.93c-.2-.31-.35-.68-.59-.96-.09-.11-.32-.09-.36.07-.09.39.05.78.2,1.13.15.34.43.93.85.94.11,0,.2-.06.24-.16.14-.34-.17-.75-.35-1.02Z"/>
          <path class="cls-4" d="M57.8,68.99c-.21-.32-.29-.72-.55-1-.11-.12-.37-.11-.41.08-.11.48.04,1.3.59,1.46.34.1.54-.26.36-.54Z"/>
          <path class="cls-4" d="M59.99,67.8c-.25-.45-.55-.93-.94-1.26-.14-.11-.39,0-.38.19.03.58.31,1.19.77,1.55.29.23.73-.15.55-.47Z"/>
          <path class="cls-4" d="M64.18,69.25c-.03-.64-.45-1.3-.88-1.75-.11-.12-.3-.06-.32.11-.03.29.03.53.11.81.09.32.21.68.37.98.17.31.75.26.73-.15Z"/>
          <path class="cls-4" d="M61.93,67.03c-.2-.3-.29-.7-.52-.97-.06-.07-.19-.09-.26-.02-.24.24-.19.66-.09.96.09.26.4.89.77.77.38-.12.27-.47.1-.74Z"/>
          <path class="cls-4" d="M65.53,66.66c.05-.4-.11-.75-.35-1.06-.12-.16-.25-.3-.4-.44-.12-.1-.28-.19-.39-.3-.08-.08-.23-.02-.21.1.03.15,0,.29.07.44.07.16.13.31.2.46.15.3.28.61.39.92.13.37.64.18.69-.14Z"/>
          <path class="cls-4" d="M63.48,65.67c-.05-.3-.23-.56-.37-.83-.14-.29-.29-.59-.51-.82-.18-.18-.46-.04-.43.21.07.6.33,1.67,1.06,1.73.16.01.27-.14.25-.29Z"/>
          <path class="cls-4" d="M66.93,64.28c.09-.63-.38-1.64-1.1-1.66-.17,0-.31.18-.22.34.11.21.25.4.34.62.12.27.15.57.25.85.15.4.69.2.74-.15Z"/>
          <path class="cls-4" d="M64.29,62.63c-.26-.36-.5-.73-.79-1.06-.09-.1-.28-.05-.28.09,0,.5.2.95.42,1.39.19.36.55.95,1.03.88.12-.02.18-.12.2-.23.07-.38-.38-.8-.58-1.08Z"/>
          <path class="cls-4" d="M60.42,64.63c-.18-.26-.45-.47-.67-.69-.21-.21-.42-.43-.61-.65-.07-.08-.22-.04-.23.08-.01.65.49,1.46,1.05,1.78.35.2.68-.19.46-.51Z"/>
          <path class="cls-4" d="M57.67,66.08c-.04-.44-.66-1.18-1.14-1.15-.11,0-.23.1-.19.22.07.25.24.47.36.69.13.25.28.49.54.61.25.12.45-.16.43-.38Z"/>
          <path class="cls-4" d="M61.89,62.04c-.29-.43-.58-.89-.93-1.27-.13-.13-.35-.06-.36.12-.06.64.35,1.29.81,1.69.34.29.69-.23.48-.54Z"/>
          <path class="cls-4" d="M63.62,59.03c-.17-.18-.48-.04-.43.21.09.48.33,1.29.86,1.46.13.04.28-.02.32-.16.19-.55-.42-1.14-.76-1.51Z"/>
          <path class="cls-4" d="M55.3,65.7c-.24-.38-.37-.81-.64-1.17-.09-.12-.29-.07-.34.06-.15.41-.01.84.14,1.23.14.36.56.99,1.03.76.44-.21-.05-.66-.19-.88Z"/>
          <path class="cls-4" d="M57.38,63.16c-.2-.33-.47-.59-.71-.88-.09-.12-.31-.05-.31.1,0,.35.1.63.23.96.11.26.23.72.5.86.1.05.2.06.3-.02.32-.25.15-.74-.02-1.03Z"/>
          <path class="cls-4" d="M55.11,63.18c-.13-.29-.29-.57-.46-.84-.08-.13-.15-.26-.25-.38-.08-.1-.2-.18-.27-.28-.08-.11-.26-.01-.23.11.02.09,0,.22.01.31.01.18.09.37.14.54.1.34.24.65.46.93.26.33.75-.03.59-.39Z"/>
          <path class="cls-4" d="M59.09,61.14c-.2-.45-.41-.95-.74-1.31-.18-.2-.49-.04-.45.22.07.55.2,1.19.66,1.55.3.23.67-.15.53-.46Z"/>
          <path class="cls-4" d="M61.81,59.54c-.2-.53-.61-.99-.94-1.45-.12-.16-.42-.06-.42.14.02.61.28,1.29.74,1.72.31.29.77,0,.62-.41Z"/>
          <path class="cls-4" d="M62.16,56.58c-.23-.38-.52-.65-.87-.92-.12-.09-.32.03-.28.18.1.35.24.66.39,1,.14.3.27.77.6.89.08.03.2.02.26-.05.29-.32.1-.77-.1-1.1Z"/>
          <path class="cls-4" d="M59.03,58.18c-.15-.35-.37-.68-.64-.96-.1-.1-.26-.02-.24.12.04.36.13.71.22,1.06.08.3.18.72.5.83.1.03.21,0,.27-.09.2-.29.01-.68-.11-.97Z"/>
          <path class="cls-4" d="M56.04,60.42c-.15-.33-.36-.66-.71-.8-.13-.05-.28.08-.25.22.09.31.18.61.27.92.1.34.21.62.48.85.12.1.33.02.37-.12.1-.37,0-.71-.16-1.06Z"/>
          <path class="cls-4" d="M52.88,62.41c-.27-.38-.43-.87-.74-1.21-.05-.06-.15-.07-.21-.02-.55.52.07,1.49.6,1.75.33.16.52-.29.35-.52Z"/>
          <path class="cls-4" d="M53.68,59.19c-.23-.31-.54-.61-.73-.95-.05-.09-.19-.09-.22.01-.14.4,0,.74.19,1.11.17.33.46.95.88.98.08,0,.18-.04.22-.11.22-.37-.12-.76-.33-1.05Z"/>
          <path class="cls-4" d="M56.62,58.11c-.1-.27-.23-.54-.35-.81-.09-.21-.16-.47-.35-.61-.07-.06-.18-.03-.22.04-.15.21-.13.55-.09.8.05.35.15.71.39.99.29.35.76-.03.62-.41Z"/>
          <path class="cls-4" d="M58.2,54.51c-.12-.13-.34-.03-.31.15.06.42.17.81.31,1.22.1.3.44.94.84.74.64-.31-.57-1.82-.84-2.11Z"/>
          <path class="cls-4" d="M59.69,53.2c-.2-.35-.45-.7-.76-.96-.09-.08-.28,0-.27.13.02.37.17.71.31,1.05.12.29.25.74.59.83.11.03.21,0,.28-.09.22-.29,0-.69-.15-.96Z"/>
          <path class="cls-4" d="M56.8,55.48c-.15-.39-.33-.7-.64-.98-.09-.08-.3-.07-.3.1.02.41.13,1.71.78,1.58.33-.07.24-.48.15-.7Z"/>
          <path class="cls-4" d="M53.94,57.19c-.18-.34-.41-.65-.68-.93-.1-.1-.27-.02-.24.12.05.35.15.66.27.99.11.31.25.74.59.84.12.04.25-.02.29-.14.12-.31-.09-.61-.24-.88Z"/>
          <path class="cls-4" d="M51.18,59.77c-.17-.24-.35-.48-.51-.73-.15-.23-.29-.49-.54-.63-.15-.09-.31.02-.3.2.06.59.39,1.47.98,1.71.34.14.55-.29.37-.55Z"/>
          <path class="cls-4" d="M51.95,57.38c-.07-.4-.23-.68-.43-1.01-.17-.28-.39-.48-.72-.53-.11-.01-.2.12-.15.22.13.21.27.45.35.68.1.29.14.59.28.87.18.38.75.17.68-.23Z"/>
          <path class="cls-4" d="M49.44,56.88c-.05-.16-.06-.26-.16-.41-.1-.16-.21-.32-.31-.49-.17-.3-.19-.68-.36-.96-.05-.08-.16-.12-.24-.05-.3.27-.23.81-.12,1.16.07.22.17.41.29.59.17.24.31.34.58.44.16.06.37-.1.31-.27Z"/>
          <path class="cls-4" d="M54.48,55.36c.09-.6-.32-1.41-.87-1.67-.11-.05-.26.05-.26.17.01.27.11.52.21.77.1.28.16.58.27.86.04.1.17.2.29.19.03,0,.06,0,.09,0,.16-.02.25-.17.27-.31Z"/>
          <path class="cls-4" d="M51.85,54.16c-.24-.33-.44-.65-.65-1-.08-.13-.26-.13-.32.02-.13.33-.02.69.12,1,.11.24.49.78.82.7.39-.1.2-.49.04-.72Z"/>
          <path class="cls-4" d="M56.95,52.4c-.13-.26-.27-.55-.47-.77-.11-.12-.28-.07-.34.07-.12.28-.04.58.04.86.07.28.17.66.38.87.18.18.49.14.58-.11.11-.31-.04-.64-.18-.92Z"/>
          <path class="cls-4" d="M54.94,52.81c.04-.28-.13-.47-.25-.71-.15-.27-.27-.5-.49-.72-.17-.17-.43-.04-.41.2.04.34.16.61.33.91.15.27.26.48.59.53.13.02.22-.1.24-.21Z"/>
          <path class="cls-4" d="M58.59,50.98c-.04-.56-.34-1.6-1.04-1.66-.15-.01-.26.13-.24.28.04.26.22.5.3.75.09.29.16.59.27.88.17.44.75.15.72-.24Z"/>
          <path class="cls-4" d="M49.64,52.9c-.32-.37-.5-.82-.76-1.23-.08-.13-.3-.15-.35.02-.18.68.14,1.41.77,1.71.3.14.53-.28.34-.5Z"/>
          <path class="cls-4" d="M52.67,51.23c.04-.32-.18-.61-.35-.86-.17-.25-.35-.51-.65-.59-.11-.03-.22.05-.2.17.08.48.31,1.53.94,1.52.14,0,.25-.09.26-.23Z"/>
          <path class="cls-4" d="M55.7,49.68c-.07-.34-.26-.66-.4-.98-.14-.34-.31-.7-.56-.96-.11-.12-.32-.06-.33.11-.03.37.06.74.15,1.1.09.35.24.79.51,1.04.25.24.73.08.64-.31Z"/>
          <path class="cls-4" d="M57.18,47.63c.06-.48-.08-1.07-.52-1.32-.16-.09-.36.02-.33.22.06.39.08.77.11,1.16.03.45.69.34.74-.05Z"/>
          <path class="cls-4" d="M53.07,48.19c-.15-.26-.3-.52-.44-.79-.07-.14-.18-.25-.25-.39-.05-.11-.08-.22-.15-.31-.07-.09-.21-.05-.25.05-.05.13-.03.27-.02.41.02.19,0,.38.06.56.11.35.27.66.55.91.26.22.65-.14.5-.43Z"/>
          <path class="cls-4" d="M55.25,46.01c-.04-.3-.17-.58-.29-.86-.07-.14-.15-.27-.23-.4-.04-.06-.14-.14-.17-.17-.06-.1-.25-.09-.24.05,0,.07-.04.15-.05.21-.02.14,0,.3.03.43.05.32.15.67.31.95.2.34.69.17.64-.22Z"/>
          <path class="cls-4" d="M56.09,43.41c-.18-.34-.45-.69-.83-.8-.12-.03-.21.08-.17.19.12.32.27.61.37.94.09.3.15.75.48.87.08.03.17.01.23-.04.31-.3.09-.82-.08-1.14Z"/>
          <path class="cls-4" d="M47.12,52.15c-.1-.29-.29-.58-.43-.86-.16-.31-.3-.61-.5-.89-.07-.1-.24-.05-.27.05-.12.38-.06.71.04,1.09.09.35.34.91.73.99.21.04.53-.11.44-.38Z"/>
          <path class="cls-4" d="M48.5,49.42c-.07.03-.1.13-.07.19.18.34.35.67.5,1.02.12.26.53.24.61-.04.19-.61-.38-1.41-1.05-1.17Z"/>
          <path class="cls-4" d="M47.62,49.04c0-.18,0-.3-.06-.47-.08-.18-.14-.36-.22-.54-.14-.33-.33-.69-.56-.96-.12-.13-.33-.02-.3.15.06.38.12.77.21,1.14.05.18.12.36.2.54.09.21.23.28.42.36.14.06.31-.06.32-.21Z"/>
          <path class="cls-4" d="M50.44,47.96c.03-.47-.24-.99-.57-1.31-.09-.08-.25-.08-.29.06-.14.47-.06,1.06.23,1.47.19.27.62.08.64-.22Z"/>
          <path class="cls-4" d="M52.3,43.78c-.17-.11-.38.03-.35.23.08.49.24.94.28,1.44.03.3.52.41.66.13.33-.65,0-1.43-.59-1.8Z"/>
          <path class="cls-4" d="M50.67,45.03c-.16-.54-.45-1.01-.69-1.51-.1-.21-.42-.1-.38.13.1.58.07,1.2.5,1.66.21.22.68.06.57-.28Z"/>
          <path class="cls-4" d="M53.94,42.93c-.07-.32-.22-.61-.34-.92-.09-.25-.13-.54-.28-.76-.05-.07-.18-.08-.24-.02-.49.47-.15,1.56.21,2.02.24.31.73.04.66-.32Z"/>
          <path class="cls-4" d="M54.1,39.43c-.08-.33-.18-.7-.48-.9-.07-.05-.18-.01-.2.07-.11.31-.02.65.05.96.09.37.09.86.29,1.18.12.18.43.22.5-.03.12-.4-.06-.88-.16-1.28Z"/>
          <path class="cls-4" d="M51.18,41.56c-.15-.31-.31-.59-.6-.78-.1-.07-.22.02-.21.14.05.32.13.63.22.95.08.31.19.65.48.81.16.09.33,0,.36-.18.06-.33-.11-.66-.25-.95Z"/>
          <path class="cls-4" d="M45.72,48c-.11-.22-.28-.39-.38-.63-.08-.2-.14-.46-.17-.67-.03-.19-.26-.19-.36-.07-.24.28-.26.64-.19.99.07.36.38.87.8.84.22-.01.42-.22.3-.45Z"/>
          <path class="cls-4" d="M48.23,44.96c-.07-.22-.15-.44-.28-.63-.12-.17-.24-.25-.4-.37-.1-.07-.25.05-.18.16.16.28.07,2.27.75,1.94.38-.18.21-.79.11-1.09Z"/>
          <path class="cls-4" d="M46.1,45.14c-.08-.27-.22-.65-.44-.85-.22-.2-.34-.51-.53-.74-.09-.11-.3-.05-.3.1,0,.31.11.54.2.83.11.34.24.65.46.95.07.1.21.13.33.11.06-.01.11-.03.16-.08.08-.08.15-.21.11-.33Z"/>
          <path class="cls-4" d="M48.96,42.18c-.15-.34-.44-.73-.84-.78-.1-.01-.18.09-.16.18.03.16.1.32.16.47.08.21.13.43.21.64.09.25.32.84.68.55.31-.24.07-.79-.05-1.07Z"/>
          <path class="cls-4" d="M43.71,44.05c-.24-.35-.3-.74-.49-1.12-.05-.11-.22-.13-.29-.02-.31.47-.13,1.33.36,1.6.32.18.61-.17.41-.46Z"/>
          <path class="cls-4" d="M45.98,41.38c-.22-.45-.41-.96-.77-1.32-.11-.11-.29-.06-.31.1-.07.69.25,1.5.68,2.02.08.1.22.14.34.12.49-.1.2-.65.06-.92Z"/>
          <path class="cls-4" d="M48.85,39.34c-.15-.27-.2-.59-.35-.85-.07-.12-.21-.12-.29-.02-.42.49-.04,1.82.62,1.92.12.02.26-.08.29-.19.08-.31-.13-.58-.27-.85Z"/>
          <path class="cls-4" d="M51.44,37.17c-.1-.04-.23.04-.23.15,0,.47.02,1.01.12,1.46.07.33.58.4.68.05.15-.52-.01-1.43-.58-1.66Z"/>
          <path class="cls-4" d="M53.33,36.1c-.13-.43-.36-.7-.69-.99-.1-.08-.27.03-.23.15.11.37.17.8.2,1.18.02.26.02.88.46.76.43-.12.36-.78.26-1.11Z"/>
          <path class="cls-4" d="M43.89,40.52c-.14-.26-.23-.49-.3-.78-.06-.28-.05-.61-.19-.87-.08-.14-.27-.16-.37-.03-.22.29-.21.78-.18,1.13.04.39.21.87.62,1.01.27.09.55-.2.41-.46Z"/>
          <path class="cls-4" d="M47.01,39.2c-.13-.54-.28-1.75-.95-1.91-.08-.02-.17.02-.17.12,0,.28.09.6.13.88.06.4.13.78.34,1.13.19.32.75.19.65-.22Z"/>
          <path class="cls-4" d="M50.06,36.58c-.11-.41-.26-.8-.49-1.16-.08-.13-.32-.16-.37.02-.1.35-.07.7,0,1.06.07.31.19.74.56.76.38.03.35-.45.29-.68Z"/>
          <path class="cls-4" d="M52.18,33.08c-.08-.45-.34-.82-.54-1.21-.06-.12-.22-.07-.23.05-.07.41-.02.8.01,1.21.02.27-.02.99.42.94.45-.06.4-.67.34-.99Z"/>
          <path class="cls-4" d="M47.56,35.77c-.1-.38-.15-.79-.37-1.12-.09-.13-.26-.1-.29.06-.09.45-.12.92-.03,1.38.08.39.4,1.03.89.9.09-.02.19-.11.18-.21,0-.34-.3-.67-.38-1.01Z"/>
          <path class="cls-4" d="M50.42,32.16c-.12-.13-.32-.05-.34.11-.03.24-.02.49-.03.73,0,.26-.03.55.03.8.08.35.58.4.7.05.18-.52,0-1.28-.36-1.69Z"/>
          <path class="cls-4" d="M52.73,30.48c.03-.36-.01-.75-.21-1.05-.11-.16-.35-.07-.41.08-.12.3-.49,2.01.19,1.88.39-.08.4-.58.43-.9Z"/>
          <path class="cls-4" d="M51.3,29.09c-.02-.28.06-.56-.08-.82-.05-.09-.19-.14-.28-.06-.23.23-.23.54-.33.83-.11.33-.11.69-.06,1.03.02.11.12.24.24.27.06.01.12.03.19.01.17-.04.26-.16.29-.33.05-.31.06-.62.04-.93Z"/>
          <path class="cls-4" d="M44.82,36.58c-.05-.35-.2-.84-.49-1.06-.1-.07-.24-.02-.28.09-.11.32-.07.79-.02,1.13.05.3.1.98.57.89.45-.09.26-.75.22-1.05Z"/>
          <path class="cls-4" d="M48.45,31.27c-.08-.1-.27-.07-.31.06-.16.56-.15,1.16-.22,1.74-.05.44.56.51.72.14.26-.62.23-1.41-.19-1.94Z"/>
          <path class="cls-4" d="M46.58,33.83c0-.17.02-.34.03-.51.01-.29.05-.68-.14-.91-.07-.08-.19-.08-.27-.02-.25.2-.27.6-.32.89-.03.16-.03.34-.02.51.02.2.07.26.16.42.1.17.37.18.44-.03.03-.08.1-.2.11-.34Z"/>
          <path class="cls-4" d="M42.34,37.77c0-.26,0-.54-.12-.78-.07-.14-.26-.15-.35-.02-.3.42-.34,1.22-.02,1.62.12.15.33.07.4-.08.11-.25.09-.48.09-.75Z"/>
          <path class="cls-4" d="M54.2,86.08c0-.59-.55-1.12-1.1-1.23-.18-.04-.28.19-.22.33.16.37.39.83.68,1.12.21.22.64.12.64-.22Z"/>
          <path class="cls-4" d="M51.77,84.08c-.27-.28-.55-.63-.93-.76-.13-.05-.29.08-.25.22.18.57.63,1.17,1.18,1.41.1.04.23.01.31-.06.31-.28-.12-.61-.32-.81Z"/>
          <path class="cls-4" d="M55.08,83.86c-.02-.59-.43-1.14-.92-1.45-.14-.09-.33.03-.29.2.09.47.3.97.5,1.4.15.33.73.24.72-.14Z"/>
          <path class="cls-4" d="M52.29,81.62c-.13-.1-.37,0-.36.18.02.32.15.56.33.82.16.23.37.58.65.67.15.05.33-.03.37-.18.17-.57-.59-1.18-.99-1.48Z"/>
          <path class="cls-4" d="M55.75,80.92c-.11-.1-.29-.09-.35.07-.09.27-.04.57,0,.84.05.31.11.61.37.81.12.09.28.04.37-.07.32-.43-.02-1.31-.39-1.64Z"/>
          <path class="cls-4" d="M49.76,83.07c-.04-.05-.08-.1-.14-.12-.19-.07-.61-.26-.7-.41-.12-.18-.45-.18-.46.09-.02.55.62.95,1.12.87.08-.01.14-.07.18-.14,0,0,0,0,0,0,.09-.1.08-.22,0-.29Z"/>
          <path class="cls-4" d="M51.48,81.78c-.09-.35-.34-.62-.55-.91-.18-.25-.4-.58-.71-.67-.11-.03-.19.05-.18.16.03.33.2.69.33.99.16.37.45.7.86.73.15,0,.29-.14.25-.29Z"/>
          <path class="cls-4" d="M54.22,80.85c-.02-.36-.2-.65-.34-.98-.13-.3-.32-.62-.59-.81-.21-.15-.49.05-.44.29.11.57.4,1.54,1.03,1.72.14.04.34-.05.33-.22Z"/>
          <path class="cls-4" d="M56.2,78.74c-.08.02-.16.13-.1.21.15.24.31.45.42.72.11.27.09.58.17.86.09.35.56.39.7.05.25-.66-.33-2.04-1.18-1.83Z"/>
          <path class="cls-4" d="M55.32,78.99c-.12-.47-.41-1-.79-1.31-.08-.07-.21-.01-.24.08-.17.49.09,1.14.4,1.54.22.28.72.04.63-.31Z"/>
          <path class="cls-4" d="M58.44,78.08c-.09-.35-.36-.67-.63-.9-.27-.23-.65.21-.41.45.27.27.31.57.36.94.04.26.21.69.54.5.33-.19.21-.7.13-.99Z"/>
          <path class="cls-4" d="M48.33,79.99c-.13-.12-.32-.03-.3.15.04.45.37,1.58,1.01,1.33.56-.22-.51-1.3-.71-1.48Z"/>
          <path class="cls-4" d="M46.75,79.9c-.25-.3-.45-.61-.75-.85-.11-.09-.3,0-.3.14,0,.36.1.66.28.97.15.26.52.66.85.45.29-.18.07-.52-.09-.72Z"/>
          <path class="cls-4" d="M52.06,79.29c-.12-.49-.36-1.02-.72-1.38-.14-.14-.36-.07-.39.13-.07.51.15,1.05.35,1.51.19.41.87.19.76-.26Z"/>
          <path class="cls-4" d="M49.1,78.15c-.21-.36-.37-.78-.68-1.08-.12-.11-.28-.05-.31.1-.07.39.06.77.2,1.14.11.31.43.75.8.61.36-.13.1-.57-.01-.78Z"/>
          <path class="cls-4" d="M53.21,76.38c-.15-.33-.41-.61-.8-.55-.09.01-.16.11-.13.2.07.28.17.55.24.84.09.34.18.69.57.75.09.01.17-.04.22-.11.23-.31.03-.81-.11-1.12Z"/>
          <path class="cls-4" d="M56.72,76.55c-.18-.52-.59-.71-.98-1.04-.18-.16-.41.06-.39.26.04.33.17.55.37.81.14.18.28.37.48.43,0,0,0,0,0,0,.16.09.33.04.41-.12.07-.09.13-.22.09-.34Z"/>
          <path class="cls-4" d="M59.71,76.15c-.12-.33-.56-.84-.95-.72-.14.04-.21.15-.19.29.03.2.2.35.26.55.07.21.1.39.04.6-.09.3.2.54.48.42.46-.19.51-.73.36-1.15Z"/>
          <path class="cls-4" d="M57.07,74.29c-.15-.09-.31,0-.34.17-.07.38.23,1.46.79,1.18.48-.24-.16-1.18-.45-1.35Z"/>
          <path class="cls-4" d="M59.16,74.05c-.08.01-.15.11-.13.2.06.2.21.38.34.54.18.21.32.42.58.52.12.04.28-.03.32-.16.15-.6-.54-1.17-1.11-1.1Z"/>
          <path class="cls-4" d="M51.2,76.2c-.15-.26-.31-.51-.45-.79-.13-.28-.35-.55-.67-.61-.1-.02-.18.1-.16.18.07.29.16.58.24.87.09.34.25.69.61.82.27.1.58-.22.43-.48Z"/>
          <path class="cls-4" d="M54.47,75.16c-.06-.52-.42-.98-.73-1.37-.1-.12-.28-.04-.29.1-.06.49.07,1.08.34,1.5.22.35.73.19.68-.23Z"/>
          <path class="cls-4" d="M57.12,72.53c-.25-.36-.59-.54-.99-.66-.15-.04-.26.12-.17.25.06.08.09.2.16.29.12.15.22.31.32.46.16.25.23.63.47.81.07.05.16.05.24.02.47-.24.18-.86-.04-1.17Z"/>
          <path class="cls-4" d="M55.45,72.68c-.05-.23-.19-.42-.36-.58-.2-.18-.44-.24-.61-.45-.1-.13-.35-.02-.3.15.07.2.12.46.24.63.13.19.26.38.41.55.23.28.69.04.62-.3Z"/>
          <path class="cls-4" d="M51.9,74.05c-.15-.27-.35-.52-.52-.78-.16-.24-.28-.51-.49-.72-.13-.13-.33-.06-.35.12-.07.62.34,1.47.88,1.79.13.07.28.08.4-.02.02-.02.04-.04.06-.06.06-.09.08-.23.02-.33Z"/>
          <path class="cls-4" d="M54.54,69.62c-.26-.25-.61-.44-.97-.32-.1.03-.14.18-.09.27.17.32.51.55.71.87.17.27.48.48.73.19.25-.29-.18-.82-.37-1Z"/>
          <path class="cls-4" d="M52.68,71.88c-.18-.26-.39-.52-.6-.76-.13-.15-.39-.07-.4.13-.01.35.12.67.29.97.15.28.4.64.73.71.17.03.3-.05.33-.22.05-.33-.18-.58-.35-.84Z"/>
          <path class="cls-4" d="M47.05,77.03c-.26-.3-.62-.55-.91-.82-.18-.17-.47-.05-.44.21.07.51.56,1.08,1.09,1.13.27.02.44-.32.26-.53Z"/>
          <path class="cls-4" d="M49.21,75.41c-.4-.56-.95-1.06-1.46-1.52-.09-.08-.21.02-.22.11-.11.74.67,1.54,1.21,1.94.21.15.41.05.5-.13,0,.01,0,.02,0,.04.11-.13.06-.32-.02-.44Z"/>
          <path class="cls-4" d="M50.95,68.96c-.09,0-.19.08-.16.18.11.38.87,1.79,1.4,1.34.53-.45-.79-1.54-1.24-1.52Z"/>
          <path class="cls-4" d="M44.88,77.35c-.16-.27-.44-.46-.65-.68-.22-.24-.42-.49-.68-.7-.15-.12-.43,0-.42.21.04.69.74,1.74,1.51,1.65.2-.02.34-.3.23-.47Z"/>
          <path class="cls-4" d="M46.86,74.29c-.26-.48-.72-.78-1.14-1.1-.12-.1-.25.04-.24.16.04.52.38,1.01.74,1.37.3.3.87-.02.64-.42Z"/>
          <path class="cls-4" d="M43.88,73.93c-.24-.33-.55-.6-.78-.93-.1-.14-.28,0-.27.13.05.41.18.75.4,1.1.19.31.46.78.84.84.09.01.2-.06.23-.15.11-.37-.22-.7-.43-.98Z"/>
          <path class="cls-4" d="M49.07,72.75c-.14-.55-.68-1.45-1.33-1.45-.18,0-.3.17-.22.33.11.24.28.46.4.7.15.3.29.59.55.81.26.23.69-.09.61-.4Z"/>
          <path class="cls-4" d="M50.43,71.26c.06-.31-.18-.59-.35-.83-.21-.29-.46-.58-.75-.8-.1-.08-.28,0-.28.13.01.37.16.68.35.99.18.3.43.66.79.72.13.02.22-.1.24-.21Z"/>
          <path class="cls-4" d="M52.48,67.38c-.25-.31-.59-.62-1-.67-.14-.02-.27.16-.19.29.18.27.37.54.54.82.19.31.31.63.67.75.13.05.29-.03.33-.16.12-.39-.1-.71-.35-1.02Z"/>
          <path class="cls-4" d="M41.8,73.45c-.23-.31-.4-.68-.68-.94-.09-.08-.26-.08-.3.06-.1.36.07.76.23,1.08.15.29.55.89.96.69.44-.22-.03-.67-.2-.89Z"/>
          <path class="cls-4" d="M45.12,72.39c-.13-.24-.36-.41-.55-.61-.21-.22-.37-.5-.64-.67-.08-.05-.17-.01-.21.07-.3.65.61,2.1,1.34,1.5.08-.07.11-.2.06-.3Z"/>
          <path class="cls-4" d="M47.75,70c0-.71-.54-1.4-1.12-1.76-.14-.09-.33.03-.3.2.06.3.18.55.31.82.14.29.28.6.45.88.16.26.66.25.65-.13Z"/>
          <path class="cls-4" d="M45.84,70.92c0-.33-.24-.6-.47-.83-.14-.15-.38-.03-.36.17.05.32.11.67.37.88.17.13.45,0,.45-.22Z"/>
          <path class="cls-4" d="M49.61,67.72c-.27-.35-.52-.68-.87-.95-.15-.11-.39.04-.34.22.1.4.23.74.44,1.1.18.32.61.87,1.02.57.35-.25-.08-.73-.25-.95Z"/>
          <path class="cls-4" d="M50.25,64.89c-.25-.31-.61-.76-1.05-.76-.11,0-.21.1-.19.22.08.36.39.67.56,1,.17.32.34.79.68.97.16.08.34.04.41-.14.17-.42-.14-.96-.4-1.28Z"/>
          <path class="cls-4" d="M42.13,71.22c-.42-.48-.86-.93-1.22-1.46-.07-.1-.25-.04-.24.08.02.39.08.7.25,1.06.17.36.46.73.85.87.32.12.59-.29.37-.55Z"/>
          <path class="cls-4" d="M44.44,68.83c-.08-.29-.31-.51-.5-.74-.18-.22-.36-.44-.53-.66-.06-.08-.2-.05-.23.04-.18.58.27,1.52.84,1.73.22.08.49-.13.42-.37Z"/>
          <path class="cls-4" d="M47.21,66.59c-.12-.29-.33-.55-.52-.8-.17-.23-.35-.45-.6-.59-.16-.08-.32.02-.3.2.05.58.42,1.3.89,1.65.31.23.67-.14.53-.46Z"/>
          <path class="cls-4" d="M47.91,64.56c-.2-.45-.51-1.02-.92-1.31-.12-.08-.29,0-.29.14-.03.54.28,1.16.63,1.56.27.31.76-.02.59-.39Z"/>
          <path class="cls-4" d="M48.75,62.02c-.24-.29-.48-.64-.89-.64-.16,0-.25.14-.19.29.12.34.37.64.53.97.11.24.45.76.75.45.29-.29.02-.81-.19-1.06Z"/>
          <path class="cls-4" d="M39.6,69.43c-.13-.39-.31-.78-.51-1.14-.14-.25-.45-.15-.5.1-.09.45.08,1.02.41,1.33.22.2.71.07.59-.29Z"/>
          <path class="cls-4" d="M41.79,68.49c-.23-.58-.7-1.15-1.21-1.5-.12-.08-.28.03-.25.16.13.65.37,1.38.93,1.8.31.23.66-.15.54-.46Z"/>
          <path class="cls-4" d="M44.48,66.29c-.09-.28-.22-.53-.38-.78-.14-.23-.25-.48-.44-.68-.12-.13-.3-.08-.37.07-.24.53.18,1.31.5,1.72.23.31.81.04.69-.34Z"/>
          <path class="cls-4" d="M44.85,61.97c-.11-.13-.31-.05-.33.11-.07.52.2,1.45.77,1.56.15.03.27-.1.32-.22.23-.48-.48-1.12-.76-1.46Z"/>
          <path class="cls-4" d="M46.82,61.41c-.14-.54-.58-1.23-1.09-1.49-.08-.04-.23-.01-.22.11.03.55.2,1.34.63,1.72.26.24.79.09.68-.33Z"/>
          <path class="cls-4" d="M45.62,57.25c-.11-.07-.24.02-.23.15.05.43.32.83.54,1.19.16.26.46.83.85.64.71-.35-.85-1.79-1.17-1.99Z"/>
          <path class="cls-4" d="M42.12,65.92c-.14-.62-.61-1.19-1.08-1.61-.1-.09-.22.02-.24.12-.1.59.28,1.26.57,1.74.22.37.85.21.75-.25Z"/>
          <path class="cls-4" d="M39.31,66.75c-.3-.56-.83-.96-1.19-1.47-.06-.08-.2-.05-.22.04-.17.67.41,1.48.91,1.87.28.21.67-.14.51-.44Z"/>
          <path class="cls-4" d="M37.23,64.23c-.21-.25-.46-.52-.7-.74-.2-.18-.48-.05-.45.22.05.48.38.99.89,1.05.29.04.43-.33.26-.53Z"/>
          <path class="cls-4" d="M39.39,63.28c-.22-.43-.5-.85-.85-1.18-.13-.12-.31-.03-.29.14.04.45.19.86.37,1.28.16.37.34.9.78.98.07.01.18-.04.22-.11.19-.37-.06-.77-.23-1.11Z"/>
          <path class="cls-4" d="M43.62,63.73c-.16-.5-.6-.89-1.05-1.15-.17-.1-.46.02-.39.26.13.45.48.87.8,1.2.23.24.76.07.64-.31Z"/>
          <path class="cls-4" d="M41.47,62.42c-.26-.42-.52-.86-.81-1.26-.05-.07-.14-.04-.19.01-.46.53.02,1.46.6,1.7.25.1.55-.21.4-.45Z"/>
          <path class="cls-4" d="M44.01,61.22c-.02-.35-.23-.56-.46-.81-.19-.21-.49-.42-.64-.65-.07-.11-.29-.15-.32.02-.04.18-.06.28-.03.47.03.19.16.39.27.54.22.31.52.64.91.66.12,0,.27-.1.26-.23Z"/>
          <path class="cls-4" d="M43.2,57.73c-.15,0-.27.15-.2.29.14.27.37.51.55.75.18.25.3.52.59.66.13.06.27-.04.32-.16.31-.65-.66-1.54-1.27-1.55Z"/>
          <path class="cls-4" d="M41.21,59.69c-.19-.31-.44-.56-.77-.71-.23-.11-.41.18-.33.38.11.27.28.52.43.78.14.23.25.56.54.64.11.03.22,0,.29-.1.22-.3,0-.71-.16-.99Z"/>
          <path class="cls-4" d="M39.21,60.96c-.11-.71-.45-1.37-1.03-1.82-.2-.16-.47.1-.37.32.27.56.55,1.13.77,1.71.04.11.17.17.28.19.1.01.16-.03.24-.08.1-.07.13-.21.11-.32Z"/>
          <path class="cls-4" d="M37.03,61.69c-.09-.31-.23-.6-.38-.88-.14-.25-.31-.49-.45-.73-.08-.14-.26-.09-.29.06-.06.33-.06.58.05.91.11.34.25.65.46.95.2.29.71.03.62-.3Z"/>
          <path class="cls-4" d="M35.25,58.69c-.07-.21-.12-.41-.14-.63-.02-.25.02-.5-.03-.75-.04-.16-.23-.23-.35-.12-.5.45-.46,1.49.07,1.9.28.21.55-.13.46-.4Z"/>
          <path class="cls-4" d="M36.97,57.68c-.1-.17-.21-.35-.31-.53-.04-.08-.11-.17-.17-.24-.06-.08-.15-.13-.21-.21-.08-.1-.23-.01-.21.1,0,.05-.04.2-.04.26-.02.13-.01.25,0,.38.05.27.18.54.44.66.27.14.7-.1.5-.43Z"/>
          <path class="cls-4" d="M41.72,58.41c.07-.69-.65-1.15-1.05-1.57-.08-.09-.24-.02-.22.1.11.57.37,1.18.7,1.65.18.25.55.07.57-.19Z"/>
          <path class="cls-4" d="M38.72,57.1c-.11-.24-.22-.5-.43-.67-.09-.07-.2-.01-.24.08-.1.25-.04.55.03.81.07.29.15.64.41.8.21.13.46,0,.49-.24.04-.28-.14-.54-.25-.78Z"/>
          <path class="cls-4" d="M44.24,55.81c-.12-.29-.31-.55-.5-.8-.13-.17-.34-.45-.56-.53-.08-.03-.24-.06-.29.03-.02.04-.01.07,0,.1-.03.3.21.66.33.91.1.21.2.42.31.63.05.09.09.17.14.25.04.07.07.13.14.17.03.01.06.03.08.04.02,0,.03,0,.04,0,.1.05.23.01.29-.08.14-.2.12-.45,0-.74Z"/>
          <path class="cls-4" d="M41.9,55.99c-.22-.34-.44-.63-.73-.91-.09-.09-.25-.02-.23.11.05.4.22.69.43,1.02.18.28.28.66.62.73.1.02.17-.06.21-.14.14-.29-.15-.58-.3-.81Z"/>
          <path class="cls-4" d="M39.87,55.18c-.09-.24-.21-.46-.28-.71-.08-.28-.18-.54-.33-.79-.11-.18-.48-.18-.46.09.03.58.02,1.6.69,1.84.27.1.48-.19.38-.43Z"/>
          <path class="cls-4" d="M41.35,52.31c-.05-.09-.23-.12-.26.02-.09.42-.02.72.14,1.12.12.29.5.8.87.69.69-.2-.6-1.57-.76-1.83Z"/>
          <path class="cls-4" d="M44.22,53.28c-.2-.31-.57-.63-.95-.67-.07,0-.14.07-.12.14.06.31.27.57.41.85.16.3.24.68.51.9.11.09.25.03.33-.06.3-.34.03-.84-.18-1.15Z"/>
          <path class="cls-4" d="M36.85,53.25c-.09-.14-.29-.11-.32.06-.09.56-.01,1.2.03,1.77,0,.15.07.27.22.33.03.01.06.01.08.02.1.02.24-.05.29-.14.31-.63.07-1.48-.3-2.04Z"/>
          <path class="cls-4" d="M34.96,55.85c-.01-.65-.18-1.26-.34-1.88-.06-.24-.39-.21-.42.03-.1.66-.18,1.37.16,1.97.05.09.15.18.27.18.06,0,.11,0,.16-.03.09-.05.18-.15.18-.27Z"/>
          <path class="cls-4" d="M39.88,52.41c0-.16,0-.26-.07-.42-.07-.16-.14-.32-.21-.48-.14-.32-.25-.7-.46-.98-.08-.11-.3-.11-.37.02-.18.35-.1.75.03,1.11.07.2.16.39.28.57.14.21.25.29.47.4.14.07.34-.07.33-.22Z"/>
          <path class="cls-4" d="M42.65,50.34c-.15-.36-.42-.75-.71-1.02-.16-.15-.4-.08-.43.15-.06.37.12.76.28,1.08.12.25.29.74.66.67.41-.08.32-.61.21-.88Z"/>
          <path class="cls-4" d="M40.1,49.07c-.14-.31-.26-.63-.43-.93-.12-.22-.4-.14-.44.09-.09.48.17,1.59.75,1.67.07,0,.16-.03.2-.1.14-.24.03-.49-.08-.73Z"/>
          <path class="cls-4" d="M41.92,47.03c-.11-.2-.26-.37-.41-.53-.13-.14-.26-.16-.42-.24-.13-.06-.28.04-.22.19.04.09.04.21.08.31.08.17.15.35.22.53.12.3.21.68.44.9.12.11.29.12.4-.02.25-.33.1-.81-.09-1.14Z"/>
          <path class="cls-4" d="M37.59,51.39c-.14-.4-.46-.87-.84-1.06-.12-.06-.29.01-.25.17.11.41.28.82.43,1.22.09.24.24,1.05.67.84.41-.2.11-.86,0-1.16Z"/>
          <path class="cls-4" d="M35.1,51.33c-.12-.14-.35-.06-.36.12-.03.32.02.61.05.93.03.31.04.66.16.94.09.22.44.25.56.04.34-.59,0-1.56-.41-2.04Z"/>
          <path class="cls-4" d="M33.21,54.12c0-.28-.05-.55-.1-.82-.05-.24-.09-.53-.21-.75-.07-.13-.25-.14-.33-.02-.32.43-.23,1.27-.01,1.72.15.3.66.22.66-.13Z"/>
          <path class="cls-4" d="M37.99,49.05c.01-.32-.1-.63-.2-.93-.08-.25-.12-.62-.3-.82-.07-.08-.17-.08-.25-.02-.25.2-.19.6-.16.88.04.34.15.71.3,1.02.14.28.59.2.6-.12Z"/>
          <path class="cls-4" d="M35.36,48.47c-.06-.18-.34-.18-.43-.03-.29.47-.1,1.1-.12,1.63,0,.42.57.54.72.14.2-.52.01-1.23-.17-1.74Z"/>
          <path class="cls-4" d="M33.81,51.29c-.03-.37-.1-.75-.25-1.09-.05-.12-.24-.1-.27.02-.1.33-.12.66-.12,1,0,.27,0,.7.27.85.08.04.17.05.24-.01.22-.2.15-.49.13-.76Z"/>
          <path class="cls-4" d="M39.95,46.56c-.05-.56-.3-1.26-.78-1.6-.17-.12-.4.04-.36.24.1.51.23,1.12.49,1.58.2.36.69.16.65-.22Z"/>
          <path class="cls-4" d="M40.82,44.26c.02-.19,0-.39-.02-.58-.03-.38-.18-.73-.42-1.03-.16-.21-.49-.03-.44.22.06.32.08.64.12.96.02.16.03.32.05.49.02.16.11.26.19.39.1.16.29.14.37-.02.07-.15.14-.25.15-.42Z"/>
          <path class="cls-4" d="M37.42,44.5c-.03-.08-.15-.08-.2-.01-.18.3-.17.64-.14.98.02.32,0,.86.22,1.1.06.07.18.11.26.05.64-.4.05-1.6-.15-2.12Z"/>
          <path class="cls-4" d="M36.25,47.53c.02-.23-.03-.46-.06-.69-.03-.26-.04-.53-.09-.78-.03-.16-.26-.26-.39-.13-.44.44-.33,1.21-.11,1.73.13.32.62.2.64-.13Z"/>
          <path class="cls-4" d="M38.71,43.03c.02-.34,0-.8-.13-1.12-.05-.12-.22-.12-.29-.02-.2.27-.23.66-.27.98-.04.31-.16.79.1,1.02.08.07.16.1.26.05.34-.15.32-.6.34-.91Z"/>
          <path class="cls-4" d="M40.47,40.92c.03-.31.04-.66-.03-.96-.03-.14-.21-.22-.32-.11-.24.22-.32.5-.37.8-.03.18-.04.37-.02.55.01.18.07.27.13.43.06.16.33.18.41.03.06-.11.13-.18.16-.31.03-.14.04-.28.05-.43Z"/>
          <path class="cls-4" d="M47.27,101.57c.1-.6-.67-1.19-1.12-1.44-.13-.07-.34.02-.29.19.07.26.21.46.36.69.16.24.28.54.47.76.21.24.53.08.58-.2Z"/>
          <path class="cls-4" d="M45.26,99.81c-.21-.22-.43-.44-.65-.65-.11-.11-.22-.22-.35-.33-.1-.08-.2-.06-.3-.1-.1-.04-.24.06-.2.18.03.09.02.19.07.3.06.14.17.27.26.4.22.3.47.57.81.72.29.14.56-.29.35-.52Z"/>
          <path class="cls-4" d="M47.08,98.62c-.17-.38-.51-.77-.86-.98-.18-.11-.36.07-.29.25.14.39.37.77.56,1.14.1.2.31.9.67.61.31-.25.06-.74-.07-1.02Z"/>
          <path class="cls-4" d="M45.56,98.3c-.07-.31-.32-.52-.5-.77-.19-.26-.36-.55-.68-.66-.15-.05-.32.08-.28.24.09.32.3.56.48.82.2.28.4.56.76.61.13.02.25-.12.22-.25Z"/>
          <path class="cls-4" d="M47.63,96.66c-.15-.07-.27.11-.22.24.15.41.3.8.38,1.23.06.33.6.4.69.05.16-.68-.25-1.26-.86-1.52Z"/>
          <g>
            <path class="cls-4" d="M42.41,97.32c-.14-.15-.29-.29-.42-.45-.05-.06-.09-.11-.15-.14,0,0,0,0,0-.01,0-.01-.02-.01-.03-.02-.03-.06-.11-.09-.17-.04-.09.02-.15.1-.16.18-.05.55.53,1.29,1.08,1.43.14.03.27,0,.36-.12.23-.32-.31-.63-.49-.83Z"/>
            <path class="cls-4" d="M41.62,96.65s0,0,0,0c0,0,0,0,0,0,0,0,0,0-.01,0Z"/>
          </g>
          <path class="cls-4" d="M45.79,95.57c-.02-.18-.12-.35-.19-.51-.13-.26-.32-.48-.54-.67-.09-.08-.26-.02-.3.1-.07.27,0,.48.09.73.06.14.14.27.2.41.08.16.19.27.28.41.1.14.35.08.4-.08.04-.15.08-.23.06-.4Z"/>
          <path class="cls-4" d="M42.83,96.02c-.15-.18-.37-.3-.51-.49-.16-.21-.23-.46-.43-.64-.18-.17-.43-.04-.41.2.04.55.46,1.42,1.07,1.49.3.03.46-.35.28-.56Z"/>
          <path class="cls-4" d="M49.42,94.73c-.2-.41-.51-.68-.9-.89-.11-.06-.25.04-.19.16.13.26.21.56.32.83.06.14.1.29.13.44.04.17.01.33.11.48.06.09.14.15.26.13.54-.1.44-.78.26-1.15Z"/>
          <path class="cls-4" d="M47.26,94.38c-.15-.39-.33-.83-.63-1.13-.12-.12-.34-.07-.35.12-.03.39.13.77.24,1.14.11.38.23.74.45,1.07.1.15.34.08.39-.08.13-.39.04-.75-.1-1.13Z"/>
          <path class="cls-4" d="M43.2,94.42c-.15-.24-.34-.45-.47-.7-.13-.25-.25-.5-.46-.7-.1-.1-.34-.07-.33.11.04.56.21,1.71.97,1.71.2,0,.41-.22.28-.42Z"/>
          <path class="cls-4" d="M49.83,92.07c-.15,0-.23.13-.18.27.05.15.15.29.23.43.08.17.12.38.16.56.09.39.58.31.66-.04.1-.5-.28-1.22-.86-1.21Z"/>
          <path class="cls-4" d="M47.61,91.01c-.11-.1-.29-.03-.27.13.04.28.15.51.28.76.12.23.22.52.44.66.11.07.24.04.32-.06.42-.54-.43-1.18-.77-1.49Z"/>
          <path class="cls-4" d="M44.4,92.43c-.2-.31-.44-.65-.76-.83-.22-.13-.43.08-.35.3.13.36.35.71.56,1.02.18.28.4.63.77.6.07,0,.14-.08.17-.15.1-.34-.21-.67-.39-.94Z"/>
          <path class="cls-4" d="M51.52,90.16c-.28-.3-.63-.46-1.02-.54-.13-.03-.24.1-.15.22.19.23.37.49.55.74.17.24.27.53.48.74.12.11.29.12.39-.02.27-.37.03-.83-.25-1.13Z"/>
          <path class="cls-4" d="M45.97,91.24c-.28-.23-.48-.53-.74-.78-.18-.17-.46-.05-.43.21.06.51.43,1.09.95,1.22.15.03.28,0,.37-.12.14-.2,0-.39-.16-.52Z"/>
          <path class="cls-4" d="M49.6,90.08c-.07-.13-.1-.28-.2-.4-.13-.16-.25-.33-.39-.49-.23-.27-.54-.57-.91-.63-.12-.02-.17.11-.14.21.13.34.39.66.59.96.1.14.2.28.32.41.14.16.28.18.46.25.18.07.36-.14.27-.3Z"/>
          <path class="cls-4" d="M52.23,88.69c-.09-.07-.21-.18-.32-.21-.07-.02-.14-.04-.22-.02-.06.01-.25.05-.06.05-.11,0-.18.09-.17.18-.05.19.09.38.2.53.14.2.32.48.57.55.23.07.41-.08.45-.3.06-.3-.24-.59-.45-.77Z"/>
          <path class="cls-4" d="M50.53,87.89c.06-.32-.21-.59-.41-.81-.23-.24-.54-.38-.86-.46-.19-.05-.37.17-.22.33.21.22.4.46.61.68.2.21.34.43.64.48.14.02.23-.11.25-.22Z"/>
          <path class="cls-4" d="M40.64,95.28c.06-.33-.27-.65-.48-.87-.23-.24-.46-.46-.77-.6-.17-.08-.3.13-.24.27.12.28.31.53.49.78.2.28.36.6.72.67.15.03.26-.12.28-.25Z"/>
          <path class="cls-4" d="M41.2,93.11c.05-.33-.16-.66-.36-.9-.16-.19-.47-.38-.57-.61-.06-.12-.25-.08-.26.05-.04.56.29,1.1.56,1.58.17.3.58.21.63-.13Z"/>
          <path class="cls-4" d="M38.69,91.61c-.16-.23-.32-.47-.44-.72-.06-.13-.2-.2-.34-.17.06-.01-.18-.07-.15-.06-.16-.03-.31.14-.19.28.11.13.11.27.15.43.04.17.14.32.23.47.16.27.46.65.81.57.07-.02.15-.07.17-.15.07-.26-.08-.45-.22-.66Z"/>
          <path class="cls-4" d="M42.33,91.18c-.06-.24-.19-.45-.32-.66-.12-.21-.24-.44-.44-.58-.09-.07-.21-.01-.25.08-.18.46.16,1.2.54,1.47.21.15.53-.05.47-.31Z"/>
          <path class="cls-4" d="M46.5,89.12c-.09-.12-.2-.22-.29-.34-.04-.05-.16-.23-.18-.15.02-.14-.15-.24-.27-.18-.27.14-.22.47-.13.71.13.31.35.84.69.96.19.06.34-.04.42-.21.13-.27-.09-.59-.25-.79Z"/>
          <path class="cls-4" d="M44.46,89.27c-.03-.36-.35-.69-.57-.96-.22-.27-.42-.55-.69-.78-.11-.1-.25.02-.27.13-.07.38.14.74.35,1.04.21.31.51.73.89.83.18.05.32-.08.3-.26Z"/>
          <path class="cls-4" d="M47.98,87.34c-.21-.69-1.01-1.57-1.8-1.14-.13.07-.16.33.02.37.53.11.88.66,1.16,1.07.05.07.12.1.2.11.12.08.31.02.35-.13-.02.02-.03.04-.05.05.09-.08.15-.22.12-.34Z"/>
          <path class="cls-4" d="M45.79,87.44c-.14-.53-.77-.78-.97-1.29-.1-.26-.52-.11-.46.15.13.56.53,1.34,1.16,1.43.15.02.3-.15.26-.3Z"/>
          <path class="cls-4" d="M47.4,85.39c-.05-.35-.38-.56-.63-.77-.3-.26-.64-.53-1.04-.63-.13-.03-.27.09-.2.22.19.35.47.67.75.96.26.27.53.56.93.52.14-.01.21-.17.19-.29Z"/>
          <path class="cls-4" d="M40.36,89.92c-.09-.34-.5-.57-.74-.81-.25-.26-.51-.58-.86-.71-.12-.04-.24.07-.21.19.07.39.39.76.66,1.04.24.25.61.63.99.53.1-.03.19-.13.16-.24Z"/>
          <path class="cls-4" d="M42.13,89.21c.04-.37-.24-.68-.46-.95-.26-.33-.58-.63-.93-.87-.12-.08-.27.03-.25.16.07.39.27.69.48,1.02.2.31.48.73.84.85.15.05.29-.05.31-.21Z"/>
          <path class="cls-4" d="M37.67,89.46c-.02-.09-.08-.16-.13-.23-.11-.16-.24-.3-.37-.45-.21-.25-.49-.54-.78-.7-.12-.07-.35-.02-.34.16.03.39.31.74.54,1.03.12.15.28.33.45.43.09.06.17.13.29.14.04,0,.4-.09.15-.03.1-.02.18-.1.18-.21,0,.11.01-.13,0-.15Z"/>
          <path class="cls-4" d="M39.49,87.12c-.3-.54-.69-1.17-1.28-1.41-.12-.05-.23.07-.21.18.11.58.45,1.22.88,1.63.29.27.83-.01.61-.4Z"/>
          <path class="cls-4" d="M43.12,85.93c-.2-.32-.5-.56-.82-.75-.12-.07-.32.02-.27.18.1.33.27.59.43.89.11.21.31.73.64.57.37-.18.17-.64.01-.89Z"/>
          <path class="cls-4" d="M40.91,85.62c-.08-.39-.47-.79-.81-.98-.14-.08-.33.02-.29.19.08.38.25.92.61,1.11.23.12.54-.03.49-.32Z"/>
          <path class="cls-4" d="M44.92,85.07c-.15-.68-.7-1.19-1.25-1.58-.13-.09-.3.03-.27.18.09.44.31.81.56,1.17.18.26.45.9.85.56.09-.08.14-.22.12-.34Z"/>
          <path class="cls-4" d="M42.74,83.68c-.04-.28-.26-.45-.43-.66-.1-.12-.2-.24-.28-.38-.07-.12-.21-.22-.27-.33-.08-.14-.27-.09-.3.06,0,.03,0,.05,0,.06,0,0,0,.01-.02.02-.06.09-.05.19-.03.3.03.2.15.41.25.58.19.31.52.68.91.6.12-.03.19-.14.17-.26Z"/>
          <path class="cls-4" d="M44.93,82.98c-.01-.57-.66-1.06-1.18-1.2-.15-.04-.32.11-.23.27.11.21.24.41.37.61.17.25.31.5.6.62.19.07.45-.08.44-.29Z"/>
          <path class="cls-4" d="M36.68,86.5c-.17-.36-.47-.65-.77-.91-.11-.1-.33.04-.28.18.12.35.26.69.43,1.02.11.21.27.71.61.54.34-.17.12-.6,0-.84Z"/>
          <path class="cls-4" d="M34.87,84.65c-.18-.14-.38-.25-.56-.39-.18-.15-.29-.35-.39-.56-.06-.13-.24-.14-.32-.02-.48.69.59,1.6,1.25,1.31.15-.06.14-.26.03-.34Z"/>
          <path class="cls-4" d="M37.22,83.95c-.14-.16-.35-.45-.57-.56,0-.01-.02-.02-.03-.03-.01-.09-.12-.14-.2-.08-.04.03-.08.05-.1.09-.02.02-.1.18-.03.09-.1.13-.02.34.03.47.11.27.43.71.75.73.16.01.3-.08.33-.24.04-.19-.07-.32-.19-.46Z"/>
          <path class="cls-4" d="M40.08,82.41c-.22-.34-.52-.65-.85-.88-.1-.07-.26,0-.26.13,0,.38.2.69.37,1.02.1.18.21.36.31.54.09.17.16.35.32.45.11.07.24.04.32-.06.29-.35-.02-.88-.22-1.19Z"/>
          <path class="cls-4" d="M38.28,83.13c0-.27-.18-.49-.29-.72-.13-.25-.28-.48-.48-.68-.14-.13-.34-.03-.32.16.05.48.27,1.4.87,1.44.11,0,.22-.08.22-.2Z"/>
          <path class="cls-4" d="M42.81,80.17c-.22-.34-.57-.64-.96-.76-.18-.05-.33.12-.26.29.12.27.31.5.45.75.15.28.18.61.38.86.09.12.26.11.37.03.36-.28.25-.84.03-1.17Z"/>
          <path class="cls-4" d="M39.62,79.6c-.12-.06-.24.08-.21.19.04.2.13.38.22.56.1.2.17.44.37.55.21.11.45.01.48-.24.06-.44-.51-.89-.86-1.06Z"/>
          <path class="cls-4" d="M41.3,78.4c-.08-.34-.27-.62-.5-.88-.2-.22-.44-.48-.73-.59-.09-.03-.2.04-.2.14,0,.28.16.52.29.75.16.27.33.53.5.79.2.3.73.19.64-.22Z"/>
          <path class="cls-4" d="M35.25,81.85c-.19-.28-.46-.65-.81-.74-.13-.03-.26.06-.23.2.06.3.25.58.38.85.14.29.3.73.6.88.14.07.28.03.35-.12.17-.35-.1-.79-.29-1.08Z"/>
          <path class="cls-4" d="M33.36,80.51c-.14-.41-.23-.84-.46-1.21-.15-.24-.56-.21-.57.11-.02.52.1,1.08.46,1.47.28.31.69-.02.57-.37Z"/>
          <path class="cls-4" d="M36.92,80.6c.03-.29-.15-.52-.29-.75-.17-.28-.36-.56-.64-.74-.16-.1-.36.03-.33.22.07.49.38,1.51,1,1.51.14,0,.25-.09.26-.23Z"/>
          <path class="cls-4" d="M38.68,78.42c-.01-.22-.09-.43-.19-.62-.16-.29-.49-.58-.83-.6-.15-.01-.25.15-.19.29.1.22.25.42.34.65.06.14.11.28.15.43.01.06.03.12.05.17.02.03.03.05.05.08.08.05.1.07.04.06.06.17.34.18.43.03.1-.18.18-.26.17-.48Z"/>
          <path class="cls-4" d="M34.62,78.71c-.11-.2-.23-.38-.32-.59-.09-.22-.14-.45-.26-.66-.09-.16-.39-.19-.43.03-.12.58.04,1.38.62,1.66.24.12.51-.21.38-.43Z"/>
          <path class="cls-4" d="M36.14,76.63c-.07-.18-.16-.34-.27-.5-.1-.15-.22-.23-.33-.36-.09-.1-.24-.02-.22.11.05.3.16,1.81.79,1.5.3-.15.12-.53.03-.74Z"/>
          <path class="cls-4" d="M38.72,75.96c0-.11-.04-.22-.08-.33-.07-.23-.15-.46-.25-.67-.18-.37-.46-.85-.91-.9-.13-.01-.26.13-.22.25.12.37.36.7.49,1.06.07.19.15.38.23.57.03.07.08.16.13.22.04.05.09.08.15.1.11.02.12.02.04.02.14.12.38,0,.39-.19,0,.14.04-.13.04-.14Z"/>
          <path class="cls-4" d="M31.72,74.8c-.08-.13-.28-.1-.3.06-.04.43,0,.85.16,1.26.11.28.27.85.67.77.64-.13-.37-1.8-.53-2.09Z"/>
          <path class="cls-4" d="M33.82,74.57c-.15-.33-.35-.64-.57-.92-.11-.14-.35-.06-.36.12-.02.37.08.68.2,1.02.12.33.29.79.68.84.08.01.18-.04.22-.11.19-.33-.04-.65-.18-.96Z"/>
          <path class="cls-4" d="M35.66,73.43c-.22-.53-.56-1.12-.98-1.52-.22-.21-.65.01-.47.31.32.55.42,1.24.93,1.66.3.26.66-.16.53-.46Z"/>
          <path class="cls-4" d="M37.14,71.47c-.18-.39-.45-.8-.81-1.04-.1-.07-.24,0-.24.12-.03.41.13.8.27,1.17.11.28.39.91.8.71.38-.19.11-.7-.02-.95Z"/>
          <path class="cls-4" d="M32.26,72.57c-.12-.46-.47-.84-.66-1.26-.09-.2-.37-.12-.39.08-.07.56.06,1.16.52,1.54.23.19.61-.07.54-.36Z"/>
          <path class="cls-4" d="M33.16,70.45c-.15-.35-.34-.65-.57-.95-.08-.1-.25-.04-.25.08-.01.38.02.73.13,1.1.09.31.2.87.57.94.11.02.2,0,.27-.09.24-.29-.02-.79-.14-1.09Z"/>
          <path class="cls-4" d="M35.24,69.92c-.13-.65-.51-1.41-1.18-1.63-.21-.07-.39.15-.3.34.1.23.22.46.35.67.17.27.28.57.44.85.08.14.23.23.4.2.03,0,.06-.01.09-.03.14-.08.23-.23.2-.4Z"/>
          <path class="cls-4" d="M34.96,66.85c-.03-.18-.12-.35-.21-.5-.16-.27-.37-.49-.65-.64-.17-.1-.44.03-.38.25.06.24.16.44.29.65.08.13.16.26.23.39.07.13.16.22.24.34.1.15.38.09.42-.08.04-.16.09-.23.05-.4Z"/>
          <path class="cls-4" d="M32.7,67.78c-.02-.19-.11-.38-.18-.55-.11-.25-.28-.61-.51-.77-.07-.04-.15-.02-.2.04-.19.25-.08.6,0,.87.05.16.11.31.17.46.03.09.07.17.11.26.03.06.1.09.12.13.1.15.37.19.43-.03.04-.16.08-.24.06-.4Z"/>
          <path class="cls-4" d="M30.82,68.72c-.17-.35-.3-.66-.64-.88-.13-.08-.3.03-.28.18.05.29.17.52.27.79.12.3.07.66.32.89.11.11.26.1.36-.02.23-.29.1-.67-.04-.97Z"/>
          <path class="cls-4" d="M30.91,65.63c-.04-.45-.17-1.07-.46-1.43-.09-.11-.25-.06-.31.06-.23.5-.16,1.23.16,1.66.23.31.63.02.6-.29Z"/>
          <path class="cls-4" d="M33.38,64.94c-.01-.61-.28-1.16-.79-1.49-.12-.08-.27.02-.25.16.08.5.18.99.35,1.47.12.35.7.22.7-.14Z"/>
          <path class="cls-4" d="M31.34,62.7c-.11-.45-.35-.83-.53-1.25-.12-.27-.55-.12-.49.17.11.5.12.94.41,1.38.2.3.69.03.61-.3Z"/>
          <path class="cls-4" d="M33.11,62.01c-.09-.39-.28-.77-.46-1.12-.2-.38-.77-.1-.59.29.16.35.25.71.35,1.08.06.23.17.95.58.75.35-.17.2-.7.13-.99Z"/>
          <path class="cls-4" d="M31.4,59.96c-.07-.48-.26-.9-.54-1.29-.09-.12-.27-.03-.28.1-.05.45.03.89.12,1.33.1.46.77.32.71-.14Z"/>
          <path class="cls-4" d="M32.15,57.02c-.02-.24-.05-.46-.1-.7-.03-.14-.09-.71-.36-.6-.27.11-.28.52-.3.76-.01.19,0,.38.03.56.03.25.1.4.2.62.08.19.38.17.44-.03.07-.23.12-.37.1-.62Z"/>
          <path class="cls-4" d="M29.57,75.37c-.11-.13-.28-.04-.31.11-.04.24-.01.46.03.69.05.25.07.51.18.74.13.27.51.23.62-.04.2-.5-.18-1.14-.52-1.5Z"/>
          <path class="cls-4" d="M29.54,72.2c-.06-.03-.16.02-.17.08-.06.29.03.58.11.86.09.3.13.69.39.9.07.06.21.05.27-.02.45-.49-.07-1.57-.6-1.83Z"/>
          <path class="cls-4" d="M29.4,70.31c-.03-.15-.07-.31-.1-.46-.06-.29-.17-.56-.35-.79-.14-.19-.46-.07-.47.16-.01.3.04.6.11.9.04.14.07.29.12.43.06.15.14.23.24.35.14.17.41.06.43-.15.02-.16.04-.27.01-.44Z"/>
          <path class="cls-4" d="M43.52,113.27c-.11-.54-.62-.87-.98-1.24-.09-.09-.24-.02-.22.11.08.49.27,1.05.64,1.4.23.21.63.07.56-.27Z"/>
          <path class="cls-4" d="M42.13,112.77c-.03-.28-.32-.54-.49-.76-.18-.23-.4-.44-.69-.51-.15-.03-.35.11-.25.28.26.41.56,1.31,1.14,1.32.19,0,.31-.15.29-.33Z"/>
          <path class="cls-4" d="M43.84,111.05c0-.17,0-.26-.06-.42-.07-.18-.2-.35-.32-.51-.23-.29-.5-.53-.76-.8-.11-.12-.32-.03-.29.14.12.67.53,1.36,1.08,1.76.13.1.36,0,.35-.17Z"/>
          <path class="cls-4" d="M43.47,113.99c-.26-.18-.51.11-.42.36.12.34.75,1.43,1.22,1.02.44-.38-.52-1.18-.81-1.38Z"/>
          <path class="cls-4" d="M44.01,106.8c-.19-.15-.5.05-.43.29.12.47.38,1.28.89,1.45.13.04.28-.03.33-.16.19-.56-.38-1.26-.79-1.58Z"/>
          <path class="cls-4" d="M44.34,109.87c-.14-.13-.34-.03-.32.16.02.28.21,1.46.71,1.21.53-.26-.13-1.14-.39-1.37Z"/>
          <path class="cls-4" d="M44.46,103.67c-.13.02-.17.17-.09.27.18.23.42.42.61.65.21.24.4.59.72.7.11.04.25-.02.29-.14.22-.71-.86-1.6-1.53-1.47Z"/>
          <path class="cls-4" d="M45.39,106.3c-.09-.12-.2-.24-.32-.34-.14-.11-.31-.18-.44-.3-.13-.13-.35,0-.27.18.2.46.42,1.02.86,1.31.12.08.3.03.34-.11.09-.29,0-.51-.17-.74Z"/>
          <path class="cls-4" d="M42.45,107.01c-.36-.35-.81-.86-1.31-1.02-.14-.04-.32.08-.27.24.16.57.69,1.08,1.22,1.32.1.05.25.01.33-.06.05-.04.08-.08.1-.15.03-.11.02-.25-.06-.33Z"/>
          <path class="cls-4" d="M43.03,104.7c-.11-.56-.77-1.29-1.39-1.29-.1,0-.17.1-.13.19.14.28.35.53.52.79.19.27.38.48.7.57.16.04.33-.08.29-.26Z"/>
          <path class="cls-4" d="M43.82,103.13c-.1-.61-.77-1.12-1.25-1.46-.2-.14-.47.09-.36.31.25.53.71,1.23,1.29,1.43.18.06.35-.1.32-.28Z"/>
          <path class="cls-4" d="M40.87,109.49c-.17-.21-.38-.5-.64-.62-.03-.05-.09-.08-.15-.05-.29.17-.09.61.02.83.18.37.46.94.85,1.13.21.1.42-.1.44-.3.04-.34-.31-.75-.51-.99Z"/>
          <path class="cls-4" d="M39.02,108.56c-.48-.35-.91-.78-1.34-1.19-.12-.11-.3-.03-.28.14.09.67.66,1.44,1.34,1.62.35.09.58-.35.28-.57Z"/>
          <path class="cls-4" d="M38.83,105.87c-.1.02-.13.13-.07.21.14.19.34.36.5.54.21.22.41.45.67.62.1.07.24.08.35.03.77-.42-.92-1.51-1.44-1.39Z"/>
          <path class="cls-4" d="M41.06,104.67c-.06-.46-.71-.98-1.14-1.08-.26-.06-.42.19-.27.41.13.2.31.38.47.56.18.22.37.4.65.45.2.03.32-.18.3-.34Z"/>
          <path class="cls-4" d="M41.54,102.56c-.04-.31-.34-.61-.55-.82-.23-.22-.49-.41-.74-.61-.14-.1-.38.04-.33.22.1.31.23.54.42.8.2.26.52.63.84.73.21.06.39-.11.36-.32Z"/>
          <path class="cls-4" d="M40.4,99.56c-.2-.26-.44-.48-.73-.64-.34-.19-.63.24-.34.49.2.17.36.4.52.62.17.22.31.48.61.5.1,0,.2-.06.23-.16.1-.31-.12-.57-.3-.81Z"/>
          <path class="cls-4" d="M37.96,103.47c-.12-.08-.3.02-.26.18.1.37.21,1.13.63,1.26.1.03.18,0,.24-.08.38-.43-.26-1.14-.61-1.35Z"/>
          <path class="cls-4" d="M37.2,105.09c-.32-.45-.78-1.09-1.36-1.22-.15-.04-.26.09-.21.24.19.55.67,1.14,1.15,1.45.09.06.23.08.32.02.08-.05.12-.1.16-.18.05-.1,0-.23-.06-.31Z"/>
          <path class="cls-4" d="M38.17,100.4c-.21-.09-.36.16-.29.33.1.27.78,1.71,1.21,1.27.5-.5-.49-1.41-.92-1.6Z"/>
          <path class="cls-4" d="M36.39,101.93c-.26-.29-.51-.59-.8-.84-.11-.1-.24.04-.23.15.04.39.25.72.46,1.04.18.27.45.79.81.79.1,0,.18-.05.22-.15.15-.33-.25-.76-.46-1Z"/>
          <path class="cls-4" d="M34.31,100.95c-.27-.33-.49-.7-.78-1.03-.12-.13-.34-.02-.31.15.07.41.15.76.38,1.12.18.29.58.75.95.52.33-.2-.11-.6-.25-.76Z"/>
          <path class="cls-4" d="M36.86,99.85c-.08-.26-.22-.48-.38-.7-.19-.26-.43-.49-.6-.75-.08-.13-.26-.07-.25.08.05.63.21,1.27.73,1.7.21.17.58-.06.5-.33Z"/>
          <path class="cls-4" d="M38.44,97.85c-.06-.21-.19-.39-.32-.58-.21-.3-.61-.61-.98-.67-.1-.02-.21.1-.18.2.1.3.33.53.49.79.18.28.35.59.57.83.11.12.34.1.39-.08.05-.19.07-.3.01-.5Z"/>
          <path class="cls-4" d="M36.66,97.32c-.18-.51-.5-.98-.91-1.32-.11-.09-.31.03-.26.18.14.49.34.99.61,1.42.07.11.2.21.34.17.05-.02.1-.04.14-.07.12-.09.12-.25.08-.38Z"/>
          <path class="cls-4" d="M34.07,97.65c-.19-.35-.32-.73-.5-1.09-.06-.13-.24-.1-.29.02-.16.39-.03.78.13,1.15.1.24.22.46.34.69.11.21.18.43.39.56.18.11.41,0,.43-.21.03-.39-.32-.79-.5-1.12Z"/>
          <path class="cls-4" d="M32.43,95.78c-.15-.27-.31-.51-.43-.8-.11-.28-.16-.56-.24-.85-.06-.22-.32-.21-.41-.03-.31.63.01,1.72.58,2.1.27.18.67-.12.49-.43Z"/>
          <path class="cls-4" d="M34.4,94.72c-.28-.43-.64-.81-.92-1.24-.07-.1-.25-.1-.25.05-.01.56.14,1.19.57,1.59.28.25.85-.02.6-.4Z"/>
          <path class="cls-4" d="M36.06,93.97c-.21-.43-.52-.79-.71-1.23-.14-.33-.71-.14-.59.2.14.41.31.8.5,1.18.13.27.33.85.73.77.44-.09.19-.68.07-.92Z"/>
          <path class="cls-4" d="M32.15,92.69c-.08-.29-.29-.56-.46-.82-.16-.24-.38-.53-.68-.57-.09-.01-.2.08-.19.17.02.27.18.54.29.79.12.26.3.61.56.75.21.11.56-.02.48-.31Z"/>
          <path class="cls-4" d="M33.6,91.88c-.13-.55-.45-1.17-1.01-1.37-.1-.04-.23.06-.2.17.09.32.58,2,1.1,1.52.09-.08.14-.2.11-.32Z"/>
          <path class="cls-4" d="M30.72,89.74c-.24-.44-.49-.88-.75-1.31-.16-.27-.54-.14-.51.17.06.59.32,1.17.79,1.54.08.07.23.08.32.02.05-.03.09-.06.13-.11.06-.09.08-.23.02-.32Z"/>
          <path class="cls-4" d="M34.32,90.64c-.17-.23-.43-.39-.59-.62-.07-.1-.24-.03-.24.08,0,.26.03.45.13.69.09.23.25.61.48.73.12.06.22.04.31-.06.21-.23.07-.6-.09-.82Z"/>
          <path class="cls-4" d="M32.07,88.33c-.16-.28-.34-.58-.65-.72-.08-.04-.19.04-.19.13,0,.31.14.62.24.91.1.31.28.76.57.94.17.1.36,0,.38-.19.05-.34-.18-.79-.35-1.07Z"/>
          <path class="cls-4" d="M32.45,87.04c-.12-.11-.27.04-.25.17.05.43.32,1.11.73,1.3.08.04.21,0,.25-.08.3-.52-.38-1.08-.72-1.39Z"/>
          <path class="cls-4" d="M30.23,86.6c-.11-.33-.31-.64-.51-.92-.14-.2-.47-.06-.48.16,0,.42.2.79.46,1.11.25.31.64-.03.53-.35Z"/>
          <path class="cls-4" d="M30.9,84.46c-.12-.05-.22.07-.21.18.04.3.15.6.21.9.04.19.14.54.41.44.15-.05.22-.13.25-.29.09-.48-.22-1.03-.67-1.23Z"/>
          <path class="cls-4" d="M30.08,83.98c-.17-.66-.39-1.35-.87-1.84-.17-.17-.52.02-.38.25.34.55.25,1.27.58,1.82.2.33.77.19.67-.23Z"/>
          <path class="cls-4" d="M30.98,82.77c0-.31-.07-.6-.21-.88-.1-.22-.21-.52-.42-.66-.07-.05-.15-.02-.2.04-.16.2-.1.51-.07.74.05.31.14.6.27.88.13.3.62.2.62-.12Z"/>
          <path class="cls-4" d="M29.76,80.3c.01-.3-.07-.58-.13-.87-.05-.27-.06-.57-.17-.82-.08-.18-.32-.17-.43-.03-.37.5-.18,1.45.14,1.92.06.09.21.14.32.11.03,0,.05-.02.08-.03.11-.04.18-.17.19-.28Z"/>
        </g>
      </g>
      <text class="cls-1" transform="translate(42.13 76.32) scale(1.17 1)"><tspan class="cls-2" x="0" y="0">P</tspan><tspan x="11.77" y="0">.I 1</tspan></text>
    </g>
  </g>
</svg>