<svg xmlns="http://www.w3.org/2000/svg" viewBox="0 0 394.18 167.74"><defs><style>.cls-1{font-size:21px;fill:#fff;font-family:MyriadPro-Regular, Myriad Pro;}.cls-2{letter-spacing:0.05em;}.cls-3{letter-spacing:-0.01em;}.cls-4{letter-spacing:0em;}.cls-5{letter-spacing:0em;}.cls-6{letter-spacing:0.05em;}.cls-7{letter-spacing:0.05em;}.cls-8{letter-spacing:-0.01em;}.cls-9{letter-spacing:0.22em;}.cls-10{letter-spacing:-0.01em;}.cls-11{letter-spacing:0.22em;}.cls-12{letter-spacing:0.22em;}.cls-13{letter-spacing:0em;}.cls-14{letter-spacing:0.03em;}.cls-15{letter-spacing:0.03em;}.cls-16{letter-spacing:0.03em;}.cls-17{letter-spacing:0em;}.cls-18{letter-spacing:-0.01em;}.cls-19{letter-spacing:0.02em;}</style></defs><g id="Capa_2" data-name="Capa 2"><g id="Capa_1-2" data-name="Capa 1"><text class="cls-1" transform="translate(0 17.58)">Una<tspan class="cls-2" x="35.36" y="0"> </tspan><tspan class="cls-3" x="40.83" y="0">t</tspan><tspan x="47.65" y="0">o</tspan><tspan class="cls-4" x="59.18" y="0">r</tspan><tspan x="66.13" y="0">me</tspan><tspan class="cls-5" x="94.17" y="0">n</tspan><tspan class="cls-3" x="105.74" y="0">t</tspan><tspan x="112.56" y="0">osa</tspan><tspan class="cls-6" x="142.53" y="0"> </tspan><tspan x="147.99" y="0">noche</tspan><tspan class="cls-7" x="202.76" y="0"> </tspan><tspan x="208.22" y="0">de</tspan><tspan class="cls-6" x="230.58" y="0"> </tspan><tspan x="236.05" y="0">i</tspan><tspan class="cls-8" x="240.96" y="0">n</tspan><tspan x="252.34" y="0">vie</tspan><tspan class="cls-4" x="277.88" y="0">r</tspan><tspan x="284.83" y="0">no</tspan><tspan class="cls-7" x="308.01" y="0"> </tspan><tspan x="313.48" y="0">en</tspan><tspan class="cls-6" x="335.65" y="0"> </tspan><tspan x="341.12" y="0">Hong </tspan><tspan x="0" y="25.2">Kong(china)</tspan><tspan class="cls-9" x="105.99" y="25.2"> </tspan><tspan x="115.03" y="25.2">la</tspan><tspan class="cls-9" x="130.11" y="25.2"> </tspan><tspan x="139.16" y="25.2">p</tspan><tspan class="cls-10" x="151.11" y="25.2">r</tspan><tspan x="157.77" y="25.2">esti</tspan><tspan class="cls-3" x="188.47" y="25.2">g</tspan><tspan x="200.08" y="25.2">iosa</tspan><tspan class="cls-11" x="234.96" y="25.2"> </tspan><tspan x="244.01" y="25.2">familia</tspan><tspan class="cls-12" x="302.69" y="25.2"> </tspan><tspan x="311.74" y="25.2">Shino</tspan><tspan class="cls-12" x="361.84" y="25.2"> </tspan><tspan x="370.89" y="25.2">se </tspan><tspan x="0" y="50.4">en</tspan><tspan class="cls-3" x="22.18" y="50.4">c</tspan><tspan x="31.46" y="50.4">o</tspan><tspan class="cls-5" x="42.99" y="50.4">n</tspan><tspan x="54.56" y="50.4">t</tspan><tspan class="cls-13" x="61.51" y="50.4">r</tspan><tspan x="68.27" y="50.4">aba</tspan><tspan class="cls-14" x="100.46" y="50.4"> </tspan><tspan x="105.6" y="50.4">en</tspan><tspan class="cls-14" x="127.77" y="50.4"> </tspan><tspan x="132.9" y="50.4">una</tspan><tspan class="cls-15" x="166.25" y="50.4"> </tspan><tspan class="cls-10" x="171.39" y="50.4">r</tspan><tspan x="178.04" y="50.4">eunión</tspan><tspan class="cls-16" x="239.89" y="50.4"> </tspan><tspan x="245.02" y="50.4">de</tspan><tspan class="cls-15" x="267.39" y="50.4"> </tspan><tspan x="272.52" y="50.4">negocios</tspan><tspan class="cls-16" x="352.13" y="50.4"> </tspan><tspan class="cls-3" x="357.27" y="50.4">c</tspan><tspan x="366.55" y="50.4">on </tspan><tspan x="0" y="75.6">ot</tspan><tspan class="cls-17" x="18.48" y="75.6">r</tspan><tspan x="25.24" y="75.6">a pode</tspan><tspan class="cls-18" x="85.66" y="75.6">r</tspan><tspan x="92.31" y="75.6">osa familia de Japón, los Osa</tspan><tspan class="cls-19" x="340.66" y="75.6">k</tspan><tspan x="350.86" y="75.6">i.</tspan></text></g></g></svg>