<svg xmlns="http://www.w3.org/2000/svg" viewBox="0 0 460.54 167.74"><defs><style>.cls-1{font-size:21px;fill:#fff;font-family:MyriadPro-Regular, Myriad Pro;}.cls-2{letter-spacing:-0.01em;}.cls-3{letter-spacing:0.07em;}.cls-4{letter-spacing:0.07em;}.cls-5{letter-spacing:0.07em;}.cls-6{letter-spacing:-0.01em;}.cls-7{letter-spacing:-0.02em;}.cls-8{letter-spacing:-0.04em;}.cls-9{letter-spacing:-0.04em;}.cls-10{letter-spacing:-0.04em;}.cls-11{letter-spacing:0em;}.cls-12{letter-spacing:-0.05em;}</style></defs><g id="Capa_2" data-name="Capa 2"><g id="Capa_1-2" data-name="Capa 1"><text class="cls-1" transform="translate(0 17.58)"><tspan class="cls-2">A</tspan><tspan x="12.73" y="0">sher</tspan><tspan class="cls-3" x="50.08" y="0"> </tspan><tspan x="56.03" y="0">piensa</tspan><tspan class="cls-4" x="113.51" y="0"> </tspan><tspan x="119.46" y="0">que</tspan><tspan class="cls-5" x="153.38" y="0"> </tspan><tspan x="159.32" y="0">lo</tspan><tspan class="cls-3" x="175.81" y="0"> </tspan><tspan x="181.76" y="0">han</tspan><tspan class="cls-3" x="215.19" y="0"> </tspan><tspan x="221.14" y="0">abandonado</tspan><tspan class="cls-3" x="333.51" y="0"> </tspan><tspan x="339.46" y="0">de</tspan><tspan class="cls-3" x="361.83" y="0"> </tspan><tspan x="367.78" y="0">nue</tspan><tspan class="cls-6" x="401.53" y="0">v</tspan><tspan class="cls-7" x="411.42" y="0">o</tspan><tspan x="422.44" y="0">,</tspan><tspan class="cls-3" x="426.79" y="0"> </tspan><tspan x="432.74" y="0">así </tspan><tspan x="0" y="25.2">que</tspan><tspan class="cls-8" x="33.91" y="25.2"> </tspan><tspan x="37.55" y="25.2">decide</tspan><tspan class="cls-8" x="96.61" y="25.2"> </tspan><tspan class="cls-6" x="100.25" y="25.2">r</tspan><tspan x="106.9" y="25.2">eha</tspan><tspan class="cls-2" x="139.2" y="25.2">c</tspan><tspan x="148.48" y="25.2">er</tspan><tspan class="cls-9" x="165.87" y="25.2"> </tspan><tspan x="169.51" y="25.2">su</tspan><tspan class="cls-9" x="189.4" y="25.2"> </tspan><tspan x="193.04" y="25.2">vida</tspan><tspan class="cls-10" x="230.02" y="25.2"> </tspan><tspan x="233.66" y="25.2">buscando</tspan><tspan class="cls-9" x="320.05" y="25.2"> </tspan><tspan x="323.69" y="25.2">un</tspan><tspan class="cls-9" x="346.92" y="25.2"> </tspan><tspan class="cls-6" x="350.56" y="25.2">r</tspan><tspan x="357.21" y="25.2">efu</tspan><tspan class="cls-2" x="385.44" y="25.2">g</tspan><tspan x="397.05" y="25.2">io</tspan><tspan class="cls-10" x="413.49" y="25.2"> </tspan><tspan x="417.13" y="25.2">pa</tspan><tspan class="cls-11" x="439.2" y="25.2">r</tspan><tspan x="445.97" y="25.2">a </tspan><tspan x="0" y="50.4">vivi</tspan><tspan class="cls-12" x="30.03" y="50.4">r</tspan><tspan x="35.78" y="50.4">.</tspan></text></g></g></svg>