<svg xmlns="http://www.w3.org/2000/svg" viewBox="0 0 278 88.62"><defs><style>.cls-1{font-size:17px;fill:#fff;font-family:MyriadPro-Regular, Myriad Pro;}.cls-2{letter-spacing:0.01em;}.cls-3{letter-spacing:0em;}.cls-4{letter-spacing:0.21em;}.cls-5{letter-spacing:0em;}.cls-6{letter-spacing:0.21em;}.cls-7{letter-spacing:0em;}.cls-8{letter-spacing:-0.01em;}.cls-9{letter-spacing:-0.02em;}.cls-10{letter-spacing:-0.01em;}.cls-11{letter-spacing:-0.01em;}</style></defs><g id="Capa_2" data-name="Capa 2"><g id="Capa_1-2" data-name="Capa 1"><text class="cls-1" transform="translate(0 14.23)"><tspan class="cls-2">S</tspan><tspan x="8.48" y="0">o</tspan><tspan class="cls-3" x="17.82" y="0">r</tspan><tspan x="23.29" y="0">a</tspan><tspan class="cls-4" x="31.48" y="0"> </tspan><tspan x="38.69" y="0">e</tspan><tspan class="cls-5" x="47.2" y="0">n</tspan><tspan x="56.57" y="0">t</tspan><tspan class="cls-3" x="62.2" y="0">r</tspan><tspan x="67.67" y="0">a</tspan><tspan class="cls-6" x="75.86" y="0"> </tspan><tspan x="83.07" y="0">al</tspan><tspan class="cls-4" x="95.27" y="0"> </tspan><tspan x="102.47" y="0">supe</tspan><tspan class="cls-7" x="136.76" y="0">r</tspan><tspan x="142.39" y="0">me</tspan><tspan class="cls-8" x="165.08" y="0">r</tspan><tspan x="170.47" y="0">cad</tspan><tspan class="cls-9" x="195.87" y="0">o</tspan><tspan x="204.8" y="0">,</tspan><tspan class="cls-4" x="208.31" y="0"> </tspan><tspan x="215.52" y="0">pe</tspan><tspan class="cls-8" x="233.71" y="0">r</tspan><tspan x="239.1" y="0">o</tspan><tspan class="cls-4" x="248.43" y="0"> </tspan><tspan x="255.63" y="0">no </tspan><tspan class="cls-10" x="0" y="20.4">c</tspan><tspan x="7.51" y="20.4">on buenas i</tspan><tspan class="cls-5" x="89.39" y="20.4">n</tspan><tspan class="cls-10" x="98.75" y="20.4">t</tspan><tspan x="104.28" y="20.4">encione</tspan><tspan class="cls-11" x="161.11" y="20.4">s</tspan><tspan x="167.65" y="20.4">...</tspan></text></g></g></svg>