<?xml version="1.0" encoding="UTF-8"?>
<svg id="Capa_2" data-name="Capa 2" xmlns="http://www.w3.org/2000/svg" xmlns:xlink="http://www.w3.org/1999/xlink" viewBox="0 0 274.64 207.74">
  <defs>
    <style>
      .cls-1 {
        font-family: MyriadPro-Regular, 'Myriad Pro';
        font-size: 14px;
      }

      .cls-2 {
        letter-spacing: -.01em;
      }

      .cls-3 {
        letter-spacing: .22em;
      }

      .cls-4 {
        letter-spacing: 0em;
      }

      .cls-5 {
        letter-spacing: .22em;
      }

      .cls-6 {
        fill: url(#linear-gradient);
        stroke-width: 0px;
      }

      .cls-7 {
        letter-spacing: -.01em;
      }

      .cls-8 {
        letter-spacing: -.02em;
      }

      .cls-9 {
        letter-spacing: 0em;
      }

      .cls-10 {
        letter-spacing: -.03em;
      }

      .cls-11 {
        letter-spacing: 0em;
      }

      .cls-12 {
        letter-spacing: .81em;
      }

      .cls-13 {
        letter-spacing: .81em;
      }

      .cls-14 {
        letter-spacing: 0em;
      }

      .cls-15 {
        letter-spacing: -.01em;
      }

      .cls-16 {
        letter-spacing: 0em;
      }

      .cls-17 {
        letter-spacing: 0em;
      }

      .cls-18 {
        letter-spacing: -.01em;
      }

      .cls-19 {
        letter-spacing: -.01em;
      }

      .cls-20 {
        letter-spacing: 0em;
      }

      .cls-21 {
        letter-spacing: 0em;
      }

      .cls-22 {
        letter-spacing: -.05em;
      }

      .cls-23 {
        letter-spacing: .08em;
      }

      .cls-24 {
        letter-spacing: .27em;
      }

      .cls-25 {
        letter-spacing: .27em;
      }
    </style>
    <linearGradient id="linear-gradient" x1="47.89" y1="103.87" x2="322.52" y2="103.87" gradientTransform="translate(322.52) rotate(-180) scale(1 -1)" gradientUnits="userSpaceOnUse">
      <stop offset="0" stop-color="#fff"/>
      <stop offset="1" stop-color="#f1f2f2"/>
    </linearGradient>
  </defs>
  <g id="OBJECT">
    <path class="cls-6" d="m137.32,0c75.84,0,137.32,33.25,137.32,74.28,0,14.92-8.17,28.81-22.17,40.45l-89.56,93.01,9.98-60.86c-30.93,3.99-39.75,5.99-67.84,5.99C29.2,152.87,0,115.3,0,74.28S61.48,0,137.32,0Z"/>
    <text class="cls-1" transform="translate(30.88 45.35)"><tspan class="cls-15" x="0" y="0">L</tspan><tspan x="6.41" y="0">o</tspan><tspan class="cls-23" x="14.1" y="0"> </tspan><tspan x="18.15" y="0">sie</tspan><tspan class="cls-17" x="33.99" y="0">n</tspan><tspan class="cls-9" x="41.7" y="0">t</tspan><tspan x="46.25" y="0">o</tspan><tspan class="cls-23" x="53.94" y="0"> </tspan><tspan x="57.99" y="0">much</tspan><tspan class="cls-8" x="91.42" y="0">o</tspan><tspan class="cls-14" x="98.77" y="0">,</tspan><tspan class="cls-23" x="101.67" y="0"> </tspan><tspan class="cls-21" x="105.72" y="0">no</tspan><tspan class="cls-23" x="121.18" y="0"> </tspan><tspan x="125.23" y="0">estaba</tspan><tspan class="cls-23" x="163.89" y="0"> </tspan><tspan x="167.94" y="0">en</tspan><tspan class="cls-23" x="182.73" y="0"> </tspan><tspan class="cls-4" x="186.78" y="0">t</tspan><tspan x="191.33" y="0">odos </tspan><tspan x="0" y="16.8">mis</tspan><tspan class="cls-12" x="20.5" y="16.8"> </tspan><tspan x="34.85" y="16.8">se</tspan><tspan class="cls-17" x="47.41" y="16.8">n</tspan><tspan x="55.12" y="16.8">tido</tspan><tspan class="cls-18" x="78.61" y="16.8">s</tspan><tspan x="84" y="16.8">,</tspan><tspan class="cls-12" x="86.9" y="16.8"> </tspan><tspan x="101.26" y="16.8">pe</tspan><tspan class="cls-20" x="116.24" y="16.8">r</tspan><tspan x="120.67" y="16.8">o</tspan><tspan class="cls-13" x="128.36" y="16.8"> </tspan><tspan x="142.72" y="16.8">por</tspan><tspan class="cls-12" x="162.95" y="16.8"> </tspan><tspan x="177.3" y="16.8">f</tspan><tspan class="cls-16" x="181.39" y="16.8">a</tspan><tspan class="cls-2" x="188.02" y="16.8">v</tspan><tspan x="194.62" y="16.8">o</tspan><tspan class="cls-22" x="202.3" y="16.8">r</tspan><tspan x="206.14" y="16.8">… </tspan><tspan class="cls-10" x="0" y="33.6">P</tspan><tspan x="7.1" y="33.6">e</tspan><tspan class="cls-20" x="14.11" y="33.6">r</tspan><tspan x="18.55" y="33.6">dónam</tspan><tspan class="cls-7" x="60.33" y="33.6">e</tspan><tspan x="67.17" y="33.6">…</tspan><tspan class="cls-25" x="81.17" y="33.6"> </tspan><tspan x="87.96" y="33.6">¡Ha</tspan><tspan class="cls-2" x="107.06" y="33.6">r</tspan><tspan x="111.49" y="33.6">é</tspan><tspan class="cls-24" x="118.51" y="33.6"> </tspan><tspan x="125.3" y="33.6">lo</tspan><tspan class="cls-25" x="136.29" y="33.6"> </tspan><tspan x="143.07" y="33.6">que</tspan><tspan class="cls-25" x="165.68" y="33.6"> </tspan><tspan x="172.47" y="33.6">sea!</tspan><tspan class="cls-25" x="195" y="33.6"> </tspan><tspan class="cls-11" x="201.79" y="33.6">M</tspan><tspan x="213.13" y="33.6">e </tspan><tspan x="0" y="50.4">desha</tspan><tspan class="cls-2" x="34.97" y="50.4">r</tspan><tspan x="39.41" y="50.4">é</tspan><tspan class="cls-5" x="46.42" y="50.4"> </tspan><tspan x="52.53" y="50.4">de</tspan><tspan class="cls-3" x="67.44" y="50.4"> </tspan><tspan x="73.54" y="50.4">es</tspan><tspan class="cls-9" x="86.1" y="50.4">t</tspan><tspan x="90.65" y="50.4">e</tspan><tspan class="cls-5" x="97.66" y="50.4"> </tspan><tspan class="cls-14" x="103.76" y="50.4">niño</tspan><tspan class="cls-3" x="130.26" y="50.4"> </tspan><tspan x="136.37" y="50.4">si</tspan><tspan class="cls-5" x="145.19" y="50.4"> </tspan><tspan x="151.29" y="50.4">eso</tspan><tspan class="cls-5" x="171.53" y="50.4"> </tspan><tspan class="cls-14" x="177.64" y="50.4">desea</tspan><tspan class="cls-19" x="211.85" y="50.4">s</tspan><tspan class="cls-14" x="217.24" y="50.4">, </tspan><tspan x="0" y="67.2">solo no me bo</tspan><tspan class="cls-9" x="82.92" y="67.2">t</tspan><tspan x="87.47" y="67.2">es a la call</tspan><tspan class="cls-7" x="145.36" y="67.2">e</tspan><tspan x="152.2" y="67.2">.</tspan></text>
  </g>
</svg>