<?xml version="1.0" encoding="UTF-8"?>
<svg id="Capa_2" data-name="Capa 2" xmlns="http://www.w3.org/2000/svg" xmlns:xlink="http://www.w3.org/1999/xlink" viewBox="0 0 274.64 168.24">
  <defs>
    <style>
      .cls-1 {
        font-family: MyriadPro-Regular, 'Myriad Pro';
        font-size: 14px;
      }

      .cls-2 {
        letter-spacing: -.01em;
      }

      .cls-3 {
        letter-spacing: .02em;
      }

      .cls-4 {
        letter-spacing: 0em;
      }

      .cls-5 {
        fill: url(#linear-gradient);
        stroke-width: 0px;
      }

      .cls-6 {
        letter-spacing: .49em;
      }

      .cls-7 {
        letter-spacing: .49em;
      }

      .cls-8 {
        letter-spacing: 0em;
      }

      .cls-9 {
        letter-spacing: 0em;
      }

      .cls-10 {
        letter-spacing: -.01em;
      }

      .cls-11 {
        letter-spacing: 0em;
      }

      .cls-12 {
        letter-spacing: .17em;
      }

      .cls-13 {
        letter-spacing: 0em;
      }

      .cls-14 {
        letter-spacing: 1.46em;
      }

      .cls-15 {
        letter-spacing: .27em;
      }

      .cls-16 {
        letter-spacing: .27em;
      }
    </style>
    <linearGradient id="linear-gradient" x1="0" y1="84.12" x2="274.64" y2="84.12" gradientTransform="translate(274.64) rotate(-180) scale(1 -1)" gradientUnits="userSpaceOnUse">
      <stop offset="0" stop-color="#fff"/>
      <stop offset="1" stop-color="#f1f2f2"/>
    </linearGradient>
  </defs>
  <g id="OBJECT">
    <path class="cls-5" d="m137.32,0c75.84,0,137.32,33.25,137.32,74.28,0,14.92-8.17,28.81-22.17,40.45l14.58,53.52-53.77-32.09c-21.76,7.83-47.86,12.4-75.95,12.4C61.48,148.55,0,115.3,0,74.28S61.48,0,137.32,0Z"/>
    <text class="cls-1" transform="translate(30.88 45.35)"><tspan x="0" y="0">¡¿Estás</tspan><tspan class="cls-7" x="38.26" y="0"> </tspan><tspan x="48.03" y="0">loca?!</tspan><tspan class="cls-7" x="80.95" y="0"> </tspan><tspan x="90.72" y="0">¡</tspan><tspan class="cls-10" x="93.94" y="0">C</tspan><tspan x="101.9" y="0">omo</tspan><tspan class="cls-6" x="128.95" y="0"> </tspan><tspan x="138.72" y="0">se</tspan><tspan class="cls-7" x="151.28" y="0"> </tspan><tspan class="cls-8" x="161.05" y="0">t</tspan><tspan x="165.6" y="0">e</tspan><tspan class="cls-7" x="172.61" y="0"> </tspan><tspan x="182.38" y="0">ocu</tspan><tspan class="cls-4" x="204.05" y="0">r</tspan><tspan class="cls-2" x="208.69" y="0">r</tspan><tspan x="213.13" y="0">e </tspan><tspan x="0" y="16.8">a</tspan><tspan class="cls-8" x="6.75" y="16.8">c</tspan><tspan x="12.94" y="16.8">osta</tspan><tspan class="cls-3" x="37.55" y="16.8">r</tspan><tspan class="cls-8" x="42.46" y="16.8">t</tspan><tspan x="47.01" y="16.8">e</tspan><tspan class="cls-14" x="54.03" y="16.8"> </tspan><tspan class="cls-8" x="77.44" y="16.8">c</tspan><tspan x="83.63" y="16.8">on</tspan><tspan class="cls-14" x="99.09" y="16.8"> </tspan><tspan x="122.51" y="16.8">ot</tspan><tspan class="cls-2" x="134.83" y="16.8">r</tspan><tspan x="139.27" y="16.8">o</tspan><tspan class="cls-14" x="146.95" y="16.8"> </tspan><tspan x="170.37" y="16.8">homb</tspan><tspan class="cls-13" x="205.47" y="16.8">r</tspan><tspan x="209.91" y="16.8">e! </tspan><tspan class="cls-9" x="0" y="33.6">M</tspan><tspan x="11.34" y="33.6">anchas</tspan><tspan class="cls-8" x="52.19" y="33.6">t</tspan><tspan x="56.74" y="33.6">e</tspan><tspan class="cls-12" x="63.76" y="33.6"> </tspan><tspan x="69.16" y="33.6">el</tspan><tspan class="cls-12" x="79.47" y="33.6"> </tspan><tspan x="84.87" y="33.6">apellido</tspan><tspan class="cls-12" x="132.07" y="33.6"> </tspan><tspan x="137.47" y="33.6">de</tspan><tspan class="cls-12" x="152.38" y="33.6"> </tspan><tspan x="157.77" y="33.6">mi</tspan><tspan class="cls-12" x="172.73" y="33.6"> </tspan><tspan x="178.13" y="33.6">familia, </tspan><tspan x="0" y="50.4">me</tspan><tspan class="cls-16" x="18.69" y="50.4"> </tspan><tspan x="25.49" y="50.4">fuis</tspan><tspan class="cls-8" x="46.11" y="50.4">t</tspan><tspan x="50.66" y="50.4">e</tspan><tspan class="cls-16" x="57.67" y="50.4"> </tspan><tspan x="64.47" y="50.4">infiel</tspan><tspan class="cls-16" x="93.16" y="50.4"> </tspan><tspan x="99.96" y="50.4">y</tspan><tspan class="cls-15" x="106.55" y="50.4"> </tspan><tspan x="113.35" y="50.4">además</tspan><tspan class="cls-16" x="158.98" y="50.4"> </tspan><tspan x="165.78" y="50.4">quedas</tspan><tspan class="cls-8" x="208.57" y="50.4">t</tspan><tspan x="213.12" y="50.4">e </tspan><tspan x="0" y="67.2">emba</tspan><tspan class="cls-11" x="33.4" y="67.2">r</tspan><tspan x="37.91" y="67.2">azada… </tspan></text>
  </g>
</svg>