<?xml version="1.0" encoding="UTF-8"?>
<svg id="Capa_2" data-name="Capa 2" xmlns="http://www.w3.org/2000/svg" xmlns:xlink="http://www.w3.org/1999/xlink" viewBox="0 0 274.64 168.24">
  <defs>
    <style>
      .cls-1 {
        font-family: MyriadPro-Regular, 'Myriad Pro';
        font-size: 14px;
      }

      .cls-2 {
        letter-spacing: -.01em;
      }

      .cls-3 {
        fill: url(#linear-gradient);
        stroke-width: 0px;
      }

      .cls-4 {
        letter-spacing: -.02em;
      }

      .cls-5 {
        letter-spacing: 0em;
      }

      .cls-6 {
        letter-spacing: .03em;
      }

      .cls-7 {
        letter-spacing: .03em;
      }

      .cls-8 {
        letter-spacing: 0em;
      }

      .cls-9 {
        letter-spacing: 0em;
      }

      .cls-10 {
        letter-spacing: 0em;
      }

      .cls-11 {
        letter-spacing: -.01em;
      }

      .cls-12 {
        letter-spacing: .18em;
      }

      .cls-13 {
        letter-spacing: .18em;
      }

      .cls-14 {
        letter-spacing: 0em;
      }

      .cls-15 {
        letter-spacing: .12em;
      }

      .cls-16 {
        letter-spacing: .12em;
      }

      .cls-17 {
        letter-spacing: 0em;
      }

      .cls-18 {
        letter-spacing: -.07em;
      }

      .cls-19 {
        letter-spacing: .14em;
      }

      .cls-20 {
        letter-spacing: .14em;
      }
    </style>
    <linearGradient id="linear-gradient" x1="0" y1="84.12" x2="274.64" y2="84.12" gradientTransform="translate(274.64) rotate(-180) scale(1 -1)" gradientUnits="userSpaceOnUse">
      <stop offset="0" stop-color="#fff"/>
      <stop offset="1" stop-color="#f1f2f2"/>
    </linearGradient>
  </defs>
  <g id="OBJECT">
    <path class="cls-3" d="m137.32,0c75.84,0,137.32,33.25,137.32,74.28,0,14.92-8.17,28.81-22.17,40.45l14.58,53.52-53.77-32.09c-21.76,7.83-47.86,12.4-75.95,12.4C61.48,148.55,0,115.3,0,74.28S61.48,0,137.32,0Z"/>
    <text class="cls-1" transform="translate(30.88 45.35)"><tspan x="0" y="0">Si</tspan><tspan class="cls-15" x="10.18" y="0"> </tspan><tspan x="14.78" y="0">es</tspan><tspan class="cls-5" x="27.34" y="0">t</tspan><tspan x="31.89" y="0">o</tspan><tspan class="cls-15" x="39.58" y="0"> </tspan><tspan x="44.19" y="0">se</tspan><tspan class="cls-16" x="56.74" y="0"> </tspan><tspan x="61.35" y="0">llega</tspan><tspan class="cls-15" x="89.54" y="0"> </tspan><tspan x="94.15" y="0">a</tspan><tspan class="cls-15" x="100.9" y="0"> </tspan><tspan x="105.51" y="0">saber</tspan><tspan class="cls-15" x="137.36" y="0"> </tspan><tspan x="141.96" y="0">la</tspan><tspan class="cls-16" x="152.02" y="0"> </tspan><tspan class="cls-17" x="156.62" y="0">r</tspan><tspan x="161.06" y="0">eputación </tspan><tspan x="0" y="16.8">de</tspan><tspan class="cls-20" x="14.91" y="16.8"> </tspan><tspan x="19.8" y="16.8">la</tspan><tspan class="cls-20" x="29.85" y="16.8"> </tspan><tspan x="34.75" y="16.8">familia</tspan><tspan class="cls-19" x="73.86" y="16.8"> </tspan><tspan x="78.76" y="16.8">cae</tspan><tspan class="cls-14" x="98.79" y="16.8">r</tspan><tspan x="103.3" y="16.8">á</tspan><tspan class="cls-20" x="110.05" y="16.8"> </tspan><tspan x="114.94" y="16.8">por</tspan><tspan class="cls-20" x="135.17" y="16.8"> </tspan><tspan x="140.06" y="16.8">los</tspan><tspan class="cls-20" x="156.6" y="16.8"> </tspan><tspan x="161.49" y="16.8">piso</tspan><tspan class="cls-11" x="185.96" y="16.8">s</tspan><tspan x="191.35" y="16.8">,</tspan><tspan class="cls-20" x="194.25" y="16.8"> </tspan><tspan x="199.14" y="16.8">h</tspan><tspan class="cls-8" x="206.91" y="16.8">a</tspan><tspan x="213.55" y="16.8">y </tspan><tspan x="0" y="33.6">que</tspan><tspan class="cls-12" x="22.61" y="33.6"> </tspan><tspan x="28.08" y="33.6">manejar</tspan><tspan class="cls-13" x="76.01" y="33.6"> </tspan><tspan x="81.48" y="33.6">la</tspan><tspan class="cls-12" x="91.53" y="33.6"> </tspan><tspan x="97" y="33.6">situación</tspan><tspan class="cls-13" x="149.92" y="33.6"> </tspan><tspan class="cls-5" x="155.38" y="33.6">c</tspan><tspan x="161.57" y="33.6">on</tspan><tspan class="cls-12" x="177.03" y="33.6"> </tspan><tspan x="182.5" y="33.6">calma. </tspan><tspan class="cls-18" x="0" y="50.4">T</tspan><tspan x="5.96" y="50.4">en</tspan><tspan class="cls-6" x="20.75" y="50.4"> </tspan><tspan x="24.14" y="50.4">ese</tspan><tspan class="cls-6" x="43.71" y="50.4"> </tspan><tspan x="47.11" y="50.4">niñ</tspan><tspan class="cls-4" x="65.92" y="50.4">o</tspan><tspan x="73.28" y="50.4">,</tspan><tspan class="cls-6" x="76.17" y="50.4"> </tspan><tspan x="79.57" y="50.4">pe</tspan><tspan class="cls-2" x="94.55" y="50.4">r</tspan><tspan x="98.99" y="50.4">o</tspan><tspan class="cls-7" x="106.67" y="50.4"> </tspan><tspan x="110.07" y="50.4">en</tspan><tspan class="cls-6" x="124.85" y="50.4"> </tspan><tspan x="128.25" y="50.4">cua</tspan><tspan class="cls-10" x="148.98" y="50.4">n</tspan><tspan class="cls-5" x="156.69" y="50.4">t</tspan><tspan x="161.24" y="50.4">o</tspan><tspan class="cls-6" x="168.93" y="50.4"> </tspan><tspan x="172.32" y="50.4">na</tspan><tspan class="cls-9" x="186.84" y="50.4">z</tspan><tspan x="192.74" y="50.4">ca</tspan><tspan class="cls-6" x="205.76" y="50.4"> </tspan><tspan x="209.15" y="50.4">lo </tspan><tspan x="0" y="67.2">quie</tspan><tspan class="cls-2" x="25.89" y="67.2">r</tspan><tspan x="30.32" y="67.2">o lejos de aquí.</tspan></text>
  </g>
</svg>