<?xml version="1.0" encoding="UTF-8"?>
<svg id="Capa_2" data-name="Capa 2" xmlns="http://www.w3.org/2000/svg" xmlns:xlink="http://www.w3.org/1999/xlink" viewBox="0 0 112.46 533.32">
  <defs>
    <style>
      .cls-1, .cls-2, .cls-3, .cls-4, .cls-5, .cls-6, .cls-7, .cls-8, .cls-9, .cls-10, .cls-11, .cls-12, .cls-13, .cls-14, .cls-15 {
        stroke-miterlimit: 10;
      }

      .cls-1, .cls-5, .cls-7, .cls-8, .cls-10, .cls-14, .cls-15 {
        stroke: #1d1d1b;
      }

      .cls-2 {
        stroke: url(#Degradado_sin_nombre_128);
      }

      .cls-2, .cls-13 {
        fill: #9b6f70;
      }

      .cls-3 {
        stroke: #5a5a5a;
      }

      .cls-3, .cls-5 {
        fill: #dbdbdb;
      }

      .cls-4, .cls-9, .cls-12 {
        stroke: #887971;
      }

      .cls-4, .cls-16 {
        fill: #e1c3b5;
      }

      .cls-6 {
        fill: #b7b6b6;
      }

      .cls-6, .cls-11 {
        stroke: #818282;
      }

      .cls-7 {
        fill: #1d1d1b;
      }

      .cls-8 {
        fill: #404a50;
      }

      .cls-9 {
        fill: #f9dbcf;
      }

      .cls-10, .cls-11, .cls-12, .cls-14, .cls-15 {
        fill: none;
      }

      .cls-13 {
        stroke: url(#Degradado_sin_nombre_128-2);
      }

      .cls-16, .cls-17 {
        stroke-width: 0px;
      }

      .cls-17 {
        fill: #fff;
      }

      .cls-14 {
        stroke-width: .25px;
      }

      .cls-15 {
        stroke-width: .5px;
      }
    </style>
    <linearGradient id="Degradado_sin_nombre_128" data-name="Degradado sin nombre 128" x1="54.21" y1="238.45" x2="68.86" y2="238.45" gradientTransform="translate(-5.87 -10.68) rotate(-1.74)" gradientUnits="userSpaceOnUse">
      <stop offset="0" stop-color="#52312e"/>
      <stop offset="1" stop-color="#ab4530"/>
    </linearGradient>
    <linearGradient id="Degradado_sin_nombre_128-2" data-name="Degradado sin nombre 128" x1="57.55" y1="261.21" x2="73.17" y2="261.21" xlink:href="#Degradado_sin_nombre_128"/>
  </defs>
  <g id="Capa_1-2" data-name="Capa 1">
    <g>
      <g>
        <path class="cls-4" d="m48.57,513.75s-5.26,9.35-4.98,10.98-1.6,6.01,6.86,6.56c8.46.55,47,1.1,47,1.1l10.34-8.22s-25.94-.39-33.18-10.06l-26.04-.35Z"/>
        <path class="cls-4" d="m105.24,525.68c3.56,1.8,9.19-1.46,5.52-3.19-3.56-1.8-9.19,1.46-5.52,3.19Z"/>
        <path class="cls-4" d="m103.7,527.31c3.13,1.58,8.06-1.27,4.84-2.8-3.13-1.58-8.06,1.27-4.84,2.8Z"/>
        <path class="cls-4" d="m100.73,528.95c3.22,1.63,8.09-1.19,4.78-2.76-3.22-1.63-8.09,1.19-4.78,2.76Z"/>
        <path class="cls-4" d="m98.6,530.99c2.97,1.5,7.73-1.25,4.67-2.7-2.97-1.5-7.73,1.25-4.67,2.7Z"/>
        <path class="cls-4" d="m97.49,532.38c2.67,1.34,6.23-.71,3.48-2.02-2.67-1.34-6.23.71-3.48,2.02Z"/>
        <path class="cls-16" d="m96.11,527.87c3.22,0,3.22-5,0-5s-3.22,5,0,5h0Z"/>
        <path class="cls-16" d="m99.79,529.05c3.22,0,3.22-5,0-5s-3.22,5,0,5h0Z"/>
        <path class="cls-16" d="m98.11,529.33h1.05c.34.01.67-.06.96-.22.31-.1.58-.27.8-.52.24-.23.42-.49.52-.8.16-.3.23-.62.22-.96l-.09-.66c-.12-.42-.33-.79-.64-1.1l-.51-.39c-.39-.23-.81-.34-1.26-.34h-1.05c-.34-.01-.67.06-.96.22-.31.1-.58.27-.8.52-.24.23-.42.49-.52.8-.16.3-.23.62-.22.96l.09.66c.12.42.33.79.64,1.1l.51.39c.39.23.81.34,1.26.34h0Z"/>
        <path class="cls-16" d="m98.55,527.24c-.42.09-.81.26-1.23.32l.4-.05c-.13.02-.26.02-.39.02l.76,2.8h.03c-.12.04-.24.09-.36.14.04-.01.08-.02.12-.03l-.4.05c.07,0,.14-.01.21,0l-.76-2.8s-.08.05-.13.07l.36-.15c-.13.05-.26.08-.38.12-.36.12-.64.26-.91.52l-.23.3c-.11.17-.17.36-.18.56-.04.32,0,.68.18.96.14.22.32.4.54.54.34.22.78.23,1.16.15l.89-.19-.8-2.89-.87.21c-.12.03-.24.06-.36.1-.15.06-.32.12-.46.2-.07.04-.15.11-.21.15-.07.05-.14.1-.19.16l-.23.3c-.11.17-.17.36-.18.56-.04.32,0,.68.18.96.14.22.32.4.54.54.17.11.36.17.56.18.2.04.4.04.6-.03.29-.09.58-.19.87-.28.37-.12.7-.35.9-.69s.27-.8.15-1.16-.34-.71-.69-.9-.77-.27-1.16-.15c-.29.09-.58.19-.87.28l1.46,2.51s.03-.03.04-.04l-.3.23s.08-.05.12-.07l-.36.15c.19-.08.4-.12.6-.16l.67-.16c.36-.09.71-.37.9-.69s.27-.8.15-1.16-.34-.71-.69-.9c-.37-.2-.74-.24-1.16-.15l-.89.19,1.46,2.51s.02-.02.04-.03l-.3.23s.08-.05.12-.07l-.36.15c.32-.12.67-.18.96-.37l.3-.23c.15-.14.25-.3.31-.48.13-.3.18-.66.08-.98-.08-.25-.21-.47-.39-.66-.14-.15-.3-.25-.48-.31-.18-.09-.37-.14-.58-.13-.14-.02-.27.01-.41.03-.3.04-.4.09-.71.22l-.3.23c-.15.14-.25.3-.31.48-.13.3-.18.66-.08.98.08.25.21.47.39.66.26.28.69.43,1.06.44.26,0,.52-.04.78-.07.14-.02.28-.05.41-.09.27-.07.54-.17.82-.23.36-.08.72-.38.9-.69s.27-.8.15-1.16-.34-.71-.69-.9c-.37-.19-.75-.24-1.16-.15h0Z"/>
        <path class="cls-16" d="m97.22,529.91c1.02.2,2.06.39,3.1.39.38,0,.79-.17,1.06-.44s.46-.69.44-1.06-.14-.79-.44-1.06-.65-.44-1.06-.44c-.43,0-.87-.03-1.3-.09l.4.05c-.47-.06-.94-.15-1.41-.24-.4-.08-.79-.06-1.16.15-.31.18-.61.54-.69.9-.09.38-.07.81.15,1.16.2.31.52.61.9.69h0Z"/>
        <path class="cls-16" d="m95.87,532.61c.66-.03,1.33-.02,1.99.03v-3c-.57.04-1.14.06-1.71.07-.39,0-.79.17-1.06.44s-.46.69-.44,1.06c.04.84.66,1.47,1.5,1.5.46.02.92.04,1.38.1l-.4-.05c.09.01.18.03.27.04v-2.89c-.05.02-.11.03-.16.04l.4-.05c-.3.04-.62.03-.92.04-.33,0-.66.01-.99.02-.39,0-.79.16-1.06.44-.26.26-.46.69-.44,1.06.04.84.66,1.47,1.5,1.5s1.74.09,2.61.17v-3c-.68.06-1.37-.01-2.05-.09v3c.65-.06,1.31-.11,1.96-.14s1.3-.44,1.45-1.1c.06-.26.06-.53,0-.8-.08-.33-.38-.75-.69-.9-.36-.17-.7-.29-1.09-.35-.28-.05-.56-.07-.83-.17l.66.39-.02-.02.39,1.46v-.02c-.22.3-.45.6-.68.9l.04-.02-.36.15c.1-.03.2-.04.3-.05l-.4.05c.22-.03.44-.04.66-.05v-3c-.51,0-1.03,0-1.54-.02v3c1.05-.05,2.11.04,3.17.08v-3c-.7.03-1.39.04-2.09.03v3h1.03c.38,0,.79-.16,1.06-.44s.46-.69.44-1.06-.14-.79-.44-1.06l-.3-.23c-.23-.14-.49-.2-.76-.2-.57-.06-1.13-.11-1.7-.14-.37-.02-.8.18-1.06.44s-.46.69-.44,1.06c.04.85.66,1.45,1.5,1.5.57.03,1.13.08,1.7.14v-3h-1.03c-.38,0-.79.16-1.06.44s-.46.69-.44,1.06c.04.82.66,1.49,1.5,1.5.7,0,1.39,0,2.09-.03.4-.02.78-.16,1.06-.44.26-.26.46-.69.44-1.06-.04-.84-.66-1.47-1.5-1.5-1.05-.04-2.11-.13-3.17-.08-.4.02-.78.15-1.06.44-.26.26-.46.69-.44,1.06.04.84.66,1.47,1.5,1.5.51.02,1.03.02,1.54.02.39,0,.78-.16,1.06-.44.26-.26.46-.69.44-1.06-.04-.81-.66-1.51-1.5-1.5-.36,0-.71.05-1.06.1-.67.1-1.18.48-1.39,1.14-.15.46,0,1.14.39,1.46.25.21.4.32.72.42.07.02.14.04.22.05.13.03.27.05.4.07.28.05.55.09.81.19l-.36-.15s.06.03.09.04l.76-2.8c-.66.03-1.31.08-1.96.14-.41.04-.76.14-1.06.44-.26.26-.46.69-.44,1.06s.14.79.44,1.06l.3.23c.23.14.49.2.76.2.68.08,1.36.15,2.05.09.41-.04.76-.14,1.06-.44.26-.26.46-.69.44-1.06s-.14-.79-.44-1.06c-.31-.28-.64-.4-1.06-.44-.87-.09-1.74-.14-2.61-.17v3c.38,0,.76-.01,1.14-.02.44,0,.91,0,1.34-.12.61-.18,1.13-.79,1.1-1.45-.01-.27-.08-.52-.2-.76-.15-.29-.56-.63-.9-.69-.68-.11-1.36-.17-2.05-.2v3c.57,0,1.14-.03,1.71-.07.4-.03.77-.15,1.06-.44.26-.26.46-.69.44-1.06s-.14-.79-.44-1.06-.65-.41-1.06-.44c-.66-.05-1.33-.06-1.99-.03-.4.02-.78.15-1.06.44-.26.26-.46.69-.44,1.06s.14.79.44,1.06.66.46,1.06.44h0Z"/>
        <path class="cls-16" d="m101.61,526.4c.64-.04,1.28-.06,1.92-.06.39,0,.79-.16,1.06-.44.15-.14.25-.3.31-.48.09-.18.14-.37.13-.58-.02-.39-.14-.79-.44-1.06s-.66-.44-1.06-.44c-.64,0-1.28.03-1.92.06-.21,0-.4.04-.58.13-.19.06-.35.16-.48.31-.15.14-.25.3-.31.48-.09.18-.14.37-.13.58.02.39.14.79.44,1.06s.66.46,1.06.44h0Z"/>
        <path class="cls-16" d="m103.58,526.31c.5-.04,1-.1,1.49-.21l-1.46-2.51s-.04.04-.06.06l.3-.23s-.05.03-.08.05l.36-.15c-.06.02-.12.04-.18.05l1.16,2.74c.08-.04.15-.08.23-.12l-.36.15c.09-.04.17-.07.26-.09l-.8-2.89c-.2.07-.4.12-.6.15l.4-.05c-.06,0-.12.01-.17.02l1.3,2.26.02-.02-.23.3s.04-.04.06-.06l-.3.23s.1-.06.15-.09l-.36.15s.07-.03.11-.04l-.8-2.89c-.28.1-.56.17-.86.23l.8,2.89c.19-.07.39-.11.59-.14l-.4.05c.05,0,.1-.01.15,0l-.4-.05h.03c-.12-.04-.24-.09-.36-.14h.02c-.1-.06-.2-.14-.3-.22.25.2.39.32.7.41.29.08.56.07.85,0,.11-.03.22-.06.33-.09.22-.06.43-.14.66-.18l-.4.05s.05,0,.07,0l-.4-.05h.03c-.3-.73-.6-1.46-.9-2.2-.02.04-.04.07-.06.11l.23-.3c-.05.06-.1.11-.15.15l.3-.23s-.07.05-.1.07l2.2,1.69s.02-.06.03-.09l-.15.36c.03-.06.06-.12.1-.17l-.23.3c.05-.06.1-.11.16-.16l-.3.23.03-.02-2.26-1.3v.04c.02-.13.04-.27.05-.4,0,.02,0,.05-.02.07l.15-.36s-.02.05-.04.07c-.11.17-.17.36-.18.56-.04.2-.04.4.03.6l.15.36c.09.17.22.32.39.42.25.2.58.34.91.32l.4-.05c.25-.07.47-.2.66-.39.04-.04.08-.07.12-.1l-.3.23c.09-.07.19-.13.28-.19.33-.2.59-.53.69-.9s.05-.84-.15-1.16-.51-.6-.9-.69-.81-.06-1.16.15c-.25.15-.49.34-.71.53l2.36,1.82c.17-.25.27-.63.26-.93-.02-.53-.27-1.02-.74-1.3-.23-.14-.49-.2-.76-.2-.27,0-.52.07-.76.2-.35.26-.49.39-.75.73-.03.04-.06.08-.08.13-.07.15-.15.31-.19.48-.06.25-.07.54,0,.8l.15.36c.09.17.22.32.39.42.09.09.2.16.33.19.12.07.24.1.38.1.13.04.27.04.4,0,.2,0,.39-.07.56-.18.33-.21.68-.5.86-.87.14-.23.2-.49.2-.76,0-.21-.04-.4-.13-.58-.06-.19-.16-.35-.31-.48-.19-.19-.41-.31-.66-.39-.17-.02-.33-.06-.5-.05-.13,0-.32.03-.47.07-.11.03-.21.06-.32.09-.21.06-.41.12-.62.17l.4-.05h-.03c.13.02.27.04.4.05h-.02c.22.12.44.25.66.38-.23-.18-.29-.24-.52-.34s-.32-.13-.62-.14c-.2,0-.42.04-.62.07-.17.03-.34.07-.51.13-.37.13-.69.34-.9.69-.19.32-.27.8-.15,1.16s.34.71.69.9l.36.15c.27.07.53.07.8,0,.29-.06.58-.13.86-.23.37-.13.69-.34.9-.69.19-.32.27-.8.15-1.16s-.34-.71-.69-.9-.76-.26-1.16-.15c-.2.06-.41.13-.58.25-.31.2-.45.35-.66.65-.3.43-.25,1.08,0,1.51s.78.78,1.3.74c.39-.03.8-.08,1.18-.22.2-.05.37-.14.51-.27.16-.11.29-.25.39-.42.19-.32.27-.8.15-1.16s-.34-.71-.69-.9-.77-.27-1.16-.15c-.29.09-.59.21-.86.36-.31.18-.61.54-.69.9l-.05.4c0,.21.04.4.13.58.04.13.1.24.19.33.11.16.25.29.42.39l.36.15c.27.07.53.07.8,0,.19-.03.39-.13.55-.21.08-.04.14-.1.22-.16.07-.05.15-.11.21-.17l.23-.3c.11-.17.17-.36.18-.56.04-.13.04-.27,0-.4,0-.2-.07-.39-.18-.56-.14-.22-.32-.4-.54-.54-.33-.21-.78-.24-1.16-.15-.2.04-.4.08-.6.11l.4-.05c-.16.02-.33.04-.49.05-.4.03-.77.15-1.06.44-.26.26-.46.69-.44,1.06s.14.79.44,1.06.67.47,1.06.44h0Z"/>
        <path class="cls-16" d="m104.74,523.44s-.03.05-.05.07l.23-.3c-.04.06-.09.11-.15.15-.15.14-.25.3-.31.48-.09.18-.14.37-.13.58,0,.21.04.4.13.58.06.19.16.35.31.48l.3.23c.23.14.49.2.76.2l.4-.05c.25-.07.47-.2.66-.39.04-.03.07-.07.11-.11,0,0,.02-.02.02-.03,0,0,0,0,.01-.02.08-.1.16-.21.24-.31.01-.02.03-.04.04-.06.11-.17.17-.36.18-.56.04-.2.04-.4-.03-.6-.05-.2-.14-.37-.27-.51-.11-.16-.25-.29-.42-.39l-.36-.15c-.27-.07-.53-.07-.8,0l-.36.15c-.23.13-.4.31-.54.54h0Z"/>
        <path class="cls-16" d="m104.52,522.85l-1.01.44c-.17.09-.32.22-.42.39-.13.14-.22.31-.27.51-.06.2-.07.4-.03.6,0,.2.07.39.18.56l.23.3c.19.19.41.31.66.39l.4.05c.27,0,.52-.07.76-.2l1.01-.44c.17-.09.32-.22.42-.39.13-.14.22-.31.27-.51.06-.2.07-.4.03-.6,0-.2-.07-.39-.18-.56l-.23-.3c-.19-.19-.41-.31-.66-.39l-.4-.05c-.27,0-.52.07-.76.2h0Z"/>
      </g>
      <g>
        <path class="cls-8" d="m74.34,396.4c-6.89,0-13.78-.02-20.67-.08-.8,0-2.1-.15-3.48-.27-3.96,6.98-7.02,120.96-7.02,120.96l33.24,1.07c.45.01.85.15,1.22.35.42-.19.86-.39,1.28-.57.03-.01.06-.02.09-.03.39-13.38,2.97-82.6,3.33-92.13.03-.67,4.07-21.05,4.21-21.71.45-2.15.86-4.72,1.25-7.62-4.48.02-8.96.04-13.44.04Z"/>
        <path class="cls-10" d="m68.21,397.18c.1,2.13.1,4.44.1,6.76-7.02,38.56-4.68,75.57-7.8,113.62"/>
      </g>
      <g>
        <path class="cls-8" d="m85.74,400.07c1.34-1.75,2.02-3.11,2.11-3.28,2.46-16.96,3.79-46.39,4.5-72.73-1.95.01-4.02-.13-5.22-.12-6.89.07-13.78.08-20.67.08s-13.78-.02-20.67-.08c-1.41-.01-4.34-.41-6.6-.38.2,3.13.61,8.74,1.47,15.69,2.83,23.02,10.06,57.37,9.91,57.4,0,0-.05,0-.1.02-.03.01-.07.04-.1.06.15.31,1.07,1.25,2.46,2.47"/>
        <path class="cls-10" d="m66.22,323.71c2,26.61,1.71,50.27,2.34,76.39"/>
      </g>
      <path class="cls-4" d="m51.14,119.13s.39-15.58-2.11-19.73l19.95,6.82s.72,9.28,1.34,12.91c.05.3-.39,1.53-.83,2.08-1.58,1.95-8.65.48-10.84,0l-7.51-2.08Z"/>
      <path class="cls-4" d="m98.65,57.96c-.03-1.41-1.29-37.61-39.44-39.24-.07,0-.14,0-.21,0-2.24.2-40.74,4.22-39.71,39.01-6.97,9.97,5.1,30.53,33.14,46.06,4.88,2.7,14.6,3.1,24.57,6.32,7.1,2.29,22.34,5.79,20.67-1.45-.18-.8-1.17-9.5-1.23-10.32-.08-1.01-.06-.92.48-1.37.54-.45,1.38-.81,1.04-1.42.21-.77.61-1.71.17-2.37-1.22-1.85-1.77-11.38-1.61-15.1.04-.84.68-1.45,1.52-1.35,1.66.18,3.65-.14,3.8-.57,1.36-3.87-.9-4.31-1.8-6.69l-1.5-5.93c-.05-.15-.07-.32-.06-.48l.17-5.02s0-.05,0-.08Z"/>
      <g>
        <path class="cls-12" d="m59.03,64.74s-6.19-5.24-10.69-.79c-1.63,1.61-2.41,3.9-2.18,6.18.4,4.08,1.76,11.87,6.34,12.33,0,0,2.99,1.29,6.9-3.16"/>
        <path class="cls-12" d="m50.69,79.12s.53-2.5-.82-5.15c-1.34-2.65-2.29-7.94-.9-8.26s5.84-5.99,8.44,3.23"/>
        <path class="cls-12" d="m54.55,68.67s-3.26,4.72.09,8.03c0,0,.66.61,1.47-.45,0,0,.64-.8,1.03.05,0,0,1.69-.8.32-1.61,0,0-.48-.39-1.07.12"/>
      </g>
      <g id="nariz">
        <path class="cls-10" d="m93.88,72.52s-2.93,2.67.47,4.1"/>
        <path class="cls-10" d="m100.77,70.81s-2.64-.6-3.66.47"/>
        <ellipse class="cls-7" cx="98.53" cy="75.69" rx=".82" ry=".3" transform="translate(-24.64 59.41) rotate(-30)"/>
      </g>
      <path class="cls-9" d="m71.7,51.01s19.78,1.43,22.18,3.97l-1.42-4.59,3.9,4.59s-.62-7.23-5.01-7.85-19.13-.62-19.13-.62l-.52,4.5Z"/>
      <g>
        <path class="cls-10" d="m91.93,64.2c-1.61-1.75-5.21-4.26-11.51-1.86,0,0-.41,7.28,4.8,7.99,0,0,.98.24,3.15-.08,1.23-.19,2.43-.86,3.5-1.97,0,0,.02-.02.03-.03,1.07-1.12,1.07-2.91.02-4.05Z"/>
        <path class="cls-17" d="m80.66,62.53s4.93-2.43,10.64,1.31c1.58,1.03,1.72,3.27.29,4.5-1.13.97-2.53,1.86-3.82,1.82,0,0-6.78,1.54-7.11-7.63Z"/>
        <path class="cls-7" d="m92.49,65.06s-5.83-6.32-13.19-1.9l-.72-.82s6.8-6.18,13.91,2.72Z"/>
        <path class="cls-14" d="m85.69,71.37c-.09.51,4.35.53,6.24-1.89"/>
      </g>
      <path class="cls-7" d="m93.67,59.62s-6.02-5.51-16.76-1.79c0,0,8.05-6.17,16.76-.66v2.45Z"/>
      <line class="cls-7" x1="95.23" y1="57.77" x2="93.72" y2="59.87"/>
      <path class="cls-15" d="m95.91,59.03s-.6,2.21-2.66,1.56"/>
      <g>
        <path class="cls-7" d="m36.06,107.76c0-1.68,3.96-5.15,3.96-5.15,1.44.59,2.2,4.08,2.2,4.08,1.1-.48,4.88-5.63,4.88-5.63-.12-.15-.22-.33-.29-.54-.67-1.86-1.16-3.66-1.26-5.64-.38-.63-.73-1.27-1.05-1.93,0-.02-.02-.04-.03-.06-.69-1.04-1.46-2.03-2.16-3.04-1.41-2.03-2.5-4.19-3.18-6.56-.17-.21-.29-.48-.34-.82-.07-.44-.12-.88-.18-1.31-.96-4.66-1.04-9.71.5-14.2,1.52-4.43,3.51-9.12,7.54-11.73.83-.54,1.8-1.03,2.81-1.22,1.04-1.13,3.17-.54,3.27.93.55.59.87,1.37,1.06,2.2,1.93,3.8,5.68,12.96,5.7,13.04,0,0,7.28-9.33,7.21-21.81,0,0-1.17-.87-2.92-1.74,3.74-3.44,7.16-5.61,11.88-6.42,3.44-.59,3.5-7.54,6.86-8.54,3.07-.92,12.1,5.7,15.17,4.78-.14-.63-.28-1.28-.4-1.97-2.59-14.97-6.95-25.25-20.86-24.76,0,0-.57-2.22,2.26-4.2,0,0-3.96,1.4-4.28,2.88,0,0-8.08-11.85-25.14-5.76,0,0-9.38,1.07-12.29-.99,0,0,1.94,3.54,5.34,4.28,0,0-22.07,3.13-25.22,17.03,0,0-3.56,21.47-15.92,16.62,0,0,3.31,5.68,8.73,2.88,0,0-9.94,15.05-4.85,21.39,0,0,.65-6.91,2.99-8.8,0,0,.81,10.12-.24,16.04,0,0-1.29,6.75,1.29,8.88,0,0,0-4.36,1.78-6.25,0,0,.65,7.9,4.93,8.97,0,0,.57,6.42-7.76,3.87,0,0,3.15,5.92,10.35-.74,0,0,1.94,6.58-2.34,8.39,0,0,3.23,1.73,9.22-2.47,0,0-.54,12.36-5.8,14.91,0,0,7.64.76,12.49-3.84l4.12,4.96Zm22.42-62.84c.01-.05.02-.11.03-.16,0,0,.05.07.14.18-.06,0-.12-.01-.18-.02Z"/>
        <path class="cls-7" d="m63.98,45.75s4.44,9.82,4.81,15.01c0,0,8.52-10.59,5.18-18.48,0,0,2.41,8.47,6.66,9.82,0,0-4.07-6.74-1.3-13.09,0,0,6.11,12.9,4.81,15.21,0,0,8.14-9.24,6.66-16.94,0,0,8.79,15.75,7.3,19.21,0,0,4.32-20.95,1.73-26.91,0,0-5.08-9.4-8.82-12.53l-26.87,27.55"/>
        <path class="cls-7" d="m43.88,98.5s6.34.81,10.12.95c0,0-6.97-3.55-10.05-8.96,0,0,6.14.48,9.34.5,0,0-8.71-4.34-8.29-8.4,0,0-.1-.82,6.89,2.99-1.4-1.64-8.31-8.6-8.66-15.65-.03-.57-.06-1.15-.15-1.71-.22-1.55-.36-4.82,1.81-7.13.19-.2.77-.71.98-.89.95-.85,3.84-3.15,9.13-.14l1.61-5.27-13.85-7.83-16.3,15.45,3.85,22,13.57,14.1Z"/>
      </g>
      <line class="cls-10" x1="94.73" y1="85.56" x2="94.1" y2="89.23"/>
      <path class="cls-10" d="m89.89,96s4.33-1.12,6.06-.38,1.77-.07,1.77-.07"/>
      <path class="cls-10" d="m88.35,94.71s-.93,2.39.93,3.05"/>
      <g>
        <path class="cls-4" d="m48.21,512.25s-5.26,9.35-4.98,10.98c.28,1.63-1.6,6.01,6.86,6.56,8.46.55,47,1.1,47,1.1l10.34-8.22s-25.94-.39-33.18-10.06c1.03-12.2-7.26-20.7-13.48-20.52-6.02.17-13.52,8.56-12.55,20.17Z"/>
        <path class="cls-4" d="m104.89,524.18c3.56,1.8,9.19-1.46,5.52-3.19-3.56-1.8-9.19,1.46-5.52,3.19Z"/>
        <path class="cls-4" d="m103.34,525.81c3.13,1.58,8.06-1.27,4.84-2.8-3.13-1.58-8.06,1.27-4.84,2.8Z"/>
        <path class="cls-4" d="m100.38,527.45c3.22,1.63,8.09-1.19,4.78-2.76-3.22-1.63-8.09,1.19-4.78,2.76Z"/>
        <path class="cls-4" d="m98.24,529.49c2.97,1.5,7.73-1.25,4.67-2.7-2.97-1.5-7.73,1.25-4.67,2.7Z"/>
        <path class="cls-4" d="m97.13,530.88c2.67,1.34,6.23-.71,3.48-2.02-2.67-1.34-6.23.71-3.48,2.02Z"/>
        <path class="cls-16" d="m95.75,526.37c3.22,0,3.22-5,0-5s-3.22,5,0,5h0Z"/>
        <path class="cls-16" d="m99.44,527.55c3.22,0,3.22-5,0-5s-3.22,5,0,5h0Z"/>
        <path class="cls-16" d="m97.75,527.83h1.05c.34.01.67-.06.96-.22.31-.1.58-.27.8-.52.24-.23.42-.49.52-.8.16-.3.23-.62.22-.96l-.09-.66c-.12-.42-.33-.79-.64-1.1l-.51-.39c-.39-.23-.81-.34-1.26-.34h-1.05c-.34-.01-.67.06-.96.22-.31.1-.58.27-.8.52-.24.23-.42.49-.52.8-.16.3-.23.62-.22.96l.09.66c.12.42.33.79.64,1.1l.51.39c.39.23.81.34,1.26.34h0Z"/>
        <path class="cls-16" d="m98.19,525.74c-.42.09-.81.26-1.23.32l.4-.05c-.13.02-.26.02-.39.02l.76,2.8h.03c-.12.04-.24.09-.36.14.04-.01.08-.02.12-.03l-.4.05c.07,0,.14-.01.21,0l-.76-2.8s-.08.05-.13.07l.36-.15c-.13.05-.26.08-.38.12-.36.12-.64.26-.91.52l-.23.3c-.11.17-.17.36-.18.56-.04.32,0,.68.18.96.14.22.32.4.54.54.34.22.78.23,1.16.15l.89-.19-.8-2.89-.87.21c-.12.03-.24.06-.36.1-.15.06-.32.12-.46.2-.07.04-.15.11-.21.15-.07.05-.14.1-.19.16l-.23.3c-.11.17-.17.36-.18.56-.04.32,0,.68.18.96.14.22.32.4.54.54.17.11.36.17.56.18.2.04.4.04.6-.03.29-.09.58-.19.87-.28.37-.12.7-.35.9-.69s.27-.8.15-1.16-.34-.71-.69-.9-.77-.27-1.16-.15c-.29.09-.58.19-.87.28l1.46,2.51s.03-.03.04-.04l-.3.23s.08-.05.12-.07l-.36.15c.19-.08.4-.12.6-.16l.67-.16c.36-.09.71-.37.9-.69s.27-.8.15-1.16-.34-.71-.69-.9c-.37-.2-.74-.24-1.16-.15l-.89.19,1.46,2.51s.02-.02.04-.03l-.3.23s.08-.05.12-.07l-.36.15c.32-.12.67-.18.96-.37l.3-.23c.15-.14.25-.3.31-.48.13-.3.18-.66.08-.98-.08-.25-.21-.47-.39-.66-.14-.15-.3-.25-.48-.31-.18-.09-.37-.14-.58-.13-.14-.02-.27.01-.41.03-.3.04-.4.09-.71.22l-.3.23c-.15.14-.25.3-.31.48-.13.3-.18.66-.08.98.08.25.21.47.39.66.26.28.69.43,1.06.44.26,0,.52-.04.78-.07.14-.02.28-.05.41-.09.27-.07.54-.17.82-.23.36-.08.72-.38.9-.69s.27-.8.15-1.16-.34-.71-.69-.9c-.37-.19-.75-.24-1.16-.15h0Z"/>
        <path class="cls-16" d="m96.86,528.41c1.02.2,2.06.39,3.1.39.38,0,.79-.17,1.06-.44s.46-.69.44-1.06-.14-.79-.44-1.06-.65-.44-1.06-.44c-.43,0-.87-.03-1.3-.09l.4.05c-.47-.06-.94-.15-1.41-.24-.4-.08-.79-.06-1.16.15-.31.18-.61.54-.69.9-.09.38-.07.81.15,1.16.2.31.52.61.9.69h0Z"/>
        <path class="cls-16" d="m95.51,531.11c.66-.03,1.33-.02,1.99.03v-3c-.57.04-1.14.06-1.71.07-.39,0-.79.17-1.06.44s-.46.69-.44,1.06c.04.84.66,1.47,1.5,1.5.46.02.92.04,1.38.1l-.4-.05c.09.01.18.03.27.04v-2.89c-.05.02-.11.03-.16.04l.4-.05c-.3.04-.62.03-.92.04-.33,0-.66.01-.99.02-.39,0-.79.16-1.06.44-.26.26-.46.69-.44,1.06.04.84.66,1.47,1.5,1.5s1.74.09,2.61.17v-3c-.68.06-1.37-.01-2.05-.09v3c.65-.06,1.31-.11,1.96-.14s1.3-.44,1.45-1.1c.06-.26.06-.53,0-.8-.08-.33-.38-.75-.69-.9-.36-.17-.7-.29-1.09-.35-.28-.05-.56-.07-.83-.17l.66.39-.02-.02.39,1.46v-.02c-.22.3-.45.6-.68.9l.04-.02-.36.15c.1-.03.2-.04.3-.05l-.4.05c.22-.03.44-.04.66-.05v-3c-.51,0-1.03,0-1.54-.02v3c1.05-.05,2.11.04,3.17.08v-3c-.7.03-1.39.04-2.09.03v3h1.03c.38,0,.79-.16,1.06-.44s.46-.69.44-1.06-.14-.79-.44-1.06l-.3-.23c-.23-.14-.49-.2-.76-.2-.57-.06-1.13-.11-1.7-.14-.37-.02-.8.18-1.06.44s-.46.69-.44,1.06c.04.85.66,1.45,1.5,1.5.57.03,1.13.08,1.7.14v-3h-1.03c-.38,0-.79.16-1.06.44s-.46.69-.44,1.06c.04.82.66,1.49,1.5,1.5.7,0,1.39,0,2.09-.03.4-.02.78-.16,1.06-.44.26-.26.46-.69.44-1.06-.04-.84-.66-1.47-1.5-1.5-1.05-.04-2.11-.13-3.17-.08-.4.02-.78.15-1.06.44-.26.26-.46.69-.44,1.06.04.84.66,1.47,1.5,1.5.51.02,1.03.02,1.54.02.39,0,.78-.16,1.06-.44.26-.26.46-.69.44-1.06-.04-.81-.66-1.51-1.5-1.5-.36,0-.71.05-1.06.1-.67.1-1.18.48-1.39,1.14-.15.46,0,1.14.39,1.46.25.21.4.32.72.42.07.02.14.04.22.05.13.03.27.05.4.07.28.05.55.09.81.19l-.36-.15s.06.03.09.04l.76-2.8c-.66.03-1.31.08-1.96.14-.41.04-.76.14-1.06.44-.26.26-.46.69-.44,1.06s.14.79.44,1.06l.3.23c.23.14.49.2.76.2.68.08,1.36.15,2.05.09.41-.04.76-.14,1.06-.44.26-.26.46-.69.44-1.06s-.14-.79-.44-1.06c-.31-.28-.64-.4-1.06-.44-.87-.09-1.74-.14-2.61-.17v3c.38,0,.76-.01,1.14-.02.44,0,.91,0,1.34-.12.61-.18,1.13-.79,1.1-1.45-.01-.27-.08-.52-.2-.76-.15-.29-.56-.63-.9-.69-.68-.11-1.36-.17-2.05-.2v3c.57,0,1.14-.03,1.71-.07.4-.03.77-.15,1.06-.44.26-.26.46-.69.44-1.06s-.14-.79-.44-1.06-.65-.41-1.06-.44c-.66-.05-1.33-.06-1.99-.03-.4.02-.78.15-1.06.44-.26.26-.46.69-.44,1.06s.14.79.44,1.06.66.46,1.06.44h0Z"/>
        <path class="cls-16" d="m101.25,524.9c.64-.04,1.28-.06,1.92-.06.39,0,.79-.16,1.06-.44.15-.14.25-.3.31-.48.09-.18.14-.37.13-.58-.02-.39-.14-.79-.44-1.06s-.66-.44-1.06-.44c-.64,0-1.28.03-1.92.06-.21,0-.4.04-.58.13-.19.06-.35.16-.48.31-.15.14-.25.3-.31.48-.09.18-.14.37-.13.58.02.39.14.79.44,1.06s.66.46,1.06.44h0Z"/>
        <path class="cls-16" d="m103.23,524.81c.5-.04,1-.1,1.49-.21l-1.46-2.51s-.04.04-.06.06l.3-.23s-.05.03-.08.05l.36-.15c-.06.02-.12.04-.18.05l1.16,2.74c.08-.04.15-.08.23-.12l-.36.15c.09-.04.17-.07.26-.09l-.8-2.89c-.2.07-.4.12-.6.15l.4-.05c-.06,0-.12.01-.17.02l1.3,2.26.02-.02-.23.3s.04-.04.06-.06l-.3.23s.1-.06.15-.09l-.36.15s.07-.03.11-.04l-.8-2.89c-.28.1-.56.17-.86.23l.8,2.89c.19-.07.39-.11.59-.14l-.4.05c.05,0,.1-.01.15,0l-.4-.05h.03c-.12-.04-.24-.09-.36-.14h.02c-.1-.06-.2-.14-.3-.22.25.2.39.32.7.41.29.08.56.07.85,0,.11-.03.22-.06.33-.09.22-.06.43-.14.66-.18l-.4.05s.05,0,.07,0l-.4-.05h.03c-.3-.73-.6-1.46-.9-2.2-.02.04-.04.07-.06.11l.23-.3c-.05.06-.1.11-.15.15l.3-.23s-.07.05-.1.07l2.2,1.69s.02-.06.03-.09l-.15.36c.03-.06.06-.12.1-.17l-.23.3c.05-.06.1-.11.16-.16l-.3.23.03-.02-2.26-1.3v.04c.02-.13.04-.27.05-.4,0,.02,0,.05-.02.07l.15-.36s-.02.05-.04.07c-.11.17-.17.36-.18.56-.04.2-.04.4.03.6l.15.36c.09.17.22.32.39.42.25.2.58.34.91.32l.4-.05c.25-.07.47-.2.66-.39.04-.04.08-.07.12-.1l-.3.23c.09-.07.19-.13.28-.19.33-.2.59-.53.69-.9s.05-.84-.15-1.16-.51-.6-.9-.69-.81-.06-1.16.15c-.25.15-.49.34-.71.53l2.36,1.82c.17-.25.27-.63.26-.93-.02-.53-.27-1.02-.74-1.3-.23-.14-.49-.2-.76-.2-.27,0-.52.07-.76.2-.35.26-.49.39-.75.73-.03.04-.06.08-.08.13-.07.15-.15.31-.19.48-.06.25-.07.54,0,.8l.15.36c.09.17.22.32.39.42.09.09.2.16.33.19.12.07.24.1.38.1.13.04.27.04.4,0,.2,0,.39-.07.56-.18.33-.21.68-.5.86-.87.14-.23.2-.49.2-.76,0-.21-.04-.4-.13-.58-.06-.19-.16-.35-.31-.48-.19-.19-.41-.31-.66-.39-.17-.02-.33-.06-.5-.05-.13,0-.32.03-.47.07-.11.03-.21.06-.32.09-.21.06-.41.12-.62.17l.4-.05h-.03c.13.02.27.04.4.05h-.02c.22.12.44.25.66.38-.23-.18-.29-.24-.52-.34s-.32-.13-.62-.14c-.2,0-.42.04-.62.07-.17.03-.34.07-.51.13-.37.13-.69.34-.9.69-.19.32-.27.8-.15,1.16s.34.71.69.9l.36.15c.27.07.53.07.8,0,.29-.06.58-.13.86-.23.37-.13.69-.34.9-.69.19-.32.27-.8.15-1.16s-.34-.71-.69-.9-.76-.26-1.16-.15c-.2.06-.41.13-.58.25-.31.2-.45.35-.66.65-.3.43-.25,1.08,0,1.51s.78.78,1.3.74c.39-.03.8-.08,1.18-.22.2-.05.37-.14.51-.27.16-.11.29-.25.39-.42.19-.32.27-.8.15-1.16s-.34-.71-.69-.9-.77-.27-1.16-.15c-.29.09-.59.21-.86.36-.31.18-.61.54-.69.9l-.05.4c0,.21.04.4.13.58.04.13.1.24.19.33.11.16.25.29.42.39l.36.15c.27.07.53.07.8,0,.19-.03.39-.13.55-.21.08-.04.14-.1.22-.16.07-.05.15-.11.21-.17l.23-.3c.11-.17.17-.36.18-.56.04-.13.04-.27,0-.4,0-.2-.07-.39-.18-.56-.14-.22-.32-.4-.54-.54-.33-.21-.78-.24-1.16-.15-.2.04-.4.08-.6.11l.4-.05c-.16.02-.33.04-.49.05-.4.03-.77.15-1.06.44-.26.26-.46.69-.44,1.06s.14.79.44,1.06.67.47,1.06.44h0Z"/>
        <path class="cls-16" d="m104.38,521.94s-.03.05-.05.07l.23-.3c-.04.06-.09.11-.15.15-.15.14-.25.3-.31.48-.09.18-.14.37-.13.58,0,.21.04.4.13.58.06.19.16.35.31.48l.3.23c.23.14.49.2.76.2l.4-.05c.25-.07.47-.2.66-.39.04-.03.07-.07.11-.11,0,0,.02-.02.02-.03,0,0,0,0,.01-.02.08-.1.16-.21.24-.31.01-.02.03-.04.04-.06.11-.17.17-.36.18-.56.04-.2.04-.4-.03-.6-.05-.2-.14-.37-.27-.51-.11-.16-.25-.29-.42-.39l-.36-.15c-.27-.07-.53-.07-.8,0l-.36.15c-.23.13-.4.31-.54.54h0Z"/>
        <path class="cls-16" d="m104.16,521.35l-1.01.44c-.17.09-.32.22-.42.39-.13.14-.22.31-.27.51-.06.2-.07.4-.03.6,0,.2.07.39.18.56l.23.3c.19.19.41.31.66.39l.4.05c.27,0,.52-.07.76-.2l1.01-.44c.17-.09.32-.22.42-.39.13-.14.22-.31.27-.51.06-.2.07-.4.03-.6,0-.2-.07-.39-.18-.56l-.23-.3c-.19-.19-.41-.31-.66-.39l-.4-.05c-.27,0-.52.07-.76.2h0Z"/>
      </g>
      <g>
        <path class="cls-8" d="m52.97,382.95c-1.44,1.75-3.25,9.13-3.14,11.6-3.96,6.98-7.02,120.96-7.02,120.96l33.24,1.07c.45.01.85.15,1.22.35.42-.19.86-.39,1.28-.57.03-.01.06-.02.09-.03.39-13.38,2.97-82.6,3.33-92.13.03-.67,4.07-21.05,4.21-21.71.45-2.15.86-4.72,1.25-7.62.17-2.08-.22-9.88-1.71-11.14"/>
        <path class="cls-10" d="m67.85,395.68c.1,2.13.1,4.44.1,6.76-7.02,38.56-4.68,75.57-7.8,113.62"/>
      </g>
      <g>
        <path class="cls-8" d="m80.49,409.12c4.02-3.3,6.72-8.24,6.99-13.84,2.46-16.96,3.79-46.39,4.5-72.73-.21-2.84-.84-5.55-1.82-8.08-3.7-9.53-12.4-16.4-22.38-17.28-10.43-.92-20.48,4.85-25.59,14.08-1.78,3.22-2.97,6.85-3.36,10.77.2,3.13.61,8.74,1.47,15.69,2.83,23.02,10.06,57.37,9.91,57.4,0,0-.05,0-.1.02-.03.01-.07.04-.1.06.27,5.57,2.92,10.47,6.88,13.76"/>
        <path class="cls-10" d="m65.95,301.49c2,26.61.42,81.84,1.05,107.96"/>
        <path class="cls-4" d="m89.39,379.16c.68-3.59.18-7.32.78-10.91-5.11-.76-9.61-4.3-9.61-4.3-.6,8.58,3.12,18.34,8.05,21.45.37-1.73.45-4.47.78-6.24Z"/>
        <path class="cls-3" d="m91.05,333.84c-2.97.9-4.2,6.55-4.2,6.55,0,0,2.3-1.98,4.21-3.49,0-.98,0-2.02,0-3.06Z"/>
      </g>
      <path class="cls-4" d="m91.07,328.3c-3.5-.05-6.76-1.28-6.76-1.28l1.58,13.36s2.55-5.4,3.19-8.27c.2-.89.98-1.23,1.97-1.27,0-.94,0-1.81.02-2.55Z"/>
      <g>
        <path class="cls-8" d="m88.49,327.02c2.02-2.05,3.19-3.74,3.5-4.19.72-40.68.82-76.49.85-83.2-4.51-11.88-15.41-19.95-27.4-20.37-14.27-.51-27.6,9.88-30.98,24.97.68,12.94,1.38,25.88,2.1,38.81.73,12.99,1.48,26.04,2.26,39.13.14.21,1.17,1.75,3.04,3.77"/>
        <path class="cls-10" d="m67.78,294.09s20.45-.48,20.05-20"/>
        <path class="cls-10" d="m67.78,289.41s11.1.3,15.05-15.32"/>
      </g>
      <path class="cls-5" d="m67,336.96s-.78-109.13-1.56-115.36"/>
      <g>
        <path class="cls-4" d="m65.09,213.32c4.77-.24,10.16-5.49,9.22-12.36l1.74-55.46-24.71,1.1,3,54.4c-.73,7.39,5.73,12.58,10.75,12.33Z"/>
        <path class="cls-1" d="m47.51,133.48s1.8,57.77-.35,56.4h35.75s-3.88-52.13-3.37-57.19c-2.77-6.98-9.69-11.38-17.01-10.89-6.82.45-12.77,5.07-15.01,11.67Z"/>
      </g>
      <path class="cls-4" d="m57.33,194.15c-2.12,1.75-3.36,4.27-2.97,6.99l3.75,64.81c.19,3.2,2.78,5.76,5.98,5.82.32,0,.65,0,.99,0,.16,0,.31,0,.45,0,2.8-.04,5.06-2.27,5.18-5.07.88-21.69,2.87-43.92,3.58-65.53.37-2.48-.62-4.79-2.39-6.51"/>
      <path class="cls-9" d="m55.77,211s6.66,10.08,9.04,9.58c0,0,2.46-5.6.79-6.05s5.91-3.74,5.91-3.74c0,0-1.83,15.5-5.17,16.4,0,0-10.11-5.8-10.38-2.13l-.2-14.05Z"/>
      <path class="cls-9" d="m70.7,229.3c-1.57,1.53-1.62,9.47-1.62,9.47.99.18,1.56-1.22,3.18-3.23-1.12,4.94-.54,5.57-.78,8.57-1.77.81-3.75,1.3-3.75,1.3-3.36-.8-6.16-11.56-6.16-11.56,0,0,6.95-3.53,9.14-4.55Z"/>
      <g>
        <path class="cls-4" d="m69.24,262.2c1.3,1.71,1.98,4.12,1.34,6.7l.51,6.88s1.16,1.75.83,3.64l1.44,2.67,4.76,11.9.52,11.26s-2.33,1.77-4.4-2.81l-1.31-8.51-2.62-3.52-1.13,4.64-.14,14.98s2.74,9.09.11,10.91c0,0-.81,2.97-3.09-6.31l-4.89-4.56s-3.09-.97-4.28-1.76c0,0-3.91-2.46-4.74-3.88,0,0-1.68-7.81-2.37-9.06l7.12-15.03s-1.3-1.1-.18-2.69c0,0,1.14-4.04,1.01-6.5l.3-3.76c-.03-2.33.23-4.73,1.59-6.1"/>
        <polyline class="cls-4" points="64.13 297.61 64.73 310.58 66.58 316.58"/>
        <path class="cls-4" d="m60.64,309.87l1.14,1.12c.1.07.45.13.54.21l-2.94-12.87s1.63,10.54,1.25,11.54Z"/>
        <path class="cls-4" d="m57.49,308.62c-.55-2.94-3.23-10.21-3.23-10.21l3.04,10.06c.07.03.13.12.19.15Z"/>
      </g>
      <path class="cls-1" d="m60.66,118.63s-25.7-2.68-27.03,17.96c-1.32,20.64.83,129.64-6.67,137.05h75.35l-7.8-120.5s-2.65-36.73-33.85-34.51Z"/>
      <g>
        <path class="cls-4" d="m66.22,213.4c4.77-.24,10.16-5.49,9.22-12.36l1.74-55.46-24.71,1.1,3,54.4c-.73,7.39,5.73,12.58,10.75,12.33Z"/>
        <path class="cls-1" d="m48.64,133.57s1.8,57.77-.35,56.4h35.75s-3.88-52.13-3.37-57.19c-2.77-6.98-9.69-11.38-17.01-10.89-6.82.45-12.77,5.07-15.01,11.67Z"/>
      </g>
      <g>
        <path class="cls-4" d="m58.47,194.24c-2.12,1.75-3.36,4.27-2.97,6.99l3.75,64.81c.19,3.2,2.78,5.76,5.98,5.82.32,0,.65,0,.99,0,.16,0,.31,0,.45,0,2.8-.04,5.06-2.27,5.18-5.07.88-21.69,2.87-43.92,3.58-65.53.37-2.48-.62-4.79-2.39-6.51"/>
        <path class="cls-2" d="m55.9,217.58s5.08,20.47,3.7,27.33c0,0,6-24.89,2.24-28.87,0,0,6.01-3.81,7.31,1.59,0,0-6.36-5.71-4.65-10.07,0,0-.46-1.04-4.73.14l-4.12,4.44.25,5.44Z"/>
      </g>
      <g>
        <path class="cls-4" d="m70.38,262.29c1.3,1.71,1.98,4.12,1.34,6.7l.51,6.88s1.16,1.75.83,3.64l1.44,2.67,4.76,11.9.52,11.26s-2.33,1.77-4.4-2.81l-1.31-8.51-2.62-3.52-1.13,4.64-.14,14.98s2.74,9.09.11,10.91c0,0-.81,2.97-3.09-6.31l-4.89-4.56s-3.09-.97-4.28-1.76c0,0-3.91-2.46-4.74-3.88,0,0-1.68-7.81-2.37-9.06l7.12-15.03s-1.3-1.1-.18-2.69c0,0,1.14-4.04,1.01-6.5l.3-3.76c-.03-2.33.23-4.73,1.59-6.1"/>
        <polyline class="cls-4" points="65.27 297.69 65.86 310.66 67.71 316.66"/>
        <path class="cls-4" d="m61.78,309.96l1.14,1.12c.1.07.45.13.54.21l-2.94-12.87s1.63,10.54,1.25,11.54Z"/>
        <path class="cls-4" d="m58.62,308.71c-.55-2.94-3.23-10.21-3.23-10.21l3.04,10.06c.07.03.13.12.19.15Z"/>
      </g>
      <path class="cls-13" d="m74.02,225.49s-3.67,27.17-6.56,28.16c0,0-9.93-.89-6.63-4.39,0,0-.86,15.46,3.11,16.22,0,0,9.42-2.71,7.75,2.1l2.34-42.09Z"/>
      <path class="cls-7" d="m55.15,50.56c-.08.06-.16.12-.23.18.07-.07.15-.13.23-.18Z"/>
      <g>
        <path class="cls-11" d="m66.78,118.03s21.43,25.28,26.89,28.49"/>
        <path class="cls-6" d="m94.04,146.65s-3.71,7.84.88,13.03c0,0,.33-11.24-.88-13.03Z"/>
      </g>
    </g>
  </g>
</svg>