<?xml version="1.0" encoding="UTF-8"?>
<svg id="Capa_2" data-name="Capa 2" xmlns="http://www.w3.org/2000/svg" viewBox="0 0 124.85 90.81">
  <defs>
    <style>
      .cls-1 {
        fill: #ff7900;
      }

      .cls-1, .cls-2 {
        stroke-width: 0px;
      }

      .cls-2 {
        fill: #fff;
      }
    </style>
  </defs>
  <g id="Capa_1-2" data-name="Capa 1">
    <g>
      <path class="cls-2" d="m72.66,90.81c-4.77,0-9.33-2.28-12.2-6.09-4.1-5.44-4.09-13.03.02-18.46l2.29-3.02-47.93-2.34C6.25,60.48-.4,53.15.02,44.56c.39-8.05,6.77-14.42,14.84-14.82l47.97-2.2-2.28-3.03c-2.46-3.26-3.5-7.29-2.94-11.34.57-4.05,2.68-7.63,5.94-10.09C66.23,1.06,69.42,0,72.77,0s6.6,1.11,9.23,3.1l35,26.54c4.22,3.2,6.94,7.85,7.66,13.1.72,5.25-.64,10.46-3.84,14.68-1.07,1.41-2.39,2.73-3.83,3.82l-35.11,26.47c-2.68,2.02-5.87,3.09-9.23,3.08h0Z"/>
      <path class="cls-1" d="m111.88,36.4l-35-26.54c-2.37-1.8-5.74-1.89-8.24-.01-3.01,2.27-3.61,6.55-1.34,9.56l11.96,15.86-63.99,2.94c-3.61.18-6.6,3.07-6.78,6.76-.19,3.93,2.84,7.27,6.76,7.46l63.98,3.12-12,15.82c-1.8,2.37-1.89,5.74-.01,8.24,2.27,3.01,6.55,3.61,9.56,1.34l35.07-26.44c.8-.61,1.57-1.37,2.21-2.2,3.79-4.99,2.81-12.12-2.19-15.9Z"/>
    </g>
  </g>
</svg>