<?xml version="1.0" encoding="UTF-8"?>
<svg id="Capa_2" data-name="Capa 2" xmlns="http://www.w3.org/2000/svg" viewBox="0 0 124.84 90.8">
  <defs>
    <style>
      .cls-1 {
        fill: #ff7900;
      }

      .cls-1, .cls-2 {
        stroke-width: 0px;
      }

      .cls-2 {
        fill: #fff;
      }
    </style>
  </defs>
  <g id="Capa_1-2" data-name="Capa 1">
    <g>
      <path class="cls-2" d="m52.93,0c4.77.08,9.29,2.43,12.1,6.29,4.01,5.5,3.88,13.09-.32,18.45l-2.34,2.98,47.89,3.11c8.58.56,15.11,7.99,14.55,16.57-.52,8.05-7.01,14.31-15.07,14.58l-48,1.43,2.23,3.06c2.41,3.3,3.38,7.35,2.75,11.39-.63,4.04-2.8,7.59-6.1,10-2.71,1.98-5.92,2.99-9.27,2.93s-6.58-1.21-9.18-3.25L7.59,60.43c-4.17-3.27-6.81-7.96-7.45-13.22-.64-5.26.81-10.45,4.08-14.61,1.09-1.39,2.43-2.69,3.89-3.76L43.65,2.94C46.36.96,49.57-.06,52.93,0h0Z"/>
      <path class="cls-1" d="m12.82,53.76l34.56,27.1c2.34,1.84,5.71,1.99,8.24.14,3.05-2.22,3.72-6.49,1.5-9.54l-11.7-16.05,64.03-1.91c3.62-.12,6.65-2.97,6.89-6.65.25-3.92-2.72-7.31-6.64-7.57l-63.93-4.16,12.25-15.63c1.84-2.34,1.98-5.71.14-8.24-2.22-3.05-6.49-3.72-9.54-1.5L13.14,35.66c-.81.6-1.6,1.34-2.25,2.17-3.87,4.93-3.01,12.07,1.93,15.94Z"/>
    </g>
  </g>
</svg>