<svg xmlns="http://www.w3.org/2000/svg" viewBox="0 0 113.58 110.94"><defs><style>.cls-1{fill:#ff7900;}.cls-2{fill:#fff;}</style></defs><g id="Capa_2" data-name="Capa 2"><g id="indice_e_introduccion" data-name="indice e introduccion"><ellipse class="cls-1" cx="56.79" cy="55.47" rx="56.79" ry="55.47"/><path id="CUSTOM" class="cls-2" d="M94.6,48.82h0L61.19,15.42a7.53,7.53,0,0,0-10.66,0L17.15,48.8l0,0a7.54,7.54,0,0,0,5,12.85h1.56V86.27a8.84,8.84,0,0,0,8.83,8.82H45.59A2.39,2.39,0,0,0,48,92.69V73.42a4,4,0,0,1,4-4h7.71a4,4,0,0,1,4,4V92.69a2.4,2.4,0,0,0,2.4,2.4H79.21A8.83,8.83,0,0,0,88,86.27V61.69h1.24A7.54,7.54,0,0,0,94.6,48.82Zm-3.4,7.27a2.72,2.72,0,0,1-1.93.8H85.63a2.4,2.4,0,0,0-2.4,2.4v27a4,4,0,0,1-4,4H68.54V73.42a8.83,8.83,0,0,0-8.82-8.82H52a8.83,8.83,0,0,0-8.82,8.82V90.29H32.52a4,4,0,0,1-4-4v-27a2.39,2.39,0,0,0-2.4-2.4H22.41a2.73,2.73,0,0,1-1.89-4.67h0l33.4-33.4a2.72,2.72,0,0,1,3.87,0L91.19,52.2h0A2.76,2.76,0,0,1,91.2,56.09Z"/></g></g></svg>