<?xml version="1.0" encoding="UTF-8"?>
<svg id="Capa_2" data-name="Capa 2" xmlns="http://www.w3.org/2000/svg" version="1.1" viewBox="0 0 137.9 134.7">
  <defs>
    <style>
      .cls-1, .cls-2, .cls-3 {
        isolation: isolate;
      }

      .cls-2, .cls-3 {
        fill: #000;
        font-family: ArialMT, Arial;
        font-size: 30px;
      }

      .cls-4 {
        fill: #fff;
      }

      .cls-4, .cls-5, .cls-6, .cls-7 {
        stroke-width: 0px;
      }

      .cls-5 {
        fill: #b3732c;
      }

      .cls-6 {
        fill: #796131;
      }

      .cls-7 {
        fill: #70131b;
      }

      .cls-3 {
        letter-spacing: -.1em;
      }
    </style>
  </defs>
  <g id="Capa_1-2" data-name="Capa 1-2">
    <g>
      <g>
        <ellipse class="cls-4" cx="69" cy="67.4" rx="69" ry="67.4"/>
        <g>
          <path class="cls-6" d="M44.9,118.7s-1.9-3.1-5.5-6.5c-3.6-3.5-12.5-15.9-12.2-37.8.3-21.9,10.4-39,29.4-52.1,0,0,6.9-3.3,14.9-3.5,8-.2,15.8-.6,18.3.3s17.7,13.7,20.8,30.5c3.1,16.9-5.2,43.8-29.6,57-11.2,6.1-19.6,7.1-25.6,8.6-7,1.8-10.5,3.5-10.5,3.5h0Z"/>
          <path class="cls-7" d="M65.4,71.2c3.1,1.9,6.9,2.5,10.4,3.1,3.9.7,7.9,1.1,11.9,1.1,3.7,0,7.4-.2,11-.8,1.6-.3,3.2-.7,4.7-1.2,1.7-.7,2.9-1.9,4.4-2.7.1,0,0-.2,0-.2-1.5.5-2.7,1.5-4.2,2.1-1.6.7-3.3,1-5,1.3-3.6.6-7.2.7-10.8.7-3.6,0-7.2-.4-10.7-.9-3.8-.6-7.9-1.2-11.2-3.1,0,0,0,0,0,0,.3-.5.6-.9.8-1.4,2.3-3.9,4.4-7.9,6.4-11.9,2.4,1.5,5.3,1.5,8.1,2,3.5.6,7.2.6,10.7.3,3.7-.3,7.3-.8,10.9-1.6,2.7-.6,5.3-1.6,7.2-3.7,0,0,0-.2-.1-.1-1.2.5-2.2,1.4-3.4,2-1.4.6-2.8,1-4.3,1.2-3.1.6-6.1,1.1-9.2,1.4-3.3.3-6.7.3-10,0-3-.3-6.8-.5-9.5-2.1,1.8-3.5,3.5-7.1,5.2-10.7.3-.7.7-1.4,1-2.1,1.7.9,3.8.4,5.7.4,2.3,0,4.7,0,7-.3,4.5-.6,9.3-2.5,11.7-6.5,0-.1,0-.3-.2-.2-3.1,3.2-6.8,5-11.2,5.8-2.1.3-4.2.4-6.3.4-1.9,0-4.5.6-6.3-.3,1.5-3.3,3-6.6,4.4-10,.6-1.4,1.2-2.7,1.8-4.1.4,0,.9,0,1.3-.1.8,0,1.4-.2,2.2-.5,1.8-.6,4.1-1.8,4.9-3.6,0-.2-.1-.4-.3-.3-1.7,1.5-3.4,2.7-5.7,3.3-.4.1-1.4,0-2.1.2.2-.4.4-.8.5-1.2.9-2.1,1.7-4.2,3.1-6,0-.1,0-.2-.2-.1-1.3,1.2-2,2.7-2.7,4.2-1,2-1.9,4.1-2.8,6.1-.3.6-.6,1.2-.9,1.9-.2-.5-.6-1.9-.7-2.2-.5-1.2-.9-2.4-1.3-3.7-.7-2.3-.5-4.6-.9-7,0-.1-.2-.1-.2,0-.5,2.6-.1,5.5.7,8.1.4,1.1.8,2.3,1.3,3.4.2.6.5,1.3.7,1.9,0,.2,0,.2,0,.2,0,0,0,0,0,.1-1.5,3.3-3.1,6.7-4.6,10-.6,1.2-1.1,2.4-1.7,3.6-.4-1.4-1.7-2.8-2.5-3.9-1.8-2.4-2.9-5.6-4-8.4-1-2.5-1.6-5.1-2.2-7.7-.2-1-.4-2.1-.5-3.1,0-.8-.4-2.3.2-3,0,0,0-.2-.2-.1-1.1.8-.7,2.8-.6,4,.2,2.3.8,4.7,1.4,7,.9,3.3,2.3,6.5,3.9,9.6.5,1,1.1,2,1.8,2.9s1.9,2.1,2,3.3c0,.2.1.3.3.3-2.4,5-4.9,10-7.6,14.9-.7-.6-1.3-1.6-1.8-2.3-1.1-1.4-2-2.9-3-4.4-1.8-2.8-3.3-5.8-4.7-8.9-1.5-3.2-2.8-6.5-3.8-9.9-.5-1.7-.8-3.3-1.1-5-.3-1.9,0-3.9-.4-5.8,0-.1-.2-.1-.3,0-.9,7.4,1.8,14.4,4.7,21.1,1.5,3.4,3.3,6.7,5.3,9.9.9,1.4,1.8,2.8,2.8,4,.5.6,1.1,1.5,1.8,2.1-.9,1.7-1.9,3.4-2.9,5.1-1.1,1.9-2.2,3.7-3.3,5.6-.5-.6-1.3-1.2-1.8-1.7-1.5-1.3-2.8-2.7-4.2-4.2-2.4-2.7-4.6-5.5-6.5-8.5-1.9-2.9-3.4-6.1-4.8-9.3-.9-2-1.6-4-2.2-6-.6-1.8-1.2-3.7-.9-5.6,0,0-.1-.2-.2,0-.7,1.1-.4,2.3-.2,3.5.4,1.8.9,3.5,1.5,5.2,1.3,3.7,3,7.3,4.9,10.7,1.8,3.2,4,6.2,6.3,9,1.2,1.4,2.4,2.7,3.7,4,.5.6,1.1,1.1,1.7,1.6.6.5,1.6,1.2,2.1,1.8,0,.1,0,.2,0,.3-2.5,4.1-4.9,8.3-7.2,12.5,0,0-.1-.1-.2-.1-.4-.2-.9-.8-1.3-1.1-.6-.4-1.2-.9-1.8-1.3-1.5-1-2.8-2.1-4.1-3.3-2.4-2.3-4.4-5-6.1-7.8-1.6-2.6-3-5.3-4.3-8-.7-1.5-1.4-3.1-2-4.7-.6-1.6-1.6-4-1.1-5.8,0-.1-.1-.2-.2,0-1.3,2.5.8,6.4,1.7,8.7,1.5,3.5,3.1,6.9,5.1,10.1,1.7,2.9,3.8,5.6,6.2,8.1,1.2,1.2,2.5,2.2,3.8,3.2.8.5,1.5,1.1,2.3,1.6.4.3.8.8,1.2,1,0,.2.2.2.3.2-.6,1.2-1.2,2.4-1.8,3.6-1.7,3.4-3.2,7-4.6,10.6h0c-.8-.1-1.7-1.1-2.3-1.6-.9-.8-1.8-1.6-2.7-2.4-2-1.9-3.7-4.1-5.2-6.4-1.3-2.1-2.5-4.4-3.6-6.6-1.3-2.6-2.5-5.2-2.6-8.1,0,0-.2-.2-.2,0-.6,2.4.5,4.9,1.5,7.1,1.3,2.9,2.8,5.7,4.4,8.4,1.6,2.6,3.5,4.9,5.7,6.9,1.2,1.1,2.9,3.1,4.6,3.5,0,.3-.2.6-.3.8-.7,1.9-1.1,3.8-1.4,5.8-.3,2.2-.8,4.4-.9,6.6,0,.2,0,.3.2.4,0,0,0,0,0,0,.5.2,1-.3.6-.7,0,0,.1,0,0-.4,0-.6.1-1.1.2-1.7.2-1,.3-2,.5-3.1.1-.8.3-1.6.4-2.4,2,.4,4.1.5,6.1.6,2.8.2,5.4,0,8.1-.9,0,0,0-.2,0-.2-1.7,0-3.3.5-5,.6-.9,0-1.8-.1-2.7-.2-2.1-.2-4.3-.1-6.3-.6.3-1.2.6-2.4,1-3.6.9-2.5,1.9-5,3-7.4,5.5,2.5,11.6,3.4,17.6,3.8,2.8.2,5.5.2,8.3.2,2.4,0,4.6-.2,6.8-1.1,0,0,0-.2,0-.2-2.3.6-4.8.6-7.2.5-2.6,0-5.2-.1-7.8-.3-6-.5-11.8-1.4-17.3-3.8.6-1.4,1.3-2.8,2-4.2,1.7-3.4,3.5-6.7,5.3-9.9,7.1,2.9,14.5,5,22.2,5.9,6.3.7,14,1.6,19.6-2.1,0,0,0-.2,0-.1-6.3,2.8-13.4,2.2-20.1,1.3-7.4-.9-14.3-3.1-21.2-5.7,2.1-3.7,4.3-7.4,6.5-11h0s0,0,0,0Z"/>
          <path class="cls-5" d="M83.8,28.8c0-.1-.2-.2-.3-.1-.4.4-.3,1-.4,1.4,0,.3.4.6.6.3.3-.5.2-1.1.1-1.6Z"/>
          <path class="cls-5" d="M83,28.4c-.1-.5-.2-1.1-.5-1.6,0-.1-.3,0-.3,0-.2.5,0,1.3.2,1.7.2.3.7.2.6-.2Z"/>
          <path class="cls-5" d="M85.2,26.5c0-.1-.2-.1-.3,0-.2.4-.3.8-.4,1.1-.1.3.3.6.6.4.4-.4.4-1,.2-1.5h0Z"/>
          <path class="cls-5" d="M83.9,26.7c0-.2,0-.5,0-.8s0-.5-.2-.8c0-.1-.3-.1-.3,0-.3.4-.3,1.1-.1,1.6,0,.1.2.3.3.3h0c.2,0,.3-.1.3-.3h0Z"/>
          <path class="cls-5" d="M86.3,24.4c0-.2-.3-.4-.4-.1-.2.3-.3.5-.4.8,0,.1,0,.2-.2.4,0,.1,0,.2,0,.3,0,.2.1.4.3.3.2,0,.2,0,.3-.2,0-.1.2-.3.2-.4.1-.3.1-.7.2-1Z"/>
          <path class="cls-5" d="M82.5,24.5c0-.3,0-.7,0-1,0-.1-.2-.2-.3-.1-.4.3-.4.8-.3,1.2.2.5.7.3.7-.1h0Z"/>
          <path class="cls-5" d="M84.8,24.2c0-.4,0-.9-.2-1.2,0-.1-.2-.1-.2,0-.3.4-.4,1-.2,1.4.1.3.6.2.6-.1Z"/>
          <path class="cls-5" d="M87.1,21.8c0-.1-.2-.2-.3,0-.2.2-.4.5-.5.8-.1.3-.3.5-.3.8,0,.1.1.2.2.2.7,0,.9-1.3.8-1.8h0Z"/>
          <path class="cls-5" d="M83.4,21.4c0-.1-.1-.1-.2,0-.4.3-.7,1.2-.4,1.6,0,.1.3.2.4,0,.4-.3.3-1.2.2-1.6h0Z"/>
          <path class="cls-5" d="M82.3,21.1c0-.4-.2-.8,0-1.2,0-.4-.4-.5-.6-.2-.2.5-.3,1.1,0,1.6,0,.1.2.2.4.2,0,0,0,0,0,0,.2,0,.2-.2.2-.4h0Z"/>
          <path class="cls-5" d="M85.7,20c0-.1-.2-.2-.3-.1-.3.3-.6,1-.5,1.4,0,.2.3.4.6.2.4-.3.3-1,.2-1.5h0Z"/>
          <path class="cls-5" d="M88.2,20.9c0-.3.2-.7,0-1,0-.1-.2-.2-.2,0-.2.2-.4.5-.5.8-.2.3-.3.7-.2,1,0,.2.3.3.4.1.3-.2.4-.5.5-.8h0Z"/>
          <path class="cls-5" d="M76.6,43.3c0-.1-.2,0-.3,0-.2.5-.1,1.3-.1,1.9,0,.2,0,.3.3.4,0,0,0,0,0,0,.2,0,.3,0,.4-.3.1-.7,0-1.4-.4-2h0Z"/>
          <path class="cls-5" d="M75.6,43c-.1-.4-.2-.9-.4-1.2,0-.1-.3-.2-.4,0-.1.4,0,2.2.7,2,.4,0,.2-.6.2-.8h0Z"/>
          <path class="cls-5" d="M78.2,41.8c0,0-.2,0-.2,0-.2.4-.2.9-.2,1.3,0,.1,0,.2.2.3,0,0,.1,0,.2,0,.2,0,.3,0,.3-.2.2-.5,0-1.1-.2-1.4h0Z"/>
          <path class="cls-5" d="M76.9,41.4c0-.4-.1-1-.3-1.4,0-.1-.3-.2-.4,0-.3.5-.2,1.2,0,1.7.2.3.6,0,.6-.3Z"/>
          <path class="cls-5" d="M79.2,38.9c0-.2-.3-.2-.3,0,0,.2-.2.3-.2.5,0,.2,0,.3,0,.5,0,.2-.2.8.2.8.8,0,.4-1.4.3-1.8Z"/>
          <path class="cls-5" d="M74,40.7c0-.2-.2-.5-.2-.7,0-.3,0-.6-.2-.8,0-.2-.3-.2-.4,0-.4.5-.2,1.5.2,1.9.2.2.7,0,.6-.3Z"/>
          <path class="cls-5" d="M74.8,38.2c-.1-.3-.2-.7-.5-1-.1-.2-.4,0-.4.1,0,.4,0,.7.1,1.1,0,.3.2.9.6.9.1,0,.2,0,.3,0,.2-.3,0-.8,0-1.1h0Z"/>
          <path class="cls-5" d="M77.6,38.4c0-.5-.2-1.1-.7-1.4-.1,0-.4,0-.3.1,0,.5,0,1,.3,1.5.1.4.7.2.7-.2Z"/>
          <path class="cls-5" d="M80.6,37.4c0-.4,0-.9-.4-1.2,0,0-.2,0-.3,0,0,.3-.1.7-.2,1,0,.3-.2.7,0,1,0,0,.2.1.3.1.4,0,.6-.6.6-1h0Z"/>
          <path class="cls-5" d="M79,36.5c0-.5,0-1-.3-1.5,0-.2-.3-.2-.4,0-.2.5-.2,1.2,0,1.7.2.4.7.2.7-.2h0Z"/>
          <path class="cls-5" d="M81.5,33.6c0,0-.3,0-.3,0,0,.6-.2,1.2-.2,1.8,0,.5.6.5.7.1.3-.6,0-1.4-.3-2h0Z"/>
          <path class="cls-5" d="M80.1,34.1c0-.3,0-.5-.2-.8,0-.1-.1-.3-.2-.4,0-.2-.2-.3-.3-.4,0-.1-.3,0-.3,0,0,.3,0,.6,0,.9,0,.3,0,.5.1.8.1.3.7.2.7-.1h0Z"/>
          <path class="cls-5" d="M81.6,31.3c0-.2-.2-.4-.3-.6,0-.1-.3-.2-.3-.3,0,0-.2,0-.2,0,0,.1,0,.2,0,.4,0,.2,0,.4.2.6,0,.3.1.9.4,1.1.1.2.3.1.5,0,.3-.3,0-.9,0-1.3h0Z"/>
          <path class="cls-5" d="M72.8,37.3c0-.2,0-.3-.2-.5-.1-.2-.2-.4-.3-.6-.2-.4-.4-.8-.6-1.1,0-.1-.3,0-.3,0,0,.5,0,1,.2,1.4.2.4.5,1.1,1,.9,0,0,.1-.1.1-.2Z"/>
          <path class="cls-5" d="M75.8,35.6c0-.3-.2-.6-.2-.8,0-.3-.6-.3-.6,0,0,.5,0,1.5.5,1.7.2,0,.3,0,.4-.2,0-.2,0-.5,0-.7h0Z"/>
          <path class="cls-5" d="M77.8,33.8c0-.7-.2-1.3-.5-1.9-.1-.2-.5-.1-.4.1.2.6.1,1.2.3,1.8,0,.4.6.3.7,0h0Z"/>
          <path class="cls-5" d="M73.7,34.8c-.3-.4-.5-.9-.8-1.2-.1-.1-.3,0-.3.1,0,.6.2,1.3.7,1.6.3.2.7-.2.5-.5h0Z"/>
          <path class="cls-5" d="M75.1,31.5c0-.1-.3,0-.3,0,0,.5,0,1.1.2,1.7,0,.1.2.2.3.2.8,0,0-1.6-.2-1.9Z"/>
          <path class="cls-5" d="M79.4,31.4c0-.6-.2-1.7-.7-2,0,0-.2,0-.2.1,0,.3,0,.7,0,1s0,.7.2,1c.1.4.7.2.7-.1h0Z"/>
          <path class="cls-5" d="M71.2,33.1c0-.3-.3-.6-.5-.8-.2-.3-.3-.6-.5-1,0-.1-.2,0-.2,0,0,.4,0,.8.1,1.2.1.4.4.9.9.8.1,0,.2-.1.2-.3Z"/>
          <path class="cls-5" d="M72.8,30.3c0,0-.3,0-.3.1,0,.5,0,1.3.4,1.7,0,0,.2.2.3.1.7-.2,0-1.6-.4-1.9h0Z"/>
          <path class="cls-5" d="M77.1,30.6c0-.5-.3-.9-.5-1.3,0-.3-.6-.3-.5,0,0,.6,0,1.1.4,1.5.2.3.7,0,.6-.3h0Z"/>
          <path class="cls-5" d="M80.5,29.1c0-.4,0-.7-.2-1-.2-.4-.3-.6-.7-.8-.2,0-.3.1-.2.3,0,0,0,.2,0,.3,0,.1,0,.3.1.4,0,.3.1.6.2.9.2.4.6.2.7-.1h0Z"/>
          <path class="cls-5" d="M71.4,30.1c-.3-.4-.6-.9-.8-1.4,0-.2-.4-.1-.4,0,0,.4,0,.7.2,1.1,0,.2.2.4.4.5s.3.1.5.1c.2,0,.2-.2.1-.4h0Z"/>
          <path class="cls-5" d="M74.9,29.5c0-.5-.4-1.1-1-1.3-.1,0-.3,0-.2.2,0,.2.2.5.2.7,0,.2.2.5.3.7.2.3.7,0,.6-.3Z"/>
          <path class="cls-5" d="M78.1,28c-.1-.1-.2-.4-.3-.6-.1-.3-.2-.5-.4-.7-.1-.2-.3,0-.4.1,0,.4,0,.7,0,1.1s.3.8.8.8c.4,0,.5-.4.2-.7h0Z"/>
          <path class="cls-5" d="M79.7,26.5c0-.3,0-.6-.2-.8s-.2-.6-.2-.9c0-.2-.3-.3-.4,0,0,.3-.2.6-.2.9,0,.4.2.7.3,1,.1.3.7.2.6-.1h0Z"/>
          <path class="cls-5" d="M76,27.8c0-.6-.4-1.3-.7-1.9,0-.1-.2-.1-.3,0-.2.6,0,1.4.3,2,0,.1.2.2.3.2s.1,0,.2,0c0,0,.2-.2.2-.3h0Z"/>
          <path class="cls-5" d="M72.3,28.8c0-.6-.3-1.3-.7-1.8-.1-.1-.3,0-.3.1-.1.6.2,1.2.4,1.8,0,.1.1.3.3.3h0c.1,0,.3-.2.3-.3h0Z"/>
          <path class="cls-5" d="M69.3,27.5c-.2-.5-.3-1-.4-1.5,0-.1-.2-.2-.2,0-.3.6-.2,1.4.2,1.9.2.3.6,0,.5-.3h0Z"/>
          <path class="cls-5" d="M70.4,25.5c-.2-.4-.2-.9-.3-1.3,0-.2-.4-.2-.4,0-.1.5-.3,1.4.4,1.7.3.1.4-.2.4-.4h0Z"/>
          <path class="cls-5" d="M73.6,25.6c-.2-.4-.3-.8-.4-1.2,0-.1-.2-.1-.3,0-.2.4-.2.8-.1,1.2,0,.3.4,1,.8.9.5,0,.1-.7,0-.9h0Z"/>
          <path class="cls-5" d="M77.4,25.4c0-.2-.2-.4-.3-.6,0-.2-.1-.4-.2-.6,0-.1-.2-.1-.3,0-.4.5-.2,1.4.3,1.7.3.2.6-.1.5-.4Z"/>
          <path class="cls-5" d="M78.5,21.8c0-.2-.3-.1-.3,0,0,.4-.1.8-.2,1.2,0,.3,0,.6.4.6.1,0,.2-.1.3-.2.2-.6.1-1.1-.1-1.6h0Z"/>
          <path class="cls-5" d="M74.9,24.7c0-.3-.2-.6-.2-.9,0-.3-.1-.7-.2-1,0-.1-.2-.2-.3,0-.3.6-.4,1.9.2,2.3.2.2.5,0,.5-.3h0Z"/>
          <path class="cls-5" d="M71.1,22.4c0,0-.2-.1-.2,0-.2.3-.2.7-.2,1,0,.2,0,.7.4.8.6,0,.2-1.5,0-1.8h0Z"/>
          <path class="cls-5" d="M68.8,22.4c0-.3-.1-.7,0-1,0-.1-.2-.2-.3,0-.2.4-.4.7-.4,1.1,0,.4.2,1,.6,1,0,0,.2,0,.2-.1,0-.3,0-.6-.2-.9h0Z"/>
          <path class="cls-5" d="M73,22c0-.4,0-.9,0-1.3,0-.1-.2-.2-.3,0-.2.4-.3.8-.4,1.2,0,.3-.2.8,0,1.1,0,0,.2.1.3,0,.3-.2.2-.6.3-1h0Z"/>
          <path class="cls-5" d="M70.6,21.5c0-.3,0-.5,0-.8,0-.2,0-.5,0-.7,0-.1-.2-.2-.3,0-.2.2-.3.4-.4.7,0,.3-.1.7,0,1,.1.3.6.3.6,0h0Z"/>
          <path class="cls-5" d="M76.4,21.8c0-.3,0-.7-.2-1,0,0-.1,0-.2,0-.3.3-.3.8-.4,1.2,0,.4,0,1,.5,1.1.1,0,.2,0,.3-.1.2-.4,0-.8,0-1.1Z"/>
          <path class="cls-5" d="M79.2,20.4c0-.1-.3,0-.3.1,0,.3,0,.6-.1.9,0,.1,0,.2.1.3,0,0,0,0,.2,0,.1,0,.3,0,.3-.2.2-.4.1-.8-.2-1.1h0Z"/>
          <path class="cls-5" d="M68.7,60.5c0-.4-.2-.8-.4-1.1,0-.1-.3,0-.3,0,0,.4,0,.8,0,1.2,0,.4,0,.9.5,1,.1,0,.3,0,.3-.1.2-.3,0-.7,0-1h0Z"/>
          <path class="cls-5" d="M67.1,59.1c0-.2-.1-.4-.2-.6,0-.2-.2-.4-.3-.6,0-.1-.2-.1-.3,0-.3.4,0,1.1.2,1.5,0,0,.2.1.3.1,0,0,.1,0,.2,0,0,0,.1-.2.1-.3h0Z"/>
          <path class="cls-5" d="M69.6,57.7c-.1-.1-.3,0-.4,0,0,.2,0,.4,0,.6,0,.3,0,.5,0,.8,0,.5.6.5.7.2.2-.5,0-1.3-.3-1.7Z"/>
          <path class="cls-5" d="M68.6,57.3c-.2-.6-.4-1.2-.7-1.7,0-.1-.3,0-.3,0-.1.7,0,1.5.4,2,0,0,.2.2.3.1,0,0,.1,0,.2,0,.1-.1.1-.3,0-.4h0Z"/>
          <path class="cls-5" d="M70.9,57.2c0-.5-.1-1.1-.3-1.5,0-.1-.3-.2-.4,0-.1.5-.1,1,0,1.6,0,.4.8.4.8,0Z"/>
          <path class="cls-5" d="M65.9,56.3c-.2-.4-.5-.8-.7-1.2-.1-.2-.4-.2-.5,0,0,.5.2,1.1.6,1.5.3.3.8,0,.6-.4h0Z"/>
          <path class="cls-5" d="M69,53.7c0-.3-.5-.3-.6,0-.1.4-.3,1.6.3,1.6.6,0,.3-1.3.2-1.6h0Z"/>
          <path class="cls-5" d="M66.8,54.4c0-.3-.2-.5-.3-.8,0-.2-.2-.5-.4-.7,0,0-.1,0-.2,0-.6.3,0,1.3.2,1.7.2.3.7,0,.6-.3Z"/>
          <path class="cls-5" d="M71.8,52.8c0-.1-.3,0-.3,0-.1.5,0,.9-.1,1.4,0,.3-.3.9.1,1,.1,0,.2,0,.3,0,.6-.6.5-1.8,0-2.4h0Z"/>
          <path class="cls-5" d="M70.5,52.7c-.2-.5-.4-1-.9-1.2-.1,0-.3,0-.3.2.1.5.3,1,.6,1.4,0,0,.2.1.3.1,0,0,.1,0,.2,0,0,0,.2-.2.1-.3h0Z"/>
          <path class="cls-5" d="M73.4,50.9c0-.1-.3-.2-.3,0,0,.3,0,.7-.1,1,0,.3,0,.8.3.8.8,0,.3-1.5.1-1.8h0Z"/>
          <path class="cls-5" d="M64,53.7c0-.2,0-.3-.2-.5-.1-.2-.2-.3-.3-.5-.2-.3-.3-.7-.4-1.1,0-.2-.2-.2-.3,0-.3.4-.2.9,0,1.4.1.4.6,1.1,1.1.9,0,0,.1-.1.1-.2h0Z"/>
          <path class="cls-5" d="M67.3,50.8c0,0-.3,0-.2.2.1.5,0,1,.4,1.3.2.2.5,0,.5-.2.2-.5-.3-1-.7-1.3h0Z"/>
          <path class="cls-5" d="M71.3,50c-.2-.3-.5-.7-.8-.8-.1,0-.2,0-.2.2,0,.3.7,2,1.2,1.5.3-.3,0-.7-.2-.9h0Z"/>
          <path class="cls-5" d="M74.5,48.8c-.1-.4-.3-.7-.6-1,0-.1-.3,0-.3.1,0,.3,0,.6.1.9s0,.7.1,1c0,.2.4.2.5.1.3-.3.2-.8,0-1.1h0Z"/>
          <path class="cls-5" d="M72.6,49c-.1-.4-.4-.9-.8-1.1-.1,0-.2,0-.2.2,0,.5.2,1,.6,1.3.2.2.6,0,.5-.3Z"/>
          <path class="cls-5" d="M75.8,47.7c0-.2-.2-.4-.3-.6-.1-.2-.3-.3-.4-.4,0,0-.1-.1-.2-.2,0,0-.1-.1,0,0,0,0-.2,0-.2,0,0,0,0,.2,0,.3,0,.2.1.3.2.5,0,.2.2.3.3.5,0,0,0,.1,0,.2,0,.1.1.2.2.2,0,.1.3.1.4,0,.1-.2.2-.3.1-.5h0Z"/>
          <path class="cls-5" d="M65.2,50.9c-.2-.3-.3-.5-.5-.8,0-.1-.3,0-.3.1,0,.3,0,.6.2.9.1.3.3.6.6.7.2,0,.3,0,.3-.2,0-.3-.2-.5-.3-.8Z"/>
          <path class="cls-5" d="M68.7,49c-.2-.3-.4-.6-.7-.9,0-.1-.3,0-.3,0,0,.4,0,.7.2,1,0,.2.2.3.3.5,0,.2.2.3.4.4.1,0,.2,0,.3-.2.2-.3-.1-.7-.2-.9h0Z"/>
          <path class="cls-5" d="M73.2,46.8c0-.7-.4-1.6-1.1-1.9-.1,0-.3,0-.2.2,0,.3.2.6.4.9.1.3.1.7.3.9,0,0,0,0,0,0,0,.2.3.2.4,0,0,0,0,0,0,0,.1,0,.2-.2.2-.3h0Z"/>
          <path class="cls-5" d="M70.2,47.8c-.1-.5-.3-1-.7-1.3-.1,0-.3,0-.3.2,0,.5,0,1.1.4,1.5.2.2.7,0,.6-.3h0Z"/>
          <path class="cls-5" d="M66.3,49.3c0-.5-.5-1.4-1.2-1.3,0,0-.2.1-.2.2,0,.2.2.4.3.5.1.2.2.5.4.8,0,.1.2.2.4.2,0,0,0,0,0,0,.2,0,.2-.2.2-.4h0Z"/>
          <path class="cls-5" d="M63.2,49.9c-.2-.2-.4-.5-.6-.7-.2-.2-.4,0-.4.2,0,.4.5,1.3,1,1.2,0,0,.2,0,.2-.2,0-.3,0-.4-.2-.6Z"/>
          <path class="cls-5" d="M68.1,46.8c-.2-.4-.3-.9-.7-1.2-.1-.1-.5,0-.5.2,0,.5.1,1.1.6,1.5.3.2.7-.1.5-.5h0Z"/>
          <path class="cls-5" d="M71.2,45.7c-.2-.5-.5-1-.8-1.5,0,0-.2,0-.2,0-.2.6,0,1.3.4,1.8.2.3.8,0,.7-.3Z"/>
          <path class="cls-5" d="M72,43.2c-.2-.3-.6-.5-.8-.7,0,0-.2,0-.2,0,0,.3.2.6.4.9.1.2.4.8.7.6.4-.2,0-.7,0-.9Z"/>
          <path class="cls-5" d="M61.5,49.3c-.2-.5-.5-1-.8-1.4,0-.1-.3,0-.3,0-.2.6.2,1.4.7,1.8.2.2.6-.1.5-.4Z"/>
          <path class="cls-5" d="M63.3,46.5c-.1-.1-.3,0-.3.1,0,.4,0,.7.2,1,.1.2.4.6.7.4.6-.3-.5-1.4-.7-1.6h0Z"/>
          <path class="cls-5" d="M65.4,46.1c-.2-.3-.4-.7-.7-1-.2-.2-.4,0-.4.2,0,.4.5,1.9,1.2,1.6.4-.2,0-.6,0-.8h0Z"/>
          <path class="cls-5" d="M68.8,44.1c-.2-.4-.5-.7-.8-1-.1-.1-.3,0-.3.2,0,.5.2.8.4,1.2.1.2.4.8.8.6.4-.2,0-.7,0-1h0Z"/>
          <path class="cls-5" d="M65.8,43.5c0-.2-.4-.2-.5,0-.2.5.4,1.4.9,1.3,0,0,.2,0,.2-.2.2-.5-.5-.8-.7-1.2Z"/>
          <path class="cls-5" d="M70.1,41.9c-.2-.3-.4-.5-.6-.7-.1,0-.3,0-.3.1,0,.6.3,1.6.9,1.7.1,0,.3,0,.3-.2,0-.3-.1-.6-.3-.9Z"/>
          <path class="cls-5" d="M70.4,39.7c-.2-.3-.4-.6-.7-.7-.2,0-.3.1-.2.3,0,.3.2.5.3.8s.2.6.5.8c.2,0,.3,0,.3-.1.1-.3,0-.7-.2-.9h0Z"/>
          <path class="cls-5" d="M61.6,46.6c0-.6-.3-1.2-.5-1.7,0-.1-.3-.1-.3,0-.1.4,0,.9,0,1.3,0,.3.1.8.6.7.1,0,.2-.2.2-.3h0Z"/>
          <path class="cls-5" d="M59.7,45.1c-.1-.5-.5-1-.9-1.4-.1-.1-.4,0-.4.2,0,.5.2,1.1.6,1.5.2.3.8,0,.7-.3h0Z"/>
          <path class="cls-5" d="M63.2,44c-.1-.4-.3-.8-.7-1-.2,0-.3.1-.2.3,0,.3.2.6.2.8,0,.3,0,.7.1,1,.1.2.3.2.5.1.4-.2.2-.9.1-1.2Z"/>
          <path class="cls-5" d="M66.8,42.4c0-.3-.2-.6-.4-.9-.2-.3-.3-.6-.5-.8-.1-.2-.4,0-.4.1,0,.3,0,.6.2,1,.1.3.3.7.5,1,.2.3.7,0,.6-.3h0Z"/>
          <path class="cls-5" d="M68.4,40c0-.3-.2-.5-.3-.8,0-.3-.1-.6-.3-.8,0-.2-.3-.2-.4,0-.2.3-.2.7,0,1,0,.4.2.9.6,1.1.3.2.7-.2.6-.5h0Z"/>
          <path class="cls-5" d="M69.1,36.8c-.1-.4-.3-.7-.5-1.1-.1-.3-.6-.1-.5.2,0,.3.2.7.2,1,0,.3.1.8.4,1,.1,0,.3,0,.3,0,.2-.3.1-.8,0-1.1h0Z"/>
          <path class="cls-5" d="M66,39.2c0-.6-.5-1.2-.9-1.5-.2,0-.3,0-.3.2,0,.5.3,1.1.6,1.5.2.4.8.2.7-.2h0Z"/>
          <path class="cls-5" d="M64.2,42c0-.2,0-.4-.2-.6-.2-.3-.4-.6-.6-.8s-.3,0-.3.2c0,.5.3,1.2.6,1.6.1.2.4.2.4,0,0-.2.1-.2,0-.4h0Z"/>
          <path class="cls-5" d="M60.9,42.7c-.2-.4-.4-.7-.6-1-.1-.2-.5,0-.5.2,0,.4,0,.7.2,1.1.1.3.3.7.7.7.4,0,.2-.6.1-.8h0Z"/>
          <path class="cls-5" d="M58.5,41.6c-.2-.3-.3-.5-.5-.8,0-.1-.1-.3-.2-.4,0,0,0,0,0-.1,0,0,0,0,0,0h0c0-.1,0-.2-.2-.2-.9.3,0,1.7.4,2,.2.2.6-.1.5-.4h0Z"/>
          <path class="cls-5" d="M61,38.7c-.1-.1-.3,0-.3.1,0,.5.1,1.2.6,1.6,0,0,.2.2.3.1.8-.3-.3-1.6-.6-1.9h0Z"/>
          <path class="cls-5" d="M63.9,38.8c0-.3-.3-.5-.4-.8,0-.1-.2-.2-.2-.3,0,0-.2-.2-.2-.2,0,0,0-.2-.2,0-.5.4,0,1.4.4,1.8.2.2.6,0,.5-.4h0Z"/>
          <path class="cls-5" d="M66.8,36.8c0-.6-.5-1.1-.6-1.7,0-.3-.5-.3-.5,0,0,.6.1,1.3.4,1.9.2.3.7.2.7-.2Z"/>
          <path class="cls-5" d="M66.9,33c0,0-.2,0-.2,0,0,.3,0,.6,0,.9,0,.3.2.7.5,1,.1.1.3,0,.4-.1.3-.6-.3-1.4-.7-1.8h0Z"/>
          <path class="cls-5" d="M59.3,38.5c-.2-.4-.4-.8-.6-1.1-.1-.2-.3,0-.3.1,0,.4,0,.9.2,1.3.2.4.4,1,.8,1.1.2,0,.3,0,.3-.2,0-.4-.2-.8-.4-1.2h0Z"/>
          <path class="cls-5" d="M61.9,36.3c0-.4-.2-.9-.5-1.2,0,0-.3,0-.3,0,0,.5,0,1.7.5,2,0,0,.2,0,.3,0,.3-.2.1-.6,0-.9Z"/>
          <path class="cls-5" d="M64.8,34.9c-.1-.3-.2-.7-.4-.9-.1-.1-.3,0-.4,0-.1.3,0,.7,0,1,0,.3.2.8.4,1,.1,0,.4,0,.5,0,.2-.4,0-.7-.1-1.1Z"/>
          <path class="cls-5" d="M56.8,37.8c-.2-.4-.3-.9-.5-1.4,0-.1-.2,0-.2,0-.2.4-.1.8,0,1.3,0,.3.3,1.1.8,1.1.5,0,0-.7,0-1Z"/>
          <path class="cls-5" d="M60,35.8c0-.8-.4-1.5-.9-2,0,0-.2,0-.2.1.2.7.3,1.3.4,2,.1.4.7.4.7,0Z"/>
          <path class="cls-5" d="M57.2,34.3c0-.3-.1-.6-.2-.9,0-.2-.3-.2-.3,0-.1.3-.2.7,0,1,0,.3.1.7.4.8.1,0,.2,0,.3-.1.1-.2,0-.5,0-.8Z"/>
          <path class="cls-5" d="M62.5,33.9c0-.4,0-.8,0-1.1,0-.2,0-.4,0-.6s0-.1,0-.2h0q0,0,0,0c0-.1-.1-.2-.2,0,0,0-.2.1-.2.2,0,.2-.1.4-.2.6,0,.4,0,.9.1,1.3.1.3.6.2.6-.1Z"/>
          <path class="cls-5" d="M65.2,31.8c-.1-.4-.2-.9-.1-1.4,0-.4-.6-.5-.7,0,0,.5,0,.9,0,1.4,0,.3.3,1.1.8,1,.5,0,.2-.7,0-1Z"/>
          <path class="cls-5" d="M67.1,30.9c0-.2-.2-.3-.2-.5,0-.2-.1-.3-.2-.5,0-.1-.3,0-.3,0,0,.1,0,.2,0,.4,0,.2,0,.4,0,.6,0,.2,0,.4,0,.5,0,.2,0,.3.2.5,0,.2.4.2.4,0,.1-.3.2-.7,0-1.1h0Z"/>
          <path class="cls-5" d="M55.8,32.5c0-.4-.1-.8-.3-1.1,0,0-.2,0-.3,0-.2.4-.3,1.9.4,1.9.3,0,.2-.5.2-.8h0Z"/>
          <path class="cls-5" d="M58.7,32.2c0-.4,0-1-.3-1.4,0,0-.2-.1-.2,0-.3.3-.3.7-.3,1.1,0,.3,0,1,.5,1.1.5.1.4-.5.4-.8h0Z"/>
          <path class="cls-5" d="M60.6,31c0-.2,0-.4,0-.6s0-.2,0-.3h0c0-.1,0-.4,0-.2,0-.2-.2-.3-.4-.2-.3.3-.3.6-.3,1,0,.3,0,1,.4,1.1.4,0,.4-.6.4-.8h0Z"/>
          <path class="cls-5" d="M63.3,29.6c0-.2-.2-.5-.3-.7,0-.1-.2-.1-.3,0-.3.4-.3,1.3.2,1.6.2.1.5,0,.5-.3,0-.2,0-.4-.2-.6Z"/>
          <path class="cls-5" d="M66.2,27.4c0-.5-.2-.8-.7-1-.1,0-.2.1-.2.2.1.2,0,.7,0,1,0,.4-.1.8,0,1.2,0,.4.6.4.8,0,.2-.4.1-1,0-1.4h0Z"/>
          <path class="cls-5" d="M56.8,29.3c0-.4-.2-.8-.4-1.1,0-.1-.2,0-.3,0,0,.4,0,.8,0,1.2,0,.3,0,1,.5,1.1.1,0,.2,0,.2,0,.2-.3,0-.8,0-1.1h0Z"/>
          <path class="cls-5" d="M59.4,28.6c0-.3,0-.6-.2-.9,0-.3,0-.6-.2-.8,0,0-.2-.1-.3,0-.5.5-.3,1.5,0,2,.2.3.7.3.7-.1Z"/>
          <path class="cls-5" d="M62.3,28c0-.3,0-.7,0-1.1,0-.3,0-.7-.2-1,0,0-.1-.1-.2,0-.2.2-.3.6-.3,1,0,.4,0,.9.2,1.3.2.3.7.2.7-.1h0Z"/>
          <path class="cls-5" d="M64.1,26.4c0-.4-.2-.9-.3-1.3,0-.1-.2-.1-.2,0-.3.2-.3.7-.3,1.1,0,.3.1,1.1.5,1.2.6.1.4-.7.3-1h0Z"/>
          <path class="cls-5" d="M65.5,22.6c-.1-.1-.4,0-.4.1,0,.4,0,.8,0,1.2,0,.4-.1.8,0,1.1,0,.1.3.2.4,0,.5-.5.5-2,0-2.5Z"/>
          <path class="cls-5" d="M55.7,26.4c0-.3,0-.7,0-1,0-.1-.2-.2-.3-.1-.3.2-.3.7-.4,1,0,.4,0,.8,0,1.2.1.4.6.2.7-.1,0-.3,0-.7,0-1Z"/>
          <path class="cls-5" d="M58,26.7c0-.6,0-1.4-.2-2,0-.1-.2,0-.3,0-.3.6-.5,1.5-.2,2.1.2.4.6.2.7-.1Z"/>
          <path class="cls-5" d="M60.7,24.4c0-.4.2-1,0-1.4,0,0,0,0-.2,0-.4.2-.5.8-.7,1.2s-.3,1.1.1,1.4c0,0,.2,0,.3,0,.4-.2.3-.7.4-1.1h0Z"/>
          <path class="cls-5" d="M63.5,23.2c0-.4,0-.7,0-1.1,0-.2-.2-.3-.3-.2-.3.2-.4.6-.5,1,0,.2,0,.5,0,.7s0,.3.2.5c.1.2.4.2.5,0,0,0,.1-.1.1-.3,0-.2,0-.4,0-.6Z"/>
          <path class="cls-5" d="M65.9,20.6c0-.1-.3-.1-.3,0-.2.3-.7,1.5,0,1.5.6,0,.5-1.2.4-1.5h0Z"/>
          <path class="cls-5" d="M62,72.5c-.1-.3-.4-.5-.6-.8-.2-.2-.4-.4-.6-.7,0,0-.3,0-.3,0,0,.6.4,1.4.9,1.8.3.2.7-.1.5-.5h0Z"/>
          <path class="cls-5" d="M59.6,70.2c-.2-.3-.5-.6-.7-.8,0,0-.3,0-.3,0,0,.4.1.7.3,1,.2.3.5.7.8.7,0,0,.2,0,.2-.2,0-.3-.2-.6-.4-.8Z"/>
          <path class="cls-5" d="M62.3,69.9c-.2-.3-.3-.7-.6-1,0-.1-.3,0-.4,0,0,.4,0,.8.2,1.1.2.3.4.9.8.9.1,0,.2,0,.2-.2.1-.3-.2-.8-.3-1h0Z"/>
          <path class="cls-5" d="M57.8,69c-.2-.3-.3-.7-.5-1-.1-.1-.4-.1-.4,0-.1.5,0,1.3.6,1.5.3,0,.5-.3.4-.5h0Z"/>
          <path class="cls-5" d="M60,67.8c-.2-.4-.5-.9-.9-1.3-.1-.1-.4,0-.4.2,0,.6.3,1.2.8,1.6.3.2.7-.2.5-.5h0Z"/>
          <path class="cls-5" d="M64.2,69.2c0-.6-.5-1.3-.9-1.8-.1-.1-.3,0-.3.1,0,.3,0,.5.1.8,0,.3.2.7.4,1,.2.3.8.3.7-.2h0Z"/>
          <path class="cls-5" d="M61.9,67c-.2-.3-.3-.7-.5-1,0,0-.2,0-.3,0-.2.2-.2.7,0,1,0,.3.4.9.8.8.4-.1.3-.5,0-.7Z"/>
          <path class="cls-5" d="M65.5,66.7c0-.4-.1-.8-.3-1.1-.1-.2-.2-.3-.4-.4-.1,0-.3-.2-.4-.3s-.2,0-.2,0c0,.2,0,.3,0,.4,0,.2.1.3.2.5.2.3.3.6.4.9.1.4.6.2.7-.1h0Z"/>
          <path class="cls-5" d="M63.5,65.7c0-.3-.2-.6-.4-.8-.1-.3-.3-.6-.5-.8-.2-.2-.5,0-.4.2,0,.6.3,1.7,1.1,1.7.2,0,.3-.1.2-.3Z"/>
          <path class="cls-5" d="M66.9,64.3c0-.6-.4-1.6-1.1-1.7-.2,0-.3.2-.2.3.1.2.2.4.3.6.1.3.2.6.2.9.2.4.7.2.7-.2h0Z"/>
          <path class="cls-5" d="M64.3,62.6c-.3-.4-.5-.7-.8-1.1,0,0-.3,0-.3,0,0,.5.2,1,.4,1.4.2.4.6,1,1,.9.1,0,.2-.1.2-.2,0-.4-.4-.8-.6-1.1h0Z"/>
          <path class="cls-5" d="M60.4,64.6c-.2-.3-.5-.5-.7-.7s-.4-.4-.6-.7c0,0-.2,0-.2,0,0,.6.5,1.5,1,1.8.3.2.7-.2.5-.5h0Z"/>
          <path class="cls-5" d="M57.7,66.1c0-.4-.7-1.2-1.1-1.2-.1,0-.2,0-.2.2,0,.2.2.5.4.7.1.2.3.5.5.6.2.1.5-.2.4-.4h0Z"/>
          <path class="cls-5" d="M61.9,62c-.3-.4-.6-.9-.9-1.3-.1-.1-.3,0-.4.1,0,.6.3,1.3.8,1.7.3.3.7-.2.5-.5Z"/>
          <path class="cls-5" d="M63.6,59c-.2-.2-.5,0-.4.2,0,.5.3,1.3.9,1.5.1,0,.3,0,.3-.2.2-.5-.4-1.1-.8-1.5h0Z"/>
          <path class="cls-5" d="M55.3,65.7c-.2-.4-.4-.8-.6-1.2,0-.1-.3,0-.3,0-.2.4,0,.8.1,1.2.1.4.6,1,1,.8.4-.2,0-.7-.2-.9Z"/>
          <path class="cls-5" d="M57.4,63.2c-.2-.3-.5-.6-.7-.9,0-.1-.3,0-.3,0,0,.3,0,.6.2,1,.1.3.2.7.5.9,0,0,.2,0,.3,0,.3-.2.2-.7,0-1h0Z"/>
          <path class="cls-5" d="M55.1,63.2c-.1-.3-.3-.6-.5-.8,0-.1-.2-.3-.2-.4,0,0-.2-.2-.3-.3,0-.1-.3,0-.2.1,0,0,0,.2,0,.3,0,.2,0,.4.1.5,0,.3.2.7.5.9.3.3.8,0,.6-.4h0Z"/>
          <path class="cls-5" d="M59.1,61.1c-.2-.5-.4-1-.7-1.3-.2-.2-.5,0-.5.2,0,.5.2,1.2.7,1.5.3.2.7-.2.5-.5Z"/>
          <path class="cls-5" d="M61.8,59.5c-.2-.5-.6-1-.9-1.5-.1-.2-.4,0-.4.1,0,.6.3,1.3.7,1.7.3.3.8,0,.6-.4Z"/>
          <path class="cls-5" d="M62.2,56.6c-.2-.4-.5-.7-.9-.9-.1,0-.3,0-.3.2,0,.3.2.7.4,1,.1.3.3.8.6.9,0,0,.2,0,.3,0,.3-.3,0-.8,0-1.1Z"/>
          <path class="cls-5" d="M59,58.2c-.2-.3-.4-.7-.6-1,0,0-.3,0-.2.1,0,.4.1.7.2,1.1,0,.3.2.7.5.8,0,0,.2,0,.3,0,.2-.3,0-.7-.1-1h0Z"/>
          <path class="cls-5" d="M56,60.4c-.2-.3-.4-.7-.7-.8-.1,0-.3,0-.2.2,0,.3.2.6.3.9,0,.3.2.6.5.8.1,0,.3,0,.4-.1,0-.4,0-.7-.2-1.1h0Z"/>
          <path class="cls-5" d="M52.9,62.4c-.3-.4-.4-.9-.7-1.2,0,0-.2,0-.2,0-.5.5,0,1.5.6,1.8.3.2.5-.3.4-.5Z"/>
          <path class="cls-5" d="M53.7,59.2c-.2-.3-.5-.6-.7-1,0,0-.2,0-.2,0-.1.4,0,.7.2,1.1.2.3.5,1,.9,1,0,0,.2,0,.2-.1.2-.4-.1-.8-.3-1h0Z"/>
          <path class="cls-5" d="M56.6,58.1c0-.3-.2-.5-.3-.8,0-.2-.2-.5-.3-.6,0,0-.2,0-.2,0-.2.2-.1.5,0,.8,0,.3.2.7.4,1,.3.3.8,0,.6-.4Z"/>
          <path class="cls-5" d="M58.2,54.5c-.1-.1-.3,0-.3.2,0,.4.2.8.3,1.2,0,.3.4.9.8.7.6-.3-.6-1.8-.8-2.1Z"/>
          <path class="cls-5" d="M59.7,53.2c-.2-.3-.5-.7-.8-1,0,0-.3,0-.3.1,0,.4.2.7.3,1,.1.3.2.7.6.8.1,0,.2,0,.3,0,.2-.3,0-.7-.2-1Z"/>
          <path class="cls-5" d="M56.8,55.5c-.2-.4-.3-.7-.6-1,0,0-.3,0-.3,0,0,.4.1,1.7.8,1.6.3,0,.2-.5.2-.7h0Z"/>
          <path class="cls-5" d="M53.9,57.2c-.2-.3-.4-.7-.7-.9,0,0-.3,0-.2.1,0,.3.2.7.3,1,.1.3.2.7.6.8.1,0,.2,0,.3-.1.1-.3,0-.6-.2-.9h0Z"/>
          <path class="cls-5" d="M51.2,59.8c-.2-.2-.3-.5-.5-.7-.2-.2-.3-.5-.5-.6-.2,0-.3,0-.3.2,0,.6.4,1.5,1,1.7.3.1.5-.3.4-.5Z"/>
          <path class="cls-5" d="M52,57.4c0-.4-.2-.7-.4-1-.2-.3-.4-.5-.7-.5-.1,0-.2.1-.2.2.1.2.3.5.3.7,0,.3.1.6.3.9.2.4.8.2.7-.2h0Z"/>
          <path class="cls-5" d="M49.4,56.9c0-.2,0-.3-.2-.4,0-.2-.2-.3-.3-.5-.2-.3-.2-.7-.4-1,0,0-.2-.1-.2,0-.3.3-.2.8-.1,1.2,0,.2.2.4.3.6.2.2.3.3.6.4.2,0,.4,0,.3-.3h0Z"/>
          <path class="cls-5" d="M54.5,55.4c0-.6-.3-1.4-.9-1.7-.1,0-.3,0-.3.2,0,.3.1.5.2.8,0,.3.2.6.3.9,0,0,.2.2.3.2h0c.2,0,.2-.2.3-.3h0Z"/>
          <path class="cls-5" d="M51.8,54.2c-.2-.3-.4-.7-.7-1,0-.1-.3-.1-.3,0-.1.3,0,.7.1,1,.1.2.5.8.8.7.4,0,.2-.5,0-.7h0Z"/>
          <path class="cls-5" d="M57,52.4c-.1-.3-.3-.5-.5-.8-.1-.1-.3,0-.3,0-.1.3,0,.6,0,.9,0,.3.2.7.4.9.2.2.5.1.6-.1.1-.3,0-.6-.2-.9h0Z"/>
          <path class="cls-5" d="M54.9,52.8c0-.3-.1-.5-.2-.7-.2-.3-.3-.5-.5-.7s-.4,0-.4.2c0,.3.2.6.3.9.2.3.3.5.6.5.1,0,.2,0,.2-.2h0Z"/>
          <path class="cls-5" d="M58.6,51c0-.6-.3-1.6-1-1.7-.2,0-.3.1-.2.3,0,.3.2.5.3.8,0,.3.2.6.3.9.2.4.8.2.7-.2h0Z"/>
          <path class="cls-5" d="M49.6,52.9c-.3-.4-.5-.8-.8-1.2,0-.1-.3-.2-.3,0-.2.7.1,1.4.8,1.7.3.1.5-.3.3-.5Z"/>
          <path class="cls-5" d="M52.7,51.2c0-.3-.2-.6-.3-.9s-.3-.5-.7-.6c-.1,0-.2,0-.2.2,0,.5.3,1.5.9,1.5.1,0,.2,0,.3-.2h0Z"/>
          <path class="cls-5" d="M55.7,49.7c0-.3-.3-.7-.4-1-.1-.3-.3-.7-.6-1-.1-.1-.3,0-.3.1,0,.4,0,.7.2,1.1,0,.3.2.8.5,1,.2.2.7,0,.6-.3h0Z"/>
          <path class="cls-5" d="M57.2,47.6c0-.5,0-1.1-.5-1.3-.2,0-.4,0-.3.2,0,.4,0,.8.1,1.2,0,.5.7.3.7,0h0Z"/>
          <path class="cls-5" d="M53.1,48.2c-.2-.3-.3-.5-.4-.8,0-.1-.2-.2-.2-.4,0-.1,0-.2-.2-.3s-.2,0-.2,0c0,.1,0,.3,0,.4,0,.2,0,.4,0,.6.1.3.3.7.5.9.3.2.7-.1.5-.4h0Z"/>
          <path class="cls-5" d="M55.2,46c0-.3-.2-.6-.3-.9,0-.1-.2-.3-.2-.4,0,0-.1-.1-.2-.2,0,0-.2,0-.2,0,0,0,0,.2,0,.2,0,.1,0,.3,0,.4,0,.3.2.7.3,1,.2.3.7.2.6-.2h0Z"/>
          <path class="cls-5" d="M56.1,43.4c-.2-.3-.5-.7-.8-.8-.1,0-.2,0-.2.2.1.3.3.6.4.9,0,.3.2.8.5.9,0,0,.2,0,.2,0,.3-.3,0-.8,0-1.1h0Z"/>
          <path class="cls-5" d="M47.1,52.2c0-.3-.3-.6-.4-.9-.2-.3-.3-.6-.5-.9,0,0-.2,0-.3,0-.1.4,0,.7,0,1.1,0,.3.3.9.7,1,.2,0,.5-.1.4-.4h0Z"/>
          <path class="cls-5" d="M48.5,49.4c0,0,0,.1,0,.2.2.3.3.7.5,1,.1.3.5.2.6,0,.2-.6-.4-1.4-1-1.2h0Z"/>
          <path class="cls-5" d="M47.6,49c0-.2,0-.3,0-.5,0-.2-.1-.4-.2-.5-.1-.3-.3-.7-.6-1-.1-.1-.3,0-.3.2,0,.4.1.8.2,1.1,0,.2.1.4.2.5,0,.2.2.3.4.4.1,0,.3,0,.3-.2h0Z"/>
          <path class="cls-5" d="M50.4,48c0-.5-.2-1-.6-1.3,0,0-.2,0-.3,0-.1.5,0,1.1.2,1.5.2.3.6,0,.6-.2h0Z"/>
          <path class="cls-5" d="M52.3,43.8c-.2-.1-.4,0-.3.2,0,.5.2.9.3,1.4,0,.3.5.4.7.1.3-.7,0-1.4-.6-1.8Z"/>
          <path class="cls-5" d="M50.7,45c-.2-.5-.5-1-.7-1.5,0-.2-.4,0-.4.1,0,.6,0,1.2.5,1.7.2.2.7,0,.6-.3Z"/>
          <path class="cls-5" d="M53.9,42.9c0-.3-.2-.6-.3-.9,0-.2-.1-.5-.3-.8,0,0-.2,0-.2,0-.5.5-.2,1.6.2,2,.2.3.7,0,.7-.3h0Z"/>
          <path class="cls-5" d="M54.1,39.4c0-.3-.2-.7-.5-.9,0,0-.2,0-.2,0-.1.3,0,.7,0,1,0,.4,0,.9.3,1.2.1.2.4.2.5,0,.1-.4,0-.9-.2-1.3Z"/>
          <path class="cls-5" d="M51.2,41.6c-.2-.3-.3-.6-.6-.8,0,0-.2,0-.2.1,0,.3.1.6.2,1,0,.3.2.7.5.8.2,0,.3,0,.4-.2,0-.3-.1-.7-.2-1h0Z"/>
          <path class="cls-5" d="M45.7,48c-.1-.2-.3-.4-.4-.6,0-.2-.1-.5-.2-.7,0-.2-.3-.2-.4,0-.2.3-.3.6-.2,1,0,.4.4.9.8.8.2,0,.4-.2.3-.5h0Z"/>
          <path class="cls-5" d="M48.2,45c0-.2-.2-.4-.3-.6-.1-.2-.2-.2-.4-.4,0,0-.2,0-.2.2.2.3,0,2.3.8,1.9.4-.2.2-.8.1-1.1h0Z"/>
          <path class="cls-5" d="M46.1,45.1c0-.3-.2-.7-.4-.8-.2-.2-.3-.5-.5-.7,0-.1-.3,0-.3,0,0,.3.1.5.2.8.1.3.2.7.5,1,0,0,.2.1.3.1,0,0,.1,0,.2,0,0,0,.2-.2.1-.3h0Z"/>
          <path class="cls-5" d="M49,42.2c-.2-.3-.4-.7-.8-.8,0,0-.2,0-.2.2,0,.2,0,.3.2.5,0,.2.1.4.2.6,0,.2.3.8.7.5.3-.2,0-.8,0-1.1h0Z"/>
          <path class="cls-5" d="M43.7,44c-.2-.3-.3-.7-.5-1.1,0-.1-.2-.1-.3,0-.3.5-.1,1.3.4,1.6.3.2.6-.2.4-.5h0Z"/>
          <path class="cls-5" d="M46,41.4c-.2-.5-.4-1-.8-1.3s-.3,0-.3,0c0,.7.2,1.5.7,2,0,0,.2.1.3.1.5,0,.2-.7,0-.9Z"/>
          <path class="cls-5" d="M48.8,39.3c-.2-.3-.2-.6-.3-.8,0-.1-.2-.1-.3,0-.4.5,0,1.8.6,1.9.1,0,.3,0,.3-.2,0-.3-.1-.6-.3-.8h0Z"/>
          <path class="cls-5" d="M51.4,37.2c0,0-.2,0-.2.2,0,.5,0,1,.1,1.5,0,.3.6.4.7,0,.2-.5,0-1.4-.6-1.7h0Z"/>
          <path class="cls-5" d="M53.3,36.1c-.1-.4-.4-.7-.7-1,0,0-.3,0-.2.2.1.4.2.8.2,1.2,0,.3,0,.9.5.8.4-.1.4-.8.3-1.1h0Z"/>
          <path class="cls-5" d="M43.9,40.5c-.1-.3-.2-.5-.3-.8,0-.3,0-.6-.2-.9,0-.1-.3-.2-.4,0-.2.3-.2.8-.2,1.1,0,.4.2.9.6,1,.3,0,.5-.2.4-.5h0Z"/>
          <path class="cls-5" d="M47,39.2c-.1-.5-.3-1.8-1-1.9,0,0-.2,0-.2.1,0,.3,0,.6.1.9,0,.4.1.8.3,1.1.2.3.8.2.6-.2Z"/>
          <path class="cls-5" d="M50.1,36.6c-.1-.4-.3-.8-.5-1.2,0-.1-.3-.2-.4,0,0,.3,0,.7,0,1.1,0,.3.2.7.6.8.4,0,.3-.5.3-.7h0Z"/>
          <path class="cls-5" d="M52.2,33.1c0-.5-.3-.8-.5-1.2,0-.1-.2,0-.2,0,0,.4,0,.8,0,1.2,0,.3,0,1,.4.9.5,0,.4-.7.3-1Z"/>
          <path class="cls-5" d="M47.6,35.8c0-.4-.2-.8-.4-1.1,0-.1-.3,0-.3,0,0,.5-.1.9,0,1.4,0,.4.4,1,.9.9,0,0,.2-.1.2-.2,0-.3-.3-.7-.4-1Z"/>
          <path class="cls-5" d="M50.4,32.2c-.1-.1-.3,0-.3.1,0,.2,0,.5,0,.7,0,.3,0,.5,0,.8,0,.3.6.4.7,0,.2-.5,0-1.3-.4-1.7Z"/>
          <path class="cls-5" d="M52.7,30.5c0-.4,0-.8-.2-1-.1-.2-.3,0-.4,0-.1.3-.5,2,.2,1.9.4,0,.4-.6.4-.9h0Z"/>
          <path class="cls-5" d="M51.3,29.1c0-.3,0-.6,0-.8,0,0-.2-.1-.3,0-.2.2-.2.5-.3.8-.1.3-.1.7,0,1,0,.1.1.2.2.3,0,0,.1,0,.2,0,.2,0,.3-.2.3-.3,0-.3,0-.6,0-.9h0Z"/>
          <path class="cls-5" d="M44.8,36.6c0-.3-.2-.8-.5-1.1,0,0-.2,0-.3,0-.1.3,0,.8,0,1.1,0,.3,0,1,.6.9.5,0,.3-.8.2-1Z"/>
          <path class="cls-5" d="M48.5,31.3c0-.1-.3,0-.3,0-.2.6-.2,1.2-.2,1.7,0,.4.6.5.7.1.3-.6.2-1.4-.2-1.9Z"/>
          <path class="cls-5" d="M46.6,33.8c0-.2,0-.3,0-.5,0-.3,0-.7-.1-.9,0,0-.2,0-.3,0-.2.2-.3.6-.3.9,0,.2,0,.3,0,.5,0,.2,0,.3.2.4,0,.2.4.2.4,0,0,0,0-.2.1-.3h0Z"/>
          <path class="cls-5" d="M42.3,37.8c0-.3,0-.5-.1-.8s-.3-.2-.3,0c-.3.4-.3,1.2,0,1.6.1.2.3,0,.4,0,.1-.2,0-.5,0-.8h0Z"/>
          <path class="cls-5" d="M54.2,86.1c0-.6-.5-1.1-1.1-1.2-.2,0-.3.2-.2.3.2.4.4.8.7,1.1.2.2.6.1.6-.2Z"/>
          <path class="cls-5" d="M51.8,84.1c-.3-.3-.5-.6-.9-.8-.1,0-.3,0-.2.2.2.6.6,1.2,1.2,1.4,0,0,.2,0,.3,0,.3-.3-.1-.6-.3-.8h0Z"/>
          <path class="cls-5" d="M55.1,83.9c0-.6-.4-1.1-.9-1.4-.1,0-.3,0-.3.2,0,.5.3,1,.5,1.4.2.3.7.2.7-.1h0Z"/>
          <path class="cls-5" d="M52.3,81.6c-.1,0-.4,0-.4.2,0,.3.2.6.3.8.2.2.4.6.7.7.2,0,.3,0,.4-.2.2-.6-.6-1.2-1-1.5h0Z"/>
          <path class="cls-5" d="M55.8,80.9c-.1,0-.3,0-.3,0,0,.3,0,.6,0,.8,0,.3.1.6.4.8.1,0,.3,0,.4,0,.3-.4,0-1.3-.4-1.6h0Z"/>
          <path class="cls-5" d="M49.8,83.1c0,0,0,0-.1-.1-.2,0-.6-.3-.7-.4-.1-.2-.5-.2-.5,0,0,.6.6.9,1.1.9,0,0,.1,0,.2-.1h0c0,0,0-.2,0-.3Z"/>
          <path class="cls-5" d="M51.5,81.8c0-.3-.3-.6-.5-.9-.2-.2-.4-.6-.7-.7-.1,0-.2,0-.2.2,0,.3.2.7.3,1,.2.4.5.7.9.7.2,0,.3-.1.2-.3h0Z"/>
          <path class="cls-5" d="M54.2,80.8c0-.4-.2-.7-.3-1-.1-.3-.3-.6-.6-.8-.2-.2-.5,0-.4.3.1.6.4,1.5,1,1.7.1,0,.3,0,.3-.2h0Z"/>
          <path class="cls-5" d="M56.2,78.7c0,0-.2.1,0,.2.2.2.3.4.4.7.1.3,0,.6.2.9,0,.3.6.4.7,0,.2-.7-.3-2-1.2-1.8h0Z"/>
          <path class="cls-5" d="M55.3,79c-.1-.5-.4-1-.8-1.3,0,0-.2,0-.2,0-.2.5,0,1.1.4,1.5.2.3.7,0,.6-.3Z"/>
          <path class="cls-5" d="M58.4,78.1c0-.3-.4-.7-.6-.9s-.7.2-.4.4c.3.3.3.6.4.9,0,.3.2.7.5.5s.2-.7.1-1h0Z"/>
          <path class="cls-5" d="M48.3,80c-.1-.1-.3,0-.3.2,0,.4.4,1.6,1,1.3.6-.2-.5-1.3-.7-1.5Z"/>
          <path class="cls-5" d="M46.8,79.9c-.2-.3-.5-.6-.8-.8-.1,0-.3,0-.3.1,0,.4,0,.7.3,1,.2.3.5.7.8.4.3-.2,0-.5,0-.7h0Z"/>
          <path class="cls-5" d="M52.1,79.3c-.1-.5-.4-1-.7-1.4s-.4,0-.4.1c0,.5.2,1.1.3,1.5.2.4.9.2.8-.3Z"/>
          <path class="cls-5" d="M49.1,78.2c-.2-.4-.4-.8-.7-1.1-.1-.1-.3,0-.3,0,0,.4,0,.8.2,1.1.1.3.4.8.8.6.4-.1,0-.6,0-.8h0Z"/>
          <path class="cls-5" d="M53.2,76.4c-.2-.3-.4-.6-.8-.6,0,0-.2.1-.1.2,0,.3.2.6.2.8,0,.3.2.7.6.8,0,0,.2,0,.2-.1.2-.3,0-.8-.1-1.1h0Z"/>
          <path class="cls-5" d="M56.7,76.6c-.2-.5-.6-.7-1-1-.2-.2-.4,0-.4.3,0,.3.2.6.4.8.1.2.3.4.5.4h0c.2,0,.3,0,.4-.1,0,0,.1-.2,0-.3h0Z"/>
          <path class="cls-5" d="M59.7,76.2c-.1-.3-.6-.8-1-.7-.1,0-.2.2-.2.3,0,.2.2.3.3.6,0,.2,0,.4,0,.6,0,.3.2.5.5.4.5-.2.5-.7.4-1.2h0Z"/>
          <path class="cls-5" d="M57.1,74.3c-.2,0-.3,0-.3.2,0,.4.2,1.5.8,1.2.5-.2-.2-1.2-.5-1.3Z"/>
          <path class="cls-5" d="M59.2,74.1c0,0-.2.1-.1.2,0,.2.2.4.3.5.2.2.3.4.6.5.1,0,.3,0,.3-.2.2-.6-.5-1.2-1.1-1.1Z"/>
          <path class="cls-5" d="M51.2,76.2c-.2-.3-.3-.5-.5-.8-.1-.3-.3-.6-.7-.6,0,0-.2,0-.2.2,0,.3.2.6.2.9,0,.3.2.7.6.8.3,0,.6-.2.4-.5h0Z"/>
          <path class="cls-5" d="M54.5,75.2c0-.5-.4-1-.7-1.4,0-.1-.3,0-.3,0,0,.5,0,1.1.3,1.5.2.3.7.2.7-.2Z"/>
          <path class="cls-5" d="M57.1,72.5c-.2-.4-.6-.5-1-.7-.2,0-.3.1-.2.2,0,0,0,.2.2.3.1.2.2.3.3.5.2.2.2.6.5.8,0,0,.2,0,.2,0,.5-.2.2-.9,0-1.2h0Z"/>
          <path class="cls-5" d="M55.5,72.7c0-.2-.2-.4-.4-.6-.2-.2-.4-.2-.6-.4,0-.1-.3,0-.3.2,0,.2.1.5.2.6.1.2.3.4.4.6.2.3.7,0,.6-.3Z"/>
          <path class="cls-5" d="M51.9,74.1c-.2-.3-.3-.5-.5-.8-.2-.2-.3-.5-.5-.7-.1-.1-.3,0-.3.1,0,.6.3,1.5.9,1.8.1,0,.3,0,.4,0,0,0,0,0,0,0,0,0,0-.2,0-.3Z"/>
          <path class="cls-5" d="M54.5,69.6c-.3-.2-.6-.4-1-.3,0,0-.1.2,0,.3.2.3.5.6.7.9.2.3.5.5.7.2s-.2-.8-.4-1h0Z"/>
          <path class="cls-5" d="M52.7,71.9c-.2-.3-.4-.5-.6-.8-.1-.2-.4,0-.4.1,0,.3.1.7.3,1,.2.3.4.6.7.7.2,0,.3,0,.3-.2,0-.3-.2-.6-.3-.8h0Z"/>
          <path class="cls-5" d="M47,77c-.3-.3-.6-.6-.9-.8-.2-.2-.5,0-.4.2,0,.5.6,1.1,1.1,1.1.3,0,.4-.3.3-.5h0Z"/>
          <path class="cls-5" d="M49.2,75.4c-.4-.6-1-1.1-1.5-1.5,0,0-.2,0-.2.1-.1.7.7,1.5,1.2,1.9.2.2.4,0,.5-.1h0c.1,0,0-.3,0-.4h0Z"/>
          <path class="cls-5" d="M51,69c0,0-.2,0-.2.2.1.4.9,1.8,1.4,1.3.5-.4-.8-1.5-1.2-1.5Z"/>
          <path class="cls-5" d="M44.9,77.3c-.2-.3-.4-.5-.7-.7-.2-.2-.4-.5-.7-.7-.2-.1-.4,0-.4.2,0,.7.7,1.7,1.5,1.7.2,0,.3-.3.2-.5h0Z"/>
          <path class="cls-5" d="M46.9,74.3c-.3-.5-.7-.8-1.1-1.1-.1,0-.2,0-.2.2,0,.5.4,1,.7,1.4.3.3.9,0,.6-.4h0Z"/>
          <path class="cls-5" d="M43.9,73.9c-.2-.3-.5-.6-.8-.9,0-.1-.3,0-.3.1,0,.4.2.8.4,1.1.2.3.5.8.8.8,0,0,.2,0,.2-.2.1-.4-.2-.7-.4-1h0Z"/>
          <path class="cls-5" d="M49.1,72.8c-.1-.6-.7-1.4-1.3-1.4s-.3.2-.2.3c.1.2.3.5.4.7.2.3.3.6.5.8.3.2.7,0,.6-.4h0Z"/>
          <path class="cls-5" d="M50.4,71.3c0-.3-.2-.6-.3-.8-.2-.3-.5-.6-.8-.8,0,0-.3,0-.3.1,0,.4.2.7.3,1,.2.3.4.7.8.7.1,0,.2,0,.2-.2Z"/>
          <path class="cls-5" d="M52.5,67.4c-.2-.3-.6-.6-1-.7-.1,0-.3.2-.2.3.2.3.4.5.5.8.2.3.3.6.7.8.1,0,.3,0,.3-.2.1-.4,0-.7-.3-1h0Z"/>
          <path class="cls-5" d="M41.8,73.4c-.2-.3-.4-.7-.7-.9,0,0-.3,0-.3,0,0,.4,0,.8.2,1.1.2.3.5.9,1,.7.4-.2,0-.7-.2-.9h0Z"/>
          <path class="cls-5" d="M45.1,72.4c-.1-.2-.4-.4-.5-.6-.2-.2-.4-.5-.6-.7,0,0-.2,0-.2,0-.3.7.6,2.1,1.3,1.5,0,0,.1-.2,0-.3h0Z"/>
          <path class="cls-5" d="M47.8,70c0-.7-.5-1.4-1.1-1.8-.1,0-.3,0-.3.2,0,.3.2.6.3.8.1.3.3.6.5.9.2.3.7.2.7-.1h0Z"/>
          <path class="cls-5" d="M45.8,70.9c0-.3-.2-.6-.5-.8-.1-.2-.4,0-.4.2,0,.3.1.7.4.9.2.1.5,0,.5-.2h0Z"/>
          <path class="cls-5" d="M49.6,67.7c-.3-.3-.5-.7-.9-.9-.2-.1-.4,0-.3.2,0,.4.2.7.4,1.1.2.3.6.9,1,.6.3-.2,0-.7-.2-.9h0Z"/>
          <path class="cls-5" d="M50.2,64.9c-.2-.3-.6-.8-1-.8s-.2,0-.2.2c0,.4.4.7.6,1,.2.3.3.8.7,1,.2,0,.3,0,.4-.1.2-.4-.1-1-.4-1.3h0Z"/>
          <path class="cls-5" d="M42.1,71.2c-.4-.5-.9-.9-1.2-1.5,0,0-.2,0-.2,0,0,.4,0,.7.2,1.1s.5.7.8.9c.3.1.6-.3.4-.6h0Z"/>
          <path class="cls-5" d="M44.4,68.8c0-.3-.3-.5-.5-.7-.2-.2-.4-.4-.5-.7,0,0-.2,0-.2,0-.2.6.3,1.5.8,1.7.2,0,.5-.1.4-.4Z"/>
          <path class="cls-5" d="M47.2,66.6c-.1-.3-.3-.6-.5-.8-.2-.2-.3-.4-.6-.6-.2,0-.3,0-.3.2,0,.6.4,1.3.9,1.7.3.2.7-.1.5-.5Z"/>
          <path class="cls-5" d="M47.9,64.6c-.2-.4-.5-1-.9-1.3-.1,0-.3,0-.3.1,0,.5.3,1.2.6,1.6.3.3.8,0,.6-.4h0Z"/>
          <path class="cls-5" d="M48.8,62c-.2-.3-.5-.6-.9-.6s-.2.1-.2.3c.1.3.4.6.5,1,.1.2.5.8.8.5.3-.3,0-.8-.2-1.1h0Z"/>
          <path class="cls-5" d="M39.6,69.4c-.1-.4-.3-.8-.5-1.1-.1-.2-.5-.2-.5,0,0,.4,0,1,.4,1.3.2.2.7,0,.6-.3h0Z"/>
          <path class="cls-5" d="M41.8,68.5c-.2-.6-.7-1.2-1.2-1.5-.1,0-.3,0-.2.2.1.7.4,1.4.9,1.8.3.2.7-.2.5-.5h0Z"/>
          <path class="cls-5" d="M44.5,66.3c0-.3-.2-.5-.4-.8-.1-.2-.2-.5-.4-.7-.1-.1-.3,0-.4,0-.2.5.2,1.3.5,1.7.2.3.8,0,.7-.3h0Z"/>
          <path class="cls-5" d="M44.8,62c-.1-.1-.3,0-.3.1,0,.5.2,1.5.8,1.6.2,0,.3,0,.3-.2.2-.5-.5-1.1-.8-1.5h0Z"/>
          <path class="cls-5" d="M46.8,61.4c-.1-.5-.6-1.2-1.1-1.5,0,0-.2,0-.2.1,0,.5.2,1.3.6,1.7.3.2.8,0,.7-.3h0Z"/>
          <path class="cls-5" d="M45.6,57.2c-.1,0-.2,0-.2.2,0,.4.3.8.5,1.2.2.3.5.8.8.6.7-.3-.8-1.8-1.2-2h0Z"/>
          <path class="cls-5" d="M42.1,65.9c-.1-.6-.6-1.2-1.1-1.6,0,0-.2,0-.2.1,0,.6.3,1.3.6,1.7.2.4.8.2.8-.2Z"/>
          <path class="cls-5" d="M39.3,66.8c-.3-.6-.8-1-1.2-1.5,0,0-.2,0-.2,0-.2.7.4,1.5.9,1.9.3.2.7-.1.5-.4h0Z"/>
          <path class="cls-5" d="M37.2,64.2c-.2-.2-.5-.5-.7-.7-.2-.2-.5,0-.5.2,0,.5.4,1,.9,1,.3,0,.4-.3.3-.5Z"/>
          <path class="cls-5" d="M39.4,63.3c-.2-.4-.5-.8-.8-1.2-.1-.1-.3,0-.3.1,0,.5.2.9.4,1.3.2.4.3.9.8,1,0,0,.2,0,.2-.1.2-.4,0-.8-.2-1.1Z"/>
          <path class="cls-5" d="M43.6,63.7c-.2-.5-.6-.9-1-1.2-.2,0-.5,0-.4.3.1.5.5.9.8,1.2.2.2.8,0,.6-.3Z"/>
          <path class="cls-5" d="M41.5,62.4c-.3-.4-.5-.9-.8-1.3,0,0-.1,0-.2,0-.5.5,0,1.5.6,1.7.2,0,.5-.2.4-.5Z"/>
          <path class="cls-5" d="M44,61.2c0-.3-.2-.6-.5-.8-.2-.2-.5-.4-.6-.7,0-.1-.3-.2-.3,0,0,.2,0,.3,0,.5,0,.2.2.4.3.5.2.3.5.6.9.7.1,0,.3,0,.3-.2h0Z"/>
          <path class="cls-5" d="M43.2,57.7c-.2,0-.3.2-.2.3.1.3.4.5.5.8.2.2.3.5.6.7.1,0,.3,0,.3-.2.3-.7-.7-1.5-1.3-1.5h0Z"/>
          <path class="cls-5" d="M41.2,59.7c-.2-.3-.4-.6-.8-.7-.2-.1-.4.2-.3.4.1.3.3.5.4.8.1.2.2.6.5.6.1,0,.2,0,.3,0,.2-.3,0-.7-.2-1Z"/>
          <path class="cls-5" d="M39.2,61c-.1-.7-.5-1.4-1-1.8-.2-.2-.5,0-.4.3.3.6.5,1.1.8,1.7,0,.1.2.2.3.2,0,0,.2,0,.2,0,0,0,.1-.2.1-.3Z"/>
          <path class="cls-5" d="M37,61.7c0-.3-.2-.6-.4-.9-.1-.2-.3-.5-.5-.7,0-.1-.3,0-.3,0,0,.3,0,.6,0,.9.1.3.2.7.5,1,.2.3.7,0,.6-.3h0Z"/>
          <path class="cls-5" d="M35.2,58.7c0-.2-.1-.4-.1-.6,0-.2,0-.5,0-.8,0-.2-.2-.2-.3-.1-.5.5-.5,1.5,0,1.9.3.2.5-.1.5-.4h0Z"/>
          <path class="cls-5" d="M37,57.7c0-.2-.2-.3-.3-.5,0,0-.1-.2-.2-.2,0,0-.2-.1-.2-.2,0,0-.2,0-.2,0,0,0,0,.2,0,.3,0,.1,0,.2,0,.4,0,.3.2.5.4.7.3.1.7,0,.5-.4h0Z"/>
          <path class="cls-5" d="M41.7,58.4c0-.7-.7-1.2-1-1.6,0,0-.2,0-.2,0,.1.6.4,1.2.7,1.7.2.2.5,0,.6-.2h0Z"/>
          <path class="cls-5" d="M38.7,57.1c-.1-.2-.2-.5-.4-.7,0,0-.2,0-.2,0,0,.2,0,.5,0,.8,0,.3.2.6.4.8.2.1.5,0,.5-.2,0-.3-.1-.5-.2-.8h0Z"/>
          <path class="cls-5" d="M44.2,55.8c-.1-.3-.3-.5-.5-.8-.1-.2-.3-.5-.6-.5,0,0-.2,0-.3,0,0,0,0,0,0,0,0,.3.2.7.3.9,0,.2.2.4.3.6,0,0,0,.2.1.2,0,0,0,.1.1.2,0,0,0,0,0,0h0c0,0,.2,0,.3,0,.1-.2.1-.5,0-.7h0Z"/>
          <path class="cls-5" d="M41.9,56c-.2-.3-.4-.6-.7-.9,0,0-.2,0-.2.1,0,.4.2.7.4,1,.2.3.3.7.6.7,0,0,.2,0,.2-.1.1-.3-.2-.6-.3-.8Z"/>
          <path class="cls-5" d="M39.9,55.2c0-.2-.2-.5-.3-.7,0-.3-.2-.5-.3-.8-.1-.2-.5-.2-.5,0,0,.6,0,1.6.7,1.8.3,0,.5-.2.4-.4Z"/>
          <path class="cls-5" d="M41.3,52.3c0,0-.2-.1-.3,0,0,.4,0,.7.1,1.1.1.3.5.8.9.7.7-.2-.6-1.6-.8-1.8h0Z"/>
          <path class="cls-5" d="M44.2,53.3c-.2-.3-.6-.6-1-.7,0,0-.1,0-.1.1,0,.3.3.6.4.8.2.3.2.7.5.9.1,0,.2,0,.3,0,.3-.3,0-.8-.2-1.2h0Z"/>
          <path class="cls-5" d="M36.8,53.2c0-.1-.3-.1-.3,0,0,.6,0,1.2,0,1.8,0,.2,0,.3.2.3,0,0,0,0,0,0,0,0,.2,0,.3-.1.3-.6,0-1.5-.3-2Z"/>
          <path class="cls-5" d="M35,55.8c0-.7-.2-1.3-.3-1.9,0-.2-.4-.2-.4,0,0,.7-.2,1.4.2,2,0,0,.2.2.3.2s.1,0,.2,0c0,0,.2-.2.2-.3h0Z"/>
          <path class="cls-5" d="M39.9,52.4c0-.2,0-.3,0-.4l-.2-.5c-.1-.3-.2-.7-.5-1,0-.1-.3-.1-.4,0-.2.3,0,.8,0,1.1,0,.2.2.4.3.6.1.2.2.3.5.4s.3,0,.3-.2Z"/>
          <path class="cls-5" d="M42.7,50.3c-.2-.4-.4-.8-.7-1-.2-.2-.4,0-.4.2,0,.4.1.8.3,1.1.1.2.3.7.7.7.4,0,.3-.6.2-.9h0Z"/>
          <path class="cls-5" d="M40.1,49.1c-.1-.3-.3-.6-.4-.9-.1-.2-.4-.1-.4,0,0,.5.2,1.6.8,1.7,0,0,.2,0,.2,0,.1-.2,0-.5,0-.7Z"/>
          <path class="cls-5" d="M41.9,47c-.1-.2-.3-.4-.4-.5-.1-.1-.3-.2-.4-.2-.1,0-.3,0-.2.2,0,0,0,.2,0,.3,0,.2.2.3.2.5.1.3.2.7.4.9.1.1.3.1.4,0,.2-.3,0-.8,0-1.1Z"/>
          <path class="cls-5" d="M37.6,51.4c-.1-.4-.5-.9-.8-1.1-.1,0-.3,0-.2.2.1.4.3.8.4,1.2,0,.2.2,1,.7.8.4-.2.1-.9,0-1.2h0Z"/>
          <path class="cls-5" d="M35.1,51.3c-.1-.1-.3,0-.4.1,0,.3,0,.6,0,.9,0,.3,0,.7.2.9,0,.2.4.2.6,0,.3-.6,0-1.6-.4-2h0Z"/>
          <path class="cls-5" d="M33.2,54.1c0-.3,0-.5,0-.8,0-.2,0-.5-.2-.8,0-.1-.2-.1-.3,0-.3.4-.2,1.3,0,1.7.2.3.7.2.7-.1h0Z"/>
          <path class="cls-5" d="M38,49c0-.3,0-.6-.2-.9,0-.2-.1-.6-.3-.8,0,0-.2,0-.2,0-.2.2-.2.6-.2.9,0,.3.2.7.3,1,.1.3.6.2.6-.1h0Z"/>
          <path class="cls-5" d="M35.4,48.5c0-.2-.3-.2-.4,0-.3.5,0,1.1-.1,1.6,0,.4.6.5.7.1.2-.5,0-1.2-.2-1.7Z"/>
          <path class="cls-5" d="M33.8,51.3c0-.4,0-.8-.2-1.1,0-.1-.2,0-.3,0,0,.3-.1.7-.1,1s0,.7.3.8c0,0,.2,0,.2,0,.2-.2.2-.5.1-.8h0Z"/>
          <path class="cls-5" d="M40,46.6c0-.6-.3-1.3-.8-1.6-.2-.1-.4,0-.4.2,0,.5.2,1.1.5,1.6.2.4.7.2.6-.2Z"/>
          <path class="cls-5" d="M40.8,44.3c0-.2,0-.4,0-.6,0-.4-.2-.7-.4-1-.2-.2-.5,0-.4.2,0,.3,0,.6.1,1,0,.2,0,.3,0,.5,0,.2.1.3.2.4,0,.2.3.1.4,0,0-.2.1-.2.2-.4h0Z"/>
          <path class="cls-5" d="M37.4,44.5c0,0-.2,0-.2,0-.2.3-.2.6-.1,1,0,.3,0,.9.2,1.1,0,0,.2.1.3,0,.6-.4,0-1.6-.2-2.1h0Z"/>
          <path class="cls-5" d="M36.2,47.5c0-.2,0-.5,0-.7,0-.3,0-.5,0-.8,0-.2-.3-.3-.4-.1-.4.4-.3,1.2-.1,1.7.1.3.6.2.6-.1h0Z"/>
          <path class="cls-5" d="M38.7,43c0-.3,0-.8-.1-1.1,0-.1-.2-.1-.3,0-.2.3-.2.7-.3,1,0,.3-.2.8,0,1,0,0,.2,0,.3,0,.3-.2.3-.6.3-.9h0Z"/>
          <path class="cls-5" d="M40.5,40.9c0-.3,0-.7,0-1,0-.1-.2-.2-.3-.1-.2.2-.3.5-.4.8,0,.2,0,.4,0,.5,0,.2,0,.3.1.4s.3.2.4,0c0-.1.1-.2.2-.3,0-.1,0-.3,0-.4h0Z"/>
          <path class="cls-5" d="M47.3,101.6c0-.6-.7-1.2-1.1-1.4-.1,0-.3,0-.3.2,0,.3.2.5.4.7.2.2.3.5.5.8.2.2.5,0,.6-.2Z"/>
          <path class="cls-5" d="M45.3,99.8c-.2-.2-.4-.4-.7-.7-.1-.1-.2-.2-.3-.3,0,0-.2,0-.3,0s-.2,0-.2.2,0,.2,0,.3c0,.1.2.3.3.4.2.3.5.6.8.7.3.1.6-.3.3-.5h0Z"/>
          <path class="cls-5" d="M47.1,98.6c-.2-.4-.5-.8-.9-1-.2-.1-.4,0-.3.2.1.4.4.8.6,1.1,0,.2.3.9.7.6.3-.2,0-.7,0-1h0Z"/>
          <path class="cls-5" d="M45.6,98.3c0-.3-.3-.5-.5-.8-.2-.3-.4-.6-.7-.7-.2,0-.3,0-.3.2,0,.3.3.6.5.8.2.3.4.6.8.6.1,0,.2-.1.2-.2h0Z"/>
          <path class="cls-5" d="M47.6,96.7c-.2,0-.3.1-.2.2.2.4.3.8.4,1.2,0,.3.6.4.7,0,.2-.7-.2-1.3-.9-1.5h0Z"/>
          <g>
            <path class="cls-5" d="M42.4,97.3c-.1-.2-.3-.3-.4-.4,0,0,0-.1-.2-.1h0s0,0,0,0c0,0-.1,0-.2,0,0,0-.2,0-.2.2,0,.6.5,1.3,1.1,1.4.1,0,.3,0,.4-.1.2-.3-.3-.6-.5-.8h0Z"/>
            <path class="cls-5" d="M41.6,96.7h0,0Z"/>
          </g>
          <path class="cls-5" d="M45.8,95.6c0-.2-.1-.3-.2-.5-.1-.3-.3-.5-.5-.7,0,0-.3,0-.3,0,0,.3,0,.5,0,.7,0,.1.1.3.2.4,0,.2.2.3.3.4,0,.1.3,0,.4,0,0-.2,0-.2,0-.4h0Z"/>
          <path class="cls-5" d="M42.8,96c-.2-.2-.4-.3-.5-.5-.2-.2-.2-.5-.4-.6-.2-.2-.4,0-.4.2,0,.6.5,1.4,1.1,1.5.3,0,.5-.3.3-.6Z"/>
          <path class="cls-5" d="M49.4,94.7c-.2-.4-.5-.7-.9-.9-.1,0-.2,0-.2.2.1.3.2.6.3.8,0,.1,0,.3.1.4,0,.2,0,.3.1.5,0,0,.1.2.3.1.5,0,.4-.8.3-1.2h0Z"/>
          <path class="cls-5" d="M47.3,94.4c-.2-.4-.3-.8-.6-1.1-.1-.1-.3,0-.3.1,0,.4.1.8.2,1.1.1.4.2.7.5,1.1,0,.2.3,0,.4,0,.1-.4,0-.8,0-1.1h0Z"/>
          <path class="cls-5" d="M43.2,94.4c-.2-.2-.3-.4-.5-.7s-.2-.5-.5-.7c0,0-.3,0-.3.1,0,.6.2,1.7,1,1.7s.4-.2.3-.4h0Z"/>
          <path class="cls-5" d="M49.8,92.1c-.2,0-.2.1-.2.3,0,.2.2.3.2.4,0,.2.1.4.2.6,0,.4.6.3.7,0,0-.5-.3-1.2-.9-1.2h0Z"/>
          <path class="cls-5" d="M47.6,91c-.1,0-.3,0-.3.1,0,.3.2.5.3.8.1.2.2.5.4.7.1,0,.2,0,.3,0,.4-.5-.4-1.2-.8-1.5Z"/>
          <path class="cls-5" d="M44.4,92.4c-.2-.3-.4-.7-.8-.8-.2-.1-.4,0-.3.3.1.4.3.7.6,1,.2.3.4.6.8.6,0,0,.1,0,.2-.2,0-.3-.2-.7-.4-.9Z"/>
          <path class="cls-5" d="M51.5,90.2c-.3-.3-.6-.5-1-.5-.1,0-.2,0-.2.2.2.2.4.5.5.7.2.2.3.5.5.7.1.1.3.1.4,0,.3-.4,0-.8-.2-1.1h0Z"/>
          <path class="cls-5" d="M46,91.2c-.3-.2-.5-.5-.7-.8-.2-.2-.5,0-.4.2,0,.5.4,1.1,1,1.2.2,0,.3,0,.4-.1.1-.2,0-.4-.2-.5h0Z"/>
          <path class="cls-5" d="M49.6,90.1c0-.1,0-.3-.2-.4-.1-.2-.2-.3-.4-.5-.2-.3-.5-.6-.9-.6-.1,0-.2.1-.1.2.1.3.4.7.6,1,0,.1.2.3.3.4.1.2.3.2.5.2s.4-.1.3-.3h0Z"/>
          <path class="cls-5" d="M52.2,88.7c0,0-.2-.2-.3-.2,0,0-.1,0-.2,0,0,0-.2,0,0,0-.1,0-.2,0-.2.2,0,.2,0,.4.2.5.1.2.3.5.6.6.2,0,.4,0,.5-.3,0-.3-.2-.6-.5-.8h0Z"/>
          <path class="cls-5" d="M50.5,87.9c0-.3-.2-.6-.4-.8-.2-.2-.5-.4-.9-.5-.2,0-.4.2-.2.3.2.2.4.5.6.7.2.2.3.4.6.5.1,0,.2-.1.2-.2h0Z"/>
          <path class="cls-5" d="M40.6,95.3c0-.3-.3-.7-.5-.9-.2-.2-.5-.5-.8-.6-.2,0-.3.1-.2.3.1.3.3.5.5.8.2.3.4.6.7.7.2,0,.3-.1.3-.2Z"/>
          <path class="cls-5" d="M41.2,93.1c0-.3-.2-.7-.4-.9-.2-.2-.5-.4-.6-.6,0-.1-.2,0-.3,0,0,.6.3,1.1.6,1.6.2.3.6.2.6-.1h0Z"/>
          <path class="cls-5" d="M38.7,91.6c-.2-.2-.3-.5-.4-.7,0-.1-.2-.2-.3-.2,0,0-.2,0-.2,0-.2,0-.3.1-.2.3.1.1.1.3.2.4,0,.2.1.3.2.5.2.3.5.7.8.6,0,0,.2,0,.2-.2,0-.3,0-.4-.2-.7h0Z"/>
          <path class="cls-5" d="M42.3,91.2c0-.2-.2-.4-.3-.7-.1-.2-.2-.4-.4-.6,0,0-.2,0-.2,0-.2.5.2,1.2.5,1.5.2.2.5,0,.5-.3Z"/>
          <path class="cls-5" d="M46.5,89.1c0-.1-.2-.2-.3-.3,0,0-.2-.2-.2-.2,0-.1-.2-.2-.3-.2-.3.1-.2.5-.1.7.1.3.3.8.7,1,.2,0,.3,0,.4-.2.1-.3,0-.6-.2-.8h0Z"/>
          <path class="cls-5" d="M44.5,89.3c0-.4-.3-.7-.6-1s-.4-.6-.7-.8c-.1,0-.2,0-.3.1,0,.4.1.7.3,1,.2.3.5.7.9.8.2,0,.3,0,.3-.3h0Z"/>
          <path class="cls-5" d="M48,87.3c-.2-.7-1-1.6-1.8-1.1-.1,0-.2.3,0,.4.5.1.9.7,1.2,1.1,0,0,.1,0,.2.1.1,0,.3,0,.3-.1,0,0,0,0,0,0,0,0,.2-.2.1-.3h0Z"/>
          <path class="cls-5" d="M45.8,87.4c-.1-.5-.8-.8-1-1.3,0-.3-.5-.1-.5.2.1.6.5,1.3,1.2,1.4.2,0,.3-.2.3-.3h0Z"/>
          <path class="cls-5" d="M47.4,85.4c0-.3-.4-.6-.6-.8-.3-.3-.6-.5-1-.6-.1,0-.3,0-.2.2.2.3.5.7.8,1,.3.3.5.6.9.5.1,0,.2-.2.2-.3h0Z"/>
          <path class="cls-5" d="M40.4,89.9c0-.3-.5-.6-.7-.8-.2-.3-.5-.6-.9-.7-.1,0-.2,0-.2.2,0,.4.4.8.7,1,.2.2.6.6,1,.5,0,0,.2-.1.2-.2Z"/>
          <path class="cls-5" d="M42.1,89.2c0-.4-.2-.7-.5-.9-.3-.3-.6-.6-.9-.9-.1,0-.3,0-.2.2,0,.4.3.7.5,1,.2.3.5.7.8.8.2,0,.3,0,.3-.2h0Z"/>
          <path class="cls-5" d="M37.7,89.5c0,0,0-.2-.1-.2-.1-.2-.2-.3-.4-.4-.2-.2-.5-.5-.8-.7-.1,0-.3,0-.3.2,0,.4.3.7.5,1,.1.2.3.3.5.4,0,0,.2.1.3.1,0,0,.4,0,.2,0,0,0,.2,0,.2-.2,0,.1,0-.1,0-.2h0Z"/>
          <path class="cls-5" d="M39.5,87.1c-.3-.5-.7-1.2-1.3-1.4-.1,0-.2,0-.2.2.1.6.5,1.2.9,1.6.3.3.8,0,.6-.4Z"/>
          <path class="cls-5" d="M43.1,85.9c-.2-.3-.5-.6-.8-.8-.1,0-.3,0-.3.2,0,.3.3.6.4.9.1.2.3.7.6.6.4-.2.2-.6,0-.9h0Z"/>
          <path class="cls-5" d="M40.9,85.6c0-.4-.5-.8-.8-1-.1,0-.3,0-.3.2,0,.4.2.9.6,1.1.2.1.5,0,.5-.3Z"/>
          <path class="cls-5" d="M44.9,85.1c-.2-.7-.7-1.2-1.2-1.6-.1,0-.3,0-.3.2,0,.4.3.8.6,1.2.2.3.5.9.8.6,0,0,.1-.2.1-.3h0Z"/>
          <path class="cls-5" d="M42.7,83.7c0-.3-.3-.4-.4-.7,0-.1-.2-.2-.3-.4,0-.1-.2-.2-.3-.3,0-.1-.3,0-.3,0h0c0,0,0,0,0,0,0,0,0,.2,0,.3,0,.2.2.4.2.6.2.3.5.7.9.6.1,0,.2-.1.2-.3h0Z"/>
          <path class="cls-5" d="M44.9,83c0-.6-.7-1.1-1.2-1.2-.2,0-.3.1-.2.3.1.2.2.4.4.6.2.2.3.5.6.6.2,0,.5,0,.4-.3h0Z"/>
          <path class="cls-5" d="M36.7,86.5c-.2-.4-.5-.7-.8-.9-.1,0-.3,0-.3.2.1.3.3.7.4,1,.1.2.3.7.6.5s.1-.6,0-.8h0Z"/>
          <path class="cls-5" d="M34.9,84.7c-.2-.1-.4-.2-.6-.4-.2-.2-.3-.3-.4-.6,0-.1-.2-.1-.3,0-.5.7.6,1.6,1.2,1.3.2,0,.1-.3,0-.3h0Z"/>
          <path class="cls-5" d="M37.2,83.9c-.1-.2-.3-.4-.6-.6,0,0,0,0,0,0,0,0-.1-.1-.2,0s0,0,0,0c0,0,0,.2,0,0,0,.1,0,.3,0,.5.1.3.4.7.8.7s.3,0,.3-.2c0-.2,0-.3-.2-.5h0Z"/>
          <path class="cls-5" d="M40.1,82.4c-.2-.3-.5-.7-.8-.9,0,0-.3,0-.3.1,0,.4.2.7.4,1,0,.2.2.4.3.5,0,.2.2.3.3.4.1,0,.2,0,.3,0,.3-.3,0-.9-.2-1.2h0Z"/>
          <path class="cls-5" d="M38.3,83.1c0-.3-.2-.5-.3-.7-.1-.2-.3-.5-.5-.7-.1-.1-.3,0-.3.2,0,.5.3,1.4.9,1.4.1,0,.2,0,.2-.2Z"/>
          <path class="cls-5" d="M42.8,80.2c-.2-.3-.6-.6-1-.8-.2,0-.3.1-.3.3.1.3.3.5.5.8.2.3.2.6.4.9,0,.1.3.1.4,0,.4-.3.2-.8,0-1.2h0Z"/>
          <path class="cls-5" d="M39.6,79.6c-.1,0-.2,0-.2.2,0,.2.1.4.2.6s.2.4.4.6c.2.1.5,0,.5-.2,0-.4-.5-.9-.9-1.1Z"/>
          <path class="cls-5" d="M41.3,78.4c0-.3-.3-.6-.5-.9-.2-.2-.4-.5-.7-.6,0,0-.2,0-.2.1,0,.3.2.5.3.8.2.3.3.5.5.8.2.3.7.2.6-.2h0Z"/>
          <path class="cls-5" d="M35.2,81.8c-.2-.3-.5-.7-.8-.7-.1,0-.3,0-.2.2,0,.3.2.6.4.8.1.3.3.7.6.9.1,0,.3,0,.3-.1.2-.3,0-.8-.3-1.1h0Z"/>
          <path class="cls-5" d="M33.4,80.5c-.1-.4-.2-.8-.5-1.2-.2-.2-.6-.2-.6.1,0,.5,0,1.1.5,1.5.3.3.7,0,.6-.4Z"/>
          <path class="cls-5" d="M36.9,80.6c0-.3-.2-.5-.3-.8-.2-.3-.4-.6-.6-.7-.2,0-.4,0-.3.2,0,.5.4,1.5,1,1.5s.2,0,.3-.2h0Z"/>
          <path class="cls-5" d="M38.7,78.4c0-.2,0-.4-.2-.6-.2-.3-.5-.6-.8-.6-.2,0-.2.2-.2.3,0,.2.2.4.3.7,0,.1.1.3.2.4,0,0,0,.1,0,.2,0,0,0,0,0,0,0,0,0,0,0,0,0,.2.3.2.4,0,0-.2.2-.3.2-.5h0Z"/>
          <path class="cls-5" d="M34.6,78.7c-.1-.2-.2-.4-.3-.6,0-.2-.1-.4-.3-.7,0-.2-.4-.2-.4,0-.1.6,0,1.4.6,1.7.2.1.5-.2.4-.4h0Z"/>
          <path class="cls-5" d="M36.1,76.6c0-.2-.2-.3-.3-.5,0-.2-.2-.2-.3-.4,0,0-.2,0-.2.1,0,.3.2,1.8.8,1.5.3-.2.1-.5,0-.7h0Z"/>
          <path class="cls-5" d="M38.7,76c0-.1,0-.2,0-.3,0-.2-.2-.5-.2-.7-.2-.4-.5-.8-.9-.9-.1,0-.3.1-.2.2.1.4.4.7.5,1.1,0,.2.2.4.2.6,0,0,0,.2.1.2,0,0,0,0,.2,0,.1,0,.1,0,0,0,.1.1.4,0,.4-.2,0,.1,0-.1,0-.1h0Z"/>
          <path class="cls-5" d="M31.7,74.8c0-.1-.3,0-.3,0,0,.4,0,.8.2,1.3.1.3.3.8.7.8.6-.1-.4-1.8-.5-2.1Z"/>
          <path class="cls-5" d="M33.8,74.6c-.2-.3-.3-.6-.6-.9s-.3,0-.4.1c0,.4,0,.7.2,1,.1.3.3.8.7.8,0,0,.2,0,.2-.1.2-.3,0-.7-.2-1h0Z"/>
          <path class="cls-5" d="M35.7,73.4c-.2-.5-.6-1.1-1-1.5-.2-.2-.7,0-.5.3.3.6.4,1.2.9,1.7.3.3.7-.2.5-.5h0Z"/>
          <path class="cls-5" d="M37.1,71.5c-.2-.4-.5-.8-.8-1,0,0-.2,0-.2.1,0,.4.1.8.3,1.2.1.3.4.9.8.7.4-.2.1-.7,0-.9h0Z"/>
          <path class="cls-5" d="M32.3,72.6c-.1-.5-.5-.8-.7-1.3,0-.2-.4-.1-.4,0,0,.6,0,1.2.5,1.5.2.2.6,0,.5-.4h0Z"/>
          <path class="cls-5" d="M33.2,70.4c-.2-.3-.3-.7-.6-.9,0,0-.2,0-.2,0,0,.4,0,.7.1,1.1,0,.3.2.9.6.9.1,0,.2,0,.3,0,.2-.3,0-.8-.1-1.1h0Z"/>
          <path class="cls-5" d="M35.2,69.9c-.1-.7-.5-1.4-1.2-1.6-.2,0-.4.2-.3.3,0,.2.2.5.3.7.2.3.3.6.4.8,0,.1.2.2.4.2,0,0,0,0,0,0,.1,0,.2-.2.2-.4Z"/>
          <path class="cls-5" d="M35,66.8c0-.2-.1-.3-.2-.5-.2-.3-.4-.5-.7-.6-.2,0-.4,0-.4.2,0,.2.2.4.3.7,0,.1.2.3.2.4s.2.2.2.3c0,.2.4,0,.4,0,0-.2,0-.2,0-.4h0Z"/>
          <path class="cls-5" d="M32.7,67.8c0-.2-.1-.4-.2-.6-.1-.2-.3-.6-.5-.8,0,0-.1,0-.2,0-.2.2,0,.6,0,.9,0,.2.1.3.2.5,0,0,0,.2.1.3,0,0,0,0,.1.1,0,.2.4.2.4,0,0-.2,0-.2,0-.4h0Z"/>
          <path class="cls-5" d="M30.8,68.7c-.2-.3-.3-.7-.6-.9-.1,0-.3,0-.3.2,0,.3.2.5.3.8.1.3,0,.7.3.9.1.1.3,0,.4,0,.2-.3.1-.7,0-1h0Z"/>
          <path class="cls-5" d="M30.9,65.6c0-.4-.2-1.1-.5-1.4,0-.1-.2,0-.3,0-.2.5-.2,1.2.2,1.7.2.3.6,0,.6-.3h0Z"/>
          <path class="cls-5" d="M33.4,64.9c0-.6-.3-1.2-.8-1.5-.1,0-.3,0-.2.2,0,.5.2,1,.3,1.5.1.3.7.2.7-.1h0Z"/>
          <path class="cls-5" d="M31.3,62.7c-.1-.5-.4-.8-.5-1.2-.1-.3-.5-.1-.5.2.1.5.1.9.4,1.4.2.3.7,0,.6-.3Z"/>
          <path class="cls-5" d="M33.1,62c0-.4-.3-.8-.5-1.1-.2-.4-.8,0-.6.3.2.3.2.7.3,1.1,0,.2.2,1,.6.8.3-.2.2-.7.1-1h0Z"/>
          <path class="cls-5" d="M31.4,60c0-.5-.3-.9-.5-1.3,0-.1-.3,0-.3,0,0,.5,0,.9.1,1.3.1.5.8.3.7-.1h0Z"/>
          <path class="cls-5" d="M32.2,57c0-.2,0-.5,0-.7,0-.1,0-.7-.4-.6s-.3.5-.3.8c0,.2,0,.4,0,.6,0,.2.1.4.2.6,0,.2.4.2.4,0,0-.2.1-.4,0-.6h0Z"/>
          <path class="cls-5" d="M29.6,75.4c-.1-.1-.3,0-.3.1,0,.2,0,.5,0,.7,0,.2,0,.5.2.7.1.3.5.2.6,0,.2-.5-.2-1.1-.5-1.5Z"/>
          <path class="cls-5" d="M29.5,72.2c0,0-.2,0-.2,0,0,.3,0,.6.1.9,0,.3.1.7.4.9,0,0,.2,0,.3,0,.5-.5,0-1.6-.6-1.8h0Z"/>
          <path class="cls-5" d="M29.4,70.3c0-.2,0-.3-.1-.5,0-.3-.2-.6-.4-.8-.1-.2-.5,0-.5.2,0,.3,0,.6.1.9,0,.1,0,.3.1.4,0,.2.1.2.2.3.1.2.4,0,.4-.2,0-.2,0-.3,0-.4h0Z"/>
          <path class="cls-5" d="M43.5,113.3c-.1-.5-.6-.9-1-1.2,0,0-.2,0-.2.1,0,.5.3,1.1.6,1.4.2.2.6,0,.6-.3Z"/>
          <path class="cls-5" d="M42.1,112.8c0-.3-.3-.5-.5-.8-.2-.2-.4-.4-.7-.5-.2,0-.3.1-.2.3.3.4.6,1.3,1.1,1.3.2,0,.3-.2.3-.3Z"/>
          <path class="cls-5" d="M43.8,111.1c0-.2,0-.3,0-.4,0-.2-.2-.3-.3-.5-.2-.3-.5-.5-.8-.8-.1-.1-.3,0-.3.1.1.7.5,1.4,1.1,1.8.1,0,.4,0,.3-.2Z"/>
          <path class="cls-5" d="M43.5,114c-.3-.2-.5.1-.4.4.1.3.8,1.4,1.2,1,.4-.4-.5-1.2-.8-1.4h0Z"/>
          <path class="cls-5" d="M44,106.8c-.2-.2-.5,0-.4.3.1.5.4,1.3.9,1.4.1,0,.3,0,.3-.2.2-.6-.4-1.3-.8-1.6Z"/>
          <path class="cls-5" d="M44.3,109.9c-.1-.1-.3,0-.3.2,0,.3.2,1.5.7,1.2.5-.3-.1-1.1-.4-1.4Z"/>
          <path class="cls-5" d="M44.5,103.7c-.1,0-.2.2,0,.3.2.2.4.4.6.7.2.2.4.6.7.7.1,0,.2,0,.3-.1.2-.7-.9-1.6-1.5-1.5h0Z"/>
          <path class="cls-5" d="M45.4,106.3c0-.1-.2-.2-.3-.3-.1-.1-.3-.2-.4-.3-.1-.1-.3,0-.3.2.2.5.4,1,.9,1.3.1,0,.3,0,.3-.1,0-.3,0-.5-.2-.7Z"/>
          <path class="cls-5" d="M42.5,107c-.4-.3-.8-.9-1.3-1-.1,0-.3,0-.3.2.2.6.7,1.1,1.2,1.3,0,0,.2,0,.3,0,0,0,0,0,0-.2,0-.1,0-.2,0-.3h0Z"/>
          <path class="cls-5" d="M43,104.7c-.1-.6-.8-1.3-1.4-1.3s-.2,0-.1.2c.1.3.3.5.5.8.2.3.4.5.7.6.2,0,.3,0,.3-.3h0Z"/>
          <path class="cls-5" d="M43.8,103.1c0-.6-.8-1.1-1.2-1.5-.2-.1-.5,0-.4.3.2.5.7,1.2,1.3,1.4.2,0,.3,0,.3-.3Z"/>
          <path class="cls-5" d="M40.9,109.5c-.2-.2-.4-.5-.6-.6,0,0,0,0-.2,0-.3.2,0,.6,0,.8.2.4.5.9.8,1.1.2,0,.4,0,.4-.3,0-.3-.3-.8-.5-1h0Z"/>
          <path class="cls-5" d="M39,108.6c-.5-.3-.9-.8-1.3-1.2-.1-.1-.3,0-.3.1,0,.7.7,1.4,1.3,1.6.3,0,.6-.3.3-.6Z"/>
          <path class="cls-5" d="M38.8,105.9c0,0-.1.1,0,.2.1.2.3.4.5.5.2.2.4.4.7.6,0,0,.2,0,.3,0,.8-.4-.9-1.5-1.4-1.4h0Z"/>
          <path class="cls-5" d="M41.1,104.7c0-.5-.7-1-1.1-1.1-.3,0-.4.2-.3.4.1.2.3.4.5.6.2.2.4.4.7.4.2,0,.3-.2.3-.3h0Z"/>
          <path class="cls-5" d="M41.5,102.6c0-.3-.3-.6-.5-.8-.2-.2-.5-.4-.7-.6-.1,0-.4,0-.3.2,0,.3.2.5.4.8.2.3.5.6.8.7.2,0,.4-.1.4-.3Z"/>
          <path class="cls-5" d="M40.4,99.6c-.2-.3-.4-.5-.7-.6-.3-.2-.6.2-.3.5.2.2.4.4.5.6.2.2.3.5.6.5,0,0,.2,0,.2-.2,0-.3-.1-.6-.3-.8h0Z"/>
          <path class="cls-5" d="M38,103.5c-.1,0-.3,0-.3.2,0,.4.2,1.1.6,1.3,0,0,.2,0,.2,0,.4-.4-.3-1.1-.6-1.3h0Z"/>
          <path class="cls-5" d="M37.2,105.1c-.3-.4-.8-1.1-1.4-1.2-.2,0-.3,0-.2.2.2.6.7,1.1,1.2,1.4,0,0,.2,0,.3,0,0,0,.1,0,.2-.2s0-.2,0-.3Z"/>
          <path class="cls-5" d="M38.2,100.4c-.2,0-.4.2-.3.3,0,.3.8,1.7,1.2,1.3.5-.5-.5-1.4-.9-1.6Z"/>
          <path class="cls-5" d="M36.4,101.9c-.3-.3-.5-.6-.8-.8-.1,0-.2,0-.2.2,0,.4.2.7.5,1,.2.3.5.8.8.8s.2,0,.2-.2c.2-.3-.2-.8-.5-1h0Z"/>
          <path class="cls-5" d="M34.3,100.9c-.3-.3-.5-.7-.8-1-.1-.1-.3,0-.3.2,0,.4.2.8.4,1.1.2.3.6.8,1,.5.3-.2-.1-.6-.2-.8h0Z"/>
          <path class="cls-5" d="M36.9,99.8c0-.3-.2-.5-.4-.7-.2-.3-.4-.5-.6-.8,0-.1-.3,0-.2,0,0,.6.2,1.3.7,1.7.2.2.6,0,.5-.3Z"/>
          <path class="cls-5" d="M38.4,97.8c0-.2-.2-.4-.3-.6-.2-.3-.6-.6-1-.7,0,0-.2,0-.2.2,0,.3.3.5.5.8.2.3.3.6.6.8s.3,0,.4,0c0-.2,0-.3,0-.5h0Z"/>
          <path class="cls-5" d="M36.7,97.3c-.2-.5-.5-1-.9-1.3-.1,0-.3,0-.3.2.1.5.3,1,.6,1.4,0,.1.2.2.3.2,0,0,0,0,.1,0,.1,0,.1-.2,0-.4Z"/>
          <path class="cls-5" d="M34.1,97.7c-.2-.3-.3-.7-.5-1.1,0-.1-.2,0-.3,0-.2.4,0,.8.1,1.2,0,.2.2.5.3.7.1.2.2.4.4.6.2.1.4,0,.4-.2,0-.4-.3-.8-.5-1.1Z"/>
          <path class="cls-5" d="M32.4,95.8c-.2-.3-.3-.5-.4-.8-.1-.3-.2-.6-.2-.8,0-.2-.3-.2-.4,0-.3.6,0,1.7.6,2.1.3.2.7-.1.5-.4h0Z"/>
          <path class="cls-5" d="M34.4,94.7c-.3-.4-.6-.8-.9-1.2,0,0-.2,0-.2,0,0,.6.1,1.2.6,1.6.3.2.8,0,.6-.4Z"/>
          <path class="cls-5" d="M36.1,94c-.2-.4-.5-.8-.7-1.2-.1-.3-.7-.1-.6.2.1.4.3.8.5,1.2.1.3.3.8.7.8.4,0,.2-.7,0-.9Z"/>
          <path class="cls-5" d="M32.2,92.7c0-.3-.3-.6-.5-.8-.2-.2-.4-.5-.7-.6,0,0-.2,0-.2.2,0,.3.2.5.3.8.1.3.3.6.6.8.2.1.6,0,.5-.3h0Z"/>
          <path class="cls-5" d="M33.6,91.9c-.1-.6-.5-1.2-1-1.4,0,0-.2,0-.2.2,0,.3.6,2,1.1,1.5,0,0,.1-.2.1-.3Z"/>
          <path class="cls-5" d="M30.7,89.7c-.2-.4-.5-.9-.8-1.3-.2-.3-.5-.1-.5.2,0,.6.3,1.2.8,1.5,0,0,.2,0,.3,0,0,0,0,0,.1-.1,0,0,0-.2,0-.3h0Z"/>
          <path class="cls-5" d="M34.3,90.6c-.2-.2-.4-.4-.6-.6,0,0-.2,0-.2,0,0,.3,0,.4.1.7,0,.2.2.6.5.7.1,0,.2,0,.3,0,.2-.2,0-.6,0-.8Z"/>
          <path class="cls-5" d="M32.1,88.3c-.2-.3-.3-.6-.6-.7,0,0-.2,0-.2.1,0,.3.1.6.2.9.1.3.3.8.6.9.2,0,.4,0,.4-.2,0-.3-.2-.8-.4-1.1Z"/>
          <path class="cls-5" d="M32.5,87c-.1-.1-.3,0-.2.2,0,.4.3,1.1.7,1.3,0,0,.2,0,.2,0,.3-.5-.4-1.1-.7-1.4h0Z"/>
          <path class="cls-5" d="M30.2,86.6c-.1-.3-.3-.6-.5-.9-.1-.2-.5,0-.5.2,0,.4.2.8.5,1.1.2.3.6,0,.5-.4Z"/>
          <path class="cls-5" d="M30.9,84.5c-.1,0-.2,0-.2.2,0,.3.1.6.2.9,0,.2.1.5.4.4.1,0,.2-.1.2-.3,0-.5-.2-1-.7-1.2h0Z"/>
          <path class="cls-5" d="M30.1,84c-.2-.7-.4-1.3-.9-1.8-.2-.2-.5,0-.4.2.3.6.2,1.3.6,1.8.2.3.8.2.7-.2Z"/>
          <path class="cls-5" d="M31,82.8c0-.3,0-.6-.2-.9-.1-.2-.2-.5-.4-.7,0,0-.1,0-.2,0-.2.2-.1.5,0,.7,0,.3.1.6.3.9.1.3.6.2.6-.1h0Z"/>
          <path class="cls-5" d="M29.8,80.3c0-.3,0-.6-.1-.9,0-.3,0-.6-.2-.8,0-.2-.3-.2-.4,0-.4.5-.2,1.4.1,1.9,0,0,.2.1.3.1,0,0,0,0,0,0,.1,0,.2-.2.2-.3Z"/>
        </g>
      </g>
      <g class="cls-1">
        <text class="cls-3" transform="translate(36.1 77.9) scale(1.2 1)"><tspan x="0" y="0">P</tspan></text>
        <text class="cls-2" transform="translate(49.9 77.9) scale(1.2 1)"><tspan x="0" y="0">.I 3</tspan></text>
      </g>
    </g>
  </g>
</svg>