<?xml version="1.0" encoding="UTF-8"?>
<svg id="Capa_2" data-name="Capa 2" xmlns="http://www.w3.org/2000/svg" xmlns:xlink="http://www.w3.org/1999/xlink" viewBox="0 0 257.01 157.44">
  <defs>
    <style>
      .cls-1 {
        font-family: MyriadPro-Regular, 'Myriad Pro';
        font-size: 14px;
      }

      .cls-2 {
        letter-spacing: .1em;
      }

      .cls-3 {
        letter-spacing: .1em;
      }

      .cls-4 {
        letter-spacing: -.01em;
      }

      .cls-5 {
        letter-spacing: 0em;
      }

      .cls-6 {
        fill: url(#linear-gradient);
        stroke-width: 0px;
      }

      .cls-7 {
        letter-spacing: -.02em;
      }

      .cls-8 {
        letter-spacing: -.02em;
      }

      .cls-9 {
        letter-spacing: 0em;
      }

      .cls-10 {
        letter-spacing: 0em;
      }

      .cls-11 {
        letter-spacing: 0em;
      }

      .cls-12 {
        letter-spacing: 0em;
      }

      .cls-13 {
        letter-spacing: 0em;
      }

      .cls-14 {
        letter-spacing: 0em;
      }

      .cls-15 {
        letter-spacing: 0em;
      }

      .cls-16 {
        letter-spacing: 0em;
      }

      .cls-17 {
        letter-spacing: 0em;
      }

      .cls-18 {
        letter-spacing: .54em;
      }

      .cls-19 {
        letter-spacing: .54em;
      }
    </style>
    <linearGradient id="linear-gradient" x1="0" y1="78.72" x2="257.01" y2="78.72" gradientUnits="userSpaceOnUse">
      <stop offset="0" stop-color="#fff"/>
      <stop offset="1" stop-color="#f1f2f2"/>
    </linearGradient>
  </defs>
  <g id="OBJECT">
    <path class="cls-6" d="m128.51,0C57.53,0,0,31.12,0,69.51c0,13.97,7.64,26.96,20.75,37.85l-13.64,50.08,50.31-30.03c20.36,7.33,44.79,11.6,71.08,11.6,70.97,0,128.51-31.12,128.51-69.51S199.48,0,128.51,0Z"/>
    <text class="cls-1" transform="translate(32.88 38.54)"><tspan x="0" y="0">¿</tspan><tspan class="cls-14" x="5.68" y="0">Q</tspan><tspan x="15.37" y="0">ué</tspan><tspan class="cls-2" x="30.1" y="0"> </tspan><tspan x="34.49" y="0">clase</tspan><tspan class="cls-3" x="63.37" y="0"> </tspan><tspan x="67.76" y="0">de</tspan><tspan class="cls-2" x="82.67" y="0"> </tspan><tspan x="87.06" y="0">insensible</tspan><tspan class="cls-3" x="145.54" y="0"> </tspan><tspan x="149.93" y="0">deja</tspan><tspan class="cls-2" x="174.99" y="0"> </tspan><tspan x="179.38" y="0">un </tspan><tspan x="0" y="16.8">niño</tspan><tspan class="cls-11" x="26.5" y="16.8"> </tspan><tspan x="29.37" y="16.8">así</tspan><tspan class="cls-11" x="44.94" y="16.8"> </tspan><tspan x="47.81" y="16.8">a</tspan><tspan class="cls-11" x="54.56" y="16.8"> </tspan><tspan x="57.43" y="16.8">su</tspan><tspan class="cls-11" x="70.69" y="16.8"> </tspan><tspan x="73.56" y="16.8">me</tspan><tspan class="cls-4" x="92.25" y="16.8">r</tspan><tspan class="cls-9" x="96.69" y="16.8">c</tspan><tspan x="102.87" y="16.8">ed?</tspan><tspan class="cls-11" x="123.47" y="16.8"> </tspan><tspan x="126.34" y="16.8">No</tspan><tspan class="cls-10" x="143.24" y="16.8"> </tspan><tspan class="cls-9" x="146.11" y="16.8">t</tspan><tspan x="150.66" y="16.8">engo</tspan><tspan class="cls-11" x="180.95" y="16.8"> </tspan><tspan x="183.82" y="16.8">ni </tspan><tspan x="0" y="33.6">pa</tspan><tspan class="cls-15" x="14.71" y="33.6">r</tspan><tspan x="19.22" y="33.6">a</tspan><tspan class="cls-7" x="25.97" y="33.6"> </tspan><tspan x="28.6" y="33.6">sob</tspan><tspan class="cls-4" x="49.79" y="33.6">r</tspan><tspan x="54.23" y="33.6">evivir</tspan><tspan class="cls-7" x="85.84" y="33.6"> </tspan><tspan class="cls-16" x="88.47" y="33.6">y</tspan><tspan class="cls-8" x="94.92" y="33.6">o</tspan><tspan x="102.27" y="33.6">,</tspan><tspan class="cls-7" x="105.17" y="33.6"> </tspan><tspan x="107.8" y="33.6">pe</tspan><tspan class="cls-16" x="122.78" y="33.6">r</tspan><tspan class="cls-17" x="127.22" y="33.6">o</tspan><tspan class="cls-7" x="134.9" y="33.6"> </tspan><tspan class="cls-12" x="137.53" y="33.6">no</tspan><tspan class="cls-7" x="152.99" y="33.6"> </tspan><tspan x="155.61" y="33.6">pienso </tspan><tspan x="0" y="50.4">deja</tspan><tspan class="cls-5" x="25.06" y="50.4">r</tspan><tspan x="29.69" y="50.4">lo</tspan><tspan class="cls-19" x="40.68" y="50.4"> </tspan><tspan x="51.27" y="50.4">aquí,</tspan><tspan class="cls-18" x="79.79" y="50.4"> </tspan><tspan x="90.37" y="50.4">se</tspan><tspan class="cls-19" x="102.93" y="50.4"> </tspan><tspan class="cls-13" x="113.51" y="50.4">v</tspan><tspan x="120.19" y="50.4">a</tspan><tspan class="cls-19" x="126.94" y="50.4"> </tspan><tspan x="137.52" y="50.4">mo</tspan><tspan class="cls-5" x="156.88" y="50.4">r</tspan><tspan x="161.52" y="50.4">ir</tspan><tspan class="cls-19" x="169.37" y="50.4"> </tspan><tspan x="179.96" y="50.4">de </tspan><tspan x="0" y="67.2">hamb</tspan><tspan class="cls-4" x="34.16" y="67.2">r</tspan><tspan x="38.6" y="67.2">e o f</tspan><tspan class="cls-5" x="63.32" y="67.2">r</tspan><tspan x="67.96" y="67.2">i</tspan><tspan class="cls-8" x="71.23" y="67.2">o</tspan><tspan x="78.58" y="67.2">. </tspan></text>
  </g>
</svg>