<svg xmlns="http://www.w3.org/2000/svg" viewBox="0 0 278 88.62"><defs><style>.cls-1{font-size:17px;fill:#fff;font-family:MyriadPro-Regular, Myriad Pro;}.cls-2{letter-spacing:0em;}.cls-3{letter-spacing:0em;}.cls-4{letter-spacing:0em;}.cls-5{letter-spacing:-0.01em;}.cls-6{letter-spacing:0.02em;}.cls-7{letter-spacing:0.01em;}.cls-8{letter-spacing:0em;}.cls-9{letter-spacing:0em;}.cls-10{letter-spacing:-0.05em;}</style></defs><g id="Capa_2" data-name="Capa 2"><g id="Capa_1-2" data-name="Capa 1"><text class="cls-1" transform="translate(0 14.23)"><tspan class="cls-2">D</tspan><tspan x="11.37" y="0">u</tspan><tspan class="cls-3" x="20.74" y="0">r</tspan><tspan x="26.21" y="0">a</tspan><tspan class="cls-4" x="34.41" y="0">n</tspan><tspan class="cls-5" x="43.77" y="0">t</tspan><tspan x="49.3" y="0">e</tspan><tspan class="cls-6" x="57.82" y="0"> </tspan><tspan x="61.79" y="0">los</tspan><tspan class="cls-6" x="81.87" y="0"> </tspan><tspan x="85.84" y="0">siguie</tspan><tspan class="cls-4" x="127.91" y="0">n</tspan><tspan class="cls-5" x="137.28" y="0">t</tspan><tspan x="142.81" y="0">es</tspan><tspan class="cls-6" x="158.05" y="0"> </tspan><tspan x="162.03" y="0">6</tspan><tspan class="cls-6" x="170.75" y="0"> </tspan><tspan x="174.72" y="0">años</tspan><tspan class="cls-6" x="208.41" y="0"> </tspan><tspan class="cls-7" x="212.39" y="0">S</tspan><tspan x="220.87" y="0">o</tspan><tspan class="cls-8" x="230.2" y="0">r</tspan><tspan x="235.68" y="0">a</tspan><tspan class="cls-6" x="243.87" y="0"> </tspan><tspan x="247.84" y="0">c</tspan><tspan class="cls-9" x="255.46" y="0">r</tspan><tspan x="261.09" y="0">ió </tspan><tspan x="0" y="20.4">al niño que llamo </tspan><tspan class="cls-5" x="125.99" y="20.4">A</tspan><tspan x="136.29" y="20.4">she</tspan><tspan class="cls-10" x="160.97" y="20.4">r</tspan><tspan x="165.63" y="20.4">.</tspan></text></g></g></svg>