<svg xmlns="http://www.w3.org/2000/svg" viewBox="0 0 460.54 167.74"><defs><style>.cls-1{font-size:21px;fill:#fff;font-family:MyriadPro-Regular, Myriad Pro;}.cls-2{letter-spacing:0.09em;}.cls-3{letter-spacing:-0.01em;}.cls-4{letter-spacing:-0.01em;}.cls-5{letter-spacing:0em;}.cls-6{letter-spacing:-0.02em;}.cls-7{letter-spacing:0.09em;}.cls-8{letter-spacing:0em;}.cls-9{letter-spacing:-0.02em;}.cls-10{letter-spacing:-0.01em;}.cls-11{letter-spacing:0em;}.cls-12{letter-spacing:-0.01em;}.cls-13{letter-spacing:-0.02em;}.cls-14{letter-spacing:-0.05em;}.cls-15{letter-spacing:-0.01em;}.cls-16{letter-spacing:0.01em;}.cls-17{letter-spacing:0.01em;}.cls-18{letter-spacing:-0.01em;}.cls-19{letter-spacing:0.01em;}.cls-20{letter-spacing:0em;}.cls-21{letter-spacing:-0.01em;}.cls-22{letter-spacing:0.19em;}.cls-23{letter-spacing:0.19em;}.cls-24{letter-spacing:0em;}.cls-25{letter-spacing:0.19em;}.cls-26{letter-spacing:-0.01em;}.cls-27{letter-spacing:-0.01em;}.cls-28{letter-spacing:-0.01em;}.cls-29{letter-spacing:-0.03em;}.cls-30{letter-spacing:0.48em;}.cls-31{letter-spacing:-0.01em;}.cls-32{letter-spacing:-0.02em;}.cls-33{letter-spacing:0.48em;}</style></defs><g id="Capa_2" data-name="Capa 2"><g id="Capa_1-2" data-name="Capa 1"><text class="cls-1" transform="translate(0 17.58)">Y<tspan class="cls-2" x="11.36" y="0"> </tspan><tspan x="17.74" y="0">jus</tspan><tspan class="cls-3" x="42.73" y="0">t</tspan><tspan x="49.55" y="0">o</tspan><tspan class="cls-2" x="61.08" y="0"> </tspan><tspan x="67.46" y="0">cuando</tspan><tspan class="cls-2" x="133.59" y="0"> </tspan><tspan class="cls-3" x="139.97" y="0">t</tspan><tspan x="146.8" y="0">odo</tspan><tspan class="cls-2" x="181.7" y="0"> </tspan><tspan x="188.08" y="0">pa</tspan><tspan class="cls-4" x="210.15" y="0">r</tspan><tspan x="216.81" y="0">ecía</tspan><tspan class="cls-2" x="251.77" y="0"> </tspan><tspan x="258.15" y="0">haber</tspan><tspan class="cls-2" x="309.26" y="0"> </tspan><tspan class="cls-3" x="315.64" y="0">t</tspan><tspan x="322.47" y="0">e</tspan><tspan class="cls-5" x="332.99" y="0">r</tspan><tspan x="339.94" y="0">minad</tspan><tspan class="cls-6" x="395.99" y="0">o</tspan><tspan x="407.01" y="0">,</tspan><tspan class="cls-7" x="411.36" y="0"> </tspan><tspan x="417.74" y="0">algo </tspan><tspan x="0" y="25.2">inespe</tspan><tspan class="cls-8" x="57.88" y="25.2">r</tspan><tspan x="64.64" y="25.2">ado</tspan><tspan class="cls-9" x="98.13" y="25.2"> </tspan><tspan class="cls-10" x="102.24" y="25.2">c</tspan><tspan class="cls-11" x="111.53" y="25.2">omen</tspan><tspan class="cls-12" x="162.75" y="25.2">z</tspan><tspan x="171.59" y="25.2">ó</tspan><tspan class="cls-9" x="183.12" y="25.2"> </tspan><tspan x="187.23" y="25.2">a</tspan><tspan class="cls-13" x="197.35" y="25.2"> </tspan><tspan x="201.46" y="25.2">cambia</tspan><tspan class="cls-14" x="265.49" y="25.2">r</tspan><tspan x="271.25" y="25.2">.</tspan><tspan class="cls-9" x="275.59" y="25.2"> </tspan><tspan class="cls-15" x="279.71" y="25.2">L</tspan><tspan x="289.32" y="25.2">o</tspan><tspan class="cls-9" x="300.85" y="25.2"> </tspan><tspan x="304.96" y="25.2">que</tspan><tspan class="cls-9" x="338.88" y="25.2"> </tspan><tspan x="342.99" y="25.2">pa</tspan><tspan class="cls-4" x="365.06" y="25.2">r</tspan><tspan x="371.72" y="25.2">ecía</tspan><tspan class="cls-9" x="406.68" y="25.2"> </tspan><tspan x="410.8" y="25.2">ser</tspan><tspan class="cls-9" x="436.5" y="25.2"> </tspan><tspan x="440.61" y="25.2">el </tspan><tspan x="0" y="50.4">final</tspan><tspan class="cls-16" x="37.72" y="50.4"> </tspan><tspan x="42.41" y="50.4">e</tspan><tspan class="cls-8" x="52.93" y="50.4">r</tspan><tspan x="59.69" y="50.4">a,</tspan><tspan class="cls-16" x="74.16" y="50.4"> </tspan><tspan x="78.85" y="50.4">en</tspan><tspan class="cls-17" x="101.02" y="50.4"> </tspan><tspan class="cls-18" x="105.71" y="50.4">r</tspan><tspan x="112.37" y="50.4">ealida</tspan><tspan class="cls-4" x="164.85" y="50.4">d</tspan><tspan x="176.48" y="50.4">,</tspan><tspan class="cls-19" x="180.83" y="50.4"> </tspan><tspan x="185.52" y="50.4">el</tspan><tspan class="cls-17" x="200.99" y="50.4"> </tspan><tspan x="205.68" y="50.4">inicio</tspan><tspan class="cls-17" x="253.02" y="50.4"> </tspan><tspan x="257.71" y="50.4">de</tspan><tspan class="cls-19" x="280.07" y="50.4"> </tspan><tspan x="284.76" y="50.4">una</tspan><tspan class="cls-17" x="318.11" y="50.4"> </tspan><tspan x="322.8" y="50.4">t</tspan><tspan class="cls-20" x="329.75" y="50.4">r</tspan><tspan x="336.52" y="50.4">ans</tspan><tspan class="cls-21" x="366.61" y="50.4">f</tspan><tspan x="372.47" y="50.4">o</tspan><tspan class="cls-5" x="384" y="50.4">r</tspan><tspan x="390.95" y="50.4">mación </tspan><tspan x="0" y="75.6">que</tspan><tspan class="cls-22" x="33.91" y="75.6"> </tspan><tspan x="42.37" y="75.6">al</tspan><tspan class="cls-3" x="57.45" y="75.6">t</tspan><tspan x="64.28" y="75.6">e</tspan><tspan class="cls-8" x="74.8" y="75.6">r</tspan><tspan x="81.56" y="75.6">a</tspan><tspan class="cls-5" x="91.68" y="75.6">r</tspan><tspan x="98.63" y="75.6">ía</tspan><tspan class="cls-23" x="113.67" y="75.6"> </tspan><tspan x="122.13" y="75.6">el</tspan><tspan class="cls-22" x="137.6" y="75.6"> </tspan><tspan class="cls-24" x="146.06" y="75.6">destino</tspan><tspan class="cls-25" x="211.79" y="75.6"> </tspan><tspan x="220.25" y="75.6">pa</tspan><tspan class="cls-26" x="242.32" y="75.6">r</tspan><tspan x="249.08" y="75.6">a</tspan><tspan class="cls-25" x="259.21" y="75.6"> </tspan><tspan x="267.67" y="75.6">siemp</tspan><tspan class="cls-27" x="320.88" y="75.6">r</tspan><tspan class="cls-28" x="327.54" y="75.6">e</tspan><tspan x="337.81" y="75.6">.</tspan><tspan class="cls-23" x="342.15" y="75.6"> </tspan><tspan class="cls-29" x="350.61" y="75.6">P</tspan><tspan x="361.26" y="75.6">e</tspan><tspan class="cls-4" x="371.78" y="75.6">r</tspan><tspan x="378.44" y="75.6">o</tspan><tspan class="cls-25" x="389.97" y="75.6"> </tspan><tspan x="398.43" y="75.6">eso</tspan><tspan class="cls-25" x="428.79" y="75.6"> </tspan><tspan x="437.25" y="75.6">es </tspan><tspan x="0" y="100.8">solo</tspan><tspan class="cls-30" x="36.33" y="100.8"> </tspan><tspan x="50.88" y="100.8">el</tspan><tspan class="cls-30" x="66.36" y="100.8"> </tspan><tspan class="cls-3" x="80.92" y="100.8">c</tspan><tspan x="90.2" y="100.8">omien</tspan><tspan class="cls-31" x="146.33" y="100.8">z</tspan><tspan class="cls-32" x="155.17" y="100.8">o</tspan><tspan x="166.2" y="100.8">…</tspan><tspan class="cls-33" x="187.2" y="100.8"> </tspan><tspan class="cls-5" x="201.75" y="100.8">D</tspan><tspan x="215.82" y="100.8">escúb</tspan><tspan class="cls-4" x="267.59" y="100.8">r</tspan><tspan x="274.24" y="100.8">elo</tspan><tspan class="cls-33" x="301.25" y="100.8"> </tspan><tspan x="315.8" y="100.8">en</tspan><tspan class="cls-33" x="337.98" y="100.8"> </tspan><tspan x="352.54" y="100.8">el</tspan><tspan class="cls-33" x="368.01" y="100.8"> </tspan><tspan x="382.57" y="100.8">p</tspan><tspan class="cls-4" x="394.52" y="100.8">r</tspan><tspan class="cls-15" x="401.17" y="100.8">ó</tspan><tspan x="412.41" y="100.8">ximo </tspan><tspan x="0" y="126">capítul</tspan><tspan class="cls-6" x="59.87" y="126">o</tspan><tspan x="70.9" y="126">.</tspan></text></g></g></svg>