<svg xmlns="http://www.w3.org/2000/svg" viewBox="0 0 137.94 134.73"><defs><style>.cls-1{fill:#fff;}.cls-2{fill:#796131;}.cls-3{fill:#70131b;}.cls-4{fill:#b3732c;}.cls-5{font-size:30.03px;font-family:MyriadPro-Regular, Myriad Pro;}.cls-6{letter-spacing:-0.14em;}</style></defs><g id="Capa_2" data-name="Capa 2"><g id="indice_e_introduccion" data-name="indice e introduccion"><ellipse class="cls-1" cx="68.97" cy="67.37" rx="68.97" ry="67.37"/><path class="cls-2" d="M44.94,118.69a36.67,36.67,0,0,0-5.44-6.52C35.91,108.71,27,96.28,27.31,74.37s10.37-39,29.39-52.12A40.82,40.82,0,0,1,71.6,18.8c8-.18,15.78-.58,18.25.26s17.74,13.67,20.81,30.54S105.4,93.41,81,106.6c-11.24,6.08-19.62,7.11-25.57,8.63A63.19,63.19,0,0,0,44.94,118.69Z"/><path class="cls-3" d="M65.41,71.18c3.14,1.9,6.86,2.53,10.42,3.14A81.4,81.4,0,0,0,87.7,75.46a61.53,61.53,0,0,0,11-.76,24.34,24.34,0,0,0,4.67-1.23c1.69-.65,2.89-1.86,4.44-2.73a.11.11,0,0,0-.09-.2c-1.5.51-2.72,1.52-4.17,2.13a21,21,0,0,1-5,1.28,61.1,61.1,0,0,1-10.81.68,81.48,81.48,0,0,1-10.69-.95c-3.77-.57-7.88-1.2-11.22-3.13,0,0,0,0-.08,0,.28-.48.57-1,.84-1.43,2.28-3.91,4.41-7.89,6.45-11.92,2.41,1.46,5.35,1.52,8.06,2a45.33,45.33,0,0,0,10.73.3,85,85,0,0,0,10.9-1.6,12.63,12.63,0,0,0,7.15-3.69c.07-.07,0-.17-.11-.13-1.18.55-2.17,1.42-3.37,2a19.07,19.07,0,0,1-4.32,1.24,91.65,91.65,0,0,1-9.21,1.36,52,52,0,0,1-10,0c-3-.3-6.84-.48-9.5-2.06q2.66-5.3,5.17-10.67c.33-.71.65-1.43,1-2.15,1.7.94,3.8.41,5.66.43a45.22,45.22,0,0,0,7-.35c4.47-.61,9.29-2.47,11.73-6.49.07-.12-.09-.29-.2-.18a19.43,19.43,0,0,1-11.24,5.78,36.1,36.1,0,0,1-6.32.42c-1.93,0-4.51.58-6.28-.32,1.51-3.3,3-6.62,4.44-10,.59-1.35,1.18-2.7,1.78-4a5.44,5.44,0,0,0,1.29-.11,7.65,7.65,0,0,0,2.16-.46c1.77-.64,4-1.81,4.93-3.57.1-.19-.11-.42-.29-.26a14.21,14.21,0,0,1-5.66,3.33c-.44.12-1.38.05-2,.19.17-.41.36-.83.53-1.24a25.39,25.39,0,0,1,3.1-6c.08-.1-.08-.24-.17-.15A12.84,12.84,0,0,0,87.2,25c-1,2-1.87,4.09-2.81,6.13-.29.62-.57,1.24-.86,1.87-.24-.49-.57-1.92-.68-2.23-.47-1.22-.95-2.43-1.33-3.68-.69-2.3-.49-4.66-.94-7,0-.15-.23-.11-.25,0a16.44,16.44,0,0,0,.7,8.08c.37,1.15.83,2.27,1.26,3.4.24.64.47,1.29.72,1.93.07.19.08.19.08.15a.25.25,0,0,0,.08.1q-2.31,5-4.64,10.05C78,45,77.39,46.24,76.81,47.45c-.36-1.43-1.71-2.75-2.53-3.86-1.79-2.39-2.9-5.64-4-8.4a46.53,46.53,0,0,1-2.15-7.7c-.21-1-.38-2.06-.51-3.1-.1-.76-.36-2.32.21-3,.09-.09-.06-.19-.15-.13-1.11.77-.71,2.83-.6,4a40.44,40.44,0,0,0,1.38,7,57.11,57.11,0,0,0,3.86,9.63,17.06,17.06,0,0,0,1.75,2.9c.7.92,1.92,2.1,2,3.31a.32.32,0,0,0,.26.29c-2.41,5-4.91,10-7.58,14.88A21,21,0,0,1,67,60.9a42.6,42.6,0,0,1-3-4.43,80.08,80.08,0,0,1-4.68-8.89,75.52,75.52,0,0,1-3.84-9.85,36.31,36.31,0,0,1-1.08-5c-.27-1.93-.07-3.89-.36-5.81,0-.15-.24-.12-.26,0C52.85,34.32,55.55,41.3,58.52,48a77.62,77.62,0,0,0,5.28,9.85,41.85,41.85,0,0,0,2.82,4,13.92,13.92,0,0,0,1.79,2.06c-1,1.72-1.92,3.44-2.92,5.14-1.09,1.87-2.2,3.73-3.3,5.6A16.55,16.55,0,0,0,60.37,73a53.31,53.31,0,0,1-4.18-4.19,65.21,65.21,0,0,1-6.52-8.55A67.4,67.4,0,0,1,44.82,51a58.18,58.18,0,0,1-2.25-6c-.56-1.79-1.21-3.68-.89-5.56,0-.1-.13-.14-.18-.06a4.57,4.57,0,0,0-.16,3.47,46.37,46.37,0,0,0,1.48,5.18A65.16,65.16,0,0,0,47.75,58.8a64.44,64.44,0,0,0,6.31,9c1.16,1.39,2.4,2.73,3.66,4,.55.56,1.12,1.09,1.7,1.61a14.34,14.34,0,0,1,2.11,1.85.45.45,0,0,0,.1.35c-2.46,4.14-4.89,8.3-7.16,12.54a.49.49,0,0,0-.18-.14A8,8,0,0,1,53,87c-.59-.46-1.21-.87-1.82-1.3A31.35,31.35,0,0,1,47,82.34a40,40,0,0,1-6.12-7.83,72.41,72.41,0,0,1-4.26-8c-.71-1.53-1.39-3.07-2-4.65s-1.58-4-1.1-5.75a.1.1,0,0,0-.19-.07c-1.26,2.52.74,6.38,1.73,8.72a80.35,80.35,0,0,0,5.07,10.12,41.12,41.12,0,0,0,6.2,8,27.83,27.83,0,0,0,3.84,3.18c.76.53,1.53,1,2.27,1.6a15.38,15.38,0,0,0,1.23,1,.35.35,0,0,0,.34.24c-.62,1.19-1.24,2.38-1.83,3.58a109.75,109.75,0,0,0-4.6,10.62h0a5.66,5.66,0,0,1-2.28-1.58c-.91-.79-1.82-1.59-2.69-2.41a33.58,33.58,0,0,1-5.15-6.43c-1.35-2.12-2.45-4.39-3.6-6.62A19.15,19.15,0,0,1,31.34,78c0-.1-.16-.15-.19,0-.62,2.44.47,4.94,1.47,7.13A74.13,74.13,0,0,0,37,93.51a32.85,32.85,0,0,0,5.72,6.93c1.21,1.11,2.86,3.13,4.56,3.53-.1.28-.21.56-.31.85a29.6,29.6,0,0,0-1.42,5.8c-.3,2.18-.79,4.4-.88,6.59a.46.46,0,0,0,.2.42l.1.05c.47.25,1-.35.64-.68.08,0,.1-.09.06-.38.09-.56.13-1.12.21-1.67.15-1,.34-2,.49-3.06q.18-1.23.42-2.43a41.2,41.2,0,0,0,6.07.61,18.94,18.94,0,0,0,8.14-.91c.09,0,.05-.18,0-.18-1.69-.07-3.34.48-5,.56a20.57,20.57,0,0,1-2.71-.19,42.68,42.68,0,0,1-6.29-.62,31.86,31.86,0,0,1,1-3.59c.86-2.51,1.87-5,3-7.43,5.54,2.47,11.59,3.37,17.6,3.83,2.75.22,5.51.23,8.27.25a16.57,16.57,0,0,0,6.84-1.1c.08,0,0-.17,0-.14a25.46,25.46,0,0,1-7.24.52c-2.59,0-5.18-.11-7.77-.31A55.16,55.16,0,0,1,51.22,97q.95-2.1,2-4.15c1.65-3.37,3.45-6.66,5.31-9.92A83.84,83.84,0,0,0,80.63,88.8c6.3.71,14,1.61,19.58-2.1.07,0,0-.15-.07-.12-6.27,2.85-13.42,2.15-20.06,1.35a86.62,86.62,0,0,1-21.2-5.72c2.13-3.71,4.34-7.37,6.51-11A0,0,0,0,0,65.41,71.18Z"/><path class="cls-4" d="M83.79,28.8a.18.18,0,0,0-.29-.09c-.36.4-.3.94-.43,1.44-.09.34.38.63.58.29A2.56,2.56,0,0,0,83.79,28.8Z"/><path class="cls-4" d="M83,28.38a4.27,4.27,0,0,0-.51-1.57.18.18,0,0,0-.31.06,2.25,2.25,0,0,0,.2,1.72A.33.33,0,0,0,83,28.38Z"/><path class="cls-4" d="M85.22,26.53a.18.18,0,0,0-.3,0c-.2.35-.26.78-.43,1.15a.36.36,0,0,0,.57.39A1.38,1.38,0,0,0,85.22,26.53Z"/><path class="cls-4" d="M83.86,26.68a2.73,2.73,0,0,0,0-.75,2.46,2.46,0,0,0-.16-.75.19.19,0,0,0-.33,0,2.08,2.08,0,0,0-.14,1.57.35.35,0,0,0,.32.27.27.27,0,0,0,.09,0A.35.35,0,0,0,83.86,26.68Z"/><path class="cls-4" d="M86.3,24.35a.23.23,0,0,0-.42-.14,8.86,8.86,0,0,0-.4.82c0,.13-.09.26-.15.38a2.05,2.05,0,0,0-.1.34.23.23,0,0,0,.32.29.82.82,0,0,0,.35-.23,1.88,1.88,0,0,0,.22-.45A3.83,3.83,0,0,0,86.3,24.35Z"/><path class="cls-4" d="M82.52,24.55a4.77,4.77,0,0,0-.09-1,.2.2,0,0,0-.32-.11,1.18,1.18,0,0,0-.3,1.25A.36.36,0,0,0,82.52,24.55Z"/><path class="cls-4" d="M84.82,24.18a2.62,2.62,0,0,0-.21-1.24.14.14,0,0,0-.24,0,1.48,1.48,0,0,0-.19,1.39A.34.34,0,0,0,84.82,24.18Z"/><path class="cls-4" d="M87.09,21.77a.15.15,0,0,0-.25-.09,2,2,0,0,0-.49.81,1.64,1.64,0,0,0-.27.84.23.23,0,0,0,.22.19C87,23.58,87.23,22.26,87.09,21.77Z"/><path class="cls-4" d="M83.44,21.43a.14.14,0,0,0-.22-.08A1.58,1.58,0,0,0,82.79,23a.3.3,0,0,0,.46.09C83.62,22.73,83.56,21.89,83.44,21.43Z"/><path class="cls-4" d="M82.33,21.07a3.4,3.4,0,0,1-.09-1.23.3.3,0,0,0-.56-.19,2.1,2.1,0,0,0,0,1.65.37.37,0,0,0,.38.19l.09,0A.36.36,0,0,0,82.33,21.07Z"/><path class="cls-4" d="M85.68,20a.19.19,0,0,0-.31-.1,1.7,1.7,0,0,0-.49,1.36.34.34,0,0,0,.55.19C85.81,21.16,85.76,20.45,85.68,20Z"/><path class="cls-4" d="M88.22,20.93a2.08,2.08,0,0,0,.08-1,.16.16,0,0,0-.25-.09,2,2,0,0,0-.52.75,1.59,1.59,0,0,0-.19,1,.26.26,0,0,0,.42.15A1.52,1.52,0,0,0,88.22,20.93Z"/><path class="cls-4" d="M76.62,43.26a.15.15,0,0,0-.27,0,4.25,4.25,0,0,0-.11,1.88.38.38,0,0,0,.26.38l.1,0A.38.38,0,0,0,77,45.3,3.31,3.31,0,0,0,76.62,43.26Z"/><path class="cls-4" d="M75.55,43a4.32,4.32,0,0,0-.43-1.22c-.09-.14-.32-.17-.37,0-.12.38-.06,2.23.65,2C75.8,43.76,75.62,43.3,75.55,43Z"/><path class="cls-4" d="M78.23,41.77a.12.12,0,0,0-.21,0,4.44,4.44,0,0,0-.21,1.27.33.33,0,0,0,.15.3.29.29,0,0,0,.17.06.35.35,0,0,0,.35-.23A1.45,1.45,0,0,0,78.23,41.77Z"/><path class="cls-4" d="M76.93,41.41A5.76,5.76,0,0,0,76.64,40a.22.22,0,0,0-.37,0,1.71,1.71,0,0,0,.08,1.68C76.55,42,77,41.71,76.93,41.41Z"/><path class="cls-4" d="M79.17,38.93c0-.16-.26-.16-.31,0a5.27,5.27,0,0,0-.19.51l-.09.51c0,.24-.15.77.23.8C79.58,40.77,79.2,39.31,79.17,38.93Z"/><path class="cls-4" d="M74,40.74c-.07-.25-.18-.49-.25-.74a5.34,5.34,0,0,0-.21-.81.23.23,0,0,0-.4,0,1.65,1.65,0,0,0,.22,1.89C73.6,41.29,74.1,41.12,74,40.74Z"/><path class="cls-4" d="M74.82,38.24a2.55,2.55,0,0,0-.46-1,.22.22,0,0,0-.38.12,3.35,3.35,0,0,0,.12,1.09c.07.31.18.86.54.93a.28.28,0,0,0,.29-.09C75.16,39.05,74.92,38.55,74.82,38.24Z"/><path class="cls-4" d="M77.62,38.39A2,2,0,0,0,77,37c-.12-.1-.36-.08-.35.11a4.89,4.89,0,0,0,.26,1.47C77,38.9,77.62,38.76,77.62,38.39Z"/><path class="cls-4" d="M80.63,37.4a1.43,1.43,0,0,0-.36-1.21c-.08-.07-.23-.07-.26.05a8.58,8.58,0,0,0-.18,1c0,.31-.25.74-.08,1a.26.26,0,0,0,.27.13C80.45,38.35,80.58,37.75,80.63,37.4Z"/><path class="cls-4" d="M79,36.51a3.62,3.62,0,0,0-.28-1.46.22.22,0,0,0-.41,0,2.62,2.62,0,0,0,0,1.66C78.46,37.16,79,36.89,79,36.51Z"/><path class="cls-4" d="M81.53,33.59c-.07-.11-.27-.1-.27,0,0,.58-.15,1.17-.16,1.76a.38.38,0,0,0,.73.14A2.19,2.19,0,0,0,81.53,33.59Z"/><path class="cls-4" d="M80.06,34.14a1.61,1.61,0,0,0-.16-.81c-.06-.14-.1-.28-.15-.42a1.53,1.53,0,0,0-.26-.4.16.16,0,0,0-.28.09,8.27,8.27,0,0,0,.05.86,2.81,2.81,0,0,0,.14.81C79.52,34.6,80.05,34.47,80.06,34.14Z"/><path class="cls-4" d="M81.62,31.33a4.67,4.67,0,0,0-.33-.57c-.08-.13-.27-.24-.33-.31a.1.1,0,0,0-.18.06,2,2,0,0,0,0,.36,4.52,4.52,0,0,0,.15.61,3.12,3.12,0,0,0,.37,1.14.31.31,0,0,0,.48,0C82,32.26,81.79,31.67,81.62,31.33Z"/><path class="cls-4" d="M72.77,37.33a.85.85,0,0,0-.18-.51c-.11-.19-.21-.38-.31-.58a4.85,4.85,0,0,0-.63-1.08.16.16,0,0,0-.29.09,3.31,3.31,0,0,0,.25,1.42c.15.39.51,1.08,1,.86A.22.22,0,0,0,72.77,37.33Z"/><path class="cls-4" d="M75.85,35.64c-.07-.29-.16-.57-.25-.85s-.58-.32-.6,0-.06,1.48.54,1.67a.3.3,0,0,0,.37-.19A1,1,0,0,0,75.85,35.64Z"/><path class="cls-4" d="M77.79,33.81A2.76,2.76,0,0,0,77.26,32c-.12-.2-.5-.12-.42.14.18.57.12,1.2.27,1.77A.35.35,0,0,0,77.79,33.81Z"/><path class="cls-4" d="M73.69,34.85c-.28-.4-.51-.85-.82-1.23a.19.19,0,0,0-.33.11,1.83,1.83,0,0,0,.69,1.63C73.57,35.61,73.9,35.16,73.69,34.85Z"/><path class="cls-4" d="M75.08,31.45a.16.16,0,0,0-.28.09A3.46,3.46,0,0,0,75,33.2a.33.33,0,0,0,.29.19C76.09,33.41,75.3,31.75,75.08,31.45Z"/><path class="cls-4" d="M79.43,31.42c0-.61-.15-1.69-.74-2-.08,0-.22,0-.21.1,0,.34.09.67.09,1a3.07,3.07,0,0,0,.15,1C78.85,31.92,79.42,31.78,79.43,31.42Z"/><path class="cls-4" d="M71.22,33.11a3,3,0,0,0-.46-.84c-.18-.31-.34-.64-.51-1a.13.13,0,0,0-.24.05,2.24,2.24,0,0,0,.13,1.2c.13.36.45.91.91.79A.22.22,0,0,0,71.22,33.11Z"/><path class="cls-4" d="M72.82,30.3a.18.18,0,0,0-.27.13c0,.51,0,1.32.38,1.7a.36.36,0,0,0,.33.11C74,32,73.16,30.59,72.82,30.3Z"/><path class="cls-4" d="M77.11,30.65c-.09-.45-.35-.84-.47-1.28s-.55-.29-.54,0A2.44,2.44,0,0,0,76.49,31C76.71,31.25,77.17,31,77.11,30.65Z"/><path class="cls-4" d="M80.46,29.07A2.15,2.15,0,0,0,80.27,28a1.27,1.27,0,0,0-.66-.74c-.17-.08-.27.12-.23.26s0,.21.06.3a3,3,0,0,1,.1.43,3.71,3.71,0,0,0,.24.94A.36.36,0,0,0,80.46,29.07Z"/><path class="cls-4" d="M71.36,30.12a5.66,5.66,0,0,1-.84-1.39.22.22,0,0,0-.41.08,1.84,1.84,0,0,0,.22,1.08,1.31,1.31,0,0,0,.39.48.65.65,0,0,0,.52.11A.22.22,0,0,0,71.36,30.12Z"/><path class="cls-4" d="M74.92,29.46a1.67,1.67,0,0,0-1-1.28.18.18,0,0,0-.24.2c0,.24.15.46.22.7a1.88,1.88,0,0,0,.35.69A.37.37,0,0,0,74.92,29.46Z"/><path class="cls-4" d="M78.13,28a2,2,0,0,1-.31-.59,6.31,6.31,0,0,0-.38-.73c-.11-.16-.35,0-.37.13a2.81,2.81,0,0,0,0,1.08c.1.37.34.83.78.8A.38.38,0,0,0,78.13,28Z"/><path class="cls-4" d="M79.7,26.52a3.13,3.13,0,0,0-.17-.85,3.74,3.74,0,0,1-.24-.87c0-.2-.3-.29-.37-.07a2.15,2.15,0,0,0-.15.91,3.33,3.33,0,0,0,.29,1C79.2,26.94,79.72,26.87,79.7,26.52Z"/><path class="cls-4" d="M76,27.84A4.26,4.26,0,0,0,75.27,26,.15.15,0,0,0,75,26a2.68,2.68,0,0,0,.3,2,.34.34,0,0,0,.29.2.37.37,0,0,0,.18,0A.33.33,0,0,0,76,27.84Z"/><path class="cls-4" d="M72.34,28.77a3.11,3.11,0,0,0-.7-1.82c-.11-.14-.3,0-.33.11a3.88,3.88,0,0,0,.39,1.75.33.33,0,0,0,.3.26h.08A.31.31,0,0,0,72.34,28.77Z"/><path class="cls-4" d="M69.34,27.52A10.07,10.07,0,0,1,68.92,26c0-.1-.19-.16-.25-.05a1.92,1.92,0,0,0,.16,1.91C69.06,28.15,69.46,27.83,69.34,27.52Z"/><path class="cls-4" d="M70.36,25.52c-.15-.41-.15-.89-.34-1.28a.23.23,0,0,0-.41,0c-.12.52-.25,1.44.39,1.68C70.26,26,70.45,25.75,70.36,25.52Z"/><path class="cls-4" d="M73.61,25.65c-.18-.39-.27-.8-.41-1.19a.17.17,0,0,0-.29,0,1.53,1.53,0,0,0-.12,1.17c.07.33.36,1,.79.94S73.73,25.89,73.61,25.65Z"/><path class="cls-4" d="M77.38,25.37c-.08-.22-.22-.43-.31-.64a4,4,0,0,0-.23-.61.17.17,0,0,0-.29,0,1.37,1.37,0,0,0,.31,1.72A.36.36,0,0,0,77.38,25.37Z"/><path class="cls-4" d="M78.54,21.84c-.08-.18-.32-.09-.35.08-.07.4-.12.81-.17,1.21s0,.62.37.59a.34.34,0,0,0,.26-.23A2.15,2.15,0,0,0,78.54,21.84Z"/><path class="cls-4" d="M74.91,24.73a7.43,7.43,0,0,0-.23-.93c-.08-.34-.13-.68-.22-1a.14.14,0,0,0-.26-.05,2.18,2.18,0,0,0,.22,2.32C74.67,25.25,74.93,25,74.91,24.73Z"/><path class="cls-4" d="M71.05,22.38a.15.15,0,0,0-.24,0,1.79,1.79,0,0,0-.21,1c0,.25,0,.73.37.76C71.53,24.17,71.18,22.64,71.05,22.38Z"/><path class="cls-4" d="M68.77,22.41a3.38,3.38,0,0,1-.08-1c0-.13-.19-.21-.25-.09a2.4,2.4,0,0,0-.37,1.14c0,.38.15,1,.62,1a.22.22,0,0,0,.23-.15A2.57,2.57,0,0,0,68.77,22.41Z"/><path class="cls-4" d="M73,22a4,4,0,0,0,0-1.29.15.15,0,0,0-.27-.05,3.88,3.88,0,0,0-.41,1.2c-.07.34-.16.84.11,1.11a.23.23,0,0,0,.32,0C73,22.73,73,22.32,73,22Z"/><path class="cls-4" d="M70.58,21.55c0-.26,0-.52,0-.78s0-.49,0-.74a.14.14,0,0,0-.25-.09,2.37,2.37,0,0,0-.42.7,1.54,1.54,0,0,0,0,.95A.32.32,0,0,0,70.58,21.55Z"/><path class="cls-4" d="M76.41,21.83a2.14,2.14,0,0,0-.2-1,.13.13,0,0,0-.19,0A1.62,1.62,0,0,0,75.65,22c0,.43,0,1,.51,1.1a.2.2,0,0,0,.26-.13A2.17,2.17,0,0,0,76.41,21.83Z"/><path class="cls-4" d="M79.24,20.35c-.1-.1-.34-.07-.33.11a4,4,0,0,1-.11.91.33.33,0,0,0,.14.29.49.49,0,0,0,.16.05.33.33,0,0,0,.33-.21A1.07,1.07,0,0,0,79.24,20.35Z"/><path class="cls-4" d="M68.66,60.49a3.73,3.73,0,0,0-.39-1.12.16.16,0,0,0-.31.06,5.43,5.43,0,0,0,0,1.21c0,.38.06.88.46,1a.31.31,0,0,0,.35-.11C68.94,61.23,68.75,60.83,68.66,60.49Z"/><path class="cls-4" d="M67.12,59.06a3.88,3.88,0,0,0-.23-.56c-.1-.2-.16-.42-.27-.61a.16.16,0,0,0-.28,0,1.37,1.37,0,0,0,.19,1.48.33.33,0,0,0,.32.11.39.39,0,0,0,.16-.07A.34.34,0,0,0,67.12,59.06Z"/><path class="cls-4" d="M69.63,57.71a.22.22,0,0,0-.38.07,1.48,1.48,0,0,0-.07.63c0,.28,0,.54,0,.81a.38.38,0,0,0,.74.15A1.75,1.75,0,0,0,69.63,57.71Z"/><path class="cls-4" d="M68.57,57.33a8.29,8.29,0,0,0-.72-1.74.15.15,0,0,0-.29.06A2.69,2.69,0,0,0,68,57.71a.35.35,0,0,0,.32.11.48.48,0,0,0,.16-.08A.35.35,0,0,0,68.57,57.33Z"/><path class="cls-4" d="M70.92,57.24a3.69,3.69,0,0,0-.35-1.54.19.19,0,0,0-.35,0,4,4,0,0,0,0,1.57C70.24,57.71,71,57.68,70.92,57.24Z"/><path class="cls-4" d="M66,56.32c-.2-.42-.46-.82-.69-1.24a.26.26,0,0,0-.48.1,2,2,0,0,0,.6,1.52A.35.35,0,0,0,66,56.32Z"/><path class="cls-4" d="M69,53.69a.29.29,0,0,0-.55,0c-.1.38-.27,1.59.36,1.62S69.09,54,69,53.69Z"/><path class="cls-4" d="M66.82,54.41a5,5,0,0,0-.29-.76c-.09-.2-.16-.51-.35-.64A.17.17,0,0,0,66,53c-.57.32-.08,1.35.19,1.72A.37.37,0,0,0,66.82,54.41Z"/><path class="cls-4" d="M71.76,52.78a.2.2,0,0,0-.33.07,12.27,12.27,0,0,0-.13,1.36c0,.28-.31.92.11,1a.35.35,0,0,0,.34-.07A2,2,0,0,0,71.76,52.78Z"/><path class="cls-4" d="M70.54,52.73a2.35,2.35,0,0,0-.89-1.25.18.18,0,0,0-.28.19A3.69,3.69,0,0,0,70,53a.31.31,0,0,0,.32.11.29.29,0,0,0,.16-.07A.34.34,0,0,0,70.54,52.73Z"/><path class="cls-4" d="M73.36,50.87a.18.18,0,0,0-.34,0,4,4,0,0,0-.11,1c0,.26,0,.79.32.82C74,52.72,73.57,51.19,73.36,50.87Z"/><path class="cls-4" d="M64,53.74a.65.65,0,0,0-.2-.46c-.11-.16-.21-.3-.3-.46a2.53,2.53,0,0,1-.37-1.07.16.16,0,0,0-.29-.09,1.45,1.45,0,0,0,0,1.4c.14.39.57,1.09,1.06.87A.21.21,0,0,0,64,53.74Z"/><path class="cls-4" d="M67.26,50.81c-.1-.07-.27,0-.23.15.12.46,0,1,.38,1.32A.36.36,0,0,0,68,52.1C68.14,51.58,67.65,51.07,67.26,50.81Z"/><path class="cls-4" d="M71.32,50a1.7,1.7,0,0,0-.85-.76.17.17,0,0,0-.22.19c.08.35.69,2,1.24,1.49C71.79,50.69,71.47,50.27,71.32,50Z"/><path class="cls-4" d="M74.49,48.85a3,3,0,0,0-.61-1,.15.15,0,0,0-.26.12c.06.3.07.62.12.93a3.77,3.77,0,0,0,.13,1,.34.34,0,0,0,.53.11C74.71,49.71,74.62,49.2,74.49,48.85Z"/><path class="cls-4" d="M72.59,49a1.84,1.84,0,0,0-.85-1.14c-.12-.06-.21.07-.2.18a1.94,1.94,0,0,0,.55,1.28A.33.33,0,0,0,72.59,49Z"/><path class="cls-4" d="M75.76,47.69a1.19,1.19,0,0,0-.31-.57,4.27,4.27,0,0,0-.44-.41l-.22-.16s-.14-.12-.1-.06a.11.11,0,0,0-.21.07c0,.08,0,.23,0,.34a1.51,1.51,0,0,0,.22.44,4.17,4.17,0,0,1,.26.46l.09.21a1.31,1.31,0,0,0,.17.24.26.26,0,0,0,.41,0A.6.6,0,0,0,75.76,47.69Z"/><path class="cls-4" d="M65.22,50.89l-.52-.75a.18.18,0,0,0-.32.11,2.15,2.15,0,0,0,.25.93c.14.25.33.62.63.69a.22.22,0,0,0,.29-.19C65.6,51.39,65.37,51.12,65.22,50.89Z"/><path class="cls-4" d="M68.68,49a3.41,3.41,0,0,0-.67-.89.17.17,0,0,0-.3.1,2.21,2.21,0,0,0,.19,1,4.8,4.8,0,0,0,.3.48.62.62,0,0,0,.4.36.27.27,0,0,0,.32-.15C69.06,49.63,68.81,49.27,68.68,49Z"/><path class="cls-4" d="M73.23,46.83a1.89,1.89,0,0,0-1-1.87c-.12,0-.27.07-.23.2a9.66,9.66,0,0,0,.37.94,3.19,3.19,0,0,0,.29.92s0,0,0,.06a.25.25,0,0,0,.43,0l0,0A.34.34,0,0,0,73.23,46.83Z"/><path class="cls-4" d="M70.16,47.84a2.72,2.72,0,0,0-.73-1.34.19.19,0,0,0-.3.15,2.06,2.06,0,0,0,.45,1.48C69.79,48.35,70.26,48.19,70.16,47.84Z"/><path class="cls-4" d="M66.29,49.32c-.08-.52-.54-1.37-1.17-1.31a.19.19,0,0,0-.15.22,2.69,2.69,0,0,0,.26.54c.14.25.22.53.37.78a.37.37,0,0,0,.4.2l.09,0A.36.36,0,0,0,66.29,49.32Z"/><path class="cls-4" d="M63.24,49.86c-.19-.23-.37-.46-.58-.67a.21.21,0,0,0-.37.18c.06.44.48,1.34,1,1.24a.22.22,0,0,0,.16-.15C63.54,50.19,63.41,50.06,63.24,49.86Z"/><path class="cls-4" d="M68.09,46.83a3.4,3.4,0,0,0-.67-1.17c-.14-.14-.48-.1-.46.16a1.87,1.87,0,0,0,.59,1.47C67.86,47.52,68.22,47.15,68.09,46.83Z"/><path class="cls-4" d="M71.16,45.74a5,5,0,0,0-.82-1.47.15.15,0,0,0-.25,0,2.09,2.09,0,0,0,.38,1.77A.4.4,0,0,0,71.16,45.74Z"/><path class="cls-4" d="M72,43.24c-.22-.31-.59-.45-.84-.72a.13.13,0,0,0-.22.11,3.25,3.25,0,0,0,.4.94c.15.22.39.75.74.58S72.16,43.47,72,43.24Z"/><path class="cls-4" d="M61.53,49.29a13.48,13.48,0,0,0-.83-1.42.17.17,0,0,0-.29.06,1.81,1.81,0,0,0,.67,1.75A.31.31,0,0,0,61.53,49.29Z"/><path class="cls-4" d="M63.32,46.51a.16.16,0,0,0-.27.13,2.41,2.41,0,0,0,.23,1c.12.25.42.58.73.43C64.57,47.81,63.55,46.72,63.32,46.51Z"/><path class="cls-4" d="M65.36,46.06a4.57,4.57,0,0,0-.73-1,.21.21,0,0,0-.37.18c0,.44.52,1.95,1.19,1.62C65.81,46.71,65.49,46.26,65.36,46.06Z"/><path class="cls-4" d="M68.75,44.09a3.91,3.91,0,0,0-.83-1,.18.18,0,0,0-.31.15,3.18,3.18,0,0,0,.4,1.23c.14.25.41.82.79.63S68.88,44.34,68.75,44.09Z"/><path class="cls-4" d="M65.83,43.47a.25.25,0,0,0-.45,0c-.17.51.4,1.37.94,1.33a.2.2,0,0,0,.17-.15C66.64,44.21,66,43.84,65.83,43.47Z"/><path class="cls-4" d="M70.06,41.91a3.43,3.43,0,0,0-.62-.74.19.19,0,0,0-.3.15c0,.57.3,1.57,1,1.7a.3.3,0,0,0,.29-.2A1.21,1.21,0,0,0,70.06,41.91Z"/><path class="cls-4" d="M70.41,39.69a1.57,1.57,0,0,0-.73-.71c-.16-.07-.27.13-.22.26s.22.5.33.75.21.62.47.76a.24.24,0,0,0,.36-.12C70.76,40.33,70.56,40,70.41,39.69Z"/><path class="cls-4" d="M61.56,46.64a3.72,3.72,0,0,0-.5-1.69.18.18,0,0,0-.32,0,2.61,2.61,0,0,0,0,1.3c.07.3.14.85.58.66A.35.35,0,0,0,61.56,46.64Z"/><path class="cls-4" d="M59.67,45.13a3,3,0,0,0-.87-1.4.23.23,0,0,0-.36.18A3,3,0,0,0,59,45.45.38.38,0,0,0,59.67,45.13Z"/><path class="cls-4" d="M63.22,44a1.46,1.46,0,0,0-.7-1c-.18-.09-.3.14-.25.28a4.94,4.94,0,0,1,.18.85c0,.29,0,.73.11,1a.34.34,0,0,0,.52.11C63.44,45,63.33,44.3,63.22,44Z"/><path class="cls-4" d="M66.85,42.36a3,3,0,0,0-.38-.89,3.78,3.78,0,0,0-.53-.83.23.23,0,0,0-.4.13,2.36,2.36,0,0,0,.18.95,2.82,2.82,0,0,0,.49,1A.37.37,0,0,0,66.85,42.36Z"/><path class="cls-4" d="M68.43,40c-.1-.27-.24-.53-.35-.81a6,6,0,0,0-.29-.84.23.23,0,0,0-.38,0,1.44,1.44,0,0,0-.11,1,1.69,1.69,0,0,0,.56,1.14C68.2,40.75,68.56,40.36,68.43,40Z"/><path class="cls-4" d="M69.06,36.82c-.13-.36-.31-.7-.46-1.06a.27.27,0,0,0-.5.17c.08.35.15.69.22,1a1.64,1.64,0,0,0,.39,1,.25.25,0,0,0,.35-.06C69.31,37.61,69.17,37.15,69.06,36.82Z"/><path class="cls-4" d="M66,39.22a2.31,2.31,0,0,0-1-1.49.2.2,0,0,0-.31.2,4.89,4.89,0,0,0,.56,1.52A.37.37,0,0,0,66,39.22Z"/><path class="cls-4" d="M64.16,42a1.78,1.78,0,0,0-.18-.55,2.46,2.46,0,0,0-.63-.8c-.13-.11-.28.05-.27.18a4.16,4.16,0,0,0,.56,1.64.23.23,0,0,0,.43,0A.73.73,0,0,0,64.16,42Z"/><path class="cls-4" d="M60.88,42.67a5,5,0,0,0-.6-1.05.26.26,0,0,0-.46.16,2.73,2.73,0,0,0,.24,1c.14.33.3.71.71.68S61,42.87,60.88,42.67Z"/><path class="cls-4" d="M58.53,41.57c-.15-.27-.31-.54-.44-.82a2.35,2.35,0,0,1-.17-.44.78.78,0,0,1-.05-.14s0,0,0,0h0a.15.15,0,0,0-.17-.2c-.88.27,0,1.72.38,2A.32.32,0,0,0,58.53,41.57Z"/><path class="cls-4" d="M61,38.67a.16.16,0,0,0-.27.14,2.42,2.42,0,0,0,.56,1.61.36.36,0,0,0,.34.11C62.42,40.27,61.31,39,61,38.67Z"/><path class="cls-4" d="M63.86,38.75a2.92,2.92,0,0,0-.43-.77c-.08-.11-.15-.23-.24-.34L63,37.46c0-.09-.08-.16-.15-.1-.49.42,0,1.43.44,1.75A.35.35,0,0,0,63.86,38.75Z"/><path class="cls-4" d="M66.84,36.8c-.09-.59-.48-1.09-.59-1.67a.27.27,0,0,0-.54,0A3.63,3.63,0,0,0,66.16,37,.36.36,0,0,0,66.84,36.8Z"/><path class="cls-4" d="M66.93,33a.14.14,0,0,0-.25.08,3.24,3.24,0,0,0,.1.93,1.77,1.77,0,0,0,.46,1c.13.11.32,0,.38-.13C67.89,34.2,67.3,33.45,66.93,33Z"/><path class="cls-4" d="M59.27,38.51a10.68,10.68,0,0,0-.64-1.14c-.11-.15-.31,0-.33.11a2.43,2.43,0,0,0,.24,1.27c.15.38.4,1,.84,1.11a.23.23,0,0,0,.3-.2C59.76,39.28,59.45,38.83,59.27,38.51Z"/><path class="cls-4" d="M61.87,36.31a2.47,2.47,0,0,0-.55-1.18c-.09-.08-.3-.06-.29.1,0,.55-.1,1.65.47,2a.33.33,0,0,0,.32,0C62.15,37,61.94,36.6,61.87,36.31Z"/><path class="cls-4" d="M64.78,34.94a2.88,2.88,0,0,0-.45-.87.22.22,0,0,0-.38.07,1.69,1.69,0,0,0,0,1,1.74,1.74,0,0,0,.45,1A.35.35,0,0,0,64.9,36C65.1,35.68,64.92,35.31,64.78,34.94Z"/><path class="cls-4" d="M56.85,37.8c-.22-.44-.33-.91-.51-1.37a.14.14,0,0,0-.25,0,2.25,2.25,0,0,0,0,1.26c.08.34.36,1.11.81,1S57,38,56.85,37.8Z"/><path class="cls-4" d="M60,35.76a2.86,2.86,0,0,0-.92-2,.13.13,0,0,0-.22.11c.14.66.25,1.33.43,2A.36.36,0,0,0,60,35.76Z"/><path class="cls-4" d="M57.21,34.29c-.08-.31-.13-.62-.21-.92a.18.18,0,0,0-.35,0,1.61,1.61,0,0,0-.09,1c0,.28.13.69.4.83a.21.21,0,0,0,.32-.1A1,1,0,0,0,57.21,34.29Z"/><path class="cls-4" d="M62.5,33.93c0-.38,0-.76-.09-1.14a5.4,5.4,0,0,1,0-.56.45.45,0,0,0,0-.2l0,0c-.06,0-.06,0,0,0s-.14-.16-.19-.07-.16.13-.21.25a3.83,3.83,0,0,0-.16.58,2.12,2.12,0,0,0,.12,1.34A.33.33,0,0,0,62.5,33.93Z"/><path class="cls-4" d="M65.24,31.82a4.41,4.41,0,0,1-.15-1.35c0-.43-.58-.45-.64,0a4.92,4.92,0,0,0,0,1.38c0,.35.28,1.09.77,1S65.32,32.11,65.24,31.82Z"/><path class="cls-4" d="M67.12,30.88a4.2,4.2,0,0,1-.22-.53,2.5,2.5,0,0,0-.23-.5.14.14,0,0,0-.27.06,1.61,1.61,0,0,0,0,.38,6,6,0,0,1,.08.61,4.91,4.91,0,0,0,0,.55,2.18,2.18,0,0,0,.17.51.25.25,0,0,0,.45,0A1.23,1.23,0,0,0,67.12,30.88Z"/><path class="cls-4" d="M55.79,32.55a2.62,2.62,0,0,0-.35-1.14.17.17,0,0,0-.27,0c-.26.4-.32,1.95.42,1.88C55.94,33.27,55.82,32.77,55.79,32.55Z"/><path class="cls-4" d="M58.68,32.25a3.65,3.65,0,0,0-.3-1.39.16.16,0,0,0-.25-.05,1.53,1.53,0,0,0-.26,1.11c0,.34,0,1,.45,1.11S58.71,32.5,58.68,32.25Z"/><path class="cls-4" d="M60.64,31.05c0-.21,0-.42,0-.63s0-.18,0-.27V30s0-.24,0-.09a.24.24,0,0,0-.4-.19,1.37,1.37,0,0,0-.33,1c0,.35-.07,1.06.39,1.12S60.65,31.31,60.64,31.05Z"/><path class="cls-4" d="M63.3,29.6a6.58,6.58,0,0,0-.29-.66.15.15,0,0,0-.25,0A1.21,1.21,0,0,0,63,30.51a.35.35,0,0,0,.53-.26A1.25,1.25,0,0,0,63.3,29.6Z"/><path class="cls-4" d="M66.17,27.35a1.16,1.16,0,0,0-.67-1c-.13,0-.23.1-.18.21a2.86,2.86,0,0,1,0,1,6.3,6.3,0,0,0,0,1.23.42.42,0,0,0,.8.05A2.71,2.71,0,0,0,66.17,27.35Z"/><path class="cls-4" d="M56.84,29.31a4,4,0,0,0-.39-1.14.14.14,0,0,0-.26,0,4.53,4.53,0,0,0,0,1.22c0,.33.07,1,.48,1.08a.25.25,0,0,0,.25-.09C57.17,30.15,56.91,29.63,56.84,29.31Z"/><path class="cls-4" d="M59.36,28.63a6,6,0,0,0-.16-.94,2.44,2.44,0,0,0-.23-.84.18.18,0,0,0-.27-.06,2,2,0,0,0-.06,2C58.8,29.07,59.38,29,59.36,28.63Z"/><path class="cls-4" d="M62.28,28A4.18,4.18,0,0,0,62.2,27,2.36,2.36,0,0,0,62,26a.14.14,0,0,0-.21-.05,1.6,1.6,0,0,0-.33,1,2.39,2.39,0,0,0,.15,1.27A.37.37,0,0,0,62.28,28Z"/><path class="cls-4" d="M64.1,26.38c-.1-.42-.2-.87-.34-1.28,0-.1-.16-.1-.23-.05a1.21,1.21,0,0,0-.28,1.09c0,.35.11,1.13.53,1.21C64.38,27.48,64.18,26.69,64.1,26.38Z"/><path class="cls-4" d="M65.52,22.65c-.13-.12-.4-.08-.4.14a11.3,11.3,0,0,1,0,1.16,2.2,2.2,0,0,0,.07,1.14.26.26,0,0,0,.4.08A2.12,2.12,0,0,0,65.52,22.65Z"/><path class="cls-4" d="M55.68,26.36a6.13,6.13,0,0,0,0-1,.19.19,0,0,0-.32-.11,1.71,1.71,0,0,0-.38,1A2.36,2.36,0,0,0,55,27.52c.14.36.6.17.65-.13A5.07,5.07,0,0,0,55.68,26.36Z"/><path class="cls-4" d="M58,26.66a3.62,3.62,0,0,0-.2-2,.13.13,0,0,0-.25,0,2.91,2.91,0,0,0-.24,2.14A.37.37,0,0,0,58,26.66Z"/><path class="cls-4" d="M60.7,24.39a2.82,2.82,0,0,0,0-1.44.12.12,0,0,0-.16-.06c-.41.22-.54.77-.67,1.18s-.28,1.1.14,1.39a.29.29,0,0,0,.27,0C60.68,25.24,60.65,24.78,60.7,24.39Z"/><path class="cls-4" d="M63.46,23.18c0-.36,0-.71.06-1.06a.21.21,0,0,0-.34-.17,1.77,1.77,0,0,0-.53.95,3.22,3.22,0,0,0-.06.69.84.84,0,0,0,.19.47.28.28,0,0,0,.51,0c0-.08.12-.15.14-.28S63.45,23.37,63.46,23.18Z"/><path class="cls-4" d="M65.91,20.58a.19.19,0,0,0-.33,0c-.19.28-.74,1.5,0,1.55S66,20.9,65.91,20.58Z"/><path class="cls-4" d="M62,72.52a3.4,3.4,0,0,0-.61-.75c-.2-.21-.4-.43-.58-.66a.15.15,0,0,0-.26.09A2.37,2.37,0,0,0,61.45,73,.36.36,0,0,0,62,72.52Z"/><path class="cls-4" d="M59.61,70.15c-.22-.28-.46-.56-.7-.83a.15.15,0,0,0-.27.09,1.78,1.78,0,0,0,.33,1c.17.3.46.69.84.66A.2.2,0,0,0,60,71C60.06,70.64,59.8,70.39,59.61,70.15Z"/><path class="cls-4" d="M62.26,69.93c-.2-.31-.36-.67-.59-1a.2.2,0,0,0-.35.07,1.79,1.79,0,0,0,.2,1.13c.14.34.42.93.85,1a.26.26,0,0,0,.24-.16C62.75,70.61,62.43,70.21,62.26,69.93Z"/><path class="cls-4" d="M57.8,69a8.13,8.13,0,0,0-.55-1c-.11-.12-.37-.11-.41.08-.11.48,0,1.3.6,1.46A.34.34,0,0,0,57.8,69Z"/><path class="cls-4" d="M60,67.8a4.51,4.51,0,0,0-.94-1.26.24.24,0,0,0-.38.18,2.14,2.14,0,0,0,.77,1.55A.37.37,0,0,0,60,67.8Z"/><path class="cls-4" d="M64.18,69.25a3,3,0,0,0-.88-1.75.19.19,0,0,0-.33.11,2,2,0,0,0,.12.81,5.36,5.36,0,0,0,.36,1C63.62,69.7,64.2,69.66,64.18,69.25Z"/><path class="cls-4" d="M61.93,67c-.2-.3-.3-.7-.52-1a.19.19,0,0,0-.26,0,.94.94,0,0,0-.09,1c.09.26.39.88.77.76S62.1,67.29,61.93,67Z"/><path class="cls-4" d="M65.53,66.66a1.43,1.43,0,0,0-.35-1.06,2.38,2.38,0,0,0-.4-.44c-.12-.1-.28-.18-.39-.29a.12.12,0,0,0-.21.1,2.24,2.24,0,0,0,.07.44l.2.47a6.19,6.19,0,0,1,.39.92C65,67.17,65.49,67,65.53,66.66Z"/><path class="cls-4" d="M63.48,65.67a3.24,3.24,0,0,0-.37-.83,3.35,3.35,0,0,0-.52-.82.25.25,0,0,0-.43.21c.07.6.33,1.67,1.07,1.73A.25.25,0,0,0,63.48,65.67Z"/><path class="cls-4" d="M66.93,64.28c.09-.63-.38-1.64-1.1-1.66a.23.23,0,0,0-.22.33c.1.22.24.41.34.63s.14.57.25.85S66.88,64.63,66.93,64.28Z"/><path class="cls-4" d="M64.29,62.63c-.26-.35-.5-.73-.79-1.06a.16.16,0,0,0-.28.1,3.13,3.13,0,0,0,.42,1.39c.19.36.56.94,1,.87a.24.24,0,0,0,.2-.22C64.94,63.33,64.49,62.91,64.29,62.63Z"/><path class="cls-4" d="M60.42,64.63a5.46,5.46,0,0,0-.67-.69c-.21-.21-.42-.43-.61-.65a.12.12,0,0,0-.22.07,2.29,2.29,0,0,0,1,1.78A.34.34,0,0,0,60.42,64.63Z"/><path class="cls-4" d="M57.67,66.08c0-.44-.66-1.18-1.14-1.15-.11,0-.23.1-.2.22a3.86,3.86,0,0,0,.36.7,1.3,1.3,0,0,0,.55.61C57.49,66.58,57.69,66.3,57.67,66.08Z"/><path class="cls-4" d="M61.89,62A10.61,10.61,0,0,0,61,60.77a.21.21,0,0,0-.36.12,2.12,2.12,0,0,0,.81,1.69C61.75,62.87,62.1,62.35,61.89,62Z"/><path class="cls-4" d="M63.62,59a.25.25,0,0,0-.43.21c.1.49.34,1.3.87,1.46a.26.26,0,0,0,.32-.16C64.57,60,64,59.4,63.62,59Z"/><path class="cls-4" d="M55.3,65.7c-.24-.38-.37-.81-.64-1.17a.2.2,0,0,0-.33.06,1.75,1.75,0,0,0,.13,1.23c.14.37.56,1,1,.76S55.44,65.92,55.3,65.7Z"/><path class="cls-4" d="M57.38,63.16a6.51,6.51,0,0,0-.71-.88.18.18,0,0,0-.31.11,2.42,2.42,0,0,0,.24,1c.11.27.23.72.5.87a.27.27,0,0,0,.3,0C57.72,63.94,57.55,63.45,57.38,63.16Z"/><path class="cls-4" d="M55.11,63.18a7.51,7.51,0,0,0-.46-.84A3.57,3.57,0,0,0,54.4,62a3.63,3.63,0,0,0-.27-.28.13.13,0,0,0-.23.11,1.61,1.61,0,0,1,0,.31,2.55,2.55,0,0,0,.15.54,2.79,2.79,0,0,0,.46.93C54.78,63.89,55.27,63.54,55.11,63.18Z"/><path class="cls-4" d="M59.09,61.14a4.68,4.68,0,0,0-.73-1.31.27.27,0,0,0-.46.22,2.26,2.26,0,0,0,.66,1.55C58.87,61.83,59.23,61.45,59.09,61.14Z"/><path class="cls-4" d="M61.81,59.54a6.49,6.49,0,0,0-.94-1.44.24.24,0,0,0-.42.14A2.55,2.55,0,0,0,61.19,60,.38.38,0,0,0,61.81,59.54Z"/><path class="cls-4" d="M62.16,56.58a3.31,3.31,0,0,0-.87-.92.18.18,0,0,0-.28.18,6.69,6.69,0,0,0,.39,1c.13.3.26.77.6.89a.25.25,0,0,0,.26,0C62.56,57.36,62.36,56.91,62.16,56.58Z"/><path class="cls-4" d="M59,58.18a3.43,3.43,0,0,0-.64-1,.14.14,0,0,0-.24.12,6.44,6.44,0,0,0,.22,1.06c.08.3.18.73.5.84a.25.25,0,0,0,.27-.09C59.34,58.86,59.15,58.46,59,58.18Z"/><path class="cls-4" d="M56,60.42a1.4,1.4,0,0,0-.71-.8.2.2,0,0,0-.25.22c.09.31.19.61.27.92a1.61,1.61,0,0,0,.48.85.25.25,0,0,0,.37-.12A1.5,1.5,0,0,0,56,60.42Z"/><path class="cls-4" d="M52.88,62.41a10.44,10.44,0,0,0-.74-1.2.15.15,0,0,0-.21,0c-.55.52.07,1.49.6,1.75C52.85,63.09,53,62.65,52.88,62.41Z"/><path class="cls-4" d="M53.68,59.19c-.23-.32-.54-.62-.74-1a.12.12,0,0,0-.22,0,1.38,1.38,0,0,0,.19,1.11c.17.33.46,1,.88,1a.23.23,0,0,0,.22-.1C54.23,59.87,53.89,59.48,53.68,59.19Z"/><path class="cls-4" d="M56.62,58.11c-.1-.28-.23-.54-.34-.81a1.59,1.59,0,0,0-.35-.62.16.16,0,0,0-.22,0,1.19,1.19,0,0,0-.1.79,2,2,0,0,0,.39,1C56.29,58.86,56.76,58.49,56.62,58.11Z"/><path class="cls-4" d="M58.2,54.51a.18.18,0,0,0-.31.15,7.27,7.27,0,0,0,.31,1.22c.1.3.44.94.84.74C59.68,56.3,58.48,54.8,58.2,54.51Z"/><path class="cls-4" d="M59.69,53.2a3.5,3.5,0,0,0-.76-1,.17.17,0,0,0-.27.13,3.26,3.26,0,0,0,.31,1c.12.29.25.74.59.83a.26.26,0,0,0,.28-.1C60.06,53.87,59.85,53.47,59.69,53.2Z"/><path class="cls-4" d="M56.8,55.48a2.39,2.39,0,0,0-.64-1c-.1-.09-.31-.07-.3.1,0,.41.13,1.71.78,1.57C57,56.11,56.88,55.69,56.8,55.48Z"/><path class="cls-4" d="M53.94,57.19a4.16,4.16,0,0,0-.67-.93.15.15,0,0,0-.25.12,4.84,4.84,0,0,0,.27,1c.11.31.25.74.6.84a.23.23,0,0,0,.29-.14C54.3,57.76,54.09,57.45,53.94,57.19Z"/><path class="cls-4" d="M51.18,59.77c-.18-.24-.35-.48-.52-.73a1.73,1.73,0,0,0-.54-.63.2.2,0,0,0-.3.2,2.16,2.16,0,0,0,1,1.71C51.15,60.46,51.36,60,51.18,59.77Z"/><path class="cls-4" d="M52,57.38a2.62,2.62,0,0,0-.44-1,1,1,0,0,0-.72-.53.16.16,0,0,0-.15.22,3.36,3.36,0,0,1,.35.68,7.32,7.32,0,0,0,.28.87A.36.36,0,0,0,52,57.38Z"/><path class="cls-4" d="M49.44,56.88a1.56,1.56,0,0,0-.15-.41c-.11-.16-.21-.32-.31-.49s-.19-.68-.37-1a.15.15,0,0,0-.23-.05,1.17,1.17,0,0,0-.12,1.16,2.35,2.35,0,0,0,.3.59,1.07,1.07,0,0,0,.57.44C49.29,57.21,49.5,57.06,49.44,56.88Z"/><path class="cls-4" d="M54.48,55.36a1.75,1.75,0,0,0-.86-1.67.19.19,0,0,0-.26.17,2.32,2.32,0,0,0,.21.77c.1.28.15.58.27.86a.32.32,0,0,0,.28.19h.09A.35.35,0,0,0,54.48,55.36Z"/><path class="cls-4" d="M51.85,54.16c-.24-.33-.44-.65-.65-1a.17.17,0,0,0-.32,0,1.3,1.3,0,0,0,.12,1c.11.25.49.78.82.7S52,54.39,51.85,54.16Z"/><path class="cls-4" d="M57,52.4a3,3,0,0,0-.47-.77.2.2,0,0,0-.34.06,1.34,1.34,0,0,0,0,.86,2.31,2.31,0,0,0,.38.88.34.34,0,0,0,.58-.12A1.22,1.22,0,0,0,57,52.4Z"/><path class="cls-4" d="M54.94,52.81c0-.28-.12-.47-.25-.71a2.44,2.44,0,0,0-.5-.72.23.23,0,0,0-.4.2,2.18,2.18,0,0,0,.33.91c.15.27.26.48.59.53A.22.22,0,0,0,54.94,52.81Z"/><path class="cls-4" d="M58.59,51c0-.56-.35-1.6-1-1.66a.24.24,0,0,0-.24.28,6.83,6.83,0,0,0,.29.75c.09.29.16.59.27.88C58,51.67,58.62,51.38,58.59,51Z"/><path class="cls-4" d="M49.64,52.9a10.14,10.14,0,0,1-.76-1.23.19.19,0,0,0-.35,0,1.48,1.48,0,0,0,.77,1.71C49.6,53.55,49.83,53.13,49.64,52.9Z"/><path class="cls-4" d="M52.67,51.23a1.39,1.39,0,0,0-.35-.87,1.24,1.24,0,0,0-.65-.59.15.15,0,0,0-.2.17c.08.48.31,1.53.93,1.52A.26.26,0,0,0,52.67,51.23Z"/><path class="cls-4" d="M55.7,49.68a7,7,0,0,0-.4-1,3.34,3.34,0,0,0-.57-1,.19.19,0,0,0-.33.11A3.46,3.46,0,0,0,54.55,49a2.12,2.12,0,0,0,.51,1A.37.37,0,0,0,55.7,49.68Z"/><path class="cls-4" d="M57.18,47.63a1.32,1.32,0,0,0-.52-1.32.22.22,0,0,0-.33.22,11.37,11.37,0,0,1,.11,1.16C56.48,48.13,57.13,48,57.18,47.63Z"/><path class="cls-4" d="M53.07,48.19c-.14-.26-.3-.52-.44-.79s-.18-.24-.25-.39a1.33,1.33,0,0,0-.15-.32.15.15,0,0,0-.25.05.81.81,0,0,0,0,.41,2.09,2.09,0,0,0,.06.56,1.83,1.83,0,0,0,.55.91C52.84,48.84,53.23,48.47,53.07,48.19Z"/><path class="cls-4" d="M55.25,46a2.91,2.91,0,0,0-.29-.86,3.18,3.18,0,0,0-.23-.4,1.35,1.35,0,0,0-.17-.17.13.13,0,0,0-.24.05,2.09,2.09,0,0,1,0,.21,2,2,0,0,0,0,.43,2.92,2.92,0,0,0,.31,1A.34.34,0,0,0,55.25,46Z"/><path class="cls-4" d="M56.09,43.41a1.51,1.51,0,0,0-.83-.8.14.14,0,0,0-.17.19c.12.31.27.61.37.93s.15.75.48.87a.24.24,0,0,0,.23,0C56.48,44.25,56.25,43.74,56.09,43.41Z"/><path class="cls-4" d="M47.12,52.15a7.53,7.53,0,0,0-.43-.85,7,7,0,0,0-.5-.89.15.15,0,0,0-.27.05,1.85,1.85,0,0,0,0,1.09c.09.34.33.9.72,1C46.9,52.58,47.21,52.43,47.12,52.15Z"/><path class="cls-4" d="M48.5,49.42a.14.14,0,0,0-.07.19c.18.34.35.67.5,1a.34.34,0,0,0,.62,0C49.74,50,49.17,49.19,48.5,49.42Z"/><path class="cls-4" d="M47.62,49a1.08,1.08,0,0,0-.07-.47L47.34,48a3.87,3.87,0,0,0-.57-1,.18.18,0,0,0-.3.15c.06.37.12.77.21,1.14a2.7,2.7,0,0,0,.2.54.68.68,0,0,0,.42.36A.25.25,0,0,0,47.62,49Z"/><path class="cls-4" d="M50.44,48a1.78,1.78,0,0,0-.57-1.3.17.17,0,0,0-.29.05,1.81,1.81,0,0,0,.22,1.47A.37.37,0,0,0,50.44,48Z"/><path class="cls-4" d="M52.3,43.78A.23.23,0,0,0,52,44c.08.49.24.94.28,1.44a.37.37,0,0,0,.66.13A1.42,1.42,0,0,0,52.3,43.78Z"/><path class="cls-4" d="M50.67,45A10.8,10.8,0,0,0,50,43.52a.2.2,0,0,0-.38.13,2.85,2.85,0,0,0,.5,1.66C50.31,45.54,50.77,45.37,50.67,45Z"/><path class="cls-4" d="M53.94,42.93A6.7,6.7,0,0,0,53.6,42a2.91,2.91,0,0,0-.29-.76.16.16,0,0,0-.24,0c-.48.47-.14,1.56.21,2A.38.38,0,0,0,53.94,42.93Z"/><path class="cls-4" d="M54.1,39.43a1.43,1.43,0,0,0-.48-.9.14.14,0,0,0-.2.07,1.75,1.75,0,0,0,0,1,4.53,4.53,0,0,0,.29,1.18c.12.18.43.22.5,0A2.58,2.58,0,0,0,54.1,39.43Z"/><path class="cls-4" d="M51.18,41.56a1.91,1.91,0,0,0-.6-.78.14.14,0,0,0-.21.14c.06.32.14.64.22.95a1.24,1.24,0,0,0,.48.82.24.24,0,0,0,.36-.18A1.64,1.64,0,0,0,51.18,41.56Z"/><path class="cls-4" d="M45.72,48c-.11-.23-.27-.4-.37-.64a3.14,3.14,0,0,1-.17-.67.21.21,0,0,0-.37-.08,1.14,1.14,0,0,0-.19,1c.08.36.38.86.8.83C45.65,48.43,45.84,48.23,45.72,48Z"/><path class="cls-4" d="M48.23,45a2.53,2.53,0,0,0-.28-.63,1.52,1.52,0,0,0-.39-.37c-.1-.07-.25,0-.19.16.17.28.07,2.27.75,1.94C48.5,45.87,48.33,45.27,48.23,45Z"/><path class="cls-4" d="M46.1,45.14a2.19,2.19,0,0,0-.44-.84,7.57,7.57,0,0,1-.52-.74.17.17,0,0,0-.3.1,2.24,2.24,0,0,0,.2.83,3.21,3.21,0,0,0,.46.95.36.36,0,0,0,.33.11.28.28,0,0,0,.15-.08A.34.34,0,0,0,46.1,45.14Z"/><path class="cls-4" d="M49,42.18a1.2,1.2,0,0,0-.83-.78.15.15,0,0,0-.16.18,2.7,2.7,0,0,0,.16.48c.08.2.13.42.21.63s.31.85.68.56S49.09,42.46,49,42.18Z"/><path class="cls-4" d="M43.71,44.05a8.62,8.62,0,0,1-.49-1.12.16.16,0,0,0-.28,0,1.23,1.23,0,0,0,.36,1.6A.31.31,0,0,0,43.71,44.05Z"/><path class="cls-4" d="M46,41.38a4.8,4.8,0,0,0-.78-1.33.17.17,0,0,0-.3.11,3,3,0,0,0,.67,2,.37.37,0,0,0,.34.12C46.4,42.19,46.11,41.65,46,41.38Z"/><path class="cls-4" d="M48.85,39.34c-.15-.27-.2-.59-.35-.85a.17.17,0,0,0-.29,0c-.42.49,0,1.82.62,1.92a.29.29,0,0,0,.29-.2C49.2,39.88,49,39.61,48.85,39.34Z"/><path class="cls-4" d="M51.44,37.17a.17.17,0,0,0-.23.15,7.24,7.24,0,0,0,.13,1.47.35.35,0,0,0,.68,0C52.17,38.31,52,37.4,51.44,37.17Z"/><path class="cls-4" d="M53.33,36.1a2,2,0,0,0-.69-1c-.09-.08-.27,0-.23.15a5.3,5.3,0,0,1,.2,1.18c0,.27,0,.89.46.77S53.42,36.42,53.33,36.1Z"/><path class="cls-4" d="M43.89,40.52a2.74,2.74,0,0,1-.3-.78,3.14,3.14,0,0,0-.19-.87.21.21,0,0,0-.36,0A1.7,1.7,0,0,0,42.86,40a1.11,1.11,0,0,0,.62,1A.34.34,0,0,0,43.89,40.52Z"/><path class="cls-4" d="M47,39.2c-.14-.54-.28-1.74-1-1.9a.13.13,0,0,0-.17.11,6.82,6.82,0,0,0,.13.89,3,3,0,0,0,.34,1.13C46.55,39.75,47.11,39.61,47,39.2Z"/><path class="cls-4" d="M50.06,36.58a4.31,4.31,0,0,0-.48-1.15.21.21,0,0,0-.38,0,2.33,2.33,0,0,0,0,1c.07.32.19.74.56.77S50.13,36.81,50.06,36.58Z"/><path class="cls-4" d="M52.18,33.08a4.53,4.53,0,0,0-.54-1.21.12.12,0,0,0-.23.05,5,5,0,0,0,0,1.22c0,.26,0,1,.42.93S52.23,33.4,52.18,33.08Z"/><path class="cls-4" d="M47.56,35.77a3.6,3.6,0,0,0-.37-1.12.15.15,0,0,0-.29.05,3.77,3.77,0,0,0,0,1.38c.08.39.4,1,.89.9a.22.22,0,0,0,.19-.21C47.94,36.43,47.65,36.1,47.56,35.77Z"/><path class="cls-4" d="M50.42,32.16a.2.2,0,0,0-.34.12,5.94,5.94,0,0,0,0,.73,3,3,0,0,0,0,.79.37.37,0,0,0,.7.05A1.91,1.91,0,0,0,50.42,32.16Z"/><path class="cls-4" d="M52.73,30.48a1.67,1.67,0,0,0-.21-1.05c-.11-.16-.35-.07-.41.08s-.49,2,.19,1.88C52.69,31.31,52.7,30.8,52.73,30.48Z"/><path class="cls-4" d="M51.3,29.09c0-.28.06-.55-.09-.81a.17.17,0,0,0-.27-.06c-.23.23-.23.54-.33.83a2.12,2.12,0,0,0-.06,1,.32.32,0,0,0,.23.26.41.41,0,0,0,.19,0,.4.4,0,0,0,.29-.33A4.9,4.9,0,0,0,51.3,29.09Z"/><path class="cls-4" d="M44.82,36.58a1.72,1.72,0,0,0-.49-1.06.19.19,0,0,0-.28.09,2.69,2.69,0,0,0,0,1.13c0,.3.1,1,.57.89S44.87,36.88,44.82,36.58Z"/><path class="cls-4" d="M48.45,31.27a.18.18,0,0,0-.31.06,10.1,10.1,0,0,0-.22,1.74c-.05.44.56.51.72.15A2,2,0,0,0,48.45,31.27Z"/><path class="cls-4" d="M46.58,33.83c0-.17,0-.34,0-.51a1.3,1.3,0,0,0-.14-.91.19.19,0,0,0-.27,0c-.24.19-.27.6-.32.89a1.68,1.68,0,0,0,0,.5.77.77,0,0,0,.16.42.24.24,0,0,0,.44,0A1.13,1.13,0,0,0,46.58,33.83Z"/><path class="cls-4" d="M42.34,37.77a1.88,1.88,0,0,0-.12-.78.21.21,0,0,0-.35,0,1.53,1.53,0,0,0,0,1.62.24.24,0,0,0,.4-.07A1.73,1.73,0,0,0,42.34,37.77Z"/><path class="cls-4" d="M54.2,86.08a1.4,1.4,0,0,0-1.11-1.23c-.18,0-.27.19-.21.33a4,4,0,0,0,.67,1.12A.37.37,0,0,0,54.2,86.08Z"/><path class="cls-4" d="M51.77,84.08a2.83,2.83,0,0,0-.92-.77c-.13,0-.3.08-.26.22a2.35,2.35,0,0,0,1.19,1.41.32.32,0,0,0,.31-.06C52.4,84.6,52,84.27,51.77,84.08Z"/><path class="cls-4" d="M55.08,83.86a1.87,1.87,0,0,0-.92-1.45.19.19,0,0,0-.29.2,6,6,0,0,0,.5,1.4C54.52,84.34,55.1,84.25,55.08,83.86Z"/><path class="cls-4" d="M52.29,81.62a.23.23,0,0,0-.36.17,1.66,1.66,0,0,0,.32.83c.16.23.37.57.65.66a.3.3,0,0,0,.38-.18C53.45,82.53,52.68,81.92,52.29,81.62Z"/><path class="cls-4" d="M55.75,80.92a.21.21,0,0,0-.35.07,1.71,1.71,0,0,0,0,.84,1.18,1.18,0,0,0,.37.8.25.25,0,0,0,.36-.07C56.46,82.13,56.12,81.25,55.75,80.92Z"/><path class="cls-4" d="M49.76,83.07a.35.35,0,0,0-.15-.12,1.93,1.93,0,0,1-.7-.41c-.12-.18-.45-.17-.46.09a1,1,0,0,0,1.13.88.28.28,0,0,0,.18-.14h0A.2.2,0,0,0,49.76,83.07Z"/><path class="cls-4" d="M51.48,81.78a3,3,0,0,0-.56-.91c-.18-.25-.4-.58-.71-.67a.14.14,0,0,0-.18.15,3.56,3.56,0,0,0,.33,1,1.09,1.09,0,0,0,.86.72A.25.25,0,0,0,51.48,81.78Z"/><path class="cls-4" d="M54.22,80.85a2.93,2.93,0,0,0-.34-1,2,2,0,0,0-.59-.81.29.29,0,0,0-.44.29c.11.58.41,1.54,1,1.72C54,81.11,54.23,81,54.22,80.85Z"/><path class="cls-4" d="M56.2,78.74a.14.14,0,0,0-.1.21,3.85,3.85,0,0,1,.41.71,6.54,6.54,0,0,1,.17.86.37.37,0,0,0,.7,0C57.63,79.91,57.05,78.53,56.2,78.74Z"/><path class="cls-4" d="M55.32,79a2.68,2.68,0,0,0-.79-1.31.17.17,0,0,0-.25.08,1.81,1.81,0,0,0,.41,1.54A.37.37,0,0,0,55.32,79Z"/><path class="cls-4" d="M58.44,78.08a1.9,1.9,0,0,0-.63-.9c-.27-.23-.65.21-.41.45a1.41,1.41,0,0,1,.36.94c0,.26.21.69.55.5S58.52,78.38,58.44,78.08Z"/><path class="cls-4" d="M48.33,80a.18.18,0,0,0-.31.15c0,.45.38,1.58,1,1.33S48.52,80.17,48.33,80Z"/><path class="cls-4" d="M46.75,79.9a5.56,5.56,0,0,0-.75-.85.19.19,0,0,0-.3.14,2,2,0,0,0,.28,1c.15.26.53.66.86.45S46.9,80.09,46.75,79.9Z"/><path class="cls-4" d="M52.06,79.29a3.16,3.16,0,0,0-.72-1.38A.23.23,0,0,0,51,78a3,3,0,0,0,.35,1.51A.41.41,0,0,0,52.06,79.29Z"/><path class="cls-4" d="M49.1,78.15a4.29,4.29,0,0,0-.68-1.08.18.18,0,0,0-.31.1,2.25,2.25,0,0,0,.2,1.14c.11.3.43.75.8.61S49.21,78.35,49.1,78.15Z"/><path class="cls-4" d="M53.21,76.38a.77.77,0,0,0-.8-.55.17.17,0,0,0-.13.2c.07.28.17.55.24.83s.18.69.58.75a.23.23,0,0,0,.22-.11C53.55,77.19,53.36,76.69,53.21,76.38Z"/><path class="cls-4" d="M56.72,76.55c-.17-.52-.58-.71-1-1-.18-.16-.41.06-.39.26a1.6,1.6,0,0,0,.38.81,1.1,1.1,0,0,0,.48.43h0a.29.29,0,0,0,.42-.12A.39.39,0,0,0,56.72,76.55Z"/><path class="cls-4" d="M59.71,76.15c-.12-.33-.55-.83-1-.71a.24.24,0,0,0-.19.28c0,.21.2.36.26.55a1,1,0,0,1,0,.61.35.35,0,0,0,.48.42A.87.87,0,0,0,59.71,76.15Z"/><path class="cls-4" d="M57.07,74.29a.22.22,0,0,0-.34.17c-.07.37.23,1.45.79,1.18S57.36,74.46,57.07,74.29Z"/><path class="cls-4" d="M59.16,74.05a.17.17,0,0,0-.13.2,1.54,1.54,0,0,0,.34.54,1.52,1.52,0,0,0,.58.52.25.25,0,0,0,.32-.15C60.42,74.56,59.73,74,59.16,74.05Z"/><path class="cls-4" d="M51.2,76.2c-.16-.27-.31-.52-.45-.79a1,1,0,0,0-.67-.61c-.09,0-.18.1-.16.18.07.3.16.59.24.88a1.13,1.13,0,0,0,.61.82A.35.35,0,0,0,51.2,76.2Z"/><path class="cls-4" d="M54.47,75.16a2.89,2.89,0,0,0-.72-1.37.17.17,0,0,0-.3.1,2.48,2.48,0,0,0,.34,1.5A.36.36,0,0,0,54.47,75.16Z"/><path class="cls-4" d="M57.12,72.53a1.67,1.67,0,0,0-1-.66.16.16,0,0,0-.16.25c.06.08.09.2.16.29a5.33,5.33,0,0,1,.32.46c.16.25.23.63.47.81a.26.26,0,0,0,.24,0C57.63,73.46,57.34,72.84,57.12,72.53Z"/><path class="cls-4" d="M55.45,72.68a1,1,0,0,0-.36-.58c-.2-.18-.44-.24-.61-.45a.17.17,0,0,0-.3.15,3.16,3.16,0,0,0,.24.63,5.61,5.61,0,0,0,.41.55A.36.36,0,0,0,55.45,72.68Z"/><path class="cls-4" d="M51.9,74.05c-.16-.27-.35-.52-.52-.78a4.56,4.56,0,0,0-.49-.72.2.2,0,0,0-.35.12,2.08,2.08,0,0,0,.88,1.79.35.35,0,0,0,.4,0l.06-.07A.31.31,0,0,0,51.9,74.05Z"/><path class="cls-4" d="M54.54,69.62a1,1,0,0,0-1-.32.2.2,0,0,0-.09.27c.17.32.5.55.7.86s.48.48.73.19S54.74,69.8,54.54,69.62Z"/><path class="cls-4" d="M52.68,71.88a7.43,7.43,0,0,0-.6-.76.23.23,0,0,0-.4.13,2,2,0,0,0,.29,1c.15.28.4.65.73.71a.25.25,0,0,0,.33-.21A1.22,1.22,0,0,0,52.68,71.88Z"/><path class="cls-4" d="M47.05,77a10.1,10.1,0,0,0-.91-.81.25.25,0,0,0-.44.21,1.37,1.37,0,0,0,1.09,1.13A.32.32,0,0,0,47.05,77Z"/><path class="cls-4" d="M49.21,75.41a9.92,9.92,0,0,0-1.46-1.51c-.09-.08-.21,0-.22.11-.11.74.67,1.54,1.2,1.94a.33.33,0,0,0,.5-.13v0A.36.36,0,0,0,49.21,75.41Z"/><path class="cls-4" d="M51,69c-.09,0-.19.08-.16.18.11.38.87,1.8,1.4,1.34S51.4,68.94,51,69Z"/><path class="cls-4" d="M44.88,77.35a6,6,0,0,0-.65-.68,5.62,5.62,0,0,0-.68-.7.27.27,0,0,0-.42.2c0,.69.74,1.74,1.51,1.66A.34.34,0,0,0,44.88,77.35Z"/><path class="cls-4" d="M46.86,74.29a3.86,3.86,0,0,0-1.14-1.1c-.12-.1-.25,0-.24.16a2.33,2.33,0,0,0,.74,1.37C46.52,75,47.09,74.7,46.86,74.29Z"/><path class="cls-4" d="M43.88,73.93c-.24-.33-.55-.61-.78-.94-.09-.14-.28,0-.27.13a2.67,2.67,0,0,0,.41,1.11c.19.31.45.78.84.83a.22.22,0,0,0,.23-.15C44.41,74.54,44.08,74.21,43.88,73.93Z"/><path class="cls-4" d="M49.07,72.75c-.14-.55-.68-1.45-1.33-1.45a.23.23,0,0,0-.22.34c.11.24.27.46.4.7a2.35,2.35,0,0,0,.54.81C48.72,73.39,49.15,73.06,49.07,72.75Z"/><path class="cls-4" d="M50.43,71.26c.07-.31-.18-.59-.35-.82a4.1,4.1,0,0,0-.75-.81.18.18,0,0,0-.27.14,2.06,2.06,0,0,0,.34,1c.18.3.43.66.8.72C50.33,71.5,50.41,71.38,50.43,71.26Z"/><path class="cls-4" d="M52.48,67.38a1.61,1.61,0,0,0-1-.67.2.2,0,0,0-.19.29c.18.27.37.53.54.81s.31.63.66.75a.26.26,0,0,0,.34-.16A1.1,1.1,0,0,0,52.48,67.38Z"/><path class="cls-4" d="M41.8,73.45a6.93,6.93,0,0,0-.68-.93.17.17,0,0,0-.3.06A1.59,1.59,0,0,0,41,73.66c.15.29.56.88,1,.69S42,73.68,41.8,73.45Z"/><path class="cls-4" d="M45.12,72.39a2.9,2.9,0,0,0-.55-.61,3.39,3.39,0,0,0-.64-.67.15.15,0,0,0-.21.07c-.3.66.6,2.1,1.34,1.51A.26.26,0,0,0,45.12,72.39Z"/><path class="cls-4" d="M47.75,70a2.31,2.31,0,0,0-1.11-1.76.2.2,0,0,0-.3.19,3.38,3.38,0,0,0,.31.82,9.1,9.1,0,0,0,.45.88C47.26,70.39,47.75,70.38,47.75,70Z"/><path class="cls-4" d="M45.84,70.92a1.26,1.26,0,0,0-.47-.83.2.2,0,0,0-.35.17,1.26,1.26,0,0,0,.37.88A.29.29,0,0,0,45.84,70.92Z"/><path class="cls-4" d="M49.61,67.72a4.64,4.64,0,0,0-.87-1,.22.22,0,0,0-.34.23,4.49,4.49,0,0,0,.43,1.1c.19.32.61.87,1,.57S49.77,67.94,49.61,67.72Z"/><path class="cls-4" d="M50.25,64.89c-.25-.31-.62-.77-1.06-.76a.18.18,0,0,0-.19.21,4.48,4.48,0,0,0,.56,1c.17.32.34.79.68,1a.27.27,0,0,0,.4-.14A1.44,1.44,0,0,0,50.25,64.89Z"/><path class="cls-4" d="M42.13,71.22a14.19,14.19,0,0,1-1.22-1.47c-.07-.09-.25,0-.24.08a2.6,2.6,0,0,0,.24,1.06,1.61,1.61,0,0,0,.85.87A.34.34,0,0,0,42.13,71.22Z"/><path class="cls-4" d="M44.44,68.83a2.42,2.42,0,0,0-.5-.74c-.18-.21-.36-.43-.53-.66a.14.14,0,0,0-.23,0A1.61,1.61,0,0,0,44,69.2.33.33,0,0,0,44.44,68.83Z"/><path class="cls-4" d="M47.21,66.59a3.79,3.79,0,0,0-.52-.8,2,2,0,0,0-.6-.59.21.21,0,0,0-.31.21,2.56,2.56,0,0,0,.89,1.64C47,67.28,47.34,66.91,47.21,66.59Z"/><path class="cls-4" d="M47.91,64.56A3.15,3.15,0,0,0,47,63.25a.18.18,0,0,0-.29.14A2.41,2.41,0,0,0,47.32,65,.36.36,0,0,0,47.91,64.56Z"/><path class="cls-4" d="M48.75,62c-.24-.29-.48-.65-.89-.65a.21.21,0,0,0-.2.29c.13.34.37.64.53,1s.45.76.75.45S49,62.27,48.75,62Z"/><path class="cls-4" d="M39.6,69.43a6.11,6.11,0,0,0-.51-1.14.27.27,0,0,0-.5.1A1.55,1.55,0,0,0,39,69.72C39.23,69.92,39.72,69.8,39.6,69.43Z"/><path class="cls-4" d="M41.79,68.49A3.48,3.48,0,0,0,40.58,67a.16.16,0,0,0-.25.16,2.94,2.94,0,0,0,.92,1.8C41.57,69.18,41.92,68.8,41.79,68.49Z"/><path class="cls-4" d="M44.48,66.29a2.82,2.82,0,0,0-.38-.78,3.76,3.76,0,0,0-.44-.68.22.22,0,0,0-.37.07c-.24.53.18,1.31.5,1.72S44.6,66.67,44.48,66.29Z"/><path class="cls-4" d="M44.85,62a.19.19,0,0,0-.33.11c-.06.52.2,1.45.77,1.56.15,0,.27-.1.33-.22C45.85,62.94,45.14,62.3,44.85,62Z"/><path class="cls-4" d="M46.82,61.41a2.53,2.53,0,0,0-1.09-1.5c-.08,0-.23,0-.22.11a2.7,2.7,0,0,0,.62,1.72C46.4,62,46.93,61.83,46.82,61.41Z"/><path class="cls-4" d="M45.62,57.25a.15.15,0,0,0-.23.15,3.18,3.18,0,0,0,.54,1.2c.16.25.47.83.86.64C47.49,58.89,45.94,57.45,45.62,57.25Z"/><path class="cls-4" d="M42.12,65.92A3.39,3.39,0,0,0,41,64.31c-.1-.08-.22,0-.24.12a2.84,2.84,0,0,0,.57,1.74A.4.4,0,0,0,42.12,65.92Z"/><path class="cls-4" d="M39.31,66.75a13.9,13.9,0,0,0-1.19-1.47.13.13,0,0,0-.22,0,2.08,2.08,0,0,0,.91,1.87A.35.35,0,0,0,39.31,66.75Z"/><path class="cls-4" d="M37.23,64.23a9.87,9.87,0,0,0-.7-.75.26.26,0,0,0-.45.22A1.14,1.14,0,0,0,37,64.76.32.32,0,0,0,37.23,64.23Z"/><path class="cls-4" d="M39.39,63.28a4.1,4.1,0,0,0-.84-1.18.17.17,0,0,0-.29.14,4.17,4.17,0,0,0,.37,1.28c.15.37.34.9.78,1a.24.24,0,0,0,.22-.1C39.82,64,39.57,63.63,39.39,63.28Z"/><path class="cls-4" d="M43.62,63.73a2.15,2.15,0,0,0-1-1.15c-.17-.1-.46,0-.39.26A3.21,3.21,0,0,0,43,64C43.21,64.28,43.74,64.11,43.62,63.73Z"/><path class="cls-4" d="M41.47,62.42c-.26-.43-.52-.86-.81-1.26,0-.07-.14,0-.19,0-.45.53,0,1.46.6,1.7A.33.33,0,0,0,41.47,62.42Z"/><path class="cls-4" d="M44,61.22a1.29,1.29,0,0,0-.46-.81,6.41,6.41,0,0,1-.63-.65c-.07-.11-.29-.15-.33,0a1.18,1.18,0,0,0,0,.46,1.38,1.38,0,0,0,.27.54,1.32,1.32,0,0,0,.91.66A.23.23,0,0,0,44,61.22Z"/><path class="cls-4" d="M43.2,57.73A.21.21,0,0,0,43,58a5.78,5.78,0,0,0,.55.75c.19.25.3.53.59.67a.26.26,0,0,0,.32-.16C44.78,58.63,43.81,57.74,43.2,57.73Z"/><path class="cls-4" d="M41.21,59.69a1.7,1.7,0,0,0-.77-.71c-.23-.11-.41.18-.33.37a5.35,5.35,0,0,0,.43.78c.14.23.25.56.53.64a.25.25,0,0,0,.29-.1C41.59,60.37,41.37,60,41.21,59.69Z"/><path class="cls-4" d="M39.21,61a2.79,2.79,0,0,0-1-1.82c-.2-.16-.48.1-.37.32a18.64,18.64,0,0,1,.77,1.71.34.34,0,0,0,.28.18.27.27,0,0,0,.24-.08A.31.31,0,0,0,39.21,61Z"/><path class="cls-4" d="M37,61.69a4.87,4.87,0,0,0-.38-.88c-.14-.25-.31-.48-.45-.73a.15.15,0,0,0-.29.06,1.66,1.66,0,0,0,0,.91,3.29,3.29,0,0,0,.46.94A.36.36,0,0,0,37,61.69Z"/><path class="cls-4" d="M35.25,58.69a2.73,2.73,0,0,1-.14-.63,4.71,4.71,0,0,0,0-.75.21.21,0,0,0-.35-.12,1.35,1.35,0,0,0,.07,1.89C35.07,59.29,35.34,59,35.25,58.69Z"/><path class="cls-4" d="M37,57.68l-.31-.53a1.67,1.67,0,0,0-.16-.24c-.07-.08-.16-.13-.22-.21s-.23,0-.21.11a1.32,1.32,0,0,1,0,.26,1.61,1.61,0,0,0,0,.38.91.91,0,0,0,.44.66C36.74,58.25,37.17,58,37,57.68Z"/><path class="cls-4" d="M41.72,58.41c.07-.68-.64-1.14-1-1.57a.13.13,0,0,0-.22.11,4.48,4.48,0,0,0,.7,1.65A.33.33,0,0,0,41.72,58.41Z"/><path class="cls-4" d="M38.72,57.1a1.75,1.75,0,0,0-.43-.67.16.16,0,0,0-.24.08,1.32,1.32,0,0,0,0,.81,1.21,1.21,0,0,0,.42.8.31.31,0,0,0,.48-.24A1.39,1.39,0,0,0,38.72,57.1Z"/><path class="cls-4" d="M44.24,55.81a3.35,3.35,0,0,0-.5-.8,1.52,1.52,0,0,0-.55-.52c-.08,0-.24-.07-.29,0a.09.09,0,0,0,0,.1,2.13,2.13,0,0,0,.33.91c.1.21.2.42.31.63l.14.25a.86.86,0,0,0,.14.18l.09,0h0a.26.26,0,0,0,.3-.08A.75.75,0,0,0,44.24,55.81Z"/><path class="cls-4" d="M41.9,56a5,5,0,0,0-.73-.92.14.14,0,0,0-.23.12,2.48,2.48,0,0,0,.43,1c.17.27.28.66.62.73.1,0,.17-.07.21-.14C42.34,56.51,42.05,56.21,41.9,56Z"/><path class="cls-4" d="M39.87,55.18a6.15,6.15,0,0,1-.28-.71,3.29,3.29,0,0,0-.33-.8c-.11-.18-.48-.17-.47.1,0,.58,0,1.6.69,1.84A.32.32,0,0,0,39.87,55.18Z"/><path class="cls-4" d="M41.35,52.31c-.05-.09-.23-.11-.26,0a1.68,1.68,0,0,0,.15,1.12c.12.29.5.8.87.69C42.8,53.94,41.51,52.57,41.35,52.31Z"/><path class="cls-4" d="M44.22,53.28a1.43,1.43,0,0,0-.95-.66.11.11,0,0,0-.12.13,3.34,3.34,0,0,0,.41.85,2.66,2.66,0,0,0,.51.9.24.24,0,0,0,.33-.06C44.69,54.1,44.42,53.6,44.22,53.28Z"/><path class="cls-4" d="M36.85,53.25c-.1-.15-.3-.12-.32.06a8.73,8.73,0,0,0,0,1.77.35.35,0,0,0,.22.33h.09a.31.31,0,0,0,.29-.14A2.21,2.21,0,0,0,36.85,53.25Z"/><path class="cls-4" d="M35,55.85A8.08,8.08,0,0,0,34.62,54a.21.21,0,0,0-.42,0,3.08,3.08,0,0,0,.15,2,.32.32,0,0,0,.27.18.29.29,0,0,0,.16,0A.31.31,0,0,0,35,55.85Z"/><path class="cls-4" d="M39.88,52.41a1,1,0,0,0-.07-.42c-.07-.16-.15-.32-.21-.48a4.79,4.79,0,0,0-.46-1,.23.23,0,0,0-.37,0,1.39,1.39,0,0,0,0,1.11,2.44,2.44,0,0,0,.28.56,1,1,0,0,0,.47.4A.25.25,0,0,0,39.88,52.41Z"/><path class="cls-4" d="M42.65,50.34a3.06,3.06,0,0,0-.7-1,.26.26,0,0,0-.44.14,2,2,0,0,0,.28,1.08c.12.25.29.75.66.68S42.77,50.61,42.65,50.34Z"/><path class="cls-4" d="M40.1,49.07c-.14-.31-.27-.63-.43-.93a.24.24,0,0,0-.44.09c-.09.48.17,1.59.75,1.67a.21.21,0,0,0,.19-.1A.79.79,0,0,0,40.1,49.07Z"/><path class="cls-4" d="M41.92,47a2.9,2.9,0,0,0-.41-.53,1.09,1.09,0,0,0-.42-.23.15.15,0,0,0-.22.18c0,.1,0,.21.08.31s.15.35.22.53a2.63,2.63,0,0,0,.45.9.25.25,0,0,0,.4,0A1.08,1.08,0,0,0,41.92,47Z"/><path class="cls-4" d="M37.59,51.39a2,2,0,0,0-.85-1.06c-.11-.06-.29,0-.25.17.11.41.28.82.43,1.22.09.24.24,1,.67.83S37.7,51.69,37.59,51.39Z"/><path class="cls-4" d="M35.1,51.33a.21.21,0,0,0-.36.13,4.88,4.88,0,0,0,0,.93,3.7,3.7,0,0,0,.16.94.32.32,0,0,0,.56,0A2,2,0,0,0,35.1,51.33Z"/><path class="cls-4" d="M33.21,54.12a4.48,4.48,0,0,0-.1-.81,2.86,2.86,0,0,0-.21-.76.2.2,0,0,0-.33,0,1.93,1.93,0,0,0,0,1.72A.35.35,0,0,0,33.21,54.12Z"/><path class="cls-4" d="M38,49.05a2.72,2.72,0,0,0-.2-.93,2.43,2.43,0,0,0-.3-.83.18.18,0,0,0-.25,0c-.25.21-.19.6-.16.89a3.29,3.29,0,0,0,.31,1A.32.32,0,0,0,38,49.05Z"/><path class="cls-4" d="M35.36,48.47a.25.25,0,0,0-.43,0c-.29.47-.1,1.1-.11,1.63a.37.37,0,0,0,.72.14A2.69,2.69,0,0,0,35.36,48.47Z"/><path class="cls-4" d="M33.81,51.29a3.39,3.39,0,0,0-.25-1.09.15.15,0,0,0-.28,0,3.38,3.38,0,0,0-.12,1c0,.27,0,.7.27.85a.21.21,0,0,0,.25,0C33.89,51.85,33.83,51.56,33.81,51.29Z"/><path class="cls-4" d="M40,46.56a2.29,2.29,0,0,0-.77-1.6.23.23,0,0,0-.36.23,5.74,5.74,0,0,0,.48,1.59A.35.35,0,0,0,40,46.56Z"/><path class="cls-4" d="M40.82,44.26a3.75,3.75,0,0,0,0-.58,2,2,0,0,0-.42-1,.25.25,0,0,0-.44.21c.06.32.08.64.12,1,0,.16,0,.32,0,.48a1,1,0,0,0,.19.39.2.2,0,0,0,.37,0A1.24,1.24,0,0,0,40.82,44.26Z"/><path class="cls-4" d="M37.42,44.5a.12.12,0,0,0-.2,0,1.57,1.57,0,0,0-.14,1c0,.31,0,.86.22,1.1a.22.22,0,0,0,.27,0C38.2,46.22,37.61,45,37.42,44.5Z"/><path class="cls-4" d="M36.25,47.53a3.94,3.94,0,0,0,0-.69c0-.26,0-.53-.09-.78a.24.24,0,0,0-.39-.13,1.63,1.63,0,0,0-.11,1.73A.34.34,0,0,0,36.25,47.53Z"/><path class="cls-4" d="M38.71,43a2.81,2.81,0,0,0-.13-1.12.17.17,0,0,0-.29,0,2,2,0,0,0-.27,1c-.05.31-.16.8.09,1a.25.25,0,0,0,.26,0C38.7,43.79,38.69,43.34,38.71,43Z"/><path class="cls-4" d="M40.47,40.92a3.15,3.15,0,0,0,0-1,.21.21,0,0,0-.33-.11,1.34,1.34,0,0,0-.36.8,2.11,2.11,0,0,0,0,.56,1.28,1.28,0,0,0,.13.42.24.24,0,0,0,.41,0,1,1,0,0,0,.16-.31C40.44,41.2,40.46,41.06,40.47,40.92Z"/><path class="cls-4" d="M47.27,101.57c.11-.6-.67-1.19-1.12-1.44-.13-.07-.33,0-.28.19a2.64,2.64,0,0,0,.35.69,6.32,6.32,0,0,0,.47.75A.33.33,0,0,0,47.27,101.57Z"/><path class="cls-4" d="M45.26,99.81l-.65-.66c-.11-.11-.22-.22-.34-.32s-.2-.07-.3-.11-.24.07-.2.18a2.11,2.11,0,0,0,.07.3,2.48,2.48,0,0,0,.26.4,2.16,2.16,0,0,0,.81.72C45.2,100.46,45.48,100,45.26,99.81Z"/><path class="cls-4" d="M47.08,98.62a2.34,2.34,0,0,0-.86-1,.2.2,0,0,0-.29.25A12,12,0,0,0,46.48,99c.11.2.31.9.67.61S47.21,98.9,47.08,98.62Z"/><path class="cls-4" d="M45.56,98.3a2.31,2.31,0,0,0-.5-.78,1.52,1.52,0,0,0-.68-.65.21.21,0,0,0-.28.24,2.47,2.47,0,0,0,.48.83c.2.27.4.56.76.61A.22.22,0,0,0,45.56,98.3Z"/><path class="cls-4" d="M47.63,96.66c-.15-.07-.26.11-.21.24a7.6,7.6,0,0,1,.38,1.23c.06.33.6.41.69.05A1.33,1.33,0,0,0,47.63,96.66Z"/><path class="cls-4" d="M42.41,97.32c-.14-.15-.29-.29-.42-.45a.66.66,0,0,0-.15-.14v0l0,0a.13.13,0,0,0-.17,0,.21.21,0,0,0-.16.18,1.61,1.61,0,0,0,1.08,1.44.33.33,0,0,0,.36-.12C43.14,97.83,42.6,97.51,42.41,97.32Z"/><path class="cls-4" d="M41.62,96.65h0Z"/><path class="cls-4" d="M45.79,95.57a1.84,1.84,0,0,0-.19-.51,2.18,2.18,0,0,0-.55-.66.19.19,0,0,0-.29.1,1,1,0,0,0,.09.73,3,3,0,0,0,.2.4,3.27,3.27,0,0,0,.28.41.24.24,0,0,0,.4-.07A1.11,1.11,0,0,0,45.79,95.57Z"/><path class="cls-4" d="M42.83,96c-.16-.18-.37-.3-.51-.49a4.77,4.77,0,0,0-.43-.64.24.24,0,0,0-.41.2c0,.54.46,1.42,1.07,1.49A.34.34,0,0,0,42.83,96Z"/><path class="cls-4" d="M49.42,94.73a1.94,1.94,0,0,0-.9-.89c-.11-.06-.25,0-.19.16s.21.56.32.83a3.22,3.22,0,0,1,.14.44c0,.17,0,.33.11.48a.24.24,0,0,0,.26.13C49.7,95.78,49.6,95.1,49.42,94.73Z"/><path class="cls-4" d="M47.26,94.38a3.22,3.22,0,0,0-.63-1.13.2.2,0,0,0-.35.12,3.23,3.23,0,0,0,.24,1.14A3.48,3.48,0,0,0,47,95.58a.23.23,0,0,0,.39-.08A1.56,1.56,0,0,0,47.26,94.38Z"/><path class="cls-4" d="M43.2,94.42c-.15-.24-.33-.45-.47-.7a2.5,2.5,0,0,0-.46-.7c-.1-.1-.33-.07-.32.11,0,.56.21,1.71,1,1.71C43.12,94.85,43.33,94.62,43.2,94.42Z"/><path class="cls-4" d="M49.83,92.07a.19.19,0,0,0-.18.27c.06.15.16.28.23.43a2.58,2.58,0,0,1,.16.56.33.33,0,0,0,.65,0C50.79,92.78,50.41,92.06,49.83,92.07Z"/><path class="cls-4" d="M47.61,91a.16.16,0,0,0-.28.14,2.09,2.09,0,0,0,.29.75,1.7,1.7,0,0,0,.44.67.25.25,0,0,0,.32-.06C48.79,92,48,91.32,47.61,91Z"/><path class="cls-4" d="M44.4,92.43a2.52,2.52,0,0,0-.76-.83.24.24,0,0,0-.35.3,4.81,4.81,0,0,0,.56,1c.19.28.41.63.77.6a.22.22,0,0,0,.17-.15C44.89,93,44.58,92.7,44.4,92.43Z"/><path class="cls-4" d="M51.52,90.16a1.79,1.79,0,0,0-1-.54.14.14,0,0,0-.15.22c.19.23.37.49.55.73a4.7,4.7,0,0,0,.48.74.26.26,0,0,0,.39,0C52,90.92,51.8,90.45,51.52,90.16Z"/><path class="cls-4" d="M46,91.24c-.27-.24-.48-.54-.74-.78a.25.25,0,0,0-.43.21,1.42,1.42,0,0,0,1,1.21.33.33,0,0,0,.37-.12C46.27,91.56,46.13,91.37,46,91.24Z"/><path class="cls-4" d="M49.6,90.08a3,3,0,0,0-.2-.4L49,89.19a1.68,1.68,0,0,0-.91-.63.15.15,0,0,0-.14.21,4.44,4.44,0,0,0,.59,1,3.22,3.22,0,0,0,.32.41,1.06,1.06,0,0,0,.46.26A.23.23,0,0,0,49.6,90.08Z"/><path class="cls-4" d="M52.23,88.69a1,1,0,0,0-.32-.21.42.42,0,0,0-.22,0c-.06,0-.25.05-.06,0a.17.17,0,0,0-.17.19c-.05.19.09.37.2.53s.32.48.56.54a.35.35,0,0,0,.46-.3C52.73,89.16,52.44,88.87,52.23,88.69Z"/><path class="cls-4" d="M50.53,87.89c.06-.32-.21-.59-.41-.81a1.76,1.76,0,0,0-.86-.46A.21.21,0,0,0,49,87c.21.22.4.46.62.67s.34.43.64.49C50.42,88.13,50.51,88,50.53,87.89Z"/><path class="cls-4" d="M40.64,95.28c.06-.32-.26-.64-.47-.86a2.47,2.47,0,0,0-.77-.6c-.17-.08-.3.13-.24.27a4.17,4.17,0,0,0,.49.77c.2.28.36.61.72.67C40.52,95.56,40.62,95.41,40.64,95.28Z"/><path class="cls-4" d="M41.2,93.11a1.23,1.23,0,0,0-.36-.9c-.17-.19-.47-.38-.58-.61a.14.14,0,0,0-.26.05,2.9,2.9,0,0,0,.57,1.58A.33.33,0,0,0,41.2,93.11Z"/><path class="cls-4" d="M38.69,91.61a6.59,6.59,0,0,1-.44-.72.33.33,0,0,0-.34-.17c.06,0-.18-.07-.15-.06-.17,0-.32.14-.19.28a1,1,0,0,1,.14.43,1.71,1.71,0,0,0,.23.47c.16.27.46.65.81.57a.22.22,0,0,0,.17-.14A.8.8,0,0,0,38.69,91.61Z"/><path class="cls-4" d="M42.33,91.18a2.51,2.51,0,0,0-.32-.66,1.79,1.79,0,0,0-.44-.58.17.17,0,0,0-.25.08,1.49,1.49,0,0,0,.54,1.47A.31.31,0,0,0,42.33,91.18Z"/><path class="cls-4" d="M46.5,89.12c-.09-.12-.2-.23-.29-.34s-.16-.24-.18-.15a.19.19,0,0,0-.27-.18c-.27.14-.22.47-.13.71s.35.84.69,1a.33.33,0,0,0,.42-.21C46.87,89.64,46.65,89.32,46.5,89.12Z"/><path class="cls-4" d="M44.46,89.27a2,2,0,0,0-.57-1,5.66,5.66,0,0,0-.69-.78c-.12-.09-.25,0-.28.14a1.49,1.49,0,0,0,.35,1,2,2,0,0,0,.89.83A.24.24,0,0,0,44.46,89.27Z"/><path class="cls-4" d="M48,87.34c-.2-.69-1-1.57-1.8-1.14-.13.07-.16.33,0,.37.52.1.88.65,1.15,1.07a.29.29,0,0,0,.2.11.24.24,0,0,0,.36-.13l-.05.06A.35.35,0,0,0,48,87.34Z"/><path class="cls-4" d="M45.79,87.44c-.14-.52-.77-.78-1-1.28-.1-.26-.51-.11-.45.15.13.56.53,1.34,1.16,1.43A.25.25,0,0,0,45.79,87.44Z"/><path class="cls-4" d="M47.4,85.39c0-.35-.38-.56-.63-.78a2.65,2.65,0,0,0-1-.63.16.16,0,0,0-.2.22,4.61,4.61,0,0,0,.75,1c.27.26.53.55.93.51A.23.23,0,0,0,47.4,85.39Z"/><path class="cls-4" d="M40.36,89.92c-.1-.34-.5-.56-.74-.81a2.66,2.66,0,0,0-.86-.71.16.16,0,0,0-.21.19,2.18,2.18,0,0,0,.66,1c.24.25.61.64,1,.53A.21.21,0,0,0,40.36,89.92Z"/><path class="cls-4" d="M42.13,89.21a1.39,1.39,0,0,0-.46-.95,4.27,4.27,0,0,0-.93-.87.16.16,0,0,0-.24.16,2.66,2.66,0,0,0,.48,1c.2.31.47.73.84.85A.24.24,0,0,0,42.13,89.21Z"/><path class="cls-4" d="M37.67,89.46a.61.61,0,0,0-.13-.22,4,4,0,0,0-.37-.45,2.89,2.89,0,0,0-.78-.7c-.13-.07-.35,0-.34.16a2,2,0,0,0,.55,1,1.84,1.84,0,0,0,.45.43.53.53,0,0,0,.28.14c.05,0,.4-.09.15,0a.21.21,0,0,0,.18-.21C37.66,89.72,37.68,89.48,37.67,89.46Z"/><path class="cls-4" d="M39.49,87.12a3,3,0,0,0-1.29-1.41.17.17,0,0,0-.21.19,3.22,3.22,0,0,0,.88,1.63C39.16,87.8,39.71,87.52,39.49,87.12Z"/><path class="cls-4" d="M43.12,85.93a2.36,2.36,0,0,0-.82-.75c-.12-.07-.32,0-.27.18a5.2,5.2,0,0,0,.43.89c.11.21.31.74.64.57S43.28,86.18,43.12,85.93Z"/><path class="cls-4" d="M40.91,85.62a1.71,1.71,0,0,0-.81-1,.19.19,0,0,0-.29.19,1.65,1.65,0,0,0,.61,1.11A.32.32,0,0,0,40.91,85.62Z"/><path class="cls-4" d="M44.92,85.07a2.73,2.73,0,0,0-1.25-1.58.18.18,0,0,0-.27.18A3.17,3.17,0,0,0,44,84.84c.18.26.45.9.85.57A.36.36,0,0,0,44.92,85.07Z"/><path class="cls-4" d="M42.74,83.68c0-.27-.26-.44-.43-.65s-.2-.25-.29-.38-.21-.22-.27-.32a.15.15,0,0,0-.29.06.18.18,0,0,0,0,.06v0a.39.39,0,0,0,0,.3,1.6,1.6,0,0,0,.26.58c.18.3.51.68.9.6A.23.23,0,0,0,42.74,83.68Z"/><path class="cls-4" d="M44.93,83c0-.56-.66-1.06-1.18-1.19a.19.19,0,0,0-.23.26c.11.21.24.41.37.61a1.44,1.44,0,0,0,.6.62A.33.33,0,0,0,44.93,83Z"/><path class="cls-4" d="M36.68,86.5a2.78,2.78,0,0,0-.77-.9.18.18,0,0,0-.28.18,7.6,7.6,0,0,0,.43,1c.11.22.27.71.61.55S36.79,86.74,36.68,86.5Z"/><path class="cls-4" d="M34.87,84.65c-.18-.13-.38-.24-.56-.39a1.35,1.35,0,0,1-.39-.55.2.2,0,0,0-.33,0c-.47.69.59,1.6,1.26,1.32A.21.21,0,0,0,34.87,84.65Z"/><path class="cls-4" d="M37.22,84a2.34,2.34,0,0,0-.57-.56l0,0a.13.13,0,0,0-.21-.08s-.08,0-.1.09-.11.19,0,.1c-.11.12,0,.33,0,.46.11.28.43.71.75.73a.32.32,0,0,0,.34-.24A.58.58,0,0,0,37.22,84Z"/><path class="cls-4" d="M40.08,82.41a3.42,3.42,0,0,0-.85-.89.17.17,0,0,0-.26.13,2.27,2.27,0,0,0,.38,1c.1.18.21.35.3.54a1.06,1.06,0,0,0,.33.45.24.24,0,0,0,.32-.06C40.58,83.25,40.28,82.72,40.08,82.41Z"/><path class="cls-4" d="M38.28,83.13A1.54,1.54,0,0,0,38,82.4a2.48,2.48,0,0,0-.48-.67.18.18,0,0,0-.32.15c0,.49.27,1.4.87,1.44A.2.2,0,0,0,38.28,83.13Z"/><path class="cls-4" d="M42.81,80.17a1.87,1.87,0,0,0-1-.76.21.21,0,0,0-.25.29c.12.27.31.5.45.75a6.68,6.68,0,0,0,.37.87.27.27,0,0,0,.37,0C43.14,81.06,43,80.51,42.81,80.17Z"/><path class="cls-4" d="M39.62,79.6a.17.17,0,0,0-.22.19,2.32,2.32,0,0,0,.22.57c.1.2.16.43.37.54a.31.31,0,0,0,.48-.23C40.53,80.23,40,79.78,39.62,79.6Z"/><path class="cls-4" d="M41.3,78.4a1.94,1.94,0,0,0-.5-.88,2.15,2.15,0,0,0-.72-.59.16.16,0,0,0-.21.14,1.49,1.49,0,0,0,.3.75c.16.27.33.53.5.8S41.39,78.8,41.3,78.4Z"/><path class="cls-4" d="M35.25,81.85a1.71,1.71,0,0,0-.81-.74.18.18,0,0,0-.23.2,3.4,3.4,0,0,0,.38.85c.14.29.3.73.6.88a.24.24,0,0,0,.35-.11C35.7,82.57,35.44,82.14,35.25,81.85Z"/><path class="cls-4" d="M33.36,80.51a5.7,5.7,0,0,0-.46-1.21c-.15-.24-.56-.21-.57.11a2,2,0,0,0,.46,1.47A.34.34,0,0,0,33.36,80.51Z"/><path class="cls-4" d="M36.92,80.6a1.31,1.31,0,0,0-.3-.75,2.09,2.09,0,0,0-.64-.74.22.22,0,0,0-.33.22c.07.49.38,1.51,1,1.5A.26.26,0,0,0,36.92,80.6Z"/><path class="cls-4" d="M38.68,78.42a1.36,1.36,0,0,0-.19-.62,1.14,1.14,0,0,0-.83-.6.21.21,0,0,0-.2.29c.1.22.25.42.34.65a3,3,0,0,1,.15.42,1.21,1.21,0,0,0,0,.18l0,.07c.08.06.1.08,0,.06a.25.25,0,0,0,.43,0A.68.68,0,0,0,38.68,78.42Z"/><path class="cls-4" d="M34.62,78.71a4.71,4.71,0,0,1-.32-.59c-.09-.22-.14-.44-.25-.65s-.39-.19-.44,0a1.5,1.5,0,0,0,.63,1.66C34.48,79.26,34.75,78.94,34.62,78.71Z"/><path class="cls-4" d="M36.14,76.63a2.42,2.42,0,0,0-.27-.5,2.83,2.83,0,0,0-.32-.37.14.14,0,0,0-.23.11c0,.3.16,1.81.79,1.5C36.41,77.23,36.23,76.85,36.14,76.63Z"/><path class="cls-4" d="M38.72,76a.76.76,0,0,0-.08-.33,3.84,3.84,0,0,0-.25-.67c-.17-.37-.46-.85-.91-.9a.21.21,0,0,0-.22.25c.12.37.36.7.49,1.06.07.2.15.39.23.58a.92.92,0,0,0,.13.21.33.33,0,0,0,.15.11c.11,0,.12,0,0,0a.24.24,0,0,0,.38-.19C38.68,76.23,38.72,76,38.72,76Z"/><path class="cls-4" d="M31.72,74.8a.15.15,0,0,0-.29,0,2.71,2.71,0,0,0,.15,1.26c.11.28.27.85.68.77C32.9,76.75,31.88,75.08,31.72,74.8Z"/><path class="cls-4" d="M33.82,74.57a3.91,3.91,0,0,0-.58-.91.21.21,0,0,0-.36.12,2.59,2.59,0,0,0,.21,1c.12.33.29.79.68.84a.24.24,0,0,0,.22-.11C34.18,75.21,34,74.88,33.82,74.57Z"/><path class="cls-4" d="M35.66,73.43a4.62,4.62,0,0,0-1-1.52c-.22-.2-.66,0-.48.32.33.55.43,1.23.93,1.66C35.43,74.15,35.78,73.73,35.66,73.43Z"/><path class="cls-4" d="M37.14,71.47a2.61,2.61,0,0,0-.81-1,.16.16,0,0,0-.24.12,2.64,2.64,0,0,0,.27,1.17c.11.28.39.91.8.71S37.26,71.73,37.14,71.47Z"/><path class="cls-4" d="M32.26,72.57a9.07,9.07,0,0,0-.67-1.27.21.21,0,0,0-.39.08,1.68,1.68,0,0,0,.52,1.54A.35.35,0,0,0,32.26,72.57Z"/><path class="cls-4" d="M33.16,70.45a4,4,0,0,0-.58-.94.14.14,0,0,0-.25.08,3.69,3.69,0,0,0,.13,1.1c.09.31.2.87.57,1a.24.24,0,0,0,.27-.1C33.55,71.25,33.29,70.76,33.16,70.45Z"/><path class="cls-4" d="M35.24,69.92a2.09,2.09,0,0,0-1.18-1.63.25.25,0,0,0-.3.35,6,6,0,0,0,.35.66c.17.27.28.58.44.85a.38.38,0,0,0,.4.2s.07,0,.09,0A.38.38,0,0,0,35.24,69.92Z"/><path class="cls-4" d="M35,66.85a1.48,1.48,0,0,0-.21-.5,1.71,1.71,0,0,0-.64-.64c-.17-.1-.44,0-.38.25a2.36,2.36,0,0,0,.29.65c.08.13.16.26.23.39a2.8,2.8,0,0,0,.24.33.25.25,0,0,0,.42-.08A.77.77,0,0,0,35,66.85Z"/><path class="cls-4" d="M32.7,67.78a2.09,2.09,0,0,0-.18-.55,1.8,1.8,0,0,0-.51-.77.14.14,0,0,0-.2,0c-.19.25-.08.6,0,.87a3.61,3.61,0,0,0,.17.46c0,.09.07.17.11.26s.1.09.12.13.38.19.43,0A.91.91,0,0,0,32.7,67.78Z"/><path class="cls-4" d="M30.82,68.72a1.79,1.79,0,0,0-.64-.88.18.18,0,0,0-.28.18,3.72,3.72,0,0,0,.28.79c.11.3.07.66.32.89a.24.24,0,0,0,.37,0A.9.9,0,0,0,30.82,68.72Z"/><path class="cls-4" d="M30.91,65.63a2.85,2.85,0,0,0-.46-1.43.18.18,0,0,0-.31.06,1.78,1.78,0,0,0,.17,1.66C30.54,66.23,30.94,65.94,30.91,65.63Z"/><path class="cls-4" d="M33.38,64.94a1.75,1.75,0,0,0-.8-1.49.16.16,0,0,0-.24.17,9.36,9.36,0,0,0,.34,1.46C32.8,65.43,33.39,65.3,33.38,64.94Z"/><path class="cls-4" d="M31.34,62.7a9.19,9.19,0,0,0-.53-1.25.26.26,0,0,0-.49.16A3.62,3.62,0,0,0,30.73,63C30.93,63.29,31.42,63,31.34,62.7Z"/><path class="cls-4" d="M33.11,62a5.22,5.22,0,0,0-.47-1.12.33.33,0,0,0-.59.29,6.81,6.81,0,0,1,.35,1.08c.06.22.17.94.57.75S33.17,62.31,33.11,62Z"/><path class="cls-4" d="M31.4,60a2.9,2.9,0,0,0-.54-1.29c-.09-.12-.27,0-.29.1a4.58,4.58,0,0,0,.12,1.33A.36.36,0,0,0,31.4,60Z"/><path class="cls-4" d="M32.15,57a5.62,5.62,0,0,0-.1-.7c0-.14-.08-.71-.36-.6s-.28.52-.3.76a2.73,2.73,0,0,0,0,.57,1.88,1.88,0,0,0,.2.62.24.24,0,0,0,.44,0A1.3,1.3,0,0,0,32.15,57Z"/><path class="cls-4" d="M29.57,75.37a.18.18,0,0,0-.31.11,1.6,1.6,0,0,0,0,.69,2.36,2.36,0,0,0,.18.74.33.33,0,0,0,.61,0A1.63,1.63,0,0,0,29.57,75.37Z"/><path class="cls-4" d="M29.54,72.2a.13.13,0,0,0-.17.09,1.81,1.81,0,0,0,.11.86c.09.3.13.69.39.9a.23.23,0,0,0,.27,0C30.59,73.54,30.07,72.46,29.54,72.2Z"/><path class="cls-4" d="M29.4,70.31c0-.16-.07-.31-.11-.46a1.88,1.88,0,0,0-.35-.79.27.27,0,0,0-.47.15,5.74,5.74,0,0,0,.23,1.33,1.24,1.24,0,0,0,.25.35.25.25,0,0,0,.43-.15A1.55,1.55,0,0,0,29.4,70.31Z"/><path class="cls-4" d="M43.52,113.27c-.1-.55-.61-.88-1-1.24a.13.13,0,0,0-.22.11,2.45,2.45,0,0,0,.64,1.4A.32.32,0,0,0,43.52,113.27Z"/><path class="cls-4" d="M42.13,112.77c0-.28-.32-.54-.49-.76a1.3,1.3,0,0,0-.69-.51c-.15,0-.35.11-.25.28.26.41.57,1.32,1.14,1.32A.28.28,0,0,0,42.13,112.77Z"/><path class="cls-4" d="M43.84,111.05a1,1,0,0,0-.06-.42,2.08,2.08,0,0,0-.32-.51c-.23-.29-.5-.53-.76-.8a.17.17,0,0,0-.29.14,2.9,2.9,0,0,0,1.07,1.76A.23.23,0,0,0,43.84,111.05Z"/><path class="cls-4" d="M43.47,114c-.25-.17-.5.11-.42.36s.75,1.43,1.23,1S43.76,114.19,43.47,114Z"/><path class="cls-4" d="M44,106.8a.28.28,0,0,0-.43.28c.12.47.38,1.28.89,1.45a.26.26,0,0,0,.33-.16C45,107.82,44.42,107.11,44,106.8Z"/><path class="cls-4" d="M44.34,109.87A.18.18,0,0,0,44,110c0,.29.21,1.46.7,1.22S44.59,110.1,44.34,109.87Z"/><path class="cls-4" d="M44.46,103.67a.18.18,0,0,0-.1.28c.18.23.42.42.61.64s.41.59.73.7a.23.23,0,0,0,.29-.14C46.2,104.43,45.12,103.54,44.46,103.67Z"/><path class="cls-4" d="M45.39,106.3a1.67,1.67,0,0,0-.32-.33c-.14-.12-.31-.18-.44-.3a.16.16,0,0,0-.27.18,2.76,2.76,0,0,0,.86,1.31.23.23,0,0,0,.34-.11A.79.79,0,0,0,45.39,106.3Z"/><path class="cls-4" d="M42.45,107a3.88,3.88,0,0,0-1.31-1c-.14,0-.32.08-.28.24a2.27,2.27,0,0,0,1.22,1.32.33.33,0,0,0,.33-.07.28.28,0,0,0,.1-.14A.35.35,0,0,0,42.45,107Z"/><path class="cls-4" d="M43,104.7a1.69,1.69,0,0,0-1.39-1.29.13.13,0,0,0-.12.19,5.66,5.66,0,0,0,.52.79,1.21,1.21,0,0,0,.7.56A.22.22,0,0,0,43,104.7Z"/><path class="cls-4" d="M43.82,103.13c-.1-.6-.77-1.12-1.25-1.45a.25.25,0,0,0-.36.31,2.74,2.74,0,0,0,1.29,1.43A.25.25,0,0,0,43.82,103.13Z"/><path class="cls-4" d="M40.87,109.49a2.1,2.1,0,0,0-.64-.62.13.13,0,0,0-.16-.05c-.29.17-.09.62,0,.84a2.39,2.39,0,0,0,.85,1.12.33.33,0,0,0,.44-.29C41.42,110.14,41.07,109.74,40.87,109.49Z"/><path class="cls-4" d="M39,108.56a13.78,13.78,0,0,1-1.34-1.18.16.16,0,0,0-.28.13,2.05,2.05,0,0,0,1.33,1.62A.32.32,0,0,0,39,108.56Z"/><path class="cls-4" d="M38.83,105.87a.14.14,0,0,0-.07.21,5.16,5.16,0,0,0,.5.54,3.58,3.58,0,0,0,.67.62.34.34,0,0,0,.35,0C41,106.85,39.35,105.76,38.83,105.87Z"/><path class="cls-4" d="M41.06,104.67a1.69,1.69,0,0,0-1.15-1.08.26.26,0,0,0-.27.41,6.06,6.06,0,0,0,.47.56,1.07,1.07,0,0,0,.65.45C41,105,41.08,104.83,41.06,104.67Z"/><path class="cls-4" d="M41.54,102.56a1.64,1.64,0,0,0-.55-.81,7.14,7.14,0,0,0-.75-.61c-.14-.1-.38,0-.32.22a2.28,2.28,0,0,0,.42.8,2,2,0,0,0,.84.72A.28.28,0,0,0,41.54,102.56Z"/><path class="cls-4" d="M40.4,99.56a2.48,2.48,0,0,0-.73-.64.3.3,0,0,0-.34.5,3.49,3.49,0,0,1,.52.62c.16.22.3.48.61.49a.23.23,0,0,0,.23-.15C40.8,100.06,40.58,99.8,40.4,99.56Z"/><path class="cls-4" d="M38,103.47c-.12-.08-.31,0-.27.17.1.37.21,1.14.64,1.26a.22.22,0,0,0,.24-.08C38.94,104.39,38.3,103.69,38,103.47Z"/><path class="cls-4" d="M37.2,105.09c-.33-.45-.79-1.09-1.36-1.22a.17.17,0,0,0-.21.24,3.16,3.16,0,0,0,1.14,1.46.33.33,0,0,0,.32,0,.35.35,0,0,0,.16-.18A.31.31,0,0,0,37.2,105.09Z"/><path class="cls-4" d="M38.17,100.4c-.21-.1-.36.15-.29.32s.77,1.72,1.21,1.28S38.6,100.59,38.17,100.4Z"/><path class="cls-4" d="M36.39,101.93a10.72,10.72,0,0,0-.8-.85c-.12-.09-.25,0-.24.16a2.4,2.4,0,0,0,.47,1c.17.26.45.79.81.79a.22.22,0,0,0,.22-.15C37,102.59,36.6,102.16,36.39,101.93Z"/><path class="cls-4" d="M34.31,101c-.27-.34-.49-.7-.77-1a.18.18,0,0,0-.31.15,2.81,2.81,0,0,0,.38,1.12c.18.29.57.75,1,.52S34.45,101.11,34.31,101Z"/><path class="cls-4" d="M36.86,99.85a2.61,2.61,0,0,0-.37-.7c-.19-.25-.44-.49-.61-.75a.13.13,0,0,0-.25.08,2.39,2.39,0,0,0,.73,1.7A.32.32,0,0,0,36.86,99.85Z"/><path class="cls-4" d="M38.44,97.85a2.07,2.07,0,0,0-.32-.58,1.79,1.79,0,0,0-1-.67.17.17,0,0,0-.18.2,3.41,3.41,0,0,0,.5.79,5.39,5.39,0,0,0,.57.84.23.23,0,0,0,.39-.08A.78.78,0,0,0,38.44,97.85Z"/><path class="cls-4" d="M36.66,97.32A3,3,0,0,0,35.74,96a.17.17,0,0,0-.26.18,5.28,5.28,0,0,0,.62,1.42.32.32,0,0,0,.34.17l.14-.07A.34.34,0,0,0,36.66,97.32Z"/><path class="cls-4" d="M34.07,97.65c-.19-.35-.32-.72-.5-1.08a.15.15,0,0,0-.28,0,1.39,1.39,0,0,0,.13,1.14c.1.24.22.46.34.69a1.17,1.17,0,0,0,.39.56.27.27,0,0,0,.42-.21C34.6,98.38,34.25,98,34.07,97.65Z"/><path class="cls-4" d="M32.43,95.78A6.89,6.89,0,0,1,32,95a6.32,6.32,0,0,1-.24-.85.22.22,0,0,0-.41,0,1.9,1.9,0,0,0,.58,2.1C32.2,96.38,32.6,96.08,32.43,95.78Z"/><path class="cls-4" d="M34.4,94.72c-.28-.43-.64-.81-.92-1.24-.07-.1-.25-.09-.25,0a2,2,0,0,0,.57,1.59C34.07,95.37,34.64,95.1,34.4,94.72Z"/><path class="cls-4" d="M36.06,94c-.22-.43-.53-.79-.71-1.23s-.71-.14-.6.2a9.54,9.54,0,0,0,.51,1.18c.13.27.33.86.72.78S36.18,94.21,36.06,94Z"/><path class="cls-4" d="M32.15,92.69a3,3,0,0,0-.46-.81A1.18,1.18,0,0,0,31,91.3a.18.18,0,0,0-.19.17,2.6,2.6,0,0,0,.29.79,1.62,1.62,0,0,0,.56.75C31.88,93.12,32.23,93,32.15,92.69Z"/><path class="cls-4" d="M33.6,91.88a1.87,1.87,0,0,0-1-1.38.15.15,0,0,0-.19.18c.09.32.57,2,1.1,1.52A.37.37,0,0,0,33.6,91.88Z"/><path class="cls-4" d="M30.72,89.74c-.24-.44-.49-.88-.75-1.31a.27.27,0,0,0-.5.17,2.22,2.22,0,0,0,.78,1.54.31.31,0,0,0,.32,0,.28.28,0,0,0,.13-.11A.31.31,0,0,0,30.72,89.74Z"/><path class="cls-4" d="M34.32,90.64c-.17-.23-.43-.39-.59-.62a.14.14,0,0,0-.24.08,1.89,1.89,0,0,0,.13.7,1.51,1.51,0,0,0,.48.72.23.23,0,0,0,.31-.06C34.62,91.23,34.47,90.86,34.32,90.64Z"/><path class="cls-4" d="M32.07,88.33a1.64,1.64,0,0,0-.66-.72.14.14,0,0,0-.19.13,3.31,3.31,0,0,0,.24.91,1.8,1.8,0,0,0,.57.94.25.25,0,0,0,.38-.19A2,2,0,0,0,32.07,88.33Z"/><path class="cls-4" d="M32.45,87c-.12-.1-.26,0-.25.17a1.82,1.82,0,0,0,.73,1.3.2.2,0,0,0,.24-.08C33.47,87.91,32.8,87.35,32.45,87Z"/><path class="cls-4" d="M30.23,86.6a4,4,0,0,0-.51-.92.28.28,0,0,0-.48.16A1.78,1.78,0,0,0,29.7,87C30,87.25,30.34,86.92,30.23,86.6Z"/><path class="cls-4" d="M30.9,84.46c-.12,0-.22.08-.2.19,0,.3.14.59.2.89s.14.54.42.44a.33.33,0,0,0,.25-.29A1.19,1.19,0,0,0,30.9,84.46Z"/><path class="cls-4" d="M30.08,84a4,4,0,0,0-.87-1.84c-.17-.17-.52,0-.38.25.34.55.25,1.26.58,1.82C29.61,84.54,30.19,84.4,30.08,84Z"/><path class="cls-4" d="M31,82.77a2.07,2.07,0,0,0-.21-.88,1.53,1.53,0,0,0-.42-.66.14.14,0,0,0-.2,0,1,1,0,0,0-.07.75,3.74,3.74,0,0,0,.27.88A.33.33,0,0,0,31,82.77Z"/><path class="cls-4" d="M29.76,80.3a4.36,4.36,0,0,0-.13-.87,3.73,3.73,0,0,0-.17-.82.25.25,0,0,0-.43,0,1.9,1.9,0,0,0,.15,1.92.31.31,0,0,0,.31.11l.08,0A.34.34,0,0,0,29.76,80.3Z"/><text class="cls-5" transform="translate(42.14 76.32) scale(1.17 1)"><tspan class="cls-6">P</tspan><tspan x="11.77" y="0">.I 1</tspan></text></g></g></svg>