<svg xmlns="http://www.w3.org/2000/svg" xmlns:xlink="http://www.w3.org/1999/xlink" viewBox="0 0 719.11 602.35"><defs><style>.cls-1,.cls-2{fill:none;}.cls-2{stroke:#1d1d1b;stroke-width:0.3px;stroke-dasharray:2 2;}.cls-3,.cls-6{fill:#fff;}.cls-3,.cls-5{stroke:#000;stroke-miterlimit:10;}.cls-4{fill:#400000;}.cls-7{fill:red;}.cls-8{fill:#643030;}.cls-9{opacity:0.34;fill:url(#USGS_19_Inundación_de_tierra);}</style><pattern id="USGS_19_Inundación_de_tierra" data-name="USGS 19 Inundación de tierra" width="72" height="72" patternUnits="userSpaceOnUse" viewBox="0 0 72 72"><rect class="cls-1" width="72" height="72"/><line class="cls-2" x1="71" y1="71" x2="144.44" y2="71"/><line class="cls-2" x1="71" y1="67" x2="144.44" y2="67"/><line class="cls-2" x1="71" y1="63" x2="144.44" y2="63"/><line class="cls-2" x1="71" y1="59" x2="144.44" y2="59"/><line class="cls-2" x1="71" y1="55" x2="144.44" y2="55"/><line class="cls-2" x1="71" y1="51" x2="144.44" y2="51"/><line class="cls-2" x1="71" y1="47" x2="144.44" y2="47"/><line class="cls-2" x1="71" y1="43" x2="144.44" y2="43"/><line class="cls-2" x1="71" y1="39" x2="144.44" y2="39"/><line class="cls-2" x1="71" y1="35" x2="144.44" y2="35"/><line class="cls-2" x1="71" y1="31" x2="144.44" y2="31"/><line class="cls-2" x1="71" y1="27" x2="144.44" y2="27"/><line class="cls-2" x1="71" y1="23" x2="144.44" y2="23"/><line class="cls-2" x1="71" y1="19" x2="144.44" y2="19"/><line class="cls-2" x1="71" y1="15" x2="144.44" y2="15"/><line class="cls-2" x1="71" y1="11" x2="144.44" y2="11"/><line class="cls-2" x1="71" y1="7" x2="144.44" y2="7"/><line class="cls-2" x1="71" y1="3" x2="144.44" y2="3"/><line class="cls-2" x1="-1" y1="71" x2="72.44" y2="71"/><line class="cls-2" x1="-1" y1="67" x2="72.44" y2="67"/><line class="cls-2" x1="-1" y1="63" x2="72.44" y2="63"/><line class="cls-2" x1="-1" y1="59" x2="72.44" y2="59"/><line class="cls-2" x1="-1" y1="55" x2="72.44" y2="55"/><line class="cls-2" x1="-1" y1="51" x2="72.44" y2="51"/><line class="cls-2" x1="-1" y1="47" x2="72.44" y2="47"/><line class="cls-2" x1="-1" y1="43" x2="72.44" y2="43"/><line class="cls-2" x1="-1" y1="39" x2="72.44" y2="39"/><line class="cls-2" x1="-1" y1="35" x2="72.44" y2="35"/><line class="cls-2" x1="-1" y1="31" x2="72.44" y2="31"/><line class="cls-2" x1="-1" y1="27" x2="72.44" y2="27"/><line class="cls-2" x1="-1" y1="23" x2="72.44" y2="23"/><line class="cls-2" x1="-1" y1="19" x2="72.44" y2="19"/><line class="cls-2" x1="-1" y1="15" x2="72.44" y2="15"/><line class="cls-2" x1="-1" y1="11" x2="72.44" y2="11"/><line class="cls-2" x1="-1" y1="7" x2="72.44" y2="7"/><line class="cls-2" x1="-1" y1="3" x2="72.44" y2="3"/><line class="cls-2" x1="1.04" y1="69" x2="74.48" y2="69"/><line class="cls-2" x1="1.04" y1="65" x2="74.48" y2="65"/><line class="cls-2" x1="1.04" y1="61" x2="74.48" y2="61"/><line class="cls-2" x1="1.04" y1="57" x2="74.48" y2="57"/><line class="cls-2" x1="1.04" y1="53" x2="74.48" y2="53"/><line class="cls-2" x1="1.04" y1="49" x2="74.48" y2="49"/><line class="cls-2" x1="1.04" y1="45" x2="74.48" y2="45"/><line class="cls-2" x1="1.04" y1="41" x2="74.48" y2="41"/><line class="cls-2" x1="1.04" y1="37" x2="74.48" y2="37"/><line class="cls-2" x1="1.04" y1="33" x2="74.48" y2="33"/><line class="cls-2" x1="1.04" y1="29" x2="74.48" y2="29"/><line class="cls-2" x1="1.04" y1="25" x2="74.48" y2="25"/><line class="cls-2" x1="1.04" y1="21" x2="74.48" y2="21"/><line class="cls-2" x1="1.04" y1="17" x2="74.48" y2="17"/><line class="cls-2" x1="1.04" y1="13" x2="74.48" y2="13"/><line class="cls-2" x1="1.04" y1="9" x2="74.48" y2="9"/><line class="cls-2" x1="1.04" y1="5" x2="74.48" y2="5"/><line class="cls-2" x1="1.04" y1="1" x2="74.48" y2="1"/><line class="cls-2" x1="-73" y1="71" x2="0.44" y2="71"/><line class="cls-2" x1="-73" y1="67" x2="0.44" y2="67"/><line class="cls-2" x1="-73" y1="63" x2="0.44" y2="63"/><line class="cls-2" x1="-73" y1="59" x2="0.44" y2="59"/><line class="cls-2" x1="-73" y1="55" x2="0.44" y2="55"/><line class="cls-2" x1="-73" y1="51" x2="0.44" y2="51"/><line class="cls-2" x1="-73" y1="47" x2="0.44" y2="47"/><line class="cls-2" x1="-73" y1="43" x2="0.44" y2="43"/><line class="cls-2" x1="-73" y1="39" x2="0.44" y2="39"/><line class="cls-2" x1="-73" y1="35" x2="0.44" y2="35"/><line class="cls-2" x1="-73" y1="31" x2="0.44" y2="31"/><line class="cls-2" x1="-73" y1="27" x2="0.44" y2="27"/><line class="cls-2" x1="-73" y1="23" x2="0.44" y2="23"/><line class="cls-2" x1="-73" y1="19" x2="0.44" y2="19"/><line class="cls-2" x1="-73" y1="15" x2="0.44" y2="15"/><line class="cls-2" x1="-73" y1="11" x2="0.44" y2="11"/><line class="cls-2" x1="-73" y1="7" x2="0.44" y2="7"/><line class="cls-2" x1="-73" y1="3" x2="0.44" y2="3"/><line class="cls-2" x1="-70.96" y1="69" x2="2.48" y2="69"/><line class="cls-2" x1="-70.96" y1="65" x2="2.48" y2="65"/><line class="cls-2" x1="-70.96" y1="61" x2="2.48" y2="61"/><line class="cls-2" x1="-70.96" y1="57" x2="2.48" y2="57"/><line class="cls-2" x1="-70.96" y1="53" x2="2.48" y2="53"/><line class="cls-2" x1="-70.96" y1="49" x2="2.48" y2="49"/><line class="cls-2" x1="-70.96" y1="45" x2="2.48" y2="45"/><line class="cls-2" x1="-70.96" y1="41" x2="2.48" y2="41"/><line class="cls-2" x1="-70.96" y1="37" x2="2.48" y2="37"/><line class="cls-2" x1="-70.96" y1="33" x2="2.48" y2="33"/><line class="cls-2" x1="-70.96" y1="29" x2="2.48" y2="29"/><line class="cls-2" x1="-70.96" y1="25" x2="2.48" y2="25"/><line class="cls-2" x1="-70.96" y1="21" x2="2.48" y2="21"/><line class="cls-2" x1="-70.96" y1="17" x2="2.48" y2="17"/><line class="cls-2" x1="-70.96" y1="13" x2="2.48" y2="13"/><line class="cls-2" x1="-70.96" y1="9" x2="2.48" y2="9"/><line class="cls-2" x1="-70.96" y1="5" x2="2.48" y2="5"/><line class="cls-2" x1="-70.96" y1="1" x2="2.48" y2="1"/></pattern></defs><g id="Capa_2" data-name="Capa 2"><g id="mesas_delanteras" data-name="mesas delanteras"><polyline class="cls-3" points="676.66 338.47 484.04 341.74 484.04 376.02 676.66 376.02 676.66 336.84"/><path class="cls-3" d="M674.46,231.86S609.91,101,709.31,59.33h0s-28.9,123.05-34.85,172.53"/><path class="cls-4" d="M719.11,66.05S671.77,406.8,702.78,593.12H681.56S644,186.91,709.31,59.33Z"/><path class="cls-4" d="M510.16,586.59s-9.79-194.25-4.9-197.51,165.89,0,165.89,0V375.84L484,376l8.16,210.57Z"/><polygon class="cls-4" points="675.03 459.27 498.73 457.64 498.73 472.33 683.19 472.33 675.03 459.27"/><polyline class="cls-3" points="42.44 347.7 235.06 350.96 235.06 385.24 42.44 385.24 42.44 346.07"/><path class="cls-3" d="M44.65,241.09S109.19,110.23,9.79,68.56h0s28.9,123.05,34.86,172.53"/><path class="cls-4" d="M0,75.27S47.34,416,16.32,602.35H37.54S75.09,196.13,9.79,68.56Z"/><path class="cls-4" d="M209,595.82s9.79-194.25,4.89-197.52S48,398.3,48,398.3V385.07l187.11.17L226.9,595.82Z"/><polygon class="cls-4" points="44.07 468.5 220.37 466.86 220.37 481.55 35.91 481.55 44.07 468.5"/><path class="cls-5" d="M344.82,469.31h26.11v62s6.53,35.91,40.81,37.55,62,3.26,62,3.26,16.33,6.53,19.59,14.69,16.33,4.9,16.33,4.9,4.89,6.53-3.27,8.16-297.09,0-297.09,0-4.9-11.42,8.16-8.16c0,0,4.9,1.63,11.43-11.43s53.87-9.79,75.09-11.42,40.81-24.49,42.44-39.18S344.82,469.31,344.82,469.31Z"/><path class="cls-6" d="M176.68,191.81H542.33l24.49,288.93a60.17,60.17,0,0,1-21.22,6.53c-19.4,2.09-25.85-7.42-45.48-6.53-16.95.76-16.28,8-32.88,8.16-18.08.13-20.15-8.5-37.7-8.16-16.6.32-17.54,8.11-34.12,8.16-16.74.05-17.91-7.87-34.78-8.16-17.59-.31-19.13,8.25-37.05,8.16-17.22-.08-18-8-35.2-8.16-18.22-.17-20.21,8.73-38.25,8.16-16.21-.51-16.37-7.74-32.32-8.16-17.46-.46-22.33,8.07-39.51,8.16-12.6.06-22.85-4.47-29.38-8.16Z"/><polygon class="cls-4" points="212.59 191.81 504.79 191.81 359.51 353.41 212.59 191.81"/><g id="botella"><polygon class="cls-7" points="335.84 1.63 350.53 0 350.53 13.06 335.84 11.43 335.84 1.63"/><path class="cls-8" d="M319,191.81h47.09l.8-124.88a26.4,26.4,0,0,0-47.34,0Z"/><polygon class="cls-8" points="335.84 14.69 332.57 14.69 332.57 11.43 352.16 11.43 352.16 14.69 348.9 14.69 348.9 55.5 335.84 55.5 335.84 14.69"/><polygon class="cls-7" points="319.51 93.05 352.16 93.05 350.53 137.12 319.51 137.12 319.51 93.05"/></g><path class="cls-9" d="M174,192H542.87l24.7,291.46a60.64,60.64,0,0,1-21.4,6.59c-19.58,2.11-26.08-7.48-45.88-6.59-17.1.77-16.42,8.11-33.16,8.23-18.24.13-20.33-8.58-38-8.23-16.75.33-17.7,8.18-34.43,8.23-16.88.06-18.06-7.94-35.08-8.23-17.74-.31-19.3,8.32-37.37,8.23-17.38-.08-18.19-8.07-35.51-8.23-18.38-.17-20.39,8.8-38.59,8.23-16.35-.51-16.51-7.81-32.6-8.23-17.62-.47-22.52,8.15-39.85,8.23-12.71.07-23-4.5-29.64-8.23Z"/></g></g></svg>