<svg xmlns="http://www.w3.org/2000/svg" xmlns:xlink="http://www.w3.org/1999/xlink" viewBox="0 0 849.74 654.37"><defs><style>.cls-1,.cls-2{fill:none;}.cls-2{stroke:#1d1d1b;stroke-width:0.5px;}.cls-3{opacity:0.5;}.cls-4{fill:#4f1414;}.cls-4,.cls-8{stroke:#000;stroke-miterlimit:10;}.cls-5{fill:maroon;}.cls-6{fill:#f99;}.cls-7{fill:#ffa5a5;}.cls-9{fill:url(#Arpillera);}</style><pattern id="Arpillera" data-name="Arpillera" width="72" height="72" patternUnits="userSpaceOnUse" viewBox="0 0 72 72"><rect class="cls-1" width="72" height="72"/><line class="cls-2" x1="70.33" y1="72.17" x2="85" y2="72.17"/><line class="cls-2" x1="-1.67" y1="72.17" x2="13" y2="72.17"/><line class="cls-2" x1="68.5" y1="7" x2="83.16" y2="7"/><line class="cls-2" x1="66.83" y1="13.67" x2="81.5" y2="13.67"/><line class="cls-2" x1="70.33" y1="0.17" x2="85" y2="0.17"/><line class="cls-2" x1="71.33" y1="31" x2="86" y2="31"/><line class="cls-2" x1="75.83" y1="2.83" x2="61.16" y2="2.83"/><line class="cls-2" x1="79.33" y1="8.33" x2="64.66" y2="8.33"/><line class="cls-2" x1="61.5" y1="16.51" x2="76.16" y2="16.51"/><line class="cls-2" x1="65.16" y1="65.51" x2="79.83" y2="65.51"/><line class="cls-2" x1="61.5" y1="70.18" x2="76.16" y2="70.18"/><line class="cls-2" x1="66.83" y1="68.18" x2="81.5" y2="68.18"/><line class="cls-2" x1="62.16" y1="63.18" x2="76.83" y2="63.18"/><line class="cls-2" x1="66.83" y1="54.51" x2="81.5" y2="54.51"/><line class="cls-2" x1="63.5" y1="58.84" x2="78.16" y2="58.84"/><line class="cls-2" x1="77" y1="23.33" x2="62.33" y2="23.33"/><line class="cls-2" x1="77.5" y1="26.83" x2="62.83" y2="26.83"/><line class="cls-2" x1="80.5" y1="28.83" x2="65.83" y2="28.83"/><line class="cls-2" x1="66.16" y1="18.67" x2="80.83" y2="18.67"/><line class="cls-2" x1="76.66" y1="32.84" x2="62" y2="32.84"/><line class="cls-2" x1="80.66" y1="34.84" x2="66" y2="34.84"/><line class="cls-2" x1="75" y1="37.17" x2="60.33" y2="37.17"/><line class="cls-2" x1="63.16" y1="51.51" x2="77.83" y2="51.51"/><line class="cls-2" x1="65.16" y1="47.17" x2="79.83" y2="47.17"/><line class="cls-2" x1="65.16" y1="41.84" x2="79.83" y2="41.84"/><line class="cls-2" x1="67.83" y1="44.51" x2="82.5" y2="44.51"/><line class="cls-2" x1="69.83" y1="39.51" x2="84.5" y2="39.51"/><line class="cls-2" x1="9.67" y1="5.67" x2="9.67" y2="20.33"/><line class="cls-2" x1="12.17" y1="8.67" x2="12.17" y2="23.34"/><line class="cls-2" x1="8.5" y1="18.33" x2="8.5" y2="33"/><line class="cls-2" x1="15.83" y1="18.67" x2="15.83" y2="33.34"/><line class="cls-2" x1="6.17" y1="11.67" x2="6.17" y2="26.34"/><line class="cls-2" x1="18.17" y1="8.67" x2="18.17" y2="23.34"/><line class="cls-2" x1="23.67" y1="8.67" x2="23.67" y2="23.34"/><line class="cls-2" x1="25" y1="12.33" x2="25" y2="27"/><line class="cls-2" x1="21.17" y1="3.17" x2="21.17" y2="17.83"/><line class="cls-2" x1="14.67" y1="5.17" x2="14.67" y2="19.83"/><line class="cls-2" x1="1.17" y1="11" x2="15.83" y2="11"/><line class="cls-2" x1="-3.5" y1="7" x2="11.17" y2="7"/><line class="cls-2" x1="-5.17" y1="13.67" x2="9.5" y2="13.67"/><line class="cls-2" x1="13.17" y1="7.33" x2="27.83" y2="7.33"/><line class="cls-2" x1="8" y1="9.17" x2="22.67" y2="9.17"/><line class="cls-2" x1="11.67" y1="17.34" x2="26.33" y2="17.34"/><line class="cls-2" x1="5" y1="14.83" x2="19.67" y2="14.83"/><line class="cls-2" x1="38.5" y1="10" x2="38.5" y2="24.67"/><line class="cls-2" x1="36" y1="13" x2="36" y2="27.67"/><line class="cls-2" x1="42" y1="16" x2="42" y2="30.67"/><line class="cls-2" x1="43.33" y1="23.34" x2="43.33" y2="38"/><line class="cls-2" x1="44.67" y1="16" x2="44.67" y2="30.67"/><line class="cls-2" x1="30" y1="13" x2="30" y2="27.67"/><line class="cls-2" x1="19.83" y1="16.33" x2="19.83" y2="31"/><line class="cls-2" x1="28.33" y1="6.5" x2="28.33" y2="21.17"/><line class="cls-2" x1="26.67" y1="3.17" x2="26.67" y2="17.83"/><line class="cls-2" x1="33.5" y1="8.17" x2="33.5" y2="22.84"/><line class="cls-2" x1="42" y1="14.67" x2="27.33" y2="14.67"/><line class="cls-2" x1="33.67" y1="12.67" x2="19" y2="12.67"/><line class="cls-2" x1="42.5" y1="18.17" x2="27.83" y2="18.17"/><line class="cls-2" x1="36.83" y1="22.01" x2="22.17" y2="22.01"/><line class="cls-2" x1="45.5" y1="20.17" x2="30.83" y2="20.17"/><line class="cls-2" x1="70.84" y1="1.17" x2="70.84" y2="15.83"/><line class="cls-2" x1="66.17" y1="1.17" x2="66.17" y2="15.83"/><line class="cls-2" x1="58.33" y1="1.17" x2="58.33" y2="15.83"/><line class="cls-2" x1="75.83" y1="2.83" x2="61.17" y2="2.83"/><line class="cls-2" x1="74.33" y1="5.33" x2="59.67" y2="5.33"/><line class="cls-2" x1="70.33" y1="9.84" x2="55.67" y2="9.84"/><line class="cls-2" x1="62.33" y1="8.51" x2="47.67" y2="8.51"/><line class="cls-2" x1="79.33" y1="8.33" x2="64.67" y2="8.33"/><line class="cls-2" x1="41.5" y1="2.5" x2="41.5" y2="17.17"/><line class="cls-2" x1="46" y1="5.5" x2="46" y2="20.17"/><line class="cls-2" x1="40" y1="8.5" x2="40" y2="23.17"/><line class="cls-2" x1="52.67" y1="4.84" x2="52.67" y2="19.5"/><line class="cls-2" x1="62.17" y1="8.83" x2="62.17" y2="23.5"/><line class="cls-2" x1="55" x2="55" y2="14.67"/><line class="cls-2" x1="50.16" y1="1" x2="50.16" y2="15.67"/><line class="cls-2" x1="39.83" y1="2.33" x2="54.5" y2="2.33"/><line class="cls-2" x1="47" y1="4.17" x2="61.67" y2="4.17"/><line class="cls-2" x1="38.67" y1="5.83" x2="53.33" y2="5.83"/><line class="cls-2" x1="39.5" y1="10.67" x2="54.17" y2="10.67"/><line class="cls-2" x1="45.17" y1="15.51" x2="59.83" y2="15.51"/><line class="cls-2" x1="48.83" y1="13.51" x2="63.5" y2="13.51"/><line class="cls-2" x1="36.5" y1="12.67" x2="51.17" y2="12.67"/><line class="cls-2" x1="31.5" y1="1.67" x2="31.5" y2="16.33"/><line class="cls-2" x1="29.83" y1="1" x2="29.83" y2="15.67"/><line class="cls-2" x1="23.83" y1="1.67" x2="23.83" y2="16.33"/><line class="cls-2" x1="2" y1="38.34" x2="2" y2="53"/><line class="cls-2" x1="1.5" y1="21.84" x2="1.5" y2="36.5"/><line class="cls-2" x1="2.67" y1="9.83" x2="2.67" y2="24.5"/><line class="cls-2" x1="0.67" y1="7.33" x2="0.67" y2="22"/><line class="cls-2" x1="-1.67" y1="0.17" x2="13" y2="0.17"/><line class="cls-2" x1="6.67" y1="1.83" x2="21.33" y2="1.83"/><line class="cls-2" x1="1.17" y1="4.33" x2="15.83" y2="4.33"/><line class="cls-2" x1="23.17" y1="5" x2="37.83" y2="5"/><line class="cls-2" x1="18.17" y1="3.67" x2="32.83" y2="3.67"/><line class="cls-2" x1="20.17" y1="1" x2="34.83" y2="1"/><line class="cls-2" x1="25.5" y1="9.33" x2="40.17" y2="9.33"/><line class="cls-2" x1="41.67" y1="24.17" x2="27" y2="24.17"/><line class="cls-2" x1="45.67" y1="26.17" x2="31" y2="26.17"/><line class="cls-2" x1="40" y1="28.51" x2="25.33" y2="28.51"/><line class="cls-2" x1="18.17" y1="34.34" x2="18.17" y2="49"/><line class="cls-2" x1="21.67" y1="40.34" x2="21.67" y2="55"/><line class="cls-2" x1="16" y1="36.67" x2="1.33" y2="36.67"/><line class="cls-2" x1="27" y1="40.67" x2="12.33" y2="40.67"/><line class="cls-2" x1="22.17" y1="42.5" x2="7.5" y2="42.5"/><line class="cls-2" x1="25.17" y1="44.5" x2="10.5" y2="44.5"/><line class="cls-2" x1="38" y1="25.5" x2="38" y2="40.17"/><line class="cls-2" x1="39.33" y1="31.34" x2="39.33" y2="46"/><line class="cls-2" x1="23.17" y1="26.84" x2="23.17" y2="41.5"/><line class="cls-2" x1="26.33" y1="21.5" x2="26.33" y2="36.17"/><line class="cls-2" x1="31.67" y1="29.84" x2="31.67" y2="44.5"/><line class="cls-2" x1="34.67" y1="24.34" x2="34.67" y2="39"/><line class="cls-2" x1="33" y1="24" x2="33" y2="38.67"/><line class="cls-2" x1="28.17" y1="26.34" x2="28.17" y2="41"/><line class="cls-2" x1="24.83" y1="39.84" x2="39.5" y2="39.84"/><line class="cls-2" x1="27.5" y1="41.17" x2="42.17" y2="41.17"/><line class="cls-2" x1="30.17" y1="38.51" x2="44.83" y2="38.51"/><line class="cls-2" x1="30.17" y1="33.17" x2="44.83" y2="33.17"/><line class="cls-2" x1="32.83" y1="35.84" x2="47.5" y2="35.84"/><line class="cls-2" x1="46.16" y1="33.17" x2="60.83" y2="33.17"/><line class="cls-2" x1="34.83" y1="30.84" x2="49.5" y2="30.84"/><line class="cls-2" x1="61.5" y1="16.51" x2="76.16" y2="16.51"/><line class="cls-2" x1="45.5" y1="23.51" x2="60.16" y2="23.51"/><line class="cls-2" x1="43.5" y1="21.17" x2="58.16" y2="21.17"/><line class="cls-2" x1="16.17" y1="37" x2="30.83" y2="37"/><line class="cls-2" x1="16.5" y1="35" x2="31.17" y2="35"/><line class="cls-2" x1="30.33" y1="45.84" x2="15.67" y2="45.84"/><line class="cls-2" x1="22" y1="20.84" x2="22" y2="35.5"/><line class="cls-2" x1="19.83" y1="17.33" x2="19.83" y2="32"/><line class="cls-2" x1="10.83" y1="26" x2="25.5" y2="26"/><line class="cls-2" x1="3.83" y1="24.67" x2="18.5" y2="24.67"/><line class="cls-2" x1="5.5" y1="22.67" x2="20.17" y2="22.67"/><line class="cls-2" x1="4.17" y1="20" x2="18.83" y2="20"/><line class="cls-2" x1="13.5" y1="20" x2="28.17" y2="20"/><line class="cls-2" x1="7" y1="43.67" x2="7" y2="58.34"/><line class="cls-2" x1="9.5" y1="46.67" x2="9.5" y2="61.34"/><line class="cls-2" x1="5.83" y1="56.34" x2="5.83" y2="71"/><line class="cls-2" x1="2.83" y1="54" x2="2.83" y2="68.67"/><line class="cls-2" x1="13.17" y1="56.67" x2="13.17" y2="71.34"/><line class="cls-2" x1="15.5" y1="46.67" x2="15.5" y2="61.34"/><line class="cls-2" x1="25" y1="38.33" x2="25" y2="53"/><line class="cls-2" x1="58.5" y1="60" x2="58.5" y2="74.67"/><line class="cls-2" x1="61.33" y1="47.34" x2="61.33" y2="62"/><line class="cls-2" x1="58" y1="64" x2="43.33" y2="64"/><line class="cls-2" x1="62.5" y1="68.17" x2="47.83" y2="68.17"/><line class="cls-2" x1="59.83" y1="70.17" x2="45.17" y2="70.17"/><line class="cls-2" x1="63.83" y1="66.5" x2="49.17" y2="66.5"/><line class="cls-2" x1="63.5" y1="52.5" x2="63.5" y2="67.17"/><line class="cls-2" x1="60" y1="58.5" x2="60" y2="73.17"/><line class="cls-2" x1="48.66" y1="47.84" x2="48.66" y2="62.5"/><line class="cls-2" x1="47" y1="50.5" x2="47" y2="65.17"/><line class="cls-2" x1="45" y1="56.34" x2="45" y2="71"/><line class="cls-2" x1="67.16" y1="54.33" x2="67.16" y2="69"/><line class="cls-2" x1="68.83" y1="48.33" x2="68.83" y2="63"/><line class="cls-2" x1="71.16" y1="46" x2="71.16" y2="60.67"/><line class="cls-2" x1="65.16" y1="65.51" x2="79.83" y2="65.51"/><line class="cls-2" x1="61.5" y1="70.18" x2="76.16" y2="70.18"/><line class="cls-2" x1="66.83" y1="68.18" x2="81.5" y2="68.18"/><line class="cls-2" x1="62.16" y1="63.18" x2="76.83" y2="63.18"/><line class="cls-2" x1="59.16" y1="56.51" x2="73.83" y2="56.51"/><line class="cls-2" x1="66.83" y1="54.51" x2="81.5" y2="54.51"/><line class="cls-2" x1="63.5" y1="58.84" x2="78.16" y2="58.84"/><line class="cls-2" x1="65.33" y1="64" x2="65.33" y2="78.67"/><line class="cls-2" x1="69.67" y1="61.33" x2="69.67" y2="76"/><line class="cls-2" x1="3.5" y1="48.34" x2="18.17" y2="48.34"/><line class="cls-2" x1="8.17" y1="67.67" x2="22.83" y2="67.67"/><line class="cls-2" x1="5" y1="50.84" x2="19.67" y2="50.84"/><line class="cls-2" x1="9" y1="55.34" x2="23.67" y2="55.34"/><line class="cls-2" x1="20" y1="52.34" x2="34.67" y2="52.34"/><line class="cls-2" x1="0.83" y1="52.5" x2="15.5" y2="52.5"/><line class="cls-2" x1="17.67" y1="52" x2="17.67" y2="66.67"/><line class="cls-2" x1="32.33" y1="49.67" x2="17.67" y2="49.67"/><line class="cls-2" x1="34.17" y1="60.01" x2="19.5" y2="60.01"/><line class="cls-2" x1="35.83" y1="61.68" x2="21.17" y2="61.68"/><line class="cls-2" x1="34.34" y1="56.68" x2="19.67" y2="56.68"/><line class="cls-2" x1="39" y1="54.01" x2="24.33" y2="54.01"/><line class="cls-2" x1="19.33" y1="58.84" x2="19.33" y2="73.5"/><line class="cls-2" x1="12.5" y1="38" x2="12.5" y2="52.67"/><line class="cls-2" x1="10.83" y1="32.67" x2="10.83" y2="47.34"/><line class="cls-2" x1="13.83" y1="29.67" x2="13.83" y2="44.34"/><line class="cls-2" x1="8.5" y1="31.34" x2="8.5" y2="46"/><line class="cls-2" x1="4.83" y1="32.34" x2="4.83" y2="47"/><line class="cls-2" x1="6.83" y1="27.67" x2="6.83" y2="42.34"/><line class="cls-2" x1="8.17" y1="64" x2="22.83" y2="64"/><line class="cls-2" x1="1" y1="62.34" x2="15.67" y2="62.34"/><line class="cls-2" x1="2.83" y1="60.67" x2="17.5" y2="60.67"/><line class="cls-2" x1="29.5" y1="50" x2="29.5" y2="64.67"/><line class="cls-2" x1="26.49" y1="43" x2="26.49" y2="57.67"/><line class="cls-2" x1="25.83" y1="59.67" x2="25.83" y2="74.34"/><line class="cls-2" x1="33.17" y1="60" x2="33.17" y2="74.67"/><line class="cls-2" x1="23.5" y1="53" x2="23.5" y2="67.67"/><line class="cls-2" x1="35.5" y1="50" x2="35.5" y2="64.67"/><line class="cls-2" x1="31" y1="58.84" x2="31" y2="73.5"/><line class="cls-2" x1="28" y1="54.84" x2="28" y2="69.5"/><line class="cls-2" x1="28.17" y1="71" x2="42.83" y2="71"/><line class="cls-2" x1="30.17" y1="68.67" x2="44.83" y2="68.67"/><line class="cls-2" x1="37.17" y1="57.67" x2="37.17" y2="72.34"/><line class="cls-2" x1="32.5" y1="45.34" x2="32.5" y2="60"/><line class="cls-2" x1="55" y1="57.67" x2="55" y2="72.34"/><line class="cls-2" x1="48" y1="65.67" x2="48" y2="80.34"/><line class="cls-2" x1="34.17" y1="40.67" x2="34.17" y2="55.34"/><line class="cls-2" x1="28.17" y1="67.34" x2="42.83" y2="67.34"/><line class="cls-2" x1="21.17" y1="66" x2="35.83" y2="66"/><line class="cls-2" x1="13.17" y1="69.34" x2="27.83" y2="69.34"/><line class="cls-2" x1="7.83" y1="70.67" x2="22.5" y2="70.67"/><line class="cls-2" x1="22.83" y1="64" x2="37.5" y2="64"/><line class="cls-2" x1="1.5" y1="58" x2="16.17" y2="58"/><line class="cls-2" x1="10.83" y1="58" x2="25.5" y2="58"/><line class="cls-2" x1="16.5" y1="30.84" x2="31.17" y2="30.84"/><line class="cls-2" x1="7.83" y1="28" x2="22.5" y2="28"/><line class="cls-2" x1="6.67" y1="33.34" x2="21.33" y2="33.34"/><line class="cls-2" x1="-0.67" y1="31" x2="14" y2="31"/><line class="cls-2" x1="47.17" y1="17.33" x2="47.17" y2="32"/><line class="cls-2" x1="50.83" y1="27.34" x2="50.83" y2="42"/><line class="cls-2" x1="52.82" y1="20" x2="52.82" y2="34.67"/><line class="cls-2" x1="58.67" y1="17.33" x2="58.67" y2="32"/><line class="cls-2" x1="60" y1="21" x2="60" y2="35.67"/><line class="cls-2" x1="56.17" y1="11.83" x2="56.17" y2="26.5"/><line class="cls-2" x1="48.67" y1="13.83" x2="48.67" y2="28.5"/><line class="cls-2" x1="46.67" y1="26.01" x2="61.33" y2="26.01"/><line class="cls-2" x1="40.33" y1="48.34" x2="40.33" y2="63"/><line class="cls-2" x1="41.67" y1="55.67" x2="41.67" y2="70.34"/><line class="cls-2" x1="38.34" y1="45.34" x2="38.34" y2="60"/><line class="cls-2" x1="43" y1="48.34" x2="43" y2="63"/><line class="cls-2" x1="65" y1="21.67" x2="65" y2="36.34"/><line class="cls-2" x1="54.83" y1="25" x2="54.83" y2="39.67"/><line class="cls-2" x1="63.33" y1="15.17" x2="63.33" y2="29.84"/><line class="cls-2" x1="67" y1="10.5" x2="67" y2="25.17"/><line class="cls-2" x1="68.51" y1="12.67" x2="68.51" y2="27.33"/><line class="cls-2" x1="70.5" y1="17.5" x2="70.5" y2="32.17"/><line class="cls-2" x1="77" y1="23.33" x2="62.33" y2="23.33"/><line class="cls-2" x1="70" y1="20.33" x2="55.33" y2="20.33"/><line class="cls-2" x1="64.33" y1="18" x2="49.67" y2="18"/><line class="cls-2" x1="68.67" y1="11.67" x2="54" y2="11.67"/><line class="cls-2" x1="77.5" y1="26.83" x2="62.83" y2="26.83"/><line class="cls-2" x1="71.83" y1="30.67" x2="57.17" y2="30.67"/><line class="cls-2" x1="80.5" y1="28.83" x2="65.83" y2="28.83"/><line class="cls-2" x1="41.83" y1="34.84" x2="41.83" y2="49.5"/><line class="cls-2" x1="44.33" y1="37.84" x2="44.33" y2="52.5"/><line class="cls-2" x1="59.67" y1="40.84" x2="59.67" y2="55.5"/><line class="cls-2" x1="46.83" y1="34.34" x2="46.83" y2="49"/><line class="cls-2" x1="37.83" y1="43" x2="52.5" y2="43"/><line class="cls-2" x1="43.5" y1="47.84" x2="58.17" y2="47.84"/><line class="cls-2" x1="66.17" y1="18.67" x2="80.83" y2="18.67"/><line class="cls-2" x1="76.67" y1="32.84" x2="62" y2="32.84"/><line class="cls-2" x1="80.67" y1="34.84" x2="66" y2="34.84"/><line class="cls-2" x1="75" y1="37.17" x2="60.33" y2="37.17"/><line class="cls-2" x1="53.17" y1="43" x2="53.17" y2="57.67"/><line class="cls-2" x1="56.67" y1="49" x2="56.67" y2="63.67"/><line class="cls-2" x1="52.67" y1="56.67" x2="52.67" y2="71.33"/><line class="cls-2" x1="50.33" y1="54.34" x2="50.33" y2="69"/><line class="cls-2" x1="60.17" y1="53.17" x2="45.5" y2="53.17"/><line class="cls-2" x1="52.17" y1="50.5" x2="37.5" y2="50.5"/><line class="cls-2" x1="41.83" y1="47.5" x2="27.17" y2="47.5"/><line class="cls-2" x1="52" y1="31.84" x2="52" y2="46.5"/><line class="cls-2" x1="39" y1="63.67" x2="39" y2="78.34"/><line class="cls-2" x1="65" y1="46.84" x2="65" y2="61.5"/><line class="cls-2" x1="58.16" y1="35.5" x2="58.16" y2="50.17"/><line class="cls-2" x1="61.33" y1="30.17" x2="61.33" y2="44.83"/><line class="cls-2" x1="54.66" y1="41.5" x2="54.66" y2="56.17"/><line class="cls-2" x1="66.66" y1="38.5" x2="66.66" y2="53.17"/><line class="cls-2" x1="69.66" y1="33" x2="69.66" y2="47.67"/><line class="cls-2" x1="68" y1="32.67" x2="68" y2="47.34"/><line class="cls-2" x1="63.16" y1="35" x2="63.16" y2="49.67"/><line class="cls-2" x1="59.83" y1="48.51" x2="74.5" y2="48.51"/><line class="cls-2" x1="63.17" y1="51.51" x2="77.83" y2="51.51"/><line class="cls-2" x1="65.16" y1="47.17" x2="79.83" y2="47.17"/><line class="cls-2" x1="65.16" y1="41.84" x2="79.83" y2="41.84"/><line class="cls-2" x1="67.83" y1="44.51" x2="82.5" y2="44.51"/><line class="cls-2" x1="69.83" y1="39.51" x2="84.5" y2="39.51"/><line class="cls-2" x1="38.17" y1="61.84" x2="52.83" y2="61.84"/><line class="cls-2" x1="42.5" y1="59.18" x2="57.16" y2="59.18"/><line class="cls-2" x1="41.83" y1="54.51" x2="56.5" y2="54.51"/><line class="cls-2" x1="26.17" y1="44.51" x2="40.83" y2="44.51"/><line class="cls-2" x1="51.16" y1="45.67" x2="65.83" y2="45.67"/><line class="cls-2" x1="51.5" y1="43.67" x2="66.16" y2="43.67"/><line class="cls-2" x1="57" y1="29.5" x2="57" y2="44.17"/><line class="cls-2" x1="54.83" y1="26" x2="54.83" y2="40.67"/><line class="cls-2" x1="48.5" y1="31.67" x2="48.5" y2="46.34"/><line class="cls-2" x1="45.83" y1="37.34" x2="60.5" y2="37.34"/><line class="cls-2" x1="48.5" y1="28.67" x2="63.17" y2="28.67"/><line class="cls-2" x1="51.5" y1="39.51" x2="66.17" y2="39.51"/><line class="cls-2" x1="68.5" y1="7" x2="83.17" y2="7"/><line class="cls-2" x1="66.83" y1="13.67" x2="81.5" y2="13.67"/><line class="cls-2" x1="3.83" y1="2.83" x2="-10.83" y2="2.83"/><line class="cls-2" x1="7.33" y1="8.33" x2="-7.33" y2="8.33"/><line class="cls-2" x1="-10.5" y1="16.51" x2="4.16" y2="16.51"/><line class="cls-2" x1="-6.83" y1="65.51" x2="7.83" y2="65.51"/><line class="cls-2" x1="-10.5" y1="70.18" x2="4.17" y2="70.18"/><line class="cls-2" x1="-5.17" y1="68.18" x2="9.5" y2="68.18"/><line class="cls-2" x1="-9.83" y1="63.18" x2="4.83" y2="63.18"/><line class="cls-2" x1="-5.17" y1="54.51" x2="9.5" y2="54.51"/><line class="cls-2" x1="-8.5" y1="58.84" x2="6.17" y2="58.84"/><line class="cls-2" x1="5" y1="23.33" x2="-9.67" y2="23.33"/><line class="cls-2" x1="5.5" y1="26.83" x2="-9.17" y2="26.83"/><line class="cls-2" x1="8.5" y1="28.83" x2="-6.17" y2="28.83"/><line class="cls-2" x1="-5.83" y1="18.67" x2="8.83" y2="18.67"/><line class="cls-2" x1="4.67" y1="32.84" x2="-10" y2="32.84"/><line class="cls-2" x1="8.67" y1="34.84" x2="-6" y2="34.84"/><line class="cls-2" x1="3" y1="37.17" x2="-11.67" y2="37.17"/><line class="cls-2" x1="-8.83" y1="51.51" x2="5.83" y2="51.51"/><line class="cls-2" x1="-6.83" y1="47.17" x2="7.83" y2="47.17"/><line class="cls-2" x1="-6.83" y1="41.84" x2="7.83" y2="41.84"/><line class="cls-2" x1="-4.17" y1="44.51" x2="10.5" y2="44.51"/><line class="cls-2" x1="-2.17" y1="39.51" x2="12.5" y2="39.51"/><line class="cls-2" x1="13" y1="64.84" x2="13" y2="79.5"/><line class="cls-2" x1="10.33" y1="62.5" x2="10.33" y2="77.17"/><line class="cls-2" x1="63.33" y1="68.34" x2="63.33" y2="83"/><line class="cls-2" x1="60.83" y1="67.67" x2="60.83" y2="82.34"/><line class="cls-2" x1="37.5" y1="68.34" x2="37.5" y2="83"/><line class="cls-2" x1="68.67" y1="68.34" x2="68.67" y2="83"/><line class="cls-2" x1="43.17" y1="66.5" x2="43.17" y2="81.17"/><line class="cls-2" x1="16.83" y1="67.67" x2="16.83" y2="82.34"/><line class="cls-2" x1="1.83" y1="67.5" x2="1.83" y2="82.17"/><line class="cls-2" x1="6.83" y1="65.5" x2="6.83" y2="80.17"/><line class="cls-2" x1="34.83" y1="68.34" x2="34.83" y2="83"/><line class="cls-2" x1="58.5" y1="60" x2="58.5" y2="74.67"/><line class="cls-2" x1="33.17" y1="60" x2="33.17" y2="74.67"/><line class="cls-2" x1="3.83" y1="2.83" x2="-10.83" y2="2.83"/><line class="cls-2" x1="2.33" y1="5.33" x2="-12.33" y2="5.33"/><line class="cls-2" x1="7.33" y1="8.33" x2="-7.33" y2="8.33"/><line class="cls-2" x1="-10.5" y1="16.51" x2="4.17" y2="16.51"/><line class="cls-2" x1="-6.83" y1="65.51" x2="7.83" y2="65.51"/><line class="cls-2" x1="-10.5" y1="70.18" x2="4.17" y2="70.18"/><line class="cls-2" x1="-5.17" y1="68.18" x2="9.5" y2="68.18"/><line class="cls-2" x1="-9.83" y1="63.18" x2="4.83" y2="63.18"/><line class="cls-2" x1="-12.83" y1="56.51" x2="1.83" y2="56.51"/><line class="cls-2" x1="-5.17" y1="54.51" x2="9.5" y2="54.51"/><line class="cls-2" x1="-8.5" y1="58.84" x2="6.17" y2="58.84"/><line class="cls-2" x1="5" y1="23.33" x2="-9.67" y2="23.33"/><line class="cls-2" x1="5.5" y1="26.83" x2="-9.17" y2="26.83"/><line class="cls-2" x1="8.5" y1="28.83" x2="-6.17" y2="28.83"/><line class="cls-2" x1="-5.83" y1="18.67" x2="8.83" y2="18.67"/><line class="cls-2" x1="4.67" y1="32.84" x2="-10" y2="32.84"/><line class="cls-2" x1="8.67" y1="34.84" x2="-6" y2="34.84"/><line class="cls-2" x1="3" y1="37.17" x2="-11.67" y2="37.17"/><line class="cls-2" x1="-12.17" y1="48.51" x2="2.5" y2="48.51"/><line class="cls-2" x1="-8.83" y1="51.51" x2="5.83" y2="51.51"/><line class="cls-2" x1="-6.83" y1="47.17" x2="7.83" y2="47.17"/><line class="cls-2" x1="-6.83" y1="41.84" x2="7.83" y2="41.84"/><line class="cls-2" x1="-4.17" y1="44.51" x2="10.5" y2="44.51"/><line class="cls-2" x1="-2.17" y1="39.51" x2="12.5" y2="39.51"/><line class="cls-2" x1="-3.5" y1="7" x2="11.17" y2="7"/><line class="cls-2" x1="-5.17" y1="13.67" x2="9.5" y2="13.67"/><line class="cls-2" x1="58.5" y1="-12" x2="58.5" y2="2.67"/><line class="cls-2" x1="60" y1="-13.5" x2="60" y2="1.17"/><line class="cls-2" x1="65.33" y1="-8" x2="65.33" y2="6.67"/><line class="cls-2" x1="69.67" y1="-10.67" x2="69.67" y2="4"/><line class="cls-2" x1="19.33" y1="-13.17" x2="19.33" y2="1.5"/><line class="cls-2" x1="25.83" y1="-12.33" x2="25.83" y2="2.33"/><line class="cls-2" x1="33.17" y1="-12" x2="33.17" y2="2.67"/><line class="cls-2" x1="31" y1="-13.17" x2="31" y2="1.5"/><line class="cls-2" x1="37.17" y1="-14.33" x2="37.17" y2="0.33"/><line class="cls-2" x1="55" y1="-14.33" x2="55" y2="0.33"/><line class="cls-2" x1="48" y1="-6.33" x2="48" y2="8.33"/><line class="cls-2" x1="39" y1="-8.33" x2="39" y2="6.33"/><line class="cls-2" x1="13" y1="-7.17" x2="13" y2="7.5"/><line class="cls-2" x1="10.33" y1="-9.5" x2="10.33" y2="5.17"/><line class="cls-2" x1="63.33" y1="-3.67" x2="63.33" y2="11"/><line class="cls-2" x1="60.83" y1="-4.33" x2="60.83" y2="10.33"/><line class="cls-2" x1="37.5" y1="-3.67" x2="37.5" y2="11"/><line class="cls-2" x1="68.67" y1="-3.67" x2="68.67" y2="11"/><line class="cls-2" x1="43.17" y1="-5.5" x2="43.17" y2="9.17"/><line class="cls-2" x1="16.83" y1="-4.33" x2="16.83" y2="10.33"/><line class="cls-2" x1="1.83" y1="-4.5" x2="1.83" y2="10.17"/><line class="cls-2" x1="6.83" y1="-6.5" x2="6.83" y2="8.17"/><line class="cls-2" x1="34.83" y1="-3.67" x2="34.83" y2="11"/><line class="cls-2" x1="58.5" y1="-12" x2="58.5" y2="2.67"/><line class="cls-2" x1="33.17" y1="-12" x2="33.17" y2="2.67"/></pattern></defs><g id="Capa_2" data-name="Capa 2"><g id="piano"><path class="cls-3" d="M825.8,338.43s-28.43-15.68-18.63-56.85a71.72,71.72,0,0,0-13.72-47h14.71V220.81S770.91,117.9,625.85,91.43c0,0-79.39-9.8-150.94-64.69,0,0-75.62-22.56-165.71-13.6-82.08,8.17-155.82,53.77-200.79,122.93L60.3,210v24.5H83.83s-29.41,30.39-17.64,71.55c0,0-10.79,21.57-24.51,39.21,0,0-36.26,5.88-23.52,139.18H38.28v2.34h2.39l5.39,80.28H72.41l0-.34h2.39l5.88-79.94H126l11.26,167.56h39.2l0-.33h2.39l12.3-167.23H674.53l11.25,167.56H725l0-.33h2.4l12.3-167.23H778l5.4,80.48h26.35l0-.34h2.39l5.9-80.14h9.52v-2.34h20.76S858.14,376.66,825.8,338.43Z"/><path class="cls-4" d="M3.21,473.43H833.4s9.8-107.81-22.55-146c0,0-28.42-15.68-18.62-56.85a71.76,71.76,0,0,0-13.72-47H68.88s-29.4,30.38-17.64,71.55c0,0-10.78,21.56-24.5,39.2C26.74,334.25-9.53,340.14,3.21,473.43Z"/><polygon class="cls-5" points="25.76 410.71 25.76 473.44 815.07 473.44 814.77 410.71 25.76 410.71"/><path class="cls-5" d="M45.36,223.5H793.21V209.78S756,106.86,610.9,80.4c0,0-79.39-9.8-150.94-64.69,0,0-75.61-22.57-165.7-13.61C212.17,10.27,138.44,55.88,93.46,125l-48.1,74Z"/><polygon class="cls-5" points="113.36 473.44 176.43 473.44 163.96 643 124.75 643 113.36 473.44"/><polygon class="cls-5" points="661.87 473.44 724.93 473.44 712.46 643 673.26 643 661.87 473.44"/><polygon class="cls-6" points="90.94 325.92 745.67 325.92 789.78 399.43 789.78 412.18 45.85 407.27 45.85 396.49 90.94 325.92"/><rect class="cls-7" x="45.85" y="396.49" width="743.93" height="15.68"/><polygon class="cls-8" points="115.44 327.88 93.88 367.09 117.4 367.09 137.98 327.88 115.44 327.88"/><polygon class="cls-8" points="151.71 327.88 132.3 367.09 155.82 367.09 175.23 327.88 151.71 327.88"/><polygon class="cls-8" points="189.93 327.88 172.09 367.09 195.61 367.09 211.5 327.88 189.93 327.88"/><polygon class="cls-8" points="262.46 327.88 250.31 367.09 273.84 367.09 284.02 327.88 262.46 327.88"/><polygon class="cls-8" points="298.73 327.88 291.16 367.09 314.68 367.09 321.27 327.88 298.73 327.88"/><polygon class="cls-8" points="371.26 327.88 368.42 367.09 391.94 367.09 391.84 327.88 371.26 327.88"/><polygon class="cls-8" points="407.52 327.88 407.52 367.09 431.05 367.09 430.95 327.88 407.52 327.88"/><polygon class="cls-8" points="445.75 327.88 445.75 367.09 469.27 367.09 467.31 327.88 445.75 327.88"/><polygon class="cls-8" points="517.3 327.88 524.16 367.09 547.68 367.09 539.84 327.88 517.3 327.88"/><polygon class="cls-8" points="555.52 327.88 565.76 367.09 589.28 367.09 576.11 326.9 555.52 327.88"/><polygon class="cls-8" points="627.08 327.88 642.46 367.09 668.16 366.59 648.86 326.4 627.08 327.88"/><polygon class="cls-8" points="664.82 327.85 680.2 367.05 705.9 366.56 685.88 327.88 664.82 327.85"/><polygon class="cls-8" points="700.59 326.9 720.38 366.07 746.08 365.58 725.09 326.9 700.59 326.9"/><polygon class="cls-5" points="25.88 441.75 68.27 441.75 59.89 555.72 33.54 555.72 25.88 441.75"/><polygon class="cls-5" points="763.22 441.95 805.61 441.95 797.23 555.92 770.88 555.92 763.22 441.95"/><polygon class="cls-9" points="23.34 413.04 23.34 475.77 812.65 475.77 812.35 413.04 23.34 413.04"/><polygon class="cls-9" points="110.95 473.77 174.01 473.77 161.54 643.34 122.33 643.34 110.95 473.77"/><polygon class="cls-9" points="659.45 473.77 722.51 473.77 710.04 643.34 670.84 643.34 659.45 473.77"/><polygon class="cls-9" points="23.46 442.09 65.85 442.09 57.47 556.06 31.12 556.06 23.46 442.09"/><polygon class="cls-9" points="760.8 442.29 803.19 442.29 794.81 556.26 768.46 556.26 760.8 442.29"/><path class="cls-9" d="M48.83,223.9H796.68V210.18S759.44,107.26,614.38,80.8c0,0-79.4-9.8-150.95-64.69,0,0-75.61-22.56-165.7-13.6-82.09,8.16-155.82,53.77-200.8,122.93l-48.1,74Z"/></g></g></svg>