<?xml version="1.0" encoding="UTF-8"?>
<svg id="Capa_2" data-name="Capa 2" xmlns="http://www.w3.org/2000/svg" viewBox="0 0 113.58 110.94">
  <defs>
    <style>
      .cls-1 {
        fill: #ff7900;
      }

      .cls-1, .cls-2 {
        stroke-width: 0px;
      }

      .cls-2 {
        fill: #fff;
      }
    </style>
  </defs>
  <g id="Capa_1-2" data-name="Capa 1">
    <g>
      <ellipse class="cls-1" cx="56.79" cy="55.47" rx="56.79" ry="55.47"/>
      <path id="CUSTOM" class="cls-2" d="m94.6,48.82s0,0,0,0L61.19,15.42c-1.42-1.42-3.32-2.21-5.33-2.21s-3.91.78-5.33,2.21L17.15,48.8s-.02.02-.03.03c-2.92,2.94-2.92,7.71.01,10.64,1.34,1.34,3.11,2.12,5,2.2.08,0,.15.01.23.01h1.33v24.58c0,4.86,3.96,8.82,8.82,8.82h13.07c1.33,0,2.4-1.07,2.4-2.4v-19.27c0-2.22,1.81-4.03,4.03-4.03h7.71c2.22,0,4.03,1.81,4.03,4.03v19.27c0,1.32,1.07,2.4,2.4,2.4h13.07c4.87,0,8.82-3.96,8.82-8.82v-24.58h1.23c2.01,0,3.91-.78,5.33-2.21,2.94-2.94,2.94-7.72,0-10.66Zm-3.4,7.26c-.52.52-1.21.8-1.94.8h-3.63c-1.33,0-2.4,1.07-2.4,2.4v26.98c0,2.22-1.81,4.02-4.03,4.02h-10.67v-16.87c0-4.86-3.96-8.82-8.82-8.82h-7.71c-4.87,0-8.82,3.96-8.82,8.82v16.87h-10.67c-2.22,0-4.03-1.81-4.03-4.02v-26.98c0-1.33-1.07-2.4-2.4-2.4h-3.57s-.07,0-.11,0c-.71-.01-1.39-.3-1.89-.8-1.07-1.07-1.07-2.81,0-3.88,0,0,0,0,0,0h0S53.93,18.81,53.93,18.81c.52-.52,1.21-.8,1.94-.8s1.42.28,1.94.8l33.39,33.39s.01.01.02.01c1.06,1.07,1.06,2.81,0,3.87Z"/>
    </g>
  </g>
</svg>