<?xml version="1.0" encoding="UTF-8"?>
<svg id="Capa_2" data-name="Capa 2" xmlns="http://www.w3.org/2000/svg" version="1.1" viewBox="0 0 135 131">
  <defs>
    <style>
      .cls-1 {
        fill: #e6e6e6;
      }

      .cls-1, .cls-2 {
        stroke-width: 0px;
      }

      .cls-2 {
        fill: #ff7900;
      }
    </style>
  </defs>
  <g id="indice_e_introduccion" data-name="indice e introduccion">
    <g>
      <path class="cls-2" d="M122,70c0,30.4-24.6,55-55,55S12,100.4,12,70,36.6,15,67,15s55,24.6,55,55Z"/>
      <g>
        <path class="cls-1" d="M61.9,44.6l-13.7,10.3h-12.5c-2.1,0-3.8,1.7-3.8,3.8v26.2c0,2.1,1.7,3.8,3.8,3.8h12.5l13.7,10.3c2.5,1.9,6,.1,6-3v-48.2c0-3.1-3.6-4.9-6-3h0Z"/>
        <path class="cls-1" d="M80.3,50.7c-1.7-1.7-4.5-1.7-6.2,0s-1.7,4.5,0,6.2c8.1,8.1,8.1,21.4,0,29.5-1.7,1.7-1.7,4.5,0,6.2.9.9,2,1.2,3.1,1.2s2.3-.4,3.1-1.3c11.7-11.5,11.7-30.3,0-41.8h0Z"/>
        <path class="cls-1" d="M85.2,40.9c-1.7,1.7-1.7,4.5,0,6.2,6.6,6.6,10.2,15.3,10.2,24.6s-3.6,18-10.2,24.6-1.7,4.5,0,6.2c.9.9,2,1.3,3.1,1.3s2.3-.4,3.1-1.2c8.2-8.2,12.8-19.2,12.8-30.8s-4.5-22.5-12.8-30.8c-1.6-1.8-4.4-1.8-6.1,0h0Z"/>
      </g>
    </g>
  </g>
</svg>