<svg xmlns="http://www.w3.org/2000/svg" viewBox="0 0 435 484.69"><defs><style>.cls-1{fill:#f8ff97;}.cls-2{fill:#400000;}</style></defs><g id="Capa_2" data-name="Capa 2"><g id="candelabro"><path class="cls-1" d="M135.51,325.35v25.17h13.78c0-8.47,0-16.9,0-25.37,0-1.83-.28-3.23-2.55-3.46,3.85-5.88,5.58-12,3.9-18.68-1.3-5.11-3-10.07-4.62-15.07-1.11-3.32-2.41-6.6-3.57-9.77-1.82,4.85-3.84,9.72-5.48,14.69a70.63,70.63,0,0,0-3.26,12.55,21.77,21.77,0,0,0,4.61,16.41C135.66,321.79,135.51,323.46,135.51,325.35Z"/><path class="cls-2" d="M136.67,353H110.91c0,9.92,9,18.38,21.39,21.41a42.47,42.47,0,0,0,10.16,1.21,41.77,41.77,0,0,0,15.16-2.78C167.34,369,174,361.5,174,353H136.67Z"/><path class="cls-1" d="M80.82,300.5c-2.06.05-2.16,1.6-2.16,3.33v28.83H92.43V304.4c0-1.88,0-3.81-2.54-3.94.86-1.75,1.82-3.32,2.54-5,2.85-6.36,2.26-12.81.14-19.16-1.82-5.54-3.94-10.93-6-16.42-.44-1.16-.77-2.31-1.3-3.9-.53,2-.77,3.42-1.26,4.77-1.68,4.67-3.56,9.24-5.24,13.92-2,5.53-2.94,11.26-1.49,17C78.09,294.68,79.62,297.52,80.82,300.5Z"/><path class="cls-1" d="M27.19,349c-2.05,0-2.15,1.57-2.15,3.31v28.84H38.8V352.88c0-1.88,0-3.8-2.55-3.95.86-1.72,1.83-3.33,2.55-5,2.84-6.36,2.26-12.81.14-19.16-1.83-5.54-3.94-10.93-6-16.42-.43-1.15-.76-2.31-1.29-3.9-.54,2-.77,3.42-1.26,4.77-1.68,4.66-3.56,9.24-5.24,13.91-2,5.53-2.93,11.26-1.49,17C24.51,343.15,26.05,346,27.19,349Z"/><path class="cls-2" d="M34.9,406c15.85-1.2,28.16-10.83,28.16-22.48H0c0,11.89,12.76,21.61,29,22.53.86,0,1.68.09,2.55.09C32.69,406.17,33.78,406.12,34.9,406Z"/><path class="cls-1" d="M285.66,325.15c0,8.47,0,16.9,0,25.37h13.77V325.35c0-1.89-.14-3.56-2.83-3.53a21.81,21.81,0,0,0,4.61-16.41A69.81,69.81,0,0,0,298,292.86c-1.63-5-3.66-9.84-5.49-14.69-1.14,3.17-2.45,6.45-3.56,9.77-1.64,5-3.32,10-4.62,15.07-1.69,6.64.05,12.8,3.9,18.68C286,321.92,285.66,323.32,285.66,325.15Z"/><path class="cls-2" d="M277.39,372.82a41.74,41.74,0,0,0,15.17,2.78,42.57,42.57,0,0,0,10.15-1.21c12.42-3,21.38-11.49,21.38-21.41H261C261,361.5,267.67,369,277.39,372.82Z"/><path class="cls-1" d="M345.13,300.46c-2.55.13-2.55,2.06-2.55,3.94v28.26h13.76V303.83c0-1.73-.1-3.28-2.17-3.33,1.22-3,2.74-5.82,3.52-8.8,1.45-5.78.49-11.51-1.49-17-1.68-4.68-3.56-9.25-5.26-13.92-.47-1.35-.71-2.8-1.24-4.77-.53,1.59-.87,2.74-1.3,3.9-2,5.49-4.14,10.88-6,16.42-2.12,6.35-2.69,12.8.15,19.16C343.29,297.14,344.26,298.71,345.13,300.46Z"/><path class="cls-1" d="M398.76,348.93c-2.56.15-2.56,2.07-2.56,3.95v28.26H410V352.3c0-1.74-.1-3.27-2.16-3.31,1.15-3,2.7-5.84,3.51-8.82,1.45-5.78.48-11.51-1.48-17-1.7-4.67-3.59-9.25-5.26-13.91-.48-1.35-.72-2.8-1.26-4.77-.52,1.59-.86,2.75-1.3,3.9-2,5.49-4.13,10.88-6,16.42-2.11,6.35-2.69,12.8.15,19.16C396.93,345.6,397.89,347.21,398.76,348.93Z"/><path class="cls-2" d="M409.92,383.55h-38c0,11.65,12.32,21.28,28.16,22.48,1.11.09,2.22.14,3.36.14.88,0,1.7-.05,2.56-.09,16.23-.92,29-10.64,29-22.53Z"/><path class="cls-2" d="M399.86,408.44c-1.64,8.47-5.16,15.78-12.46,21.08-5.92,4.28-13.34,6.26-17.87,6,1.45-2,3.19-3.79,4.29-6,3.56-7,2.26-13.82-1.84-20.17a17.47,17.47,0,0,0-10.3-7.61c-5.19-1.49-11.4.77-14,5-4,6.7-2.55,12.47,2,16.22,3.27,2.7,6.79,2.76,9.57.4a6.14,6.14,0,0,0,1.46-1.55.92.92,0,0,1,.14-.14,3.27,3.27,0,0,0,.73-1.74c1-3.79-1-8.66-6.13-8.66a6.06,6.06,0,0,0-5.67,3.42c-.3-1.79.33-3.42,1.63-5.35,2.47-3.66,6.07-4.75,9.88-3.18a16.13,16.13,0,0,1,10.15,14.55c0,7.13-4,12.71-12.13,14.39-5.49,1.15-10.46-1-15.31-2.88-8.95-3.43-16.71-9-24-15.12l-5.63-4.77c13.67.44,26.1-8.8,32.07-20.84,4.95-10,6.3-20.75,6-31.64,0-.37,0-.82,0-1.2s-.06-.81-.06-1.2c16.38-.82,29.33-10.59,29.33-22.58H318.55c0,11.66,12.23,21.18,28,22.49a9.32,9.32,0,0,0,.05,1.19v1.21c.14,12.13-1.35,24.36-8.44,34.42-4.12,5.88-10.05,10.59-17.22,11.94-6,1.16-12.38.25-17.28-3.41-1.26-2.28-.58-5,1.16-7.76,2.31-3.66,7.83-4.86,11.78-3a1,1,0,0,1,.39.24,7.33,7.33,0,0,0-2.4-.44c-7,0-8.28,9-3.66,12.14a4.5,4.5,0,0,0,1.93,1c3.6.67,6.83.14,9.13-3s2.32-9,0-11.41a12.35,12.35,0,0,0-5.44-3.41c-5.53-1.3-12.62.53-15.78,5.87a35.59,35.59,0,0,0-2.28,5.54c-.09-.1-4.13-3.27-4.13-3.27V379.17a39.13,39.13,0,0,1-5.49-.15v12.57c-2.21-1.74-4.33-3.28-5.93-4.68a144.32,144.32,0,0,1-27.82-33.7,182.38,182.38,0,0,1-15-31.76,236,236,0,0,1-9.73-35.92c-1.15-5.87-1.64-11.9-2.51-17.81-2.12-14.25-2-28.6-1.87-42.94,0-2.36.33-4.67.53-7.23,2.59.43,2.84-1,2.79-3.07-.09-4.77-.06-9.49-.06-14.6a24.54,24.54,0,0,1-3.85,0,2.39,2.39,0,0,1-1.68-1.15c-1.06-2.69.53-7.12,3.13-9A9.7,9.7,0,0,1,237,189.2a4.68,4.68,0,0,1,.92,6.6,4.59,4.59,0,0,0-3-3,4.38,4.38,0,0,0-3.66.54s-.05,0-.1.09a3.79,3.79,0,0,0-.77.58,2.1,2.1,0,0,0-.53.76,1.91,1.91,0,0,0-.43.87,4.47,4.47,0,0,0,4.38,5.26c5.49.42,7.8-1.88,8.81-6.89.83-4.1-2.21-8.19-6.45-9.25-5-1.25-9.39,0-13.47,3.9,0-2.89.18-5.59.13-8.23a4.2,4.2,0,0,0,1.3-3V163.49a4.23,4.23,0,0,0-3.94-4.24V155.5a4.21,4.21,0,0,0,3.94-4.23V137.4a4.23,4.23,0,0,0-3.94-4.24v-4.33a4.22,4.22,0,0,0,3.94-4.23V110.74a4.22,4.22,0,0,0-3.94-4.25v-4.33a4.21,4.21,0,0,0,3.94-4.24V84.05a4.22,4.22,0,0,0-3.94-4.23V75.49a4.22,4.22,0,0,0,3.94-4.24V57.39a4.22,4.22,0,0,0-3.94-4.24V48.82a4.21,4.21,0,0,0,3.94-4.23V31.06A4.21,4.21,0,0,0,221,27,18.58,18.58,0,0,0,222,20.41v-.23a37.51,37.51,0,0,0,13.29-3.9c4.72-2.45,7.21-6.17,10.3-10A14.36,14.36,0,0,1,251.2,2c5.2-2.22.39-2-4.13-2H188c-4.53,0-9.35-.25-4.15,2a14.21,14.21,0,0,1,5.58,4.33c3.09,3.8,5.59,7.52,10.31,10a37.5,37.5,0,0,0,13.3,3.9v.23A19.07,19.07,0,0,0,214,27a4.22,4.22,0,0,0-3.19,4.09V44.59a4.22,4.22,0,0,0,4,4.23v4.33a4.23,4.23,0,0,0-4,4.24V71.25a4.23,4.23,0,0,0,4,4.24v4.33a4.23,4.23,0,0,0-4,4.23V97.92a4.22,4.22,0,0,0,4,4.24v4.33a4.23,4.23,0,0,0-4,4.25V124.6a4.23,4.23,0,0,0,4,4.23v4.33a4.24,4.24,0,0,0-4,4.24v13.87a4.22,4.22,0,0,0,4,4.23v3.75a4.24,4.24,0,0,0-4,4.24v13.86a4.21,4.21,0,0,0,1.31,3c0,2.64.15,5.34.15,8.23-4.1-3.9-8.49-5.15-13.49-3.9-4.23,1.06-7.26,5.15-6.44,9.25,1,5,3.31,7.31,8.8,6.89a4.47,4.47,0,0,0,4.38-5.26,1.91,1.91,0,0,0-.43-.87,2.07,2.07,0,0,0-.52-.76,3.62,3.62,0,0,0-.79-.58s-.08,0-.08-.09a4.39,4.39,0,0,0-3.66-.54,4.57,4.57,0,0,0-3,3,4.66,4.66,0,0,1,.92-6.6,9.69,9.69,0,0,1,10.15.49c2.6,1.87,4.18,6.3,3.13,9a2.41,2.41,0,0,1-1.68,1.15,24.49,24.49,0,0,1-3.85,0c0,5.11,0,9.83,0,14.6-.05,2.06.2,3.5,2.78,3.07.21,2.56.54,4.87.54,7.23.09,14.34.24,28.69-1.88,42.94-.87,5.91-1.35,11.94-2.51,17.81a237.07,237.07,0,0,1-9.71,35.92,183.2,183.2,0,0,1-15,31.76,143.82,143.82,0,0,1-27.82,33.7c-1.59,1.4-3.7,2.94-5.93,4.68V379a39,39,0,0,1-5.48.15v16.08s-4.05,3.17-4.14,3.27a36.52,36.52,0,0,0-2.26-5.54c-3.18-5.34-10.26-7.17-15.79-5.87a12.27,12.27,0,0,0-5.45,3.41c-2.35,2.41-2.4,8.14,0,11.41s5.54,3.71,9.16,3a4.64,4.64,0,0,0,1.92-1c4.62-3.13,3.37-12.14-3.66-12.14a7.49,7.49,0,0,0-2.41.44,1.28,1.28,0,0,1,.39-.24c3.95-1.88,9.48-.68,11.8,3,1.73,2.8,2.4,5.48,1.15,7.76-4.91,3.66-11.27,4.57-17.29,3.41-7.17-1.35-13.09-6.06-17.23-11.94-7.09-10.06-8.58-22.29-8.42-34.42v-1.21c0-.37,0-.8,0-1.19,15.76-1.31,28-10.83,28-22.49H53.39c0,12,13,21.76,29.32,22.58,0,.39,0,.82,0,1.2s0,.83,0,1.2c-.33,10.89,1,21.63,6,31.64,6,12,18.39,21.28,32.06,20.84L115,417.2c-7.32,6.16-15.07,11.69-24,15.12-4.87,1.87-9.82,4-15.31,2.88-8.08-1.68-12.19-7.26-12.14-14.39a16.14,16.14,0,0,1,10.17-14.55c3.8-1.57,7.42-.48,9.85,3.18,1.31,1.93,1.93,3.56,1.66,5.35a6.1,6.1,0,0,0-5.7-3.42c-5.15,0-7.16,4.87-6.1,8.66a3.24,3.24,0,0,0,.71,1.74l.15.14a6.1,6.1,0,0,0,1.45,1.55c2.79,2.36,6.31,2.3,9.58-.4,4.58-3.75,6.07-9.52,2-16.22-2.6-4.28-8.81-6.54-14-5A17.54,17.54,0,0,0,63,409.4c-4.09,6.35-5.39,13.14-1.83,20.17a45.09,45.09,0,0,0,4.28,6c-4.52.25-11.94-1.73-17.85-6-7.32-5.3-10.83-12.61-12.48-21.08-1.24.1-2.5.14-3.75.14-.73,0-1.49,0-2.22,0,1.35,8.66,4.61,16.55,11.22,22.81a34.19,34.19,0,0,0,18.68,9.43,94.87,94.87,0,0,0,18.82,1,44.39,44.39,0,0,0,18-5c5.59-2.9,11-6.08,15.89-8.77.92,2.89,1.51,6.36,3,9.29,3.42,6.45,9.19,9.63,16.31,10.3,4.68.43,8.91-.58,12.28-4,5.92-6.13,3.61-17.44-4-20.23a11.42,11.42,0,0,0-5.45-.67,6.06,6.06,0,0,0-6.1,4.95,5.72,5.72,0,0,0,0,3.28,6.06,6.06,0,0,0,6.21,5c4.23,0,6.35-3.28,6.4-6.55a3.36,3.36,0,0,1,.62.72,8.29,8.29,0,0,1,.05,9.06,9.51,9.51,0,0,1-9.63,4.18,16.77,16.77,0,0,1-12.42-7.41c-2.36-3.61-3.28-7.66-1.69-11.6.82-2,3-3.52,4.73-5.06,2.69-2.36,5.53-4.58,8.28-6.89,3.84-3.31,7.69-6.65,11.93-10.35.57,1.73,1.06,3.23,1.65,4.68,2.59,6.68,6.73,11.79,14.14,13.52,6.6,1.54,12.57.83,17.24-4.18,1.72,1.82,3.13,3.89,5.05,5.34,4.67,3.42,14.74,3.12,18.59-3.85,1.63-3,.38-7.9-2.74-10.65a6.46,6.46,0,0,0-3.52-1.53,7.43,7.43,0,0,0-1.88-.25c-8.52,0-8.52,13.24,0,13.24a6.64,6.64,0,0,0,2.93-.62c-.14.1-.23.2-.37.29-5.25,3.66-12.76,1.39-14.36-5a2.5,2.5,0,0,1-.13-1.53c3-6.93,6-13.82,8.94-20.76.06-.19.3-.33.49-.56,11.26,4.47,16.5,13.52,18.39,24.64a8,8,0,0,0-.82,2.36c-.1,4.28-.19,8.56,0,12.85a2.68,2.68,0,0,1-1.7,2.75c-3.16,1.72-6.34,3.42-10.14,3.08-1.79-.2-3.61.37-4.1,2.35a4,4,0,0,0,.87,3.08,3.26,3.26,0,0,0,1.44.88h50.36a3.35,3.35,0,0,0,1.45-.88,4,4,0,0,0,.86-3.08c-.48-2-2.31-2.55-4.08-2.35-3.81.34-7-1.36-10.17-3.08a2.7,2.7,0,0,1-1.69-2.75c.19-4.29.11-8.57,0-12.85a7.7,7.7,0,0,0-.81-2.36c1.87-11.12,7.13-20.17,18.39-24.64.19.23.44.37.48.56,3,6.94,6,13.83,9,20.76a2.45,2.45,0,0,1-.15,1.53c-1.59,6.36-9.1,8.63-14.34,5-.15-.09-.25-.19-.4-.29a6.77,6.77,0,0,0,2.95.62c8.52,0,8.52-13.24,0-13.24a7.49,7.49,0,0,0-1.88.25,6.43,6.43,0,0,0-3.51,1.53c-3.13,2.75-4.39,7.61-2.74,10.65,3.84,7,13.9,7.27,18.57,3.85,1.93-1.45,3.32-3.52,5.06-5.34,4.67,5,10.64,5.72,17.22,4.18,7.43-1.73,11.57-6.84,14.16-13.52.58-1.45,1.07-3,1.64-4.68,4.24,3.7,8.09,7,11.94,10.35,2.75,2.31,5.58,4.53,8.28,6.89,1.73,1.54,3.89,3.08,4.72,5.06,1.58,3.94.67,8-1.69,11.6a16.75,16.75,0,0,1-12.41,7.41,9.53,9.53,0,0,1-9.64-4.18,8.28,8.28,0,0,1,.06-9.06,3.66,3.66,0,0,1,.62-.72c.05,3.27,2.16,6.55,6.41,6.55a6.07,6.07,0,0,0,6.2-5,5.81,5.81,0,0,0,0-3.28,6.08,6.08,0,0,0-6.11-4.95,11.33,11.33,0,0,0-5.43.67c-7.66,2.79-10,14.1-4.06,20.23,3.37,3.45,7.62,4.46,12.28,4,7.13-.67,12.91-3.85,16.32-10.3,1.54-2.93,2.12-6.4,3-9.29,4.91,2.69,10.3,5.87,15.89,8.77a44.39,44.39,0,0,0,18.05,5,94.83,94.83,0,0,0,18.82-1,34.16,34.16,0,0,0,18.68-9.43c6.6-6.26,9.88-14.15,11.22-22.81-.72,0-1.49,0-2.21,0C402.37,408.58,401.12,408.54,399.86,408.44Zm-227.18,1.44c-3.75,7.18-14,5.77-18.19,1.84-3.66-3.48-5.3-7.82-6.06-12.57a2.08,2.08,0,0,1,.46-1.74c7-4.62,14.11-8.85,22.73-9.29,3.37-.2,6.79-.06,11.08-.06C179.13,395.77,176.2,403,172.68,409.88ZM187.84,381a3.21,3.21,0,0,1-3.9,1.88c-6.73-1.55-13.48-1.11-20.45.47,23.06-23.87,35.86-52.81,43.81-84.29-.29,3.36-.49,6.74-.92,10.07-.47,4.13-1.15,8.32-1.83,12.47-1,6-1.59,12.07-3,17.95-2.22,9.28-4.72,18.48-7.57,27.58C192.51,371.84,190,376.32,187.84,381Zm5.06,4.43a9,9,0,0,1,12.66,2.11c3.8,5.3,4.86,11.51,5.54,17.82C207.4,396.55,201.86,389.46,192.9,385.38Zm19.65,1.73c-4-6.78-9.39-10.31-17.43-9.2a160.39,160.39,0,0,0,11.41-39c2.21-13.52,4.23-27.1,6-38.61ZM219,176.63v.29h-3V164.16h3Zm0-25.8h-3V138.12h3Zm0-26.63h-3V111.5h3Zm0-26.66h-3V84.83h3ZM219,71h-3V58.26h3Zm0-26.62h-3V31.63h3Zm3.46,255.92c1.79,11.51,3.81,25.09,6,38.61a159.93,159.93,0,0,0,11.4,39c-8-1.11-13.47,2.42-17.43,9.2Zm1.45,105.05c.68-6.31,1.73-12.52,5.54-17.82a9,9,0,0,1,12.66-2.11C233.15,389.46,227.61,396.55,223.9,405.31ZM247.15,381c-2.16-4.63-4.67-9.11-6.15-13.87q-4.26-13.65-7.56-27.58c-1.4-5.88-2-12-3-17.95-.67-4.15-1.35-8.34-1.82-12.47-.44-3.33-.63-6.71-.92-10.07,7.94,31.48,20.75,60.42,43.8,84.29-7-1.58-13.7-2-20.46-.47A3.22,3.22,0,0,1,247.15,381Zm39.44,18.2c-.78,4.75-2.41,9.09-6.07,12.57-4.24,3.93-14.44,5.34-18.2-1.84-3.52-6.92-6.45-14.11-10-21.82,4.28,0,7.69-.14,11.08.06,8.61.44,15.78,4.67,22.71,9.29A2.06,2.06,0,0,1,286.59,399.15Z"/><path class="cls-2" d="M246.2,444.44H188.81c-3.22,0-5.53.25-1.64,3.28a18.19,18.19,0,0,1,5.07,7.17c2.79,6.31,5,12.43,9.33,16.46a24.07,24.07,0,0,0,10.44,6c.1,0,.19,0,.3.09a20.71,20.71,0,0,0,5.19.68,21,21,0,0,0,5.21-.68,2.29,2.29,0,0,1,.28-.09,24.1,24.1,0,0,0,10.45-6c4.28-4,6.54-10.15,9.34-16.46a18.06,18.06,0,0,1,5.05-7.17C251.73,444.69,249.41,444.44,246.2,444.44Z"/><path class="cls-2" d="M217.5,480.59a23.49,23.49,0,0,1-5.25-.62c-.09,0-.24,0-.34-.09a5.65,5.65,0,0,0,11.17,0c-.09.05-.24.05-.33.09A23.77,23.77,0,0,1,217.5,480.59Z"/></g></g></svg>