<svg xmlns="http://www.w3.org/2000/svg" viewBox="0 0 124.85 90.81"><defs><style>.cls-1{fill:#fff;}.cls-2{fill:#ff7900;}</style></defs><g id="Capa_2" data-name="Capa 2"><g id="indice_e_introduccion" data-name="indice e introduccion"><path class="cls-1" d="M52.13,90.81A15.31,15.31,0,0,0,64.35,66.28l-2.29-3L110,61a15.59,15.59,0,0,0,0-31.15l-48-2.28,2.28-3A15.29,15.29,0,0,0,52.15,0a15.44,15.44,0,0,0-9.24,3.09l-35,26.5A19.81,19.81,0,0,0,4,57.36a20.08,20.08,0,0,0,3.82,3.83L42.91,87.71a15.15,15.15,0,0,0,9.22,3.1Z"/><path class="cls-2" d="M13,36.35,48,9.86a6.82,6.82,0,0,1,9.56,9.56l-12,15.84,64,3a7.12,7.12,0,0,1,0,14.22l-64,3,12,15.84A6.83,6.83,0,0,1,48,81L13,54.45a11.75,11.75,0,0,1-2.2-2.2A11.35,11.35,0,0,1,13,36.35Z"/></g></g></svg>