<svg xmlns="http://www.w3.org/2000/svg" viewBox="0 0 124.85 90.81"><defs><style>.cls-1{fill:#fff;}.cls-2{fill:#ff7900;}</style></defs><g id="Capa_2" data-name="Capa 2"><g id="indice_e_introduccion" data-name="indice e introduccion"><path class="cls-1" d="M72.72,90.81A15.31,15.31,0,0,1,60.51,66.28l2.28-3L14.86,61a15.59,15.59,0,0,1,0-31.15l48-2.28-2.28-3a15.31,15.31,0,0,1,3-21.44A15.17,15.17,0,0,1,72.71,0a15.43,15.43,0,0,1,9.23,3.09l35,26.5a19.83,19.83,0,0,1,3.86,27.77A20.67,20.67,0,0,1,117,61.19L82,87.71a15.16,15.16,0,0,1-9.23,3.1Z"/><path class="cls-2" d="M111.87,36.35l-35-26.49a6.83,6.83,0,0,0-9.57,9.56l12,15.84-64,3a7.12,7.12,0,0,0,0,14.22l64,3-12,15.84A6.83,6.83,0,0,0,76.84,81l35-26.5a11.8,11.8,0,0,0,2.21-2.2A11.35,11.35,0,0,0,111.87,36.35Z"/></g></g></svg>