<svg xmlns="http://www.w3.org/2000/svg" viewBox="0 0 87.6 208.34"><defs><style>.cls-1{isolation:isolate;}.cls-2,.cls-3,.cls-4{fill:#7f1710;stroke:#010202;stroke-miterlimit:10;}.cls-3,.cls-4{opacity:0.5;}.cls-3{mix-blend-mode:multiply;}.cls-4{mix-blend-mode:screen;}</style></defs><g class="cls-1"><g id="Capa_2" data-name="Capa 2"><g id="puertas"><rect class="cls-2" x="-59.87" y="60.87" width="207.34" height="86.6" transform="translate(147.97 60.37) rotate(90)"/><rect class="cls-2" x="2.25" y="3.2" width="83.11" height="204.63"/><rect class="cls-2" x="12.3" y="22.76" width="26.52" height="72.11"/><rect class="cls-2" x="15.79" y="26.92" width="19.53" height="63.79"/><polygon class="cls-2" points="12.3 22.76 15.79 26.91 35.32 26.91 38.81 22.76 12.3 22.76"/><polygon class="cls-2" points="38.81 94.86 35.32 90.7 15.79 90.7 12.3 94.86 38.81 94.86"/><rect class="cls-2" x="48.89" y="22.76" width="26.52" height="72.11"/><rect class="cls-2" x="52.39" y="26.92" width="19.53" height="63.79"/><polygon class="cls-2" points="48.89 22.76 52.38 26.91 71.91 26.91 75.41 22.76 48.89 22.76"/><polygon class="cls-2" points="75.41 94.86 71.91 90.7 52.38 90.7 48.89 94.86 75.41 94.86"/><rect class="cls-2" x="12.3" y="125.61" width="26.52" height="72.11"/><rect class="cls-2" x="15.79" y="129.77" width="19.53" height="63.79"/><polygon class="cls-2" points="12.3 125.61 15.79 129.76 35.32 129.76 38.81 125.61 12.3 125.61"/><polygon class="cls-2" points="38.81 197.71 35.32 193.55 15.79 193.55 12.3 197.71 38.81 197.71"/><rect class="cls-2" x="48.89" y="125.61" width="26.52" height="72.11"/><rect class="cls-2" x="52.39" y="129.77" width="19.53" height="63.79"/><polygon class="cls-2" points="48.89 125.61 52.38 129.76 71.91 129.76 75.41 125.61 48.89 125.61"/><polygon class="cls-2" points="75.41 197.71 71.91 193.55 52.38 193.55 48.89 197.71 75.41 197.71"/><path class="cls-2" d="M9.18,119.76h0a2.8,2.8,0,0,1-2.47-3V105h4.94v11.77A2.8,2.8,0,0,1,9.18,119.76Z"/><path class="cls-3" d="M11.65,108.24v1.52A3.32,3.32,0,0,1,9.57,111l-.39,0a3.17,3.17,0,0,1-2.46-1.23v-1.52a3.17,3.17,0,0,0,2.46,1.23,2.55,2.55,0,0,0,.39,0A3.32,3.32,0,0,0,11.65,108.24Z"/><path class="cls-2" d="M10,118H8.36l.06-.42.14-1.13L8.74,115a.93.93,0,0,1-.27-.67.79.79,0,0,1,.7-.86.79.79,0,0,1,.71.86.93.93,0,0,1-.27.67l.1.77.18,1.39Z"/><path class="cls-3" d="M10,118H8.36l.2-1.55a3,3,0,0,0,.73.56,3.37,3.37,0,0,0,.6.23Z"/><path class="cls-3" d="M10,118H8.36l.06-.42a5.12,5.12,0,0,0,.71-.76,4.3,4.3,0,0,0,.58-1l.18,1.39Z"/><path class="cls-2" d="M12.73,105.11c0,2.25-1.39,4.11-3.17,4.34a2.36,2.36,0,0,1-.38,0c-2,0-3.54-2-3.54-4.36s1.58-4.37,3.54-4.37a2.39,2.39,0,0,1,.66.09A4.21,4.21,0,0,1,12.73,105.11Z"/><path class="cls-4" d="M7.2,102.59a2.18,2.18,0,0,1,1.76-1,.91.91,0,0,1,.54.19.76.76,0,0,1,.26.59,1.27,1.27,0,0,1-.24.6l-1.38,2.15a1.87,1.87,0,0,1-.67.72c-.6.29-1.21-.37-1.19-1.11A4.59,4.59,0,0,1,7.2,102.59Z"/><rect class="cls-2" x="31.95" y="106.88" width="26.41" height="7.59"/><rect class="cls-4" x="31.95" y="106.88" width="26.41" height="1.04"/><rect class="cls-3" x="33.13" y="107.96" width="24.05" height="5.44"/></g></g></g></svg>