<?xml version="1.0" encoding="UTF-8"?>
<svg id="Capa_2" data-name="Capa 2" xmlns="http://www.w3.org/2000/svg" viewBox="0 0 124.85 90.81">
  <defs>
    <style>
      .cls-1 {
        fill: #ff7900;
      }

      .cls-1, .cls-2 {
        stroke-width: 0px;
      }

      .cls-2 {
        fill: #fff;
      }
    </style>
  </defs>
  <g id="indice_e_introduccion" data-name="indice e introduccion">
    <g>
      <path class="cls-2" d="M52.13,90.81c4.77,0,9.34-2.27,12.21-6.07,4.11-5.43,4.11-13.02,0-18.46l-2.29-3.03,47.94-2.27c8.59-.41,15.24-7.73,14.84-16.31-.38-8.05-6.75-14.43-14.81-14.84l-47.96-2.27,2.29-3.02c2.46-3.26,3.51-7.29,2.95-11.33-.56-4.05-2.67-7.64-5.93-10.1C58.69,1.07,55.5,0,52.15,0s-6.6,1.1-9.24,3.09L7.87,29.59c-4.22,3.19-6.95,7.84-7.68,13.09-.73,5.25.63,10.46,3.82,14.68,1.07,1.41,2.39,2.73,3.82,3.83l35.07,26.52c2.68,2.03,5.87,3.1,9.22,3.1h0Z"/>
      <path class="cls-1" d="M12.98,36.35L48.02,9.86c2.38-1.79,5.75-1.88,8.24,0,3.01,2.27,3.6,6.56,1.33,9.56l-11.98,15.84,63.99,3.03c3.61.18,6.6,3.08,6.77,6.77.19,3.93-2.85,7.26-6.77,7.45l-63.99,3.03,11.98,15.84c1.79,2.38,1.88,5.75,0,8.24-2.27,3.01-6.56,3.6-9.56,1.33L12.98,54.45c-.8-.61-1.57-1.37-2.21-2.21-3.78-5-2.79-12.12,2.21-15.9Z"/>
    </g>
  </g>
</svg>